<?xml version="1.0" encoding="utf-8"?>
<!-- Generator: Adobe Illustrator 18.1.1, SVG Export Plug-In . SVG Version: 6.00 Build 0)  -->
<!DOCTYPE svg PUBLIC "-//W3C//DTD SVG 1.1//EN" "http://www.w3.org/Graphics/SVG/1.1/DTD/svg11.dtd">
<svg version="1.1" id="Layer_1" xmlns="http://www.w3.org/2000/svg" xmlns:xlink="http://www.w3.org/1999/xlink" x="0px" y="0px"
	 viewBox="0 0 580 343" style="enable-background:new 0 0 580 343;" xml:space="preserve">
<style type="text/css">
	.st0{fill:none;}
	.st1{fill:#C49A6C;}
	.st2{fill:#A97C50;}
	.st3{fill:url(#New_Pattern);stroke:#FFFFFF;stroke-miterlimit:10;}
	.st4{fill:none;stroke:#FFFFFF;stroke-miterlimit:10;}
	.st5{fill:none;stroke:#FFFFFF;stroke-width:0.9848;stroke-miterlimit:10;}
	.st6{fill:none;stroke:#FFFFFF;stroke-width:0.9848;stroke-miterlimit:10;stroke-dasharray:12;}
</style>
<pattern  x="-77" y="-123" width="92.5" height="69.7" patternUnits="userSpaceOnUse" id="New_Pattern" viewBox="0 -69.7 92.5 69.7" style="overflow:visible;">
	<g>
		<polygon class="st0" points="0,-69.7 92.5,-69.7 92.5,0 0,0 		"/>
		<g>
			<polygon class="st1" points="92.5,-9.3 0,-9.3 0,-13.9 92.5,-13.9 			"/>
			<polygon class="st2" points="92.5,-4.6 0,-4.6 0,-9.3 92.5,-9.3 			"/>
			<polygon class="st1" points="92.5,0 0,0 0,-4.7 92.5,-4.7 			"/>
		</g>
		<g>
			<polygon class="st1" points="92.5,-23.2 0,-23.2 0,-27.9 92.5,-27.9 			"/>
			<polygon class="st2" points="92.5,-18.5 0,-18.5 0,-23.2 92.5,-23.2 			"/>
			<polygon class="st1" points="92.5,-13.9 0,-13.9 0,-18.6 92.5,-18.6 			"/>
		</g>
		<g>
			<polygon class="st1" points="92.5,-37.2 0,-37.2 0,-41.8 92.5,-41.8 			"/>
			<polygon class="st2" points="92.5,-32.5 0,-32.5 0,-37.2 92.5,-37.2 			"/>
			<polygon class="st1" points="92.5,-27.9 0,-27.9 0,-32.6 92.5,-32.6 			"/>
		</g>
		<g>
			<polygon class="st1" points="92.5,-51.1 0,-51.1 0,-55.8 92.5,-55.8 			"/>
			<polygon class="st2" points="92.5,-46.4 0,-46.4 0,-51.1 92.5,-51.1 			"/>
			<polygon class="st1" points="92.5,-41.8 0,-41.8 0,-46.5 92.5,-46.5 			"/>
		</g>
		<g>
			<polygon class="st1" points="92.5,-65.1 0,-65.1 0,-69.7 92.5,-69.7 			"/>
			<polygon class="st2" points="92.5,-60.4 0,-60.4 0,-65.1 92.5,-65.1 			"/>
			<polygon class="st1" points="92.5,-55.8 0,-55.8 0,-60.5 92.5,-60.5 			"/>
		</g>
	</g>
</pattern>
<rect x="10.4" y="9.2" class="st3" width="561.4" height="326"/>
<path class="st4" d="M10.4,38.5h83.3c0,0,92,39.3,92,134s-92,136-92,136H10.4"/>
<path class="st4" d="M571.7,38.5h-83.3c0,0-92,39.3-92,134s92,136,92,136h83.3"/>
<rect x="10.4" y="120.5" class="st4" width="113.3" height="104"/>
<line class="st4" x1="25.2" y1="154.8" x2="25.2" y2="191.5"/>
<line class="st4" x1="29" y1="172.5" x2="25.2" y2="172.5"/>
<circle class="st4" cx="34.1" cy="172.5" r="5.3"/>
<path class="st5" d="M123.7,132.8c22.1,0,40,17.9,40,40s-17.9,40-40,40"/>
<path class="st6" d="M123.7,212.8c-22.1,0-40-17.9-40-40s17.9-40,40-40"/>
<rect x="458.8" y="120.5" class="st4" width="113.3" height="104"/>
<line class="st4" x1="557.3" y1="154.8" x2="557.3" y2="191.5"/>
<line class="st4" x1="553.5" y1="172.5" x2="557.3" y2="172.5"/>
<circle class="st4" cx="548.4" cy="172.5" r="5.3"/>
<path class="st5" d="M458.8,132.8c-22.1,0-40,17.9-40,40s17.9,40,40,40"/>
<path class="st6" d="M458.8,212.8c22.1,0,40-17.9,40-40s-17.9-40-40-40"/>
<line class="st5" x1="291.4" y1="335.2" x2="291.4" y2="9.2"/>
<circle class="st5" cx="290.7" cy="172.8" r="10.8"/>
<circle class="st5" cx="290.7" cy="172.8" r="38.2"/>
<g>
</g>
<g>
</g>
<g>
</g>
<g>
</g>
<g>
</g>
<g>
</g>
</svg>
