<?xml version="1.0" encoding="utf-8"?>
<!-- Generator: Adobe Illustrator 18.1.1, SVG Export Plug-In . SVG Version: 6.00 Build 0)  -->
<!DOCTYPE svg PUBLIC "-//W3C//DTD SVG 1.1//EN" "http://www.w3.org/Graphics/SVG/1.1/DTD/svg11.dtd">
<svg version="1.1" id="Layer_1" xmlns="http://www.w3.org/2000/svg" xmlns:xlink="http://www.w3.org/1999/xlink" x="0px" y="0px"
	 viewBox="0 0 792 612" style="enable-background:new 0 0 792 612;" xml:space="preserve">
<style type="text/css">
	.st0{fill:#F7941E;stroke:#000000;stroke-width:5;stroke-miterlimit:10;}
	.st1{fill:none;stroke:#000000;stroke-width:5;stroke-linecap:round;stroke-miterlimit:10;}
</style>
<circle class="st0" cx="381.4" cy="297.1" r="266.4"/>
<path class="st1" d="M243.4,69.4c0,0,61.1-26.9,147.6,49c19.9,17.4,43.8,29.4,69.6,35.3l162,36.9 M116.2,274.6
	c0,0,30.2-55.2,169.2-49.7C424.6,230.2,646.1,325,646.1,325 M157,441.4c0,0,105.4-14.9,174-40.3c68.6-25.7,264-140.4,265.2,53.5
	 M476.2,50.2c0,0,66.2,47,87.5,149c13,62.3-3.7,127.2-44.5,176l-157,188"/>
</svg>
