<?xml version="1.0" encoding="utf-8"?>
<!-- Generator: Adobe Illustrator 18.1.1, SVG Export Plug-In . SVG Version: 6.00 Build 0)  -->
<!DOCTYPE svg PUBLIC "-//W3C//DTD SVG 1.1//EN" "http://www.w3.org/Graphics/SVG/1.1/DTD/svg11.dtd">
<svg version="1.1" id="Layer_1" xmlns="http://www.w3.org/2000/svg" xmlns:xlink="http://www.w3.org/1999/xlink" x="0px" y="0px"
	 viewBox="0 0 85 148.2" style="enable-background:new 0 0 85 148.2;" xml:space="preserve">
<style type="text/css">
	.st0{fill:#939598;stroke:#000000;stroke-width:0.5;stroke-miterlimit:10;}
	.st1{fill:#FFFFFF;stroke:#000000;stroke-width:0.5;stroke-miterlimit:10;}
	.st2{fill:none;stroke:#000000;stroke-width:0.5;stroke-miterlimit:10;}
	.st3{fill:#C2928B;stroke:#000000;stroke-width:0.5;stroke-miterlimit:10;}
	.st4{stroke:#000000;stroke-width:0.5;stroke-miterlimit:10;}
	.st5{fill:#BE1E2D;stroke:#000000;stroke-width:0.5;stroke-miterlimit:10;}
	.st6{fill:#EF4136;stroke:#000000;stroke-width:0.5;stroke-miterlimit:10;}
	.st7{fill:none;stroke:#000000;stroke-width:0.5;stroke-linecap:round;stroke-miterlimit:10;}
</style>
<path class="st0" d="M59.9,96.5c0.4,3,4.4,8.3,6.3,10.7c0,0-0.1,0-0.2,0c-2.7-0.5-6.8,0.9-10.7,2.8c-0.9,0.4-1.8,0.9-2.7,1.4v0
	c-0.7,0.4-1.4,0.8-2.1,1.2c-0.5,0.3-1,0.6-1.4,0.8c-0.9,0.6-1.7,1.1-2.4,1.5c-1.2,0.8-1.9,1.2-1.9,1.2h-0.8c0,0-0.7-0.5-1.9-1.2
	c-0.7-0.5-1.6-1-2.7-1.7c-0.4-0.3-0.9-0.5-1.4-0.8c-0.7-0.4-1.5-0.8-2.2-1.2c-0.9-0.5-1.8-0.9-2.7-1.4c-3.8-1.8-7.8-3.2-10.4-2.6
	c0,0,0,0-0.1,0c1.9-2.4,5.9-7.7,6.3-10.7c0.5-3.6,0.8-9,3.9-10.3c-1.9-3-7.6-12-9-15.1c-1.8-3.8-10.3-17-5.5-58.8l1.2-5.5
	c0.2-0.9,0.9-1.5,1.8-1.5c1,0,1.8,0.8,1.8,1.8c0.2,5.3,1.4,21.4,6.9,32c6.6,12.8,8.9,17.5,8.9,30.6v13.9c0.9-1.6,2.5-3.5,5.5-4.9
	c0,0-2.3,3.3-2.6,5.7c0,0,1.9-2.8,5.4-3.5C47,68.4,49.7,57.4,57.8,44.4c8.1-12.9,10.4-29.2,11-34.4c0.1-1,0.9-1.7,1.9-1.7
	c1,0,1.8,0.8,1.9,1.8c0.3,5.4,1.3,22.2,1.5,33.2c0.2,13.4-12.4,32.2-15.9,36.1c-2,2.2-3,4.8-3.5,6.5c0.1,0,0.2,0,0.3,0
	C59.1,86.3,59.4,92.6,59.9,96.5z"/>
<path class="st1" d="M72.1,111.8c0.9,0.2,4,2.9,4,2.9s-3.5-6.1-9.9-7.5c0,0-0.1,0-0.2,0c-2.7-0.5-6.8,0.9-10.7,2.8
	c-0.9,0.4-1.8,0.9-2.7,1.4v0c-0.7,0.4-1.4,0.8-2.1,1.2c-0.5,0.3-1,0.6-1.4,0.8c-0.9,0.6-1.7,1.1-2.4,1.5c-1.2,0.8-1.9,1.2-1.9,1.2
	h-0.8c0,0-0.7-0.5-1.9-1.2c-0.7-0.5-1.6-1-2.7-1.7c-0.4-0.3-0.9-0.5-1.4-0.8c-0.7-0.4-1.5-0.8-2.2-1.2c-0.9-0.5-1.8-0.9-2.7-1.4
	c-3.8-1.8-7.8-3.2-10.4-2.6c0,0,0,0-0.1,0c-6.4,1.4-10,7.5-10,7.5s3.1-2.7,4-2.8c0,0-4.2,2.1-3.3,8.7c0,0,0.8-4.2,2-5
	c0,0-1.5,8,3.3,11.2c0,0-1.8-3.3-1.7-6.4c0,0,4,9.5,18.8,15c0.8,0.3,1.5,0.5,2.3,0.8c0,0,2.6,3.6,5.8,3.6h0.8c3.2,0,5.8-3.6,5.8-3.6
	c0,0,0.1,0,0.2,0c1.2-0.4,2.4-0.8,3.5-1.3c0.8-0.3,1.5-0.6,2.2-0.9c11.9-5.5,15.3-13.5,15.3-13.5c0.1,3.1-1.7,6.4-1.7,6.4
	c4.9-3.2,3.3-11.2,3.3-11.2c1.2,0.8,2,5,2,5C76.4,113.9,72.1,111.8,72.1,111.8z M52.4,129.3c-0.1,0.3-0.3,0.6-0.4,0.8
	c-2.3,4.3-6.8,5.7-6.8,5.7h-0.7c0,0-2.6-0.8-4.8-3c-0.9-0.9-1.8-2-2.4-3.5c-2.1-4.9-8.1-13.2-8.1-13.2s7.2-0.9,10.2,0
	c0,0-0.5,1.5,0,2.3c0.2,0.3,0.4,0.5,0.8,0.6c1.8,0.5,4.3-1.2,4.3-1.2h0.7c0,0,2.5,1.7,4.2,1.3c0,0,0.1,0,0.1,0
	c1.8-0.5,0.8-2.9,0.8-2.9c2.9-0.9,10.2,0,10.2,0S54.5,124.4,52.4,129.3z"/>
<path class="st2" d="M60.5,116.1c0,0-6,8.3-8.1,13.2c-0.1,0.3-0.3,0.6-0.4,0.8c-2.3,4.3-6.8,5.7-6.8,5.7h-0.7c0,0-2.6-0.8-4.8-3
	c-0.9-0.9-1.8-2-2.4-3.5c-2.1-4.9-8.1-13.2-8.1-13.2s7.2-0.9,10.2,0c0,0-0.5,1.5,0,2.3c0.2,0.3,0.4,0.5,0.8,0.6
	c1.8,0.5,4.3-1.2,4.3-1.2h0.7c0,0,2.5,1.7,4.2,1.3c0,0,0.1,0,0.1,0c1.8-0.5,0.8-2.9,0.8-2.9C53.3,115.1,60.5,116.1,60.5,116.1z"/>
<path class="st3" d="M46.8,114.8c-1.2,0.8-1.9,1.2-1.9,1.2h-0.8c0,0-0.7-0.5-1.9-1.2c0,0,0.9-0.7,2.3-0.7
	C45.9,114.2,46.8,114.8,46.8,114.8z"/>
<path class="st1" d="M39.6,113.2c-0.4-0.3-0.9-0.5-1.4-0.8c-0.7-0.4-1.5-0.8-2.2-1.2c-0.9-0.5-1.8-0.9-2.7-1.4
	c-0.9-3.8-3-13.7-0.9-16.5c2.6-3.5,4.5-2.1,6.8,4.1C40.8,101.8,40.1,109.3,39.6,113.2z"/>
<path class="st1" d="M55.4,109.9c-0.9,0.4-1.8,0.9-2.7,1.4c0,0,0,0,0,0c-0.7,0.4-1.4,0.8-2.1,1.2c-0.5,0.3-1,0.6-1.4,0.8
	c-0.5-3.8-1.3-11.4,0.4-15.9c2.2-6.2,4.2-7.6,6.8-4.1C58.4,96.2,56.3,106.2,55.4,109.9z"/>
<path class="st4" d="M38.8,109.7c0,1.1-0.2,2-0.5,2.6c-0.7-0.4-1.5-0.8-2.2-1.2c-0.1-0.4-0.1-0.9-0.1-1.4c0-1.9,0.7-3.4,1.5-3.4
	S38.8,107.9,38.8,109.7z"/>
<path class="st4" d="M52.9,109.7c0,0.6-0.1,1.1-0.2,1.6c0,0,0,0,0,0c-0.7,0.4-1.4,0.8-2.1,1.2c-0.4-0.6-0.6-1.6-0.6-2.8
	c0-1.9,0.7-3.4,1.5-3.4S52.9,107.9,52.9,109.7z"/>
<path class="st5" d="M60.5,116.1c0,0-6,8.3-8.1,13.2c-0.1,0.3-0.3,0.6-0.4,0.8c-2.3,4.3-6.8,5.7-6.8,5.7h-0.7c0,0-2.6-0.8-4.8-3
	c-0.9-0.9-1.8-2-2.4-3.5c-2.1-4.9-8.1-13.2-8.1-13.2s7.2-0.9,10.2,0c0,0-0.5,1.5,0,2.3c0.2,0.3,0.4,0.5,0.8,0.6
	c1.8,0.5,4.3-1.2,4.3-1.2h0.7c0,0,2.5,1.7,4.2,1.3c0,0,0.1,0,0.1,0c1.8-0.5,0.8-2.9,0.8-2.9C53.3,115.1,60.5,116.1,60.5,116.1z"/>
<path class="st6" d="M52,130.2c-2.3,4.3-6.8,5.7-6.8,5.7h-0.7c0,0-2.6-0.8-4.8-3c1.4-1,3.9-2.5,5.7-1.5
	C45.4,131.3,49.3,129.7,52,130.2z"/>
<path class="st3" d="M20.1,21.6c0,0-2.4,21.5,1.2,33.5s13.1,25.2,13.1,25.2s0.4-17-2.2-23S20.6,27.4,20.1,21.6z"/>
<path class="st3" d="M53.1,80.3c0,0-0.2-13.9,5.5-25.5s11.5-27.9,11.4-29.1c0,0,1.9,20.5-2.5,32.6S53.1,80.3,53.1,80.3z"/>
<path class="st1" d="M54.4,134.7c-0.7,2.9-1.7,7.1-2.3,10c-0.3,1.5-1.5,2.7-3,3c-0.3,0.1-0.6,0.1-0.9,0.1H42c-2,0-3.6-1.4-3.9-3.4
	c-0.5-3-1.3-6.7-2-9.2c0.8,0.3,1.5,0.5,2.3,0.8c0,0,2.6,3.6,5.8,3.6h0.8c3.2,0,5.8-3.6,5.8-3.6c0,0,0.1,0,0.2,0
	C52.1,135.6,53.3,135.2,54.4,134.7z"/>
<path class="st0" d="M54.4,134.7c-0.7,2.9-1.7,7.1-2.3,10c-0.3,1.5-1.5,2.7-3,3c-0.7-4.8,0.8-9.5,1.7-11.7
	C52.1,135.6,53.3,135.2,54.4,134.7z"/>
<path class="st1" d="M49.4,119v5.3c0,2.5-2,4.5-4.5,4.5h-1.1c-2.5,0-4.5-2-4.5-4.5v-5.9c0.2,0.3,0.4,0.5,0.8,0.6
	c1.8,0.5,4.3-1.2,4.3-1.2h0.7C45.2,117.7,47.7,119.4,49.4,119z"/>
<path class="st7" d="M47.3,80.8c0,0,2.3-0.5,4.1,0c0,0-6.2,1.9-7.8,5.8c0,0,5.5-4.1,8.5-3c0,0-4.3,1.9-5.2,4.9"/>
<path class="st7" d="M33.1,86.2c0,0,3.6-0.8,4.3,2.3"/>
<path class="st7" d="M51.3,89.6c0,0,0.7-3.6,3.3-3.6"/>
<line class="st7" x1="39.1" y1="83.6" x2="39.1" y2="86.9"/>
<path class="st7" d="M42.2,111.9c0,0,1.1-0.9,2-0.9c1.3,0,2.3,0.9,2.3,0.9"/>
<path class="st7" d="M43.6,110.1c0.2-0.3,0.5-0.6,0.8-0.6c0.3,0,0.6,0.2,0.8,0.6"/>
<path class="st7" d="M-0.9,116.1c0,0,23.9-3.8,36.8-0.4"/>
<path class="st7" d="M2.9,108.1c0,0,31.8,1.9,36.4,7.9"/>
<path class="st7" d="M25.5,116.6c0,0,1.9-1.2,3.7-0.6"/>
<path class="st7" d="M64,116.6c0,0-1.9-1.2-3.7-0.6"/>
<path class="st7" d="M54.4,115.7c0,0,17.7-4.6,31.5-2.3"/>
<path class="st7" d="M50.4,116.1c0,0,17.4-8.8,33.3-9"/>
<path class="st7" d="M5.1,123.2c0,0,19.4-7.1,34-5.5"/>
<path class="st7" d="M50.6,117.5c0,0,26.1-1.6,35.3,1.4"/>
<line class="st7" x1="44.5" y1="117.7" x2="44.5" y2="124.1"/>
<path class="st7" d="M45.4,131.3c0,0-1.4,0.8-0.9,2.1"/>
<g>
</g>
<g>
</g>
<g>
</g>
<g>
</g>
<g>
</g>
<g>
</g>
</svg>
