<svg xmlns="http://www.w3.org/2000/svg" viewBox="0 0 85 148.2" enable-background="new 0 0 85 148.2"><style type="text/css">.st0{fill:#939598;stroke:#000000;stroke-width:0.5;stroke-miterlimit:10;} .st1{fill:#FFFFFF;stroke:#000000;stroke-width:0.5;stroke-miterlimit:10;} .st2{fill:none;stroke:#000000;stroke-width:0.5;stroke-miterlimit:10;} .st3{fill:#C2928B;stroke:#000000;stroke-width:0.5;stroke-miterlimit:10;} .st4{stroke:#000000;stroke-width:0.5;stroke-miterlimit:10;} .st5{fill:#BE1E2D;stroke:#000000;stroke-width:0.5;stroke-miterlimit:10;} .st6{fill:#EF4136;stroke:#000000;stroke-width:0.5;stroke-miterlimit:10;} .st7{fill:none;stroke:#000000;stroke-width:0.5;stroke-linecap:round;stroke-miterlimit:10;}</style><path class="st0" d="M59.9 96.5c.4 3 4.4 8.3 6.3 10.7h-.2c-2.7-.5-6.8.9-10.7 2.8-.9.4-1.8.9-2.7 1.4l-2.1 1.2c-.5.3-1 .6-1.4.8-.9.6-1.7 1.1-2.4 1.5-1.2.8-1.9 1.2-1.9 1.2h-.8s-.7-.5-1.9-1.2c-.7-.5-1.6-1-2.7-1.7-.4-.3-.9-.5-1.4-.8l-2.2-1.2-2.7-1.4c-3.8-1.8-7.8-3.2-10.4-2.6h-.1c1.9-2.4 5.9-7.7 6.3-10.7.5-3.6.8-9 3.9-10.3-1.9-3-7.6-12-9-15.1-1.8-3.8-10.3-17-5.5-58.8l1.2-5.5c.2-.9.9-1.5 1.8-1.5 1 0 1.8.8 1.8 1.8.2 5.3 1.4 21.4 6.9 32 6.6 12.8 8.9 17.5 8.9 30.6v13.9c.9-1.6 2.5-3.5 5.5-4.9 0 0-2.3 3.3-2.6 5.7 0 0 1.9-2.8 5.4-3.5-.2-12.5 2.5-23.5 10.6-36.5 8.1-12.9 10.4-29.2 11-34.4.1-1 .9-1.7 1.9-1.7 1 0 1.8.8 1.9 1.8.3 5.4 1.3 22.2 1.5 33.2.2 13.4-12.4 32.2-15.9 36.1-2 2.2-3 4.8-3.5 6.5h.3c4.1.4 4.4 6.7 4.9 10.6z"/><path class="st1" d="M72.1 111.8c.9.2 4 2.9 4 2.9s-3.5-6.1-9.9-7.5h-.2c-2.7-.5-6.8.9-10.7 2.8-.9.4-1.8.9-2.7 1.4l-2.1 1.2c-.5.3-1 .6-1.4.8-.9.6-1.7 1.1-2.4 1.5-1.2.8-1.9 1.2-1.9 1.2h-.8s-.7-.5-1.9-1.2c-.7-.5-1.6-1-2.7-1.7-.4-.3-.9-.5-1.4-.8l-2.2-1.2-2.7-1.4c-3.8-1.8-7.8-3.2-10.4-2.6h-.1c-6.4 1.4-10 7.5-10 7.5s3.1-2.7 4-2.8c0 0-4.2 2.1-3.3 8.7 0 0 .8-4.2 2-5 0 0-1.5 8 3.3 11.2 0 0-1.8-3.3-1.7-6.4 0 0 4 9.5 18.8 15l2.3.8s2.6 3.6 5.8 3.6h.8c3.2 0 5.8-3.6 5.8-3.6h.2c1.2-.4 2.4-.8 3.5-1.3.8-.3 1.5-.6 2.2-.9 11.9-5.5 15.3-13.5 15.3-13.5.1 3.1-1.7 6.4-1.7 6.4 4.9-3.2 3.3-11.2 3.3-11.2 1.2.8 2 5 2 5 1.2-6.8-3.1-8.9-3.1-8.9zm-19.7 17.5c-.1.3-.3.6-.4.8-2.3 4.3-6.8 5.7-6.8 5.7h-.7s-2.6-.8-4.8-3c-.9-.9-1.8-2-2.4-3.5-2.1-4.9-8.1-13.2-8.1-13.2s7.2-.9 10.2 0c0 0-.5 1.5 0 2.3.2.3.4.5.8.6 1.8.5 4.3-1.2 4.3-1.2h.7s2.5 1.7 4.2 1.3h.1c1.8-.5.8-2.9.8-2.9 2.9-.9 10.2 0 10.2 0s-6 8.2-8.1 13.1z"/><path class="st2" d="M60.5 116.1s-6 8.3-8.1 13.2c-.1.3-.3.6-.4.8-2.3 4.3-6.8 5.7-6.8 5.7h-.7s-2.6-.8-4.8-3c-.9-.9-1.8-2-2.4-3.5-2.1-4.9-8.1-13.2-8.1-13.2s7.2-.9 10.2 0c0 0-.5 1.5 0 2.3.2.3.4.5.8.6 1.8.5 4.3-1.2 4.3-1.2h.7s2.5 1.7 4.2 1.3h.1c1.8-.5.8-2.9.8-2.9 3-1.1 10.2-.1 10.2-.1z"/><path class="st3" d="M46.8 114.8c-1.2.8-1.9 1.2-1.9 1.2h-.8s-.7-.5-1.9-1.2c0 0 .9-.7 2.3-.7 1.4.1 2.3.7 2.3.7z"/><path class="st1" d="M39.6 113.2c-.4-.3-.9-.5-1.4-.8l-2.2-1.2-2.7-1.4c-.9-3.8-3-13.7-.9-16.5 2.6-3.5 4.5-2.1 6.8 4.1 1.6 4.4.9 11.9.4 15.8zM55.4 109.9c-.9.4-1.8.9-2.7 1.4l-2.1 1.2c-.5.3-1 .6-1.4.8-.5-3.8-1.3-11.4.4-15.9 2.2-6.2 4.2-7.6 6.8-4.1 2 2.9-.1 12.9-1 16.6z"/><path class="st4" d="M38.8 109.7c0 1.1-.2 2-.5 2.6l-2.2-1.2c-.1-.4-.1-.9-.1-1.4 0-1.9.7-3.4 1.5-3.4s1.3 1.6 1.3 3.4zM52.9 109.7c0 .6-.1 1.1-.2 1.6l-2.1 1.2c-.4-.6-.6-1.6-.6-2.8 0-1.9.7-3.4 1.5-3.4s1.4 1.6 1.4 3.4z"/><path class="st5" d="M60.5 116.1s-6 8.3-8.1 13.2c-.1.3-.3.6-.4.8-2.3 4.3-6.8 5.7-6.8 5.7h-.7s-2.6-.8-4.8-3c-.9-.9-1.8-2-2.4-3.5-2.1-4.9-8.1-13.2-8.1-13.2s7.2-.9 10.2 0c0 0-.5 1.5 0 2.3.2.3.4.5.8.6 1.8.5 4.3-1.2 4.3-1.2h.7s2.5 1.7 4.2 1.3h.1c1.8-.5.8-2.9.8-2.9 3-1.1 10.2-.1 10.2-.1z"/><path class="st6" d="M52 130.2c-2.3 4.3-6.8 5.7-6.8 5.7h-.7s-2.6-.8-4.8-3c1.4-1 3.9-2.5 5.7-1.5 0-.1 3.9-1.7 6.6-1.2z"/><path class="st3" d="M20.1 21.6s-2.4 21.5 1.2 33.5l13.1 25.2s.4-17-2.2-23-11.6-29.9-12.1-35.7zM53.1 80.3s-.2-13.9 5.5-25.5 11.5-27.9 11.4-29.1c0 0 1.9 20.5-2.5 32.6l-14.4 22z"/><path class="st1" d="M54.4 134.7c-.7 2.9-1.7 7.1-2.3 10-.3 1.5-1.5 2.7-3 3-.3.1-.6.1-.9.1h-6.2c-2 0-3.6-1.4-3.9-3.4-.5-3-1.3-6.7-2-9.2l2.3.8s2.6 3.6 5.8 3.6h.8c3.2 0 5.8-3.6 5.8-3.6h.2c1.1-.4 2.3-.8 3.4-1.3z"/><path class="st0" d="M54.4 134.7c-.7 2.9-1.7 7.1-2.3 10-.3 1.5-1.5 2.7-3 3-.7-4.8.8-9.5 1.7-11.7 1.3-.4 2.5-.8 3.6-1.3z"/><path class="st1" d="M49.4 119v5.3c0 2.5-2 4.5-4.5 4.5h-1.1c-2.5 0-4.5-2-4.5-4.5v-5.9c.2.3.4.5.8.6 1.8.5 4.3-1.2 4.3-1.2h.7c.1-.1 2.6 1.6 4.3 1.2z"/><path class="st7" d="M47.3 80.8s2.3-.5 4.1 0c0 0-6.2 1.9-7.8 5.8 0 0 5.5-4.1 8.5-3 0 0-4.3 1.9-5.2 4.9M33.1 86.2s3.6-.8 4.3 2.3M51.3 89.6s.7-3.6 3.3-3.6M39.1 83.6v3.3M42.2 111.9s1.1-.9 2-.9c1.3 0 2.3.9 2.3.9M43.6 110.1c.2-.3.5-.6.8-.6.3 0 .6.2.8.6M-.9 116.1s23.9-3.8 36.8-.4M2.9 108.1s31.8 1.9 36.4 7.9M25.5 116.6s1.9-1.2 3.7-.6M64 116.6s-1.9-1.2-3.7-.6M54.4 115.7s17.7-4.6 31.5-2.3M50.4 116.1s17.4-8.8 33.3-9M5.1 123.2s19.4-7.1 34-5.5M50.6 117.5s26.1-1.6 35.3 1.4M44.5 117.7v6.4M45.4 131.3s-1.4.8-.9 2.1"/></svg>