<?xml version="1.0" encoding="utf-8"?>
<!-- Generator: Adobe Illustrator 18.1.1, SVG Export Plug-In . SVG Version: 6.00 Build 0)  -->
<!DOCTYPE svg PUBLIC "-//W3C//DTD SVG 1.1//EN" "http://www.w3.org/Graphics/SVG/1.1/DTD/svg11.dtd">
<svg version="1.1" id="Layer_1" xmlns="http://www.w3.org/2000/svg" xmlns:xlink="http://www.w3.org/1999/xlink" x="0px" y="0px"
	 viewBox="0 0 133.3 187.7" style="enable-background:new 0 0 133.3 187.7;" xml:space="preserve">
<style type="text/css">
	.st0{fill:#481267;}
	.st1{fill:#662D91;stroke:#000000;stroke-miterlimit:10;}
	.st2{fill:#FFFFFF;stroke:#000000;stroke-miterlimit:10;}
	.st3{fill:none;stroke:#000000;stroke-linecap:round;stroke-miterlimit:10;}
	.st4{fill:#702F73;}
</style>
<path class="st0" d="M77.5,10.8c-5.3,1.7-15.2,16.8-20,24c-4,5.9-2.8,23-2.3,29.1c-1.1-0.7-2.2-1.3-3.3-1.8
	c-0.4-4.5-0.9-11.8-0.6-16.6c0.5-7.5,1.3-14.5,10.6-26.5c6.4-8.3,11.4-10.5,13.9-11.1c1.2-0.3,2.4-0.1,3.4,0.5
	C80.1,9,80.5,9.8,77.5,10.8z"/>
<path class="st0" d="M43.6,44.6c-0.2,3.8,2.5,12.1,3.8,16c-0.5-0.1-1-0.2-1.5-0.2c-0.6,0-1.2,0.1-1.9,0.2c-2-6.3-4.5-19.7-3.9-27.8
	c0.6-7.8,4.3-11.7,6.2-13.1c0.7-0.5,1.5-0.8,2.3-0.9c1,0,1.9,0.3,0.3,2.2C46.1,24.2,43.9,39.6,43.6,44.6z"/>
<path class="st1" d="M122.6,141.8c-6,15.9-41.8,37.4-41.8,37.4s-51.5-12.2-65.8-24.2s-7.8-27.3-3.2-31.8s13.5-18.8,13.5-18.8
	s-0.8-6.5,1.2-19.9c1.8-12.2,10.6-22.3,17.4-24c0.6-0.2,1.3-0.2,1.9-0.2c0.5,0,1,0.1,1.5,0.2c1.4,0.3,2.9,0.8,4.5,1.6
	c1.1,0.5,2.2,1.2,3.3,1.8c5.3,3.2,10,7.3,10,7.3s-0.4-6,6.3-9.5c6.8-3.5,11.2,0.4,16.2,5.4c3.5,3.5,4.1,8.2,4.1,10.7
	c-3.6-2.5-7.8-4.1-12.2-4.9c-6.7-1.2-10.2,5.6-11.9,10.5c-3.1-5.3-7.8-11.5-15.5-12c0,0-12.2-1.8-20.2,15.3
	c-8,17.2-0.8,40.7,6.3,42.5c4.9,1.3,24.3,2.2,29.8-5.7c0.6-0.8,1.1-1.8,1.5-2.8c0.7,0.4,1.3,0.7,2,1.1c-0.2,1,0.5,2.5,4.3,4.9
	c7.8,4.8,23.5,1.6,25.8,0.6c1.5-0.7,4.8-8.5,6.7-13.3l6.5,5.3C115.1,119.2,128.6,125.9,122.6,141.8z"/>
<path class="st2" d="M69.8,120.6c-0.4,1.1-0.9,2-1.5,2.8c-5.5,7.8-24.9,6.9-29.8,5.7c-7.1-1.8-14.3-25.3-6.3-42.5
	c8-17.2,20.2-15.3,20.2-15.3c7.8,0.5,12.4,6.8,15.5,12c1,1.7,1.9,3.4,2.6,4.6C73.1,92.6,73.7,111.2,69.8,120.6z"/>
<path class="st2" d="M105.3,104.7c0,2.1-0.1,4.2-0.5,6.2c-0.7,3.7-2.2,7.2-4.6,10.4c-5.9,7.7-17,6.4-28.5,0.5
	c-0.7-0.3-1.3-0.7-2-1.1c3.9-9.4,3.4-28,0.7-32.7c-0.7-1.3-1.6-2.9-2.6-4.6c1.6-4.9,5.2-11.7,11.9-10.5c4.4,0.8,8.6,2.5,12.2,4.9
	c4.8,3.3,8.7,7.9,10.8,13.7C104.3,95.8,105.2,100.3,105.3,104.7z"/>
<path class="st1" d="M109.1,112.6c-0.2,0.4-0.3,0.8-0.5,1.3c-1.9,4.8-5.2,12.6-6.7,13.3c-2.2,1-17.9,4.2-25.8-0.6
	c-3.8-2.4-4.6-3.9-4.3-4.9c0.2,0.1,0.4,0.2,0.7,0.3c0.3,0.2,0.6,0.3,1,0.5c0.4,0.2,0.9,0.4,1.3,0.6c0.4,0.2,0.8,0.3,1.1,0.5
	c1.3,0.6,2.7,1.1,4,1.5c0.3,0.1,0.6,0.2,0.9,0.3c1.2,0.4,2.4,0.6,3.6,0.8c0.2,0,0.4,0.1,0.6,0.1c0.2,0,0.4,0.1,0.7,0.1
	c0.6,0.1,1.2,0.1,1.8,0.2c0.4,0,0.7,0,1,0c4.8,0,8.9-1.6,11.7-5.4c2.4-3.2,3.9-6.7,4.6-10.4c0.4-2,0.5-4.1,0.5-6.2l3,3.6
	C109.4,109.4,109.7,111.1,109.1,112.6z"/>
<path class="st3" d="M28.6,121.4c0,0,3.1,5.6,7.8,6.6"/>
<path class="st3" d="M28.6,129.9c0,0,34.2,10.5,40.8-8.5"/>
<path class="st3" d="M30.8,134.1c0,0,17.7,4.5,25.8-2.1"/>
<path d="M29.2,145.4c-1,0-1.9-0.9-1.9-1.9c0-1,0.4-2.3,2.2-3.1c3.4-1.5,6.9-2.4,9.4-0.6s7.9,7.9,9.1,4.9s4.4-6.9,8.6-4.9
	s16.8,14.5,20.2,12.6s12.6-17.8,14.8-15.8s5.1,2.8,6.4,0.4s4.6-9.8,8.5-7.8c3.9,2,5.4,2.9,4.6,3.7c-0.8,0.7-3.7-3.1-5.7-1.8
	c-2,1.3-4.3,2.6-5.6,6s-3.1,4.2-5.2,3.1s-3.9-2.6-6.1,0.9s-7.8,13.1-12.3,13.2s-18-12.6-21.5-12.4s-4.7,4.9-7.2,4.9s-9-6.2-10.4-5.6
	C35.8,141.8,33,145.3,29.2,145.4z"/>
<path d="M37.5,158c0.3-1.1,1.6-1.5,2.6-0.9c1.8,1.1,5.3,2.9,7.9,2.1c3.7-1.2,6.7-3.9,7.4-2.9s-4.5,3.8-7.4,4
	C45.5,160.4,37,159.7,37.5,158z"/>
<path d="M72.3,129.9c0,0-6,6.6-4,8.4c2,1.8,2.8,2.4,3.4-0.4C72.4,135.1,74.6,128.9,72.3,129.9z"/>
<path d="M80.3,131.8c-0.4-0.1-0.7,0.4-0.5,0.7c0.7,1.1,1.9,2.8,1.8,3.5c-0.1,1.1,1.1,2.4,2,0.9C84.5,135.6,83.6,132.6,80.3,131.8z"
	/>
<path class="st3" d="M78.7,143.6c0,0-0.7-15.1-3.6-17.7"/>
<path class="st3" d="M68.4,76.9c0,0-0.5-4.8-6.5-8.4"/>
<path class="st3" d="M81.3,68.5c0,0-7.1,0.7-7.5,5.6"/>
<ellipse class="st4" cx="63.3" cy="115.4" rx="5" ry="4.4"/>
<ellipse class="st4" cx="77.9" cy="115.9" rx="5" ry="4.4"/>
<circle cx="63.3" cy="115.4" r="1.8"/>
<circle cx="77.9" cy="115.9" r="1.8"/>
<g>
</g>
<g>
</g>
<g>
</g>
<g>
</g>
<g>
</g>
<g>
</g>
</svg>
