<svg xmlns="http://www.w3.org/2000/svg" viewBox="0 0 133.3 187.7" enable-background="new 0 0 133.3 187.7"><style type="text/css">.st0{fill:#481267;} .st1{fill:#662D91;stroke:#000000;stroke-miterlimit:10;} .st2{fill:#FFFFFF;stroke:#000000;stroke-miterlimit:10;} .st3{fill:none;stroke:#000000;stroke-linecap:round;stroke-miterlimit:10;} .st4{fill:#702F73;}</style><path class="st0" d="M77.5 10.8c-5.3 1.7-15.2 16.8-20 24-4 5.9-2.8 23-2.3 29.1-1.1-.7-2.2-1.3-3.3-1.8-.4-4.5-.9-11.8-.6-16.6.5-7.5 1.3-14.5 10.6-26.5 6.4-8.3 11.4-10.5 13.9-11.1 1.2-.3 2.4-.1 3.4.5.9.6 1.3 1.4-1.7 2.4zM43.6 44.6c-.2 3.8 2.5 12.1 3.8 16-.5-.1-1-.2-1.5-.2-.6 0-1.2.1-1.9.2-2-6.3-4.5-19.7-3.9-27.8.6-7.8 4.3-11.7 6.2-13.1.7-.5 1.5-.8 2.3-.9 1 0 1.9.3.3 2.2-2.8 3.2-5 18.6-5.3 23.6z"/><path class="st1" d="M122.6 141.8c-6 15.9-41.8 37.4-41.8 37.4s-51.5-12.2-65.8-24.2-7.8-27.3-3.2-31.8l13.5-18.8s-.8-6.5 1.2-19.9c1.8-12.2 10.6-22.3 17.4-24 .6-.2 1.3-.2 1.9-.2.5 0 1 .1 1.5.2 1.4.3 2.9.8 4.5 1.6 1.1.5 2.2 1.2 3.3 1.8 5.3 3.2 10 7.3 10 7.3s-.4-6 6.3-9.5c6.8-3.5 11.2.4 16.2 5.4 3.5 3.5 4.1 8.2 4.1 10.7-3.6-2.5-7.8-4.1-12.2-4.9-6.7-1.2-10.2 5.6-11.9 10.5-3.1-5.3-7.8-11.5-15.5-12 0 0-12.2-1.8-20.2 15.3-8 17.2-.8 40.7 6.3 42.5 4.9 1.3 24.3 2.2 29.8-5.7.6-.8 1.1-1.8 1.5-2.8l2 1.1c-.2 1 .5 2.5 4.3 4.9 7.8 4.8 23.5 1.6 25.8.6 1.5-.7 4.8-8.5 6.7-13.3l6.5 5.3c.3-.1 13.8 6.6 7.8 22.5z"/><path class="st2" d="M69.8 120.6c-.4 1.1-.9 2-1.5 2.8-5.5 7.8-24.9 6.9-29.8 5.7-7.1-1.8-14.3-25.3-6.3-42.5s20.2-15.3 20.2-15.3c7.8.5 12.4 6.8 15.5 12 1 1.7 1.9 3.4 2.6 4.6 2.6 4.7 3.2 23.3-.7 32.7zM105.3 104.7c0 2.1-.1 4.2-.5 6.2-.7 3.7-2.2 7.2-4.6 10.4-5.9 7.7-17 6.4-28.5.5-.7-.3-1.3-.7-2-1.1 3.9-9.4 3.4-28 .7-32.7-.7-1.3-1.6-2.9-2.6-4.6 1.6-4.9 5.2-11.7 11.9-10.5 4.4.8 8.6 2.5 12.2 4.9 4.8 3.3 8.7 7.9 10.8 13.7 1.6 4.3 2.5 8.8 2.6 13.2z"/><path class="st1" d="M109.1 112.6c-.2.4-.3.8-.5 1.3-1.9 4.8-5.2 12.6-6.7 13.3-2.2 1-17.9 4.2-25.8-.6-3.8-2.4-4.6-3.9-4.3-4.9.2.1.4.2.7.3.3.2.6.3 1 .5l1.3.6c.4.2.8.3 1.1.5 1.3.6 2.7 1.1 4 1.5l.9.3c1.2.4 2.4.6 3.6.8l.6.1c.2 0 .4.1.7.1l1.8.2h1c4.8 0 8.9-1.6 11.7-5.4 2.4-3.2 3.9-6.7 4.6-10.4.4-2 .5-4.1.5-6.2l3 3.6c1.1 1.2 1.4 2.9.8 4.4z"/><path class="st3" d="M28.6 121.4s3.1 5.6 7.8 6.6M28.6 129.9s34.2 10.5 40.8-8.5M30.8 134.1s17.7 4.5 25.8-2.1"/><path d="M29.2 145.4c-1 0-1.9-.9-1.9-1.9 0-1 .4-2.3 2.2-3.1 3.4-1.5 6.9-2.4 9.4-.6s7.9 7.9 9.1 4.9 4.4-6.9 8.6-4.9 16.8 14.5 20.2 12.6 12.6-17.8 14.8-15.8 5.1 2.8 6.4.4 4.6-9.8 8.5-7.8c3.9 2 5.4 2.9 4.6 3.7-.8.7-3.7-3.1-5.7-1.8s-4.3 2.6-5.6 6-3.1 4.2-5.2 3.1-3.9-2.6-6.1.9-7.8 13.1-12.3 13.2-18-12.6-21.5-12.4-4.7 4.9-7.2 4.9-9-6.2-10.4-5.6c-1.3.6-4.1 4.1-7.9 4.2zM37.5 158c.3-1.1 1.6-1.5 2.6-.9 1.8 1.1 5.3 2.9 7.9 2.1 3.7-1.2 6.7-3.9 7.4-2.9s-4.5 3.8-7.4 4c-2.5.1-11-.6-10.5-2.3zM72.3 129.9s-6 6.6-4 8.4c2 1.8 2.8 2.4 3.4-.4.7-2.8 2.9-9 .6-8zM80.3 131.8c-.4-.1-.7.4-.5.7.7 1.1 1.9 2.8 1.8 3.5-.1 1.1 1.1 2.4 2 .9.9-1.3 0-4.3-3.3-5.1z"/><path class="st3" d="M78.7 143.6s-.7-15.1-3.6-17.7M68.4 76.9s-.5-4.8-6.5-8.4M81.3 68.5s-7.1.7-7.5 5.6"/><ellipse class="st4" cx="63.3" cy="115.4" rx="5" ry="4.4"/><ellipse class="st4" cx="77.9" cy="115.9" rx="5" ry="4.4"/><circle cx="63.3" cy="115.4" r="1.8"/><circle cx="77.9" cy="115.9" r="1.8"/></svg>