<?xml version="1.0" encoding="utf-8"?>
<!-- Generator: Adobe Illustrator 18.1.1, SVG Export Plug-In . SVG Version: 6.00 Build 0)  -->
<!DOCTYPE svg PUBLIC "-//W3C//DTD SVG 1.1//EN" "http://www.w3.org/Graphics/SVG/1.1/DTD/svg11.dtd">
<svg version="1.1" id="Layer_1" xmlns="http://www.w3.org/2000/svg" xmlns:xlink="http://www.w3.org/1999/xlink" x="0px" y="0px"
	 viewBox="0 0 85 103.5" style="enable-background:new 0 0 85 103.5;" xml:space="preserve">
<style type="text/css">
	.st0{fill:#662D91;stroke:#000000;stroke-width:0.3898;stroke-miterlimit:10;}
	.st1{fill:none;stroke:#000000;stroke-width:0.3898;stroke-miterlimit:10;}
	.st2{fill:#640A65;stroke:#000000;stroke-width:0.3898;stroke-miterlimit:10;}
	.st3{fill:#FFFFFF;stroke:#000000;stroke-width:0.3898;stroke-miterlimit:10;}
	.st4{fill:#481267;stroke:#000000;stroke-width:0.3898;stroke-miterlimit:10;}
	.st5{fill:none;stroke:#000000;stroke-width:0.3898;stroke-linecap:round;stroke-miterlimit:10;}
	.st6{fill:#702F73;stroke:#000000;stroke-width:0.3898;stroke-miterlimit:10;}
	.st7{fill:#6D487B;stroke:#000000;stroke-width:0.3898;stroke-miterlimit:10;}
</style>
<path class="st0" d="M64.9,41.8c2.9-1.2,7.5-7.1,11.3-7.3c3.8-0.3,3.8-1.9,0.8-2.5c-3-0.6-9-2.3-15-0.5c-6,1.9-7.3,3.1-7.3,3.1
	s-0.6-8.5-4.1-10.6c-0.2-0.1-0.5-0.3-0.8-0.3c-4.2-1.3-7.4-1.6-11.1,0.7l-0.1-4.2c0,0-4.9-0.4-6.4,1.6c0,0-0.4-0.2-1.1-0.5
	c-1-0.4-2.4-0.8-4-0.6c-1,0.1-2.1,0.5-3.1,1.4l2.5,6.1l0.5-0.3l0.6-0.4l0.9-0.5c0.4,0.6,1,1.2,1.5,1.8c0.2,0.2,0.3,0.4,0.5,0.5
	c0.4,0.5,0.8,0.9,1.2,1.3c0.1,0.1,0.2,0.2,0.3,0.3c0.2,0.2,0.3,0.3,0.5,0.4c-0.1,0.7-0.5,1.5-1.8,1.6c-2.6,0.2-3.3-1.2-3.9-1.7
	c-0.4-0.4-0.6-1.3-0.7-2c-0.9,0-4.7-0.1-6.1,1.4c-1.6,1.7-3.3,2.6-1.5,5.3c0.9,1.3,1.7,2.4,2.4,3.2c0.3-2.3,0.6-4.1,0.6-4.1
	s0.6,1,1.6,2.4c1.9,2.5,5.5,6,10.1,6.7c2.3,0.3,4.5,0.4,6.3,0.2c3.9-0.3,6.5-1.4,7.4-1.8c1.3-0.7,2.3-0.1,2.9,0.8s0,3.6,0,3.6
	s0.3,2.1,0.3,4.6c0,2.3-2,11.3-2,11.3s-3.4,14.1-12.1,17.7c-8.7,3.6-15.3-0.1-18.6-2.4c-2.3-1.5-4.6-5.2-5.8-8
	c-5.2,0.9-2.5,5.9-2.5,5.9s-6.1,5-6.3,9.8c-0.3,4.9,16.5,22,39.8,10.3C66,84.3,65.2,72.5,72.4,71.8c7.2-0.7,6.5-5.6,5-8.8
	c-1.5-3.2-8.9-17-20-22.1C57.9,41.1,62.2,42.9,64.9,41.8z M46.4,34.8c-0.2,0.5-1.8,3-5,2.9c-2.3,0-4.1-3-4.9-4.7
	c0.5-0.1,1-0.2,1.6-0.3c0.9-0.2,1.9-0.3,3.2-0.4c0.4,0,0.9-0.1,1.4-0.1c0.4,0,0.9-0.1,1.3-0.1c0.6,0,1.3-0.1,2.1-0.1
	C46.5,33.3,46.8,34.9,46.4,34.8z"/>
<path class="st1" d="M46.4,34.8c-0.2,0.5-1.8,3-5,2.9c-2.3,0-4.1-3-4.9-4.7c0.5-0.1,1-0.2,1.6-0.3c0.9-0.2,1.9-0.3,3.2-0.4
	c0.3,0.1,0.6,0.3,0.9,0.5c0.8,0.4,1.6,0.8,2.3,1.2c0.4,0.2,0.7,0.4,1,0.5l0,0C46,34.7,46.3,34.8,46.4,34.8z"/>
<path class="st2" d="M49.3,47.3c0,0-0.7,6.5-1.4,11c-0.7-0.3-2.1-0.8-4.1-1.1c-3.3-0.4-7,2.8-7,2.8c-1.3-1.1-2.5-1.5-3.7-1.7
	C30.2,58,28,60.1,28,60.1c-0.8,0-1.7,0.2-2.5,0.5c-1.7,0.6-3.4,1.8-4.5,2.7v-0.7c2.5-1,3-4.8,3.4-5.8c0.3-0.8,0.2-6.4,0.2-8.9
	c0.3,0.2,0.6,0.4,1,0.6c0.1,0,0.1,0.1,0.2,0.1c0.1,0.1,0.3,0.1,0.4,0.2c0.3,0.1,0.5,0.2,0.8,0.4c0.2,0.1,0.5,0.2,0.7,0.3
	c0.1,0,0.2,0.1,0.3,0.1c0.1,0,0.2,0.1,0.3,0.1c0.3,0.1,0.7,0.2,1.1,0.3c0.1,0,0.1,0,0.2,0.1c0.1,0,0.1,0,0.2,0
	c0.1,0,0.3,0.1,0.4,0.1c0.1,0,0.3,0.1,0.4,0.1c0.1,0,0.3,0.1,0.4,0.1c0.1,0,0.2,0,0.3,0c0.1,0,0.2,0,0.3,0c0.1,0,0.2,0,0.4,0
	c0.1,0,0.2,0,0.3,0c0.1,0,0.2,0,0.3,0c0.4,0,0.9,0,1.3,0l-0.6,3.2c0,0,3.7,0.6,8.1-3.2c0,0,4.5-0.5,5.8-2.6
	C47.3,47.8,48.5,47.6,49.3,47.3z"/>
<path class="st3" d="M50.1,46.8c-0.1,0.2-0.4,0.4-0.7,0.5c-0.8,0.3-2,0.5-2,0.5c-1.2,2.1-5.8,2.6-5.8,2.6c-4.3,3.8-8.1,3.2-8.1,3.2
	l0.6-3.2c-0.4,0-0.9,0-1.3,0c-0.1,0-0.2,0-0.3,0c-0.1,0-0.2,0-0.3,0c-0.1,0-0.2,0-0.4,0c-0.1,0-0.2,0-0.3,0c-0.1,0-0.2,0-0.3,0
	c-0.1,0-0.3-0.1-0.4-0.1c-0.1,0-0.3-0.1-0.4-0.1c-0.1,0-0.3-0.1-0.4-0.1c-0.1,0-0.1,0-0.2,0c-0.1,0-0.1,0-0.2-0.1
	c-0.4-0.1-0.7-0.2-1.1-0.3c-0.1,0-0.2-0.1-0.3-0.1c-0.1,0-0.2-0.1-0.3-0.1c-0.3-0.1-0.5-0.2-0.7-0.3c-0.3-0.1-0.6-0.2-0.8-0.4
	c-0.2-0.1-0.3-0.1-0.4-0.2c-0.1,0-0.1-0.1-0.2-0.1c-0.4-0.2-0.7-0.4-1-0.6c-1.2-0.7-1.9-1.3-1.9-1.3c-0.8,0.6-1.9,0.4-1.9,0.4
	c-0.4-1.9-0.1-5.3,0.2-8c0.3-2.3,0.6-4.1,0.6-4.1s0.6,1,1.6,2.4c1.9,2.5,5.5,6,10.1,6.7c2.3,0.3,4.5,0.4,6.3,0.2
	c3.9-0.3,6.5-1.4,7.4-1.8c1.3-0.7,2.3-0.1,2.9,0.8S50.1,46.8,50.1,46.8z"/>
<path class="st4" d="M50.3,51.4c0,2.3-2,11.3-2,11.3s-3.4,14.1-12.1,17.7c-8.7,3.6-15.3-0.1-18.6-2.4c-2.3-1.5-4.6-5.2-5.8-8
	c-0.6-1.4-0.8-2.5-0.7-3.1c0.4-1.3,3.6-2.4,5.6-2.9c0,0-1.7,3.3-1.9,3.6c-0.2,0.3,0.4,0.8,0.4,0.8s6.2,9.6,17.8,8.3
	c4.1-0.5,6.9-2.2,9-4.3c0.6-0.6,1.1-1.2,1.6-1.9c0-0.1,0.1-0.1,0.1-0.2v0c2.4-3.5,3.1-7.1,3.4-7.7c0.2-0.3,0.4-1.5,0.7-3.1
	c0.1-0.3,0.1-0.7,0.2-1c0.7-4.5,1.4-11,1.4-11c0.4-0.1,0.6-0.3,0.7-0.5C50.1,46.8,50.3,48.9,50.3,51.4z"/>
<path class="st1" d="M50.1,46.8c-0.1,0.2-0.4,0.4-0.7,0.5L50.1,46.8z"/>
<path class="st0" d="M31.3,21.2c-1-0.4-2.4-0.8-4-0.6c-0.7-4.5,1.1-10.5,1.1-10.5C28.8,15.2,30.3,19.1,31.3,21.2z"/>
<path class="st1" d="M33.8,23.4c0,0-0.6-1.5-1.5-1.7"/>
<path class="st3" d="M43.9,69.4l-0.2,0.8v0c0,0.1-0.1,0.1-0.1,0.2c-0.5,0.6-1,1.3-1.6,1.9c-2,2.1-4.9,3.8-9,4.3
	c-11.6,1.4-17.8-8.3-17.8-8.3s-0.6-0.5-0.4-0.8c0.2-0.3,1.9-3.6,1.9-3.6c1-1.6,2.3-3.1,4.3-3.9v4.2c0,0,5.1,3.8,9,4
	c3.9,0.1,6.1,0.3,6.8-1.8c0.7-2.1,1.6-4.8,1.6-4.8s2.1,0.6,3.7,2.8C42.9,65.5,43.7,67.2,43.9,69.4z"/>
<path class="st5" d="M47.2,37.5h3.8c0.7,0,1.4,0.3,1.9,0.8l2.8,3.1c0.9,1,1,2.4,0.4,3.5L53.5,49c-0.3,0.5-0.5,1-0.6,1.6
	c-0.5,3.5-2.3,16.9-2.2,18.5c0.1,1.9-4.4,15-13.3,19s-11.3,4.2-17.6,0S9.3,75.9,9.3,75.9"/>
<path class="st5" d="M54.6,64.4c0,0,1,10.9-8.5,15.9"/>
<path class="st5" d="M56.4,71.4c0,0-5.7,9.1-11.6,10.6"/>
<path class="st5" d="M53.6,37.5c0,0,2.8,0.9,4.9-0.6s7.2-5.8,9.7-6.3"/>
<line class="st5" x1="66.9" y1="33.5" x2="63" y2="33.5"/>
<line class="st5" x1="66.2" y1="35.5" x2="60.3" y2="35.5"/>
<path class="st5" d="M39.6,27.9c0,0,6.3-3,9.4-1.9c3.1,1,3.2,6.3,2.1,7.1s-1.9,1.2-1.9,1.2"/>
<path class="st4" d="M39.7,44.1c-1.8,0.1-4,0.1-6.3-0.2c-4.6-0.7-8.2-4.3-10.1-6.7c0.7-0.4,1.6-0.7,2.4,0.2c1.2,1.5,1.9,3.1,1.9,3.1
	s3.8-1.4,5.8,0C34.8,41.5,37.9,43.2,39.7,44.1z"/>
<path class="st5" d="M32.3,34.2c0,0,2.5-0.9,2.9,0.4c0.4,1.3,0,2.6-1.4,2.7"/>
<path class="st5" d="M29.6,32.7c0,0-2,1.4-2,2.9s0.2,2.5,2.2,1.7c2-0.8,3.7-2.3,4.4-0.7"/>
<path class="st5" d="M47.6,32.1c-0.5,0-0.9,0-1.3,0"/>
<path class="st5" d="M36.4,25.7c0,0-3.8,2.9-3.1,5.3c0.6,2.4,0.8,2.5,3.1,2.1c0,0,0.1,0,0.1,0"/>
<path class="st6" d="M46.4,34.8c-0.1,0-0.4-0.1-0.8-0.3l0,0c-0.3-0.1-0.6-0.3-1-0.5c-0.7-0.4-1.5-0.8-2.3-1.2
	c-0.3-0.2-0.6-0.3-0.9-0.5c0.4,0,0.9-0.1,1.4-0.1c0.4,0,0.9-0.1,1.3-0.1c0.6,0,1.3-0.1,2.1-0.1C46.5,33.3,46.8,34.9,46.4,34.8z"/>
<path class="st6" d="M46.4,34.8c-0.2,0.5-1.8,3-5,2.9c-2.3,0-4.1-3-4.9-4.7c0.5-0.1,1-0.2,1.6-0.3c0.9-0.2,1.9-0.3,3.2-0.4
	c0.3,0.1,0.6,0.3,0.9,0.5c0.8,0.4,1.6,0.8,2.3,1.2c0.4,0.2,0.7,0.4,1,0.5l0,0C46,34.7,46.3,34.8,46.4,34.8z"/>
<path class="st3" d="M45.7,34.5c0,0-1.9,2.5-4.8,1.7c-2.1-0.6-2.6-2.5-2.6-3.4c0.9-0.2,1.9-0.3,3.2-0.4c0.3,0.1,0.6,0.3,0.9,0.5
	c0.8,0.4,1.6,0.8,2.3,1.2C45,34.2,45.4,34.4,45.7,34.5L45.7,34.5z"/>
<path d="M44.6,34c-0.4,0.3-0.9,0.7-1.4,0.8c-0.9,0.2-1.7-1-1.5-1.6c0.1-0.2,0.3-0.3,0.7-0.4C43.1,33.2,44,33.6,44.6,34z"/>
<path class="st5" d="M21.1,34.2c0,0,1-1.2,2.2-0.7c1.2,0.5,1,2.2,2.2,1.6c1.2-0.6,1.3-1.2,2.5-0.9"/>
<path class="st5" d="M32.6,31.2c0.4,0.3,0.7,0.4,0.9,0.4"/>
<path class="st5" d="M28.7,26.9c-0.5-0.6-1.4-1.8-1.4-1.8"/>
<path class="st6" d="M32.6,31.2c-0.1,0.7-0.5,1.5-1.8,1.6c-2.6,0.2-3.3-1.2-3.9-1.7c-0.4-0.4-0.6-1.3-0.7-2
	c-0.1-0.4-0.1-0.7-0.1-0.7l0.5-0.3l0.5-0.3l0.6-0.4l0.9-0.5c0.4,0.6,1,1.2,1.5,1.8c0.7,0.8,1.4,1.5,2,2.1
	C32.3,31,32.5,31.1,32.6,31.2z"/>
<path class="st3" d="M32.1,30.8c-1,1.1-2.7,1.3-3.7,0.7c-1-0.7-1.3-2.5-1.4-3.6l0.6-0.4l0.9-0.5c0.4,0.6,1,1.2,1.5,1.8
	C30.9,29.5,31.5,30.3,32.1,30.8z"/>
<path d="M31.9,30.5c-0.7,0.2-1.7,0.9-2-0.3c-0.1-0.4,0.4-0.8,0.8-1C31.1,29.7,31.5,30.2,31.9,30.5z"/>
<path class="st2" d="M33.2,58.4C30.2,58,28,60.1,28,60.1c-0.8,0-1.7,0.2-2.5,0.5c0.5-1.8,0.2-9,0.1-12.2c0.1,0,0.1,0.1,0.2,0.1
	c0.1,0.1,0.3,0.1,0.4,0.2c0.3,0.1,0.5,0.2,0.8,0.4c0.2,0.1,0.5,0.2,0.7,0.3c0.1,0,0.2,0.1,0.3,0.1c0.1,0,0.2,0.1,0.3,0.1
	c0.3,0.1,0.7,0.2,1.1,0.3c0.1,0,0.1,0,0.2,0.1c0.1,0,0.1,0,0.2,0c0.1,0,0.3,0.1,0.4,0.1c0.1,0,0.3,0.1,0.4,0.1
	c0.1,0,0.3,0.1,0.4,0.1c0.1,0,0.2,0,0.3,0c0.1,0,0.2,0,0.3,0c0.1,0,0.2,0,0.4,0c0.1,0,0.2,0,0.3,0c0.1,0,0.2,0,0.3,0L33.2,58.4z"/>
<path class="st7" d="M47.9,58.3c-0.1,0.4-0.1,0.7-0.2,1c-0.3,1.6-0.5,2.7-0.7,3.1c-0.4,0.6-1.1,4.3-3.4,7.7l0.2-0.8
	c-0.2-2.2-1-3.8-1.8-5c-1.6-2.2-3.7-2.8-3.7-2.8s-0.8,2.7-1.6,4.8c-0.7,2.1-2.9,1.9-6.8,1.8c-3.9-0.1-9-4-9-4v-1
	c1.1-0.9,2.7-2,4.5-2.7c0.8-0.3,1.7-0.5,2.5-0.5c0,0,2.1-2.1,5.2-1.7c1.1,0.2,2.4,0.6,3.7,1.7c0,0,3.7-3.2,7-2.8
	C45.9,57.5,47.2,58,47.9,58.3z"/>
<path class="st5" d="M47.8,59.4c-0.3,1.6-0.5,2.7-0.7,3.1c-0.4,0.6-1.1,4.3-3.4,7.7l0.2-0.8c-0.2-2.2-1-3.8-1.8-5
	c1.4-1.4,3.5-3.4,3.6-3.8C45.9,60.2,46.4,59.3,47.8,59.4z"/>
<path class="st1" d="M28,60.1c0,0-3.4,3.2-4.2,6"/>
<path class="st5" d="M36.9,60.1c0,0-1.2,0.9-1.6,1.8"/>
<path class="st5" d="M23,44.2c0,0-0.6-4.3,1.1-6"/>
<path class="st5" d="M26.5,46.8c0,0-0.2-4,1.1-5.3"/>
<path class="st5" d="M34.1,50.4c0,0,1.3-3.9,1.1-5.3"/>
<path class="st5" d="M41.5,50.4c0,0,2.1-3.7,1.6-5"/>
<path class="st5" d="M47.3,47.8c0,0,2-4.9,1.3-5.8c-2.5-3.4-7.6-1.4-7.6-1.4s-2,1-2.6-0.4c-0.6-1.4-3.3-4.6-3.3-4.6"/>
<path class="st5" d="M19.6,65.8c0,0-1.8,1.2-2.2,2.9"/>
<path class="st5" d="M20,70.6c0,0,0.2-1.9,1.1-2.3"/>
<path class="st5" d="M23.9,72.3c0,0,0.3-2.3,1.2-2.8"/>
<line class="st5" x1="30.9" y1="74.3" x2="31.2" y2="70.9"/>
<path class="st5" d="M36.6,73.6c0,0,0.1-3.1-0.5-3.7"/>
<path class="st1" d="M53.1,3.9C53,3.7,53,3.6,53,3.6C53,3.6,53.1,3.7,53.1,3.9z"/>
<path class="st4" d="M64.5,24.5c0,0-2.7-5.5-4.8-6c0,0,2.4,6.7-3,11c0,0,0.4-5.9-0.5-6.5c0,0-0.4,2.9-1.7,3.7c0,0-0.3-5.6-2.1-6.2
	l-1.8,3.3c-0.2-0.1-0.5-0.3-0.8-0.3c-4.2-1.3-7.4-1.6-11.1,0.7l-0.1-4.2c0,0-0.6-3.8-1.8-4.7c-1.1-0.9-4.9,0.6-5.1,0.6
	c0.2-0.2,3.3-3,4.7-3.4c1.4-0.5-4.3,0.4-4.7,1c-0.4,0.6,1.8-3.9,9.2-3.5c0,0-4.3-1.6-7.1-0.9c0,0,0-0.7,0.5-1.1c0,0,0.1,0,0.1-0.1
	c0.6-0.3-1.5-0.2-1.5-0.2s1.3-1.2,2.8-1.3c1.5-0.1,3.5-0.4,4.9,0.1c0,0,3.4-1.4,6.9-0.4c0,0-2.9-2.4-4.8-2.7c0,0,7.3-1.8,10.3,6.6
	c0,0,0.2-5.1-0.1-6.4c0.5,1.3,2.6,6.6,2.4,7.8L58.8,7c0,0-0.5,3.5-1.5,4.9c0.1-0.1,2.3-1.6,4.4-1c0,0-2.3,0.9-2.8,1.8
	c0,0,3.4-0.2,5,1.3c0,0-2.4-0.2-2.9,0.3C61,14.3,66.4,16.6,64.5,24.5z"/>
<path class="st5" d="M42.1,18.3c0,0,1.1-3.4,4.1-4.2"/>
<path class="st5" d="M53.9,13.8c0,0-8,1.1-11.8,6.9"/>
<path class="st5" d="M56.3,23c0,0-0.4-2.7-0.8-3.3"/>
<path class="st5" d="M40.8,6.7c0,0,2.8,0.2,3.9,1.6"/>
<g>
</g>
<g>
</g>
<g>
</g>
<g>
</g>
<g>
</g>
<g>
</g>
</svg>
