<svg xmlns="http://www.w3.org/2000/svg" viewBox="0 0 85 103.5" enable-background="new 0 0 85 103.5"><style type="text/css">.st0{fill:#662D91;stroke:#000000;stroke-width:0.3898;stroke-miterlimit:10;} .st1{fill:none;stroke:#000000;stroke-width:0.3898;stroke-miterlimit:10;} .st2{fill:#640A65;stroke:#000000;stroke-width:0.3898;stroke-miterlimit:10;} .st3{fill:#FFFFFF;stroke:#000000;stroke-width:0.3898;stroke-miterlimit:10;} .st4{fill:#481267;stroke:#000000;stroke-width:0.3898;stroke-miterlimit:10;} .st5{fill:none;stroke:#000000;stroke-width:0.3898;stroke-linecap:round;stroke-miterlimit:10;} .st6{fill:#702F73;stroke:#000000;stroke-width:0.3898;stroke-miterlimit:10;} .st7{fill:#6D487B;stroke:#000000;stroke-width:0.3898;stroke-miterlimit:10;}</style><path class="st0" d="M64.9 41.8c2.9-1.2 7.5-7.1 11.3-7.3 3.8-.3 3.8-1.9.8-2.5-3-.6-9-2.3-15-.5-6 1.9-7.3 3.1-7.3 3.1s-.6-8.5-4.1-10.6c-.2-.1-.5-.3-.8-.3-4.2-1.3-7.4-1.6-11.1.7l-.1-4.2s-4.9-.4-6.4 1.6c0 0-.4-.2-1.1-.5-1-.4-2.4-.8-4-.6-1 .1-2.1.5-3.1 1.4l2.5 6.1.5-.3.6-.4.9-.5c.4.6 1 1.2 1.5 1.8.2.2.3.4.5.5.4.5.8.9 1.2 1.3l.3.3c.2.2.3.3.5.4-.1.7-.5 1.5-1.8 1.6-2.6.2-3.3-1.2-3.9-1.7-.4-.4-.6-1.3-.7-2-.9 0-4.7-.1-6.1 1.4-1.6 1.7-3.3 2.6-1.5 5.3.9 1.3 1.7 2.4 2.4 3.2.3-2.3.6-4.1.6-4.1s.6 1 1.6 2.4c1.9 2.5 5.5 6 10.1 6.7 2.3.3 4.5.4 6.3.2 3.9-.3 6.5-1.4 7.4-1.8 1.3-.7 2.3-.1 2.9.8v3.6s.3 2.1.3 4.6c0 2.3-2 11.3-2 11.3s-3.4 14.1-12.1 17.7c-8.7 3.6-15.3-.1-18.6-2.4-2.3-1.5-4.6-5.2-5.8-8-5.2.9-2.5 5.9-2.5 5.9s-6.1 5-6.3 9.8c-.3 4.9 16.5 22 39.8 10.3 23.4-11.8 22.6-23.6 29.8-24.3 7.2-.7 6.5-5.6 5-8.8-1.5-3.2-8.9-17-20-22.1.5.2 4.8 2 7.5.9zm-18.5-7c-.2.5-1.8 3-5 2.9-2.3 0-4.1-3-4.9-4.7.5-.1 1-.2 1.6-.3.9-.2 1.9-.3 3.2-.4.4 0 .9-.1 1.4-.1l1.3-.1c.6 0 1.3-.1 2.1-.1.4 1.3.7 2.9.3 2.8z"/><path class="st1" d="M46.4 34.8c-.2.5-1.8 3-5 2.9-2.3 0-4.1-3-4.9-4.7.5-.1 1-.2 1.6-.3.9-.2 1.9-.3 3.2-.4.3.1.6.3.9.5.8.4 1.6.8 2.3 1.2.4.2.7.4 1 .5.5.2.8.3.9.3z"/><path class="st2" d="M49.3 47.3s-.7 6.5-1.4 11c-.7-.3-2.1-.8-4.1-1.1-3.3-.4-7 2.8-7 2.8-1.3-1.1-2.5-1.5-3.7-1.7-2.9-.3-5.1 1.8-5.1 1.8-.8 0-1.7.2-2.5.5-1.7.6-3.4 1.8-4.5 2.7v-.7c2.5-1 3-4.8 3.4-5.8.3-.8.2-6.4.2-8.9.3.2.6.4 1 .6l.2.1.4.2c.3.1.5.2.8.4l.7.3.3.1.3.1c.3.1.7.2 1.1.3.1 0 .1 0 .2.1h.2l.4.1.4.1.4.1h2.9l-.6 3.2s3.7.6 8.1-3.2c0 0 4.5-.5 5.8-2.6.1 0 1.3-.2 2.1-.5z"/><path class="st3" d="M50.1 46.8c-.1.2-.4.4-.7.5-.8.3-2 .5-2 .5-1.2 2.1-5.8 2.6-5.8 2.6-4.3 3.8-8.1 3.2-8.1 3.2l.6-3.2h-2.9l-.4-.1-.4-.1-.4-.1h-.2c-.1 0-.1 0-.2-.1l-1.1-.3-.3-.1-.3-.1c-.3-.1-.5-.2-.7-.3-.3-.1-.6-.2-.8-.4-.2-.1-.3-.1-.4-.2l-.2-.1c-.4-.2-.7-.4-1-.6-1.2-.7-1.9-1.3-1.9-1.3-.8.6-1.9.4-1.9.4-.4-1.9-.1-5.3.2-8 .3-2.3.6-4.1.6-4.1s.6 1 1.6 2.4c1.9 2.5 5.5 6 10.1 6.7 2.3.3 4.5.4 6.3.2 3.9-.3 6.5-1.4 7.4-1.8 1.3-.7 2.3-.1 2.9.8v3.6z"/><path class="st4" d="M50.3 51.4c0 2.3-2 11.3-2 11.3s-3.4 14.1-12.1 17.7c-8.7 3.6-15.3-.1-18.6-2.4-2.3-1.5-4.6-5.2-5.8-8-.6-1.4-.8-2.5-.7-3.1.4-1.3 3.6-2.4 5.6-2.9 0 0-1.7 3.3-1.9 3.6-.2.3.4.8.4.8s6.2 9.6 17.8 8.3c4.1-.5 6.9-2.2 9-4.3.6-.6 1.1-1.2 1.6-1.9l.1-.2c2.4-3.5 3.1-7.1 3.4-7.7.2-.3.4-1.5.7-3.1l.2-1c.7-4.5 1.4-11 1.4-11 .4-.1.6-.3.7-.5 0-.2.2 1.9.2 4.4z"/><path class="st1" d="M50.1 46.8c-.1.2-.4.4-.7.5l.7-.5z"/><path class="st0" d="M31.3 21.2c-1-.4-2.4-.8-4-.6-.7-4.5 1.1-10.5 1.1-10.5.4 5.1 1.9 9 2.9 11.1z"/><path class="st1" d="M33.8 23.4s-.6-1.5-1.5-1.7"/><path class="st3" d="M43.9 69.4l-.2.8-.1.2c-.5.6-1 1.3-1.6 1.9-2 2.1-4.9 3.8-9 4.3-11.6 1.4-17.8-8.3-17.8-8.3s-.6-.5-.4-.8c.2-.3 1.9-3.6 1.9-3.6 1-1.6 2.3-3.1 4.3-3.9v4.2s5.1 3.8 9 4c3.9.1 6.1.3 6.8-1.8l1.6-4.8s2.1.6 3.7 2.8c.8 1.1 1.6 2.8 1.8 5z"/><path class="st5" d="M47.2 37.5h3.8c.7 0 1.4.3 1.9.8l2.8 3.1c.9 1 1 2.4.4 3.5l-2.6 4.1c-.3.5-.5 1-.6 1.6-.5 3.5-2.3 16.9-2.2 18.5.1 1.9-4.4 15-13.3 19s-11.3 4.2-17.6 0l-10.5-12.2m45.3-11.5s1 10.9-8.5 15.9m10.3-8.9s-5.7 9.1-11.6 10.6m8.8-44.5s2.8.9 4.9-.6 7.2-5.8 9.7-6.3m-1.3 2.9h-3.9m3.2 2h-5.9m-20.7-7.6s6.3-3 9.4-1.9c3.1 1 3.2 6.3 2.1 7.1l-1.9 1.2"/><path class="st4" d="M39.7 44.1c-1.8.1-4 .1-6.3-.2-4.6-.7-8.2-4.3-10.1-6.7.7-.4 1.6-.7 2.4.2 1.2 1.5 1.9 3.1 1.9 3.1s3.8-1.4 5.8 0c1.4 1 4.5 2.7 6.3 3.6z"/><path class="st5" d="M32.3 34.2s2.5-.9 2.9.4c.4 1.3 0 2.6-1.4 2.7m-4.2-4.6s-2 1.4-2 2.9.2 2.5 2.2 1.7 3.7-2.3 4.4-.7m13.4-4.5h-1.3m-9.9-6.4s-3.8 2.9-3.1 5.3c.6 2.4.8 2.5 3.1 2.1h.1"/><path class="st6" d="M46.4 34.8c-.1 0-.4-.1-.8-.3-.3-.1-.6-.3-1-.5-.7-.4-1.5-.8-2.3-1.2l-.9-.5c.4 0 .9-.1 1.4-.1l1.3-.1c.6 0 1.3-.1 2.1-.1.3 1.3.6 2.9.2 2.8zm0 0c-.2.5-1.8 3-5 2.9-2.3 0-4.1-3-4.9-4.7.5-.1 1-.2 1.6-.3.9-.2 1.9-.3 3.2-.4.3.1.6.3.9.5.8.4 1.6.8 2.3 1.2.4.2.7.4 1 .5.5.2.8.3.9.3z"/><path class="st3" d="M45.7 34.5s-1.9 2.5-4.8 1.7c-2.1-.6-2.6-2.5-2.6-3.4.9-.2 1.9-.3 3.2-.4.3.1.6.3.9.5.8.4 1.6.8 2.3 1.2l1 .4z"/><path d="M44.6 34c-.4.3-.9.7-1.4.8-.9.2-1.7-1-1.5-1.6.1-.2.3-.3.7-.4.7.4 1.6.8 2.2 1.2z"/><path class="st5" d="M21.1 34.2s1-1.2 2.2-.7c1.2.5 1 2.2 2.2 1.6 1.2-.6 1.3-1.2 2.5-.9m4.6-3c.4.3.7.4.9.4m-4.8-4.7c-.5-.6-1.4-1.8-1.4-1.8"/><path class="st6" d="M32.6 31.2c-.1.7-.5 1.5-1.8 1.6-2.6.2-3.3-1.2-3.9-1.7-.4-.4-.6-1.3-.7-2-.1-.4-.1-.7-.1-.7l.5-.3.5-.3.6-.4.9-.5c.4.6 1 1.2 1.5 1.8.7.8 1.4 1.5 2 2.1.2.2.4.3.5.4z"/><path class="st3" d="M32.1 30.8c-1 1.1-2.7 1.3-3.7.7-1-.7-1.3-2.5-1.4-3.6l.6-.4.9-.5c.4.6 1 1.2 1.5 1.8.9.7 1.5 1.5 2.1 2z"/><path d="M31.9 30.5c-.7.2-1.7.9-2-.3-.1-.4.4-.8.8-1 .4.5.8 1 1.2 1.3z"/><path class="st2" d="M33.2 58.4c-3-.4-5.2 1.7-5.2 1.7-.8 0-1.7.2-2.5.5.5-1.8.2-9 .1-12.2l.2.1.4.2c.3.1.5.2.8.4l.7.3.3.1.3.1c.3.1.7.2 1.1.3.1 0 .1 0 .2.1h.2l.4.1.4.1.4.1h1.6l.6 8.1z"/><path class="st7" d="M47.9 58.3c-.1.4-.1.7-.2 1-.3 1.6-.5 2.7-.7 3.1-.4.6-1.1 4.3-3.4 7.7l.2-.8c-.2-2.2-1-3.8-1.8-5-1.6-2.2-3.7-2.8-3.7-2.8s-.8 2.7-1.6 4.8c-.7 2.1-2.9 1.9-6.8 1.8-3.9-.1-9-4-9-4v-1c1.1-.9 2.7-2 4.5-2.7.8-.3 1.7-.5 2.5-.5 0 0 2.1-2.1 5.2-1.7 1.1.2 2.4.6 3.7 1.7 0 0 3.7-3.2 7-2.8 2.1.4 3.4.9 4.1 1.2z"/><path class="st5" d="M47.8 59.4c-.3 1.6-.5 2.7-.7 3.1-.4.6-1.1 4.3-3.4 7.7l.2-.8c-.2-2.2-1-3.8-1.8-5 1.4-1.4 3.5-3.4 3.6-3.8.2-.4.7-1.3 2.1-1.2z"/><path class="st1" d="M28 60.1s-3.4 3.2-4.2 6"/><path class="st5" d="M36.9 60.1s-1.2.9-1.6 1.8m-12.3-17.7s-.6-4.3 1.1-6m2.4 8.6s-.2-4 1.1-5.3m6.5 8.9s1.3-3.9 1.1-5.3m6.3 5.3s2.1-3.7 1.6-5m4.2 2.4s2-4.9 1.3-5.8c-2.5-3.4-7.6-1.4-7.6-1.4s-2 1-2.6-.4c-.6-1.4-3.3-4.6-3.3-4.6m-15.5 30.2s-1.8 1.2-2.2 2.9m2.6 1.9s.2-1.9 1.1-2.3m2.8 4s.3-2.3 1.2-2.8m5.8 4.8l.3-3.4m5.4 2.7s.1-3.1-.5-3.7"/><path class="st1" d="M53.1 3.9c-.1-.2-.1-.3-.1-.3s.1.1.1.3z"/><path class="st4" d="M64.5 24.5s-2.7-5.5-4.8-6c0 0 2.4 6.7-3 11 0 0 .4-5.9-.5-6.5 0 0-.4 2.9-1.7 3.7 0 0-.3-5.6-2.1-6.2l-1.8 3.3c-.2-.1-.5-.3-.8-.3-4.2-1.3-7.4-1.6-11.1.7l-.1-4.2s-.6-3.8-1.8-4.7c-1.1-.9-4.9.6-5.1.6.2-.2 3.3-3 4.7-3.4 1.4-.5-4.3.4-4.7 1-.4.6 1.8-3.9 9.2-3.5 0 0-4.3-1.6-7.1-.9 0 0 0-.7.5-1.1 0 0 .1 0 .1-.1.6-.3-1.5-.2-1.5-.2s1.3-1.2 2.8-1.3c1.5-.1 3.5-.4 4.9.1 0 0 3.4-1.4 6.9-.4 0 0-2.9-2.4-4.8-2.7 0 0 7.3-1.8 10.3 6.6 0 0 .2-5.1-.1-6.4.5 1.3 2.6 6.6 2.4 7.8l3.5-4.4s-.5 3.5-1.5 4.9c.1-.1 2.3-1.6 4.4-1 0 0-2.3.9-2.8 1.8 0 0 3.4-.2 5 1.3 0 0-2.4-.2-2.9.3 0 0 5.4 2.3 3.5 10.2z"/><path class="st5" d="M42.1 18.3s1.1-3.4 4.1-4.2m7.7-.3s-8 1.1-11.8 6.9m14.2 2.3s-.4-2.7-.8-3.3m-14.7-13s2.8.2 3.9 1.6"/></svg>