<?xml version="1.0" encoding="utf-8"?>
<!-- Generator: Adobe Illustrator 18.1.1, SVG Export Plug-In . SVG Version: 6.00 Build 0)  -->
<!DOCTYPE svg PUBLIC "-//W3C//DTD SVG 1.1//EN" "http://www.w3.org/Graphics/SVG/1.1/DTD/svg11.dtd">
<svg version="1.1" id="Layer_1" xmlns="http://www.w3.org/2000/svg" xmlns:xlink="http://www.w3.org/1999/xlink" x="0px" y="0px"
	 viewBox="0 0 85 103.5" style="enable-background:new 0 0 85 103.5;" xml:space="preserve">
<style type="text/css">
	.st0{stroke:#000000;stroke-width:0.5;stroke-miterlimit:10;}
	.st1{fill:#D07D17;stroke:#000000;stroke-width:0.5;stroke-miterlimit:10;}
	.st2{fill:none;stroke:#FFFFFF;stroke-width:0.3;stroke-linecap:round;stroke-miterlimit:10;}
	.st3{fill:none;stroke:#000000;stroke-width:0.5;stroke-linecap:round;stroke-miterlimit:10;}
	.st4{fill:#FFFFFF;}
	.st5{fill:#F7941E;stroke:#000000;stroke-width:0.5;stroke-miterlimit:10;}
</style>
<path class="st0" d="M49.7,42.9c0,2.6-0.2,9.8-0.3,13.6c-1.2,0.2-2.9,1.6-4.1,3c-1,1.1-1.8,2-1.8,2l-3.9-5.1c0,0,0,0-2.2,3.2
	c-0.4,0.5-0.9,0.9-1.5,1.1c-3.2,1.1-9-1.4-9.7-3.2c-0.1-0.2-0.3-0.5-0.5-0.7c-2.1-2-8.8-3.7-12.5-3.4c-3.5,0.2-5.5-0.4-6-0.6
	c0,0,0,0-0.1,0l0-0.1c0.7-0.5,9.5-7.2,9.8-11.3C17,37,20,28.5,25.8,28.1c0,0,0.5-6.3-5.1-11.2c0.3,0.2,5.9,2.7,7.6,8.2l2.3,0.1
	c0,0,0.4-10.4-2.8-14.8c0.3,0.3,4.7,4.7,6.1,13.6h1.6c0,0,1.4-6.3,10.2-10.9c0,0-6.6,7.5-7.1,10.9c0,0,10.4-3.2,14.1-1.7
	c0,0-11.2,1.8-12.4,5.7c0,0,7.2,4.2,7.2,12.7C47.4,40.6,49.7,39.2,49.7,42.9z"/>
<path class="st1" d="M80.6,76.4c-1.2,0.3-3.5,0.5-7.6-0.2c-3.3-0.6-5.2-1.5-6.2-2.4c4.3,0.2,10.2,1.1,13.4,2.4
	C80.3,76.3,80.4,76.4,80.6,76.4z"/>
<path d="M39,64c0,0.1,0,0.2,0,0.3c-0.1,0.7-0.7,1.2-1.5,1.2c-0.8,0-1.5-0.7-1.5-1.5c0-0.2,0-0.3,0.1-0.5c0.2-0.6,0.7-1,1.4-1
	C38.3,62.5,39,63.2,39,64z"/>
<path class="st2" d="M29.8,41C28,35.4,22.6,39,22.6,39"/>
<path class="st2" d="M23.5,32.5c0,0,9.7-2.2,10,9.4"/>
<path class="st2" d="M37.5,37.8c0,0,4.4,1.6,2.3,12.6"/>
<line class="st2" x1="45.8" y1="40.2" x2="44.7" y2="46"/>
<path class="st3" d="M24.8,58.1"/>
<path class="st4" d="M35.7,60.7c-3.2,1.1-9-1.4-9.7-3.2c-0.1-0.2-0.3-0.5-0.5-0.7C24.6,43,29.8,41,29.8,41L37,54.8
	C34.9,56.1,35.4,59.2,35.7,60.7z"/>
<path class="st4" d="M48.6,47.4v6.7l-1.2,0c-1.2,0-2.2,1-2.2,2.3v3c-1,1.1-1.8,2-1.8,2l-3.9-5.1L48.6,47.4z"/>
<path class="st5" d="M84.2,73c-0.6-1.5-3.3-4.1-12.6-4.8c-9.2-0.7-13.9,2.1-13.9,2.1c-4.5-0.5-8.9-3.7-11.5-6.1
	c-0.4-0.4-0.8-0.8-1.2-1.1c0,0,0,0-0.1-0.1c-0.4-0.4-0.7-0.7-1-1c-0.3-0.4-0.5-0.6-0.5-0.6l-3.9-5.1c0,0,0,0-2.2,3.2
	c-0.4,0.5-0.9,0.9-1.5,1.1c-3.2,1.1-9-1.4-9.7-3.2c-0.1-0.2-0.3-0.5-0.5-0.7c-2.1-2-8.8-3.7-12.5-3.4c-3.5,0.2-5.5-0.4-6-0.6
	c0,0,0,0-0.1,0C2.3,53.6,1.1,57,1.1,57c-1.4,4.3,3.1,9.3,3.1,9.3s10.1,11,22.3,10.4c0,0,2.5,5.3,13.2,5.3c10.7,0,20.2-7.9,24.1-8.2
	c0.8-0.1,1.9-0.1,3,0h0c4.3,0.2,10.2,1.1,13.4,2.4c0.1,0.1,0.3,0.1,0.4,0.1c0,0,0,0,0,0C84.3,77.7,84.7,74.5,84.2,73z M38.9,64.3
	c-0.1,0.7-0.7,1.2-1.5,1.2c-0.8,0-1.5-0.7-1.5-1.5c0-0.2,0-0.3,0.1-0.5c0.2-0.6,0.7-1,1.4-1c0.8,0,1.5,0.7,1.5,1.5
	C39,64.1,39,64.2,38.9,64.3z"/>
<path class="st5" d="M57.7,70.3c-4.5-0.5-8.9-3.7-11.5-6.1c-0.4-0.4-0.8-0.8-1.2-1.1c0,0,0,0-0.1-0.1c-0.4-0.4-0.7-0.7-1-1
	c-0.3-0.4-0.5-0.6-0.5-0.6s0.8-1,1.8-2c1.2-1.3,2.9-2.8,4.1-3C59.1,58.1,57.7,70.3,57.7,70.3z"/>
<path class="st3" d="M7.9,61.8c0,0,12.7-4.4,18.3,2.8"/>
<path class="st3" d="M26.5,76.8c0,0-3.2-4.4-3.4-7.1c-0.2-2.7-5.5-9.1-5.5-9.1"/>
<path class="st3" d="M50.5,74.4c1.4-2.2,7.1-4.1,7.1-4.1"/>
<path class="st3" d="M53.7,64.6c0,0-4.7-1.7-7.5-0.4"/>
<g>
</g>
<g>
</g>
<g>
</g>
<g>
</g>
<g>
</g>
<g>
</g>
</svg>
