<svg xmlns="http://www.w3.org/2000/svg" viewBox="0 0 85 103.5" enable-background="new 0 0 85 103.5"><style type="text/css">.st0{stroke:#000000;stroke-width:0.5;stroke-miterlimit:10;} .st1{fill:#D07D17;stroke:#000000;stroke-width:0.5;stroke-miterlimit:10;} .st2{fill:none;stroke:#FFFFFF;stroke-width:0.3;stroke-linecap:round;stroke-miterlimit:10;} .st3{fill:none;stroke:#000000;stroke-width:0.5;stroke-linecap:round;stroke-miterlimit:10;} .st4{fill:#FFFFFF;} .st5{fill:#F7941E;stroke:#000000;stroke-width:0.5;stroke-miterlimit:10;}</style><path class="st0" d="M49.7 42.9c0 2.6-.2 9.8-.3 13.6-1.2.2-2.9 1.6-4.1 3-1 1.1-1.8 2-1.8 2l-3.9-5.1-2.2 3.2c-.4.5-.9.9-1.5 1.1-3.2 1.1-9-1.4-9.7-3.2-.1-.2-.3-.5-.5-.7-2.1-2-8.8-3.7-12.5-3.4-3.5.2-5.5-.4-6-.6h-.1v-.1c.7-.5 9.5-7.2 9.8-11.3.1-4.4 3.1-12.9 8.9-13.3 0 0 .5-6.3-5.1-11.2.3.2 5.9 2.7 7.6 8.2l2.3.1s.4-10.4-2.8-14.8c.3.3 4.7 4.7 6.1 13.6h1.6s1.4-6.3 10.2-10.9c0 0-6.6 7.5-7.1 10.9 0 0 10.4-3.2 14.1-1.7 0 0-11.2 1.8-12.4 5.7 0 0 7.2 4.2 7.2 12.7-.1-.1 2.2-1.5 2.2 2.2z"/><path class="st1" d="M80.6 76.4c-1.2.3-3.5.5-7.6-.2-3.3-.6-5.2-1.5-6.2-2.4 4.3.2 10.2 1.1 13.4 2.4.1.1.2.2.4.2z"/><path d="M39 64v.3c-.1.7-.7 1.2-1.5 1.2s-1.5-.7-1.5-1.5c0-.2 0-.3.1-.5.2-.6.7-1 1.4-1 .8 0 1.5.7 1.5 1.5z"/><path class="st2" d="M29.8 41c-1.8-5.6-7.2-2-7.2-2m.9-6.5s9.7-2.2 10 9.4m4-4.1s4.4 1.6 2.3 12.6m6-10.2l-1.1 5.8"/><path class="st3" d="M24.8 58.1"/><path class="st4" d="M35.7 60.7c-3.2 1.1-9-1.4-9.7-3.2-.1-.2-.3-.5-.5-.7-.9-13.8 4.3-15.8 4.3-15.8l7.2 13.8c-2.1 1.3-1.6 4.4-1.3 5.9zm12.9-13.3v6.7h-1.2c-1.2 0-2.2 1-2.2 2.3v3c-1 1.1-1.8 2-1.8 2l-3.9-5.1 9.1-8.9z"/><path class="st5" d="M84.2 73c-.6-1.5-3.3-4.1-12.6-4.8-9.2-.7-13.9 2.1-13.9 2.1-4.5-.5-8.9-3.7-11.5-6.1-.4-.4-.8-.8-1.2-1.1l-.1-.1-1-1c-.3-.4-.5-.6-.5-.6l-3.9-5.1-2.2 3.2c-.4.5-.9.9-1.5 1.1-3.2 1.1-9-1.4-9.7-3.2-.1-.2-.3-.5-.5-.7-2.1-2-8.8-3.7-12.5-3.4-3.5.2-5.5-.4-6-.6h-.1c-4.7.9-5.9 4.3-5.9 4.3-1.4 4.3 3.1 9.3 3.1 9.3s10.1 11 22.3 10.4c0 0 2.5 5.3 13.2 5.3s20.2-7.9 24.1-8.2c.8-.1 1.9-.1 3 0 4.3.2 10.2 1.1 13.4 2.4.1.1.3.1.4.1 3.7 1.4 4.1-1.8 3.6-3.3zm-45.3-8.7c-.1.7-.7 1.2-1.5 1.2s-1.5-.7-1.5-1.5c0-.2 0-.3.1-.5.2-.6.7-1 1.4-1 .8 0 1.5.7 1.5 1.5.1.1.1.2 0 .3zm18.8 6c-4.5-.5-8.9-3.7-11.5-6.1-.4-.4-.8-.8-1.2-1.1l-.1-.1-1-1c-.3-.4-.5-.6-.5-.6s.8-1 1.8-2c1.2-1.3 2.9-2.8 4.1-3 9.8 1.7 8.4 13.9 8.4 13.9z"/><path class="st3" d="M7.9 61.8s12.7-4.4 18.3 2.8m.3 12.2s-3.2-4.4-3.4-7.1c-.2-2.7-5.5-9.1-5.5-9.1m32.9 13.8c1.4-2.2 7.1-4.1 7.1-4.1m-3.9-5.7s-4.7-1.7-7.5-.4"/></svg>