<svg xmlns="http://www.w3.org/2000/svg" viewBox="0 0 612 792" enable-background="new 0 0 612 792"><style type="text/css">.st0{fill:none;stroke:#000000;stroke-miterlimit:10;} .st1{fill:#792516;stroke:#000000;stroke-width:3;stroke-miterlimit:10;} .st2{fill:#FFFFFF;stroke:#000000;stroke-width:0.5;stroke-miterlimit:10;} .st3{fill:none;stroke:#000000;stroke-width:2;stroke-linecap:round;stroke-miterlimit:10;} .st4{fill:#510E00;stroke:#000000;stroke-width:0.5;stroke-miterlimit:10;} .st5{stroke:#000000;stroke-width:2;stroke-miterlimit:10;} .st6{stroke:#000000;stroke-width:0.5;stroke-miterlimit:10;} .st7{fill:#541427;stroke:#000000;stroke-width:0.5;stroke-miterlimit:10;} .st8{fill:#C8535C;stroke:#000000;stroke-width:0.5;stroke-miterlimit:10;}</style><path class="st0" d="M511.2 378v-2c0-.4 0-.8-.1-1.3 0-.4 0-.8-.1-1.1l-.1-1.2-.2-2.3-.3-2.3c-.1-1-.3-2.1-.5-3.1l-.1-.6c-.1-.6-.2-1.2-.4-1.8-.1-.7-.3-1.4-.4-2.2l-.5-2.1-.5-2.1-.6-2.1s-.4-1.4-.6-2l-.6-2c-.2-.7-.4-1.3-.6-1.9l-.5-1.5c-.5-1.5-1.1-3-1.6-4.4l-.5-1.3c-.2-.6-.4-1.1-.7-1.7l-1-2.4c-.2-.5-.4-1-.7-1.5-.3-.8-.6-1.5-1-2.2-.3-.7-.6-1.4-.9-2-1.4-3-2.5-5.5-3.2-7.3-4.4-10.1-17.3 1.5-27.4 10.1-.3.2-.6.5-.9.8l-.1.1-.9.8c-.6.5-1.1 1.1-1.6 1.8-.5.6-1 1.2-1.5 1.9-.3.4-.6.8-.8 1.2-.2.2-.3.4-.4.7l-.8 1.2-.6 1-.6 1.1-.6 1.1c-.2.4-.4.7-.5 1.1-.4.7-.7 1.4-1 2.1-.1.2-.2.3-.2.5-.4.9-.7 1.7-1 2.5-.1.3-.2.7-.4 1-.1.3-.2.7-.4 1l-.3.9-.2.5c-.1.2-.2.5-.2.7l-.2.5-.2.6-.1.3c0 .1-.1.2-.1.4 0 .1-.1.2-.1.4l-.1.3-.1.3c0 .1 0 .2-.1.3-.1.5-.2.9-.3 1.2 0 .1 0 .2-.1.3v.1c-.1 1.8 0 3.5.1 5.1 0 .3 0 .5.1.8 0 .2 0 .4.1.7 0 .2 0 .5.1.8 0 .2.1.5.1.8 0 .4.1.8.2 1.2l.3 1.8.3 1.2c0 .1 0 .2.1.3l.2.8c.1.6.3 1.2.5 1.8.1.4.2.8.4 1.2.1.5.3 1 .5 1.4l.4 1.2v.1l.3.8c0 .1.1.3.2.4l.5 1.1c.2.4.3.8.5 1.1.2.4.4.8.6 1.1l.6 1.1c.4.7.8 1.4 1.2 2l.9 1.4.5.7.3.4c.8 1 1.6 1.9 2.3 2.5.2.2.4.3.5.5.7.6 1.4 1.1 2 1.3l.3.1c.1 0 .2 0 .2.1h.1c.1 0 .2.1.2.1 4.3.7 5.7-4.3 12.2-2.9 6.5 1.4 3.6 15.1 7.9 19.4 4.3 4.3 3.6-4.3 5-15.1s-22.3-26.6-28.1-33.8c-5.8-7.9 1.4-6.5 8.6-4.3 7.9 2.2-7.2-10 0-21.6 7.2-11.6 15.1 2.8 15.8 15.8.7 13 14.4 6.5 14.4 31-.7 23.8 4.3 16.6 4.3 16.6.5-1.6 1-3.3 1.4-4.9.1-.4.2-.7.2-1.1v-.1c.1-.4.2-.8.2-1.2l.2-1.2.2-1.2.2-1.2.3-2.5c.1-.8.1-1.5.2-2.2.1-1.5.1-3.1.1-4.6-.2-.7-.2-.9-.2-1.2zm-221.5-87.3c-.1-.1-.2-.2-.3-.2-.3-.2-.6-.5-.8-.7-.3-.2-.6-.5-1-.7l-.7-.5c-.1-.1-.2-.2-.4-.2-.1-.1-.2-.2-.4-.2l-.3-.2-.8-.5c-.2-.1-.3-.2-.5-.2-.2-.1-.3-.2-.5-.2-.2-.1-.3-.2-.5-.2-.2-.1-.3-.2-.5-.2l-.7-.3c-1-.4-2-.8-3-1.1-.5-.2-1-.3-1.5-.4l-.8-.2-.8-.2c-.5-.1-1-.2-1.6-.3-.3-.1-.6-.1-1-.2-.3-.1-.6-.1-1-.2l-1.9-.3c-.6-.1-1.3-.2-1.9-.2-.3 0-.6 0-.9-.1h-.5c-1.7-.1-3.3-.2-4.8-.2h-5.800000000000001c-.3 0-.6 0-.8.1-.2 0-.5 0-.6.1h-.5s-18 13.6-38.9 12.2l-1.2-.1h-3.8000000000000003s-.6 0-.9.1l-1.3.1-1.5.2c-.4 0-.8.1-1.2.2-.7.1-1.3.2-2 .4-.7.1-1.3.3-1.9.5-.6.1-1.2.3-1.8.5l-1.4.4c-.9.3-1.7.6-2.5.9-.3.1-.6.2-.9.4-.6.2-1.3.5-1.9.8-.3.1-.6.2-.9.4-.7.3-1.4.6-2 .9l-1.2.6c-.7.4-1.4.7-2 1.1l-.8.4c-.8.5-1.6.9-2.3 1.4l-.8.5c-1.8 1.1-3.2 2.1-4.3 3-.1.1-.2.1-.2.2-.6.5-1.1.9-1.5 1.2l-.2.1-.1.1c-.2.2-.4.3-.4.3-5.8 18.7 8.6 13.7 8.6 13.7s5.1-10.8 24.5-7.9c1.8.2 3.6.3 5.4.3 1 0 2 0 2.9-.1 1.1-.1 2.1-.2 3.1-.3l1.3-.2c.5-.1.9-.2 1.4-.2.3 0 .6-.1.9-.2.4-.1.8-.2 1.1-.2.6-.1 1.2-.3 1.8-.5l2-.6 1.8-.6c.6-.2 1.2-.4 1.8-.7l.7-.3c.5-.2 1-.4 1.4-.6.7-.3 1.4-.6 2-.9.6-.3 1.1-.6 1.7-.8l2.4-1.3 1.2-.7 1-.6 1-.6c.3-.2.7-.4 1-.7.4-.2.8-.5 1.2-.8.4-.3.8-.5 1.1-.8 2.3-1.5 4.4-3.1 6.4-4.5l.9-.6h.1l.1-.1 1.1-.7 1.2-.6.9-.4c.3-.1.6-.3.8-.4l1.5-.6 1-.4 1.5-.5c.1 0 .2-.1.2-.1l1.4-.4 2.2-.6 1.8-.5c.7-.2 1.3-.3 2-.4l.5-.1h.1c.4-.1.8-.2 1.2-.2.5-.1.9-.2 1.3-.2l1.7-.3 1.2-.2.9-.1.6-.1h.7999999999999999l.9-.1 1-.1c.4-.1.8-.1 1.2-.1l1.8-.2c.4 0 .9-.1 1.2-.1h.5c.3 0 .6 0 .9-.1.7-.1 1.3-.1 1.8-.1h1c0-.6-.1-.7-.3-.9zm-156.4 41.2v-.6c0-.2 0-.3-.1-.5 0-.1 0-.3-.1-.4 0-.3-.1-.6-.2-.9l-.2-.7-.2-.7c-.1-.2-.2-.5-.3-.8s-.2-.5-.4-.8-.3-.5-.4-.7l-.4-.7c-.6-.9-1.4-1.8-2.1-2.7l-.6-.6-.7-.6c-.2-.2-.4-.4-.6-.5-.2-.2-.4-.4-.7-.6l-.1-.1c-.2-.2-.4-.3-.6-.4-.2-.2-.5-.4-.7-.5s-.5-.3-.7-.5c-.3-.2-.6-.4-1-.6l-.5-.3-.5-.3c-1.8-1.1-3.6-2-5.1-2.7-.3-.1-.6-.2-.8-.4h-.1l-.5-.2c-.9-.4-1.7-.7-2.2-.9l-.3-.1-.4-.1c-.4-.1-.5-.2-.5-.2s-26.6-2.9-33.1-13.7c-.1-.2-.2-.4-.4-.5l-.5-.6-.5-.6-.5-.5-.6-.5-.3-.3c-.3-.2-.6-.5-.9-.6-.2-.2-.5-.3-.8-.5l-.5-.3c-.2-.1-.5-.2-.7-.4-.3-.2-.6-.3-.9-.4l-.7-.3-.9-.3-.9-.3-1.2-.3h-.2c-.4-.1-.7-.2-1.1-.2l-.9-.2c-.5-.1-1.1-.2-1.7-.2h-.3l-.8-.1-1.2-.1h-4.7c-.7 0-1.4.1-2 .1h-.6c-.6.1-1.2.1-1.7.2l-.7.1c-.6.1-1.1.2-1.5.2h-.5c-.8.7-1.5 1.3-2.1 1.9l-.5.5-.4.5c-.1.1-.3.3-.4.5-.1.1-.2.3-.4.4l-.3.4-.3.4-.3.4c-.1.1-.2.3-.2.4-.1.1-.2.3-.3.5-.2.4-.3.7-.4 1l-.2.7-.1.5v1.2000000000000002c0 .1 0 .2.1.3l.1.3.1.3.3.6c0 .1.1.2.2.3l.2.3c.1.1.1.2.2.2l.3.3c.1.1.2.2.4.3l.2.1.5.3c.1.1.3.2.4.2 0 0 .1 0 .1.1l.6.3c.1 0 .2.1.4.1.2.1.4.1.5.2l.6.2c.4.1.8.2 1.1.3.1 0 .2 0 .4.1h.1c.2 0 .3 0 .4.1h.8c.2 0 .5 0 .7.1h.7c.3 0 .6 0 .9.1.1 0 .2 0 .3.1.3.1.7.2 1.1.3l.8.3.7.3.8.3.6.3c.2.1.4.2.7.3l.8.4c.8.4 1.7.9 2.6 1.4.4.2.9.5 1.4.8l1.4.8c.3.2.6.4.9.5l.9.6c.3.2.6.4 1 .6l2.6 1.6c4.1 2.6 8 5.3 10.4 7.2 1.4.8 2.9 1.5 4.3 2.2 9.4 2.9 25.2 3.6 25.2 3.6l.1.1.1.1c.2.2.4.4.8.7.1.1.2.2.4.3 1.4 1.3 3.7 3.4 6.2 5.4.4.3.8.7 1.3 1 .4.3.9.6 1.3 1 5 2.9 10.1 4.3 10.8-2.9l.1-1v-.8c.3-.1.3-.3.3-.5zm-12.3 13.9c0-.2-.2-.6-.8-.5 0-1-.7-2.3-1.6-3.2-.4-.5-.9-.8-1.3-1-1.4-.8-2.2-1.5-3.6-2.2-4.5-2.3-8.6-3.2-12.6-3.8l-2.2-.3h-.3c-.2 0-.4-.1-.7-.1-1.6-.2-3.1-.3-4.6-.3h-1.4c-.6 0-1.2.1-1.7.1l-2.7.3c-.4 0-.8.1-1.1.2-.7.1-1.4.2-2 .4-2.5.4-4.6 1-6.3 1.6l-.3.1c-3.5 1.2-5.4 2.5-5.6 2.6v1.1c0 .3 0 .7.1 1v.2c0 .1 0 .2.1.3v.5l.2.8c1.7 7 8.3 10.1 16 11.1l.8.1c.3 0 .6.1.8.1l1 .1c.4 0 .8 0 1.2.1h4.8c.8 0 1.6 0 2.4-.1.7 0 1.4-.1 2.1-.2.7-.1 1.4-.1 2-.2l3-.4c3-.5 5.6-1 7.7-1.3h1.4c1.4 0 2.9-.8 3.6-2.2.5-1 1.1-2.2 1.3-3.2.1-.4.1-.7.1-1.1.2-.4.2-.5.2-.6zm160.5 4.5v-.5c0-.1 0-.3-.1-.4 0-.1 0-.3-.1-.4 0-.3-.1-.6-.2-.8v-.1l-.3-.9c-.1-.2-.2-.3-.2-.5 0-.1-.1-.2-.2-.3-.1-.1-.1-.2-.2-.4 0-.1-.1-.2-.2-.2l-.3-.3c-.1-.2-.3-.3-.4-.4-.3-.3-.6-.5-.9-.7-.4-.3-.8-.5-1.2-.7h-.1c-.2-.1-.4-.2-.6-.2l-.8-.3c-.2-.1-.5-.2-.8-.3-.1 0-.2-.1-.2-.1l-1.1-.5-1.4-.6c-.2-.1-.5-.2-.8-.3l-2.1-.9c-.4-.2-.9-.4-1.3-.5-4.3-1.5-10.8-2.2-18-2.2h-3.2c-.3 0-.6 0-.9.1l-1 .1c-.4 0-.9.1-1.3.2l-1.6.3c-1.3.2-2.5.5-3.8.8-.1 0-.2 0-.2.1-.5.1-.9.2-1.3.4l-1 .3-1 .3-2.1.7-1.4.5-.3.1c-.5.2-1 .4-1.6.6h-.1c-.6.2-1.2.5-1.7.7l-3.9 1.8c-.5.2-1 .5-1.4.7l-1.1.6c-1.8.9-3.5 1.9-5 2.8l-.9.6c-.3.2-.6.4-.9.5l-.6.4c-.2.1-.4.2-.5.3-.3.2-.6.4-1 .6l-.9.6c-1.3.8-2.4 1.6-3.4 2.3-.2.2-.5.4-.7.5-.8.6-1.5 1.1-2.1 1.5l-.4.3-.2.2c-.1.1-.2.1-.2.2h-.1c-.1.1-.2.2-.3.2 4.3 7.2 12.3 9.4 38.9 10.1 17.2 0 28-4.3 33.8-7.2 1.4-.7 2.9-2.2 3.6-3.6.7-1.4 1.4-3.6 1.4-5-.1-.6-.1-.9-.1-1.1zm-161.2 218.2c-.7 0-1.4-.7-2.2-1.4-1.4-1.4-3.6-2.2-4.3-3.6-.7-.7-1.4-2.2-2.2-2.9-1-1.9-1.3-3.5-1-4.7-.1-.5-.2-1-.1-1.4-1 1.4-1.1 3.4.4 6 .8.7 1.5 2.2 2.2 2.9.7 1.4 2.9 2.2 4.3 3.6.8.7 1.5 1.4 2.2 1.4 1.4.8 2.9 1.5 4.3 2.2h.5c-1.3-.7-2.8-1.3-4.1-2.1z"/><path class="st1" d="M509 308.5c-11.5-14.4-19.4-10.1-20.9-8.6 0-7.9 1.4-115.2-22.3-167-25.2-54-102.2-77.8-139.7-89.3l-79.1-3.6c-32.4 9.4-51.8 16.6-67.7 24.5-15.8 7.9-28.1 16.6-46.1 28.8-35.3 23.8-77 139.7-77 160.6 0 20.9-20.2 37.3-12.3 59.7 8.6 22.3 13.7 43.9 10.1 59.8-3.6 15.8-3.6 61.2 0 72 3.6 10.8 20.9 77 20.9 77v.7l.7-.3c8.4-4.1 17.6-7.6 29.5-9.8l.2-.7 4.2-19.5h.4l16.2-2.2c11.5-4.3 22.3-10.1 34.6-10.1 6.5 0 13.7 1.4 20.9 5.8 5.8 2.9 10.1 4.3 14.4 3.6l-1.3 3.4-.1.2c-4.3 6.5-20.9-3.6-34.6-5h-1.4v26.6l1.4-.2c2.8-.3 5.7-.4 8.7-.3h.8c2.1.1 4.3.3 6.5.5l1.5.2c.5 0 .9.1 1.4.2l2.1.3c.9.1 1.8.3 2.7.5l1 .2c1 .2 2 .4 3.1.6l2.2.5 2.6.6c.7.2 1.4.3 2 .5.2 0 .4.1.6.2l1.9.5 1.6.5c.5.1 1.1.3 1.6.5l1.6.5 1.6.5 2.7.9.3.1 3 1 3.4 1.2 2.9 1c.8.3 1.5.6 2.2.8l2.2.8 1.5.6.4.2c12.6 5 21.7 9.5 22.9 10.1v27.4c-25.8-22.3-95.6-31.1-103.8-32.3-.3 0-.5-.1-.6-.1v-38.1l-4.3 1.4h-1.4c-2.2 0-5.8.7-8.6.7l-.9 24.1-.5 13.3h-2.8c-7.4.6-28 3.1-45.5 12.9v3.6c1.4 17.3 4.3 38.2 10.8 48.2 11.5 19.4 6.5 36.7 26.6 70.6.3.3.4.5.6.8.2.4.4.9.8 1.4 21.6 31 74.2 26.6 74.2 26.6s51.1-6.5 58.3-20.2c7.2-13 74.2-61.9 95.8-69.8 20.7-8.2 74-94.8 81.4-126v-.1c.2-1 .3-1.9.5-2.7 1.6-12.6 3.2-22.9 4.9-29.5l.4-1.6c1.9-7.4 3.8-9.6 5.7-4.3 3.6 10 2.2 26.6 13.7 31.7 7.9 1.4 20.2-1.4 28.1-8.6 8.6-7.2 18.7-29.5 38.2-57.6 20.5-27.2 5.4-85.5-7.6-101.4zm-241.1 30.3c.2 0 .5.1.7.2 3.2.8 5.2 2.1 7.2 3.5.4.3.8.6 1.3.9 1.6 1.3 3.2 3.1 3.7 4.9.7 2.8.7 5-.7 7.1-.7 1.4-2.2 2.9-3.6 3.6-5.8 2.9-17.3 7.2-33.8 7.2-25.4-.7-33.5-2.8-38.6-9.7l-.3-.4c2.2-1.4 23-17.3 43.2-19.4h2.9c7.2-.1 13 1.3 18 2.1zm-210.8-31.2l-1.2-.3c-.1 0-.2 0-.3-.1-.3-.1-.6-.1-.9-.1h-.7c-.2 0-.5 0-.7-.1h-.4c-4.3-.7-11.1-3.6-5.7-10.5.1-.1.2-.3.4-.4l.4-.5c.1-.1.3-.3.4-.5l.5-.5.6-.6.6-.6.9-.7h.1c.8 0 4.8-.8 9.5-.8h1.5c6.3.1 13.5 1.6 16.9 7.3 6.5 10.8 33.1 13.7 33.1 13.7 1.4-.1 20 6.1 21 18.4v2.0999999999999996c0 .3-.1.6-.1 1-.7 7.2-5.8 5.8-10.8 2.9-4.7-2.7-8.8-7.2-9.9-8.4l-.1-.1-.1-.1c-1.4 0-16.6-.7-25.2-3.6-1.4-.7-2.9-1.4-4.3-2.2-4.9-4.2-17.9-12.5-24.9-15.1-.1 0-.3-.1-.6-.2zm46.7 46.7c-.7.1-1.4.2-2.1.2l-2.1.2-2.4.1c-1.4.1-2.8.1-4.1 0h-.7c-.4 0-.8 0-1.2-.1-.3 0-.7 0-1-.1-.3 0-.6 0-.8-.1-.3 0-.6-.1-.8-.1-9-1.1-16.5-5-16.5-14.2.8-.7 5-2.9 12.2-4.3 1.5-.3 3.2-.6 5.1-.8 2.7-.3 5.6-.3 8.6.1h.7c3.7.1 7.8.9 11.6 2.5 1 .4 1.9.8 2.8 1.3.2.1.3.2.5.2.1 0 .2.1.2.1 1.4.7 2.2 1.4 3.6 2.2 1.4.7 2.9 2.9 2.9 5v.7c.5 0 .4.5 0 1.3-.2.5-.5 1-.7 1.6-.7 1.4-2.2 2.2-3.6 2.2h-1.4c-2.1.3-4.7.9-7.6 1.3-1.1.4-2.1.5-3.2.7zm112.9 222v.1c-3.2 5-17.2 15-32.3 21.4v20.4c0 8.7-7.1 15.8-15.8 15.8h-18.8c-8.7 0-15.8-7.1-15.8-15.8v-17.2c-5.8-1.4-11.4-3.4-15.2-6-1.4-.7-3.6-2.2-5-3.6l-4.3-5c-1.4-3.6-.7-6.5 2.2-8.6l.7-.7c.7-.7 1.4-.7 2.2-1.4 1.4-.7 2.2-1.4 3.6-2.2 0 0 .7-.7 1.4-.7 1.4-.7 2.9-1.4 4.3-2.2h.5c-1.3-.7-2.8-1.3-4.1-2.1-.7 0-1.4-.7-2.2-1.4-1.4-1.4-3.6-2.2-4.3-3.6-.7-.7-1.4-2.2-2.2-2.9-1-1.9-1.3-3.5-1-4.7-.1-.5-.2-1-.1-1.4.3-4.5 7.1-5.7 11.2-6.9 5-1.4 6.5 10.1 14.4 6.5 7.9-4.3 19.4-4.3 27.4 0 5.8 2.9 34.6 10.1 47.5 13.7 1.8.4 2.5 1.8 2.1 3.1.1.2.1.4.1.6v.7s0 .7-.7.7c.6 0 .7 0 1.3.6h.1l.3.1h.4c.4 0 .8.2 1 .5.3.1.5.2.7.4l.1.1.2.2v1.5zm62.8-284.2h-.3c-.2 0-.4 0-.6.1l-.9.1c-.4 0-.8.1-1.2.2-.5.1-1.1.2-1.7.3-.4.1-.9.2-1.3.2-.4.1-.8.2-1.2.2h-.1l-.5.1c-5.8 1.2-11.6 3-15.9 5.8l-.9.6c-2 1.5-4.1 3-6.4 4.5-.4.2-.8.5-1.1.8l-1.2.8c-.4.2-.7.4-1 .7-.3.2-.6.4-1 .6l-1 .6c-9 5.2-19.8 9.2-32.9 7.2-18.7-2.2-23.8 7.2-24.5 7.9-.7 0-14.3 4.3-8-13.5 0-.1 0-.1.1-.2.7-.7 18-15.8 38.9-14.4 20.9 1.4 38.2-11.5 38.9-12.2.2.3 2.7.2 6.3.4h.4c7.8.3 20.5 1.6 27.8 8.3-1.4 0-5.5.2-10.7.9zm211.6 135.3v.3c0 .1 0 .2-.1.3-.2.6-.5 1.2-.8 1.8-.2.3-.3.5-.5.7l-.3.3s0 .1-.1.1l-.3.3c-.3.3-.7.5-1 .7l-.4.2-.3.1c-.1 0-.2.1-.2.1-.2 0-.4.1-.5.1h-.6l-.3-.1-.3-.1c-.9-.3-1.6-1.1-2.1-2.5-1.1-4.1-5.2-9.2-11-8.5h-.1c-.2 0-.4.1-.5.1h-.2c-.2 0-.3.1-.5.2-.2 0-.3.1-.5.2-.5.2-1 .4-1.5.7-.5.3-1.1.5-1.7.8-.3.2-.7.3-1.1.5l-.6.3c-.4.2-.8.3-1.1.5h-.1l-1.2.5-1.3.5-.8.3c-.3.1-.5.2-.8.2s-.5.1-.8.2l-1 .3h-.2c-.3.1-.7.2-1 .2l-.7.1c-.1 0-.2 0-.4.1-4.6.7-8.6-.4-11-5.1-3.6-8.6 11.5-10.8 7.2-18.7-3.6-7.9-1.4-10.8-7.9-15.8-5.3-4.1-4.4-11-.3-11.2l.4-.1h.4c.9 0 1.9.3 3.1 1.1 0 0 .1.4.4 1l.2.4c.4.9.9 2.2 1.5 3.8.3.7.6 1.4.9 2.2l.5 1.2.8 1.8.6 1.2.7 1.5 1.2 2.3.7 1.2.9 1.5.4.7c.7 1.2 1.5 2.4 2.2 3.4l.7 1c.6.7 1.1 1.4 1.7 1.9l.3.3c.1.1.3.3.5.4.5.4.9.7 1.4.9.1.1.3.1.5.2.4.1.7.2 1.1.2l.7-.3c1.1-.7 2-1 2.7-1 .3-.1.5-.1.8-.1h.4c.1 0 .2 0 .3.1l.3.1c.1 0 .2.1.2.1l.4.3.3.4c0 .1.1.2.1.2l.1.3.1.3.1.3c0 .1.1.3.2.5.1.3.2.5.2.8l.1.3c.1.3.2.6.2.8l.1.4c.3.9.6 1.9 1.1 2.6.1.2.2.3.4.5l.4.1c3.6.6 18 12.1 16.6 16.5zm19.1-35.6c-.1.4-.2.8-.2 1.2v.1c-.1.4-.2.7-.2 1.1-.4 1.6-.8 3.3-1.4 4.9 0 0-5 7.2-4.3-16.6 0-24.5-13.7-18-14.4-31-.7-13-8.6-27.4-15.8-15.8-7.2 11.6 7.9 23.8 0 21.6-7.2-2.2-14.4-3.6-8.6 4.3 5.8 7.2 29.5 23 28.1 33.8-1.4 10.8-.7 19.4-5 15.1-4.3-4.3-1.4-18-7.9-19.4-6.5-1.4-7.9 3.6-12.2 2.9-.1 0-.2 0-.2-.1h-.1c-3.6-1.3-12.8-12.5-13.9-28.6-.1-1.7-.2-3.4-.1-5.1v-.1c0-.1 0-.2.1-.3.4-1.4 1.7-5.5 3.5-9.6 2-5.4 5.3-11.3 9.7-15.6l.1-.1.9-.9c9.4-8.6 23-20.2 27.4-10.1 5 8.7 20.1 38.9 14.5 68.3zm-17 166.6l-19.4-20.2c-10.8-10.8-23.8-61.2-23.8-61.2-11.5-5-10-21.7-13.6-31.7-1.8-5.1-3.7-3.3-5.5 3.5-.1.5-.3 1-.4 1.6-1.6 6.6-3.1 16.6-4.7 28.7-.1 1.1-.4 2.2-.7 3.5v.1c-6.6 31.1-60.7 119.1-81.6 127.5-21.6 7.9-88.6 56.1-95.8 69.8l-58.3 20.2c25.9 28.8 100.1 56.9 133.2 53.3 33.1-4.4 115.2-72.8 147.6-99.4 32.4-26.6 23-95.7 23-95.7z"/><path class="st2" d="M121 346c0 1.4-.7 2.9-1.4 3.6-.7 1.4-2.2 2.2-3.6 2.2h-1.4c-4.3.7-10.8 2.2-17.3 2.2-12.3.6-25.3-2.3-25.3-14.5.7-.7 5-2.9 12.2-4.3 3.6-.7 8.6-1.4 13.7-.7 5 0 10.8 1.4 15.8 4.3 1.4.7 2.2 1.4 3.6 2.2 1.4.7 2.9 2.9 2.9 5 .8-.8.8 0 .8 0z"/><path d="M133.2 334.4c-.7 7.2-5.8 5.8-10.8 2.9-5-3.6-10.1-8.6-10.1-8.6s-15.8-.7-25.2-3.6c-1.4-.7-2.9-1.4-4.3-2.2-6.5-5-23-15.8-28.1-15.8s-16.6-3.6-3.6-14.4c0 0 20.9-4.3 28.1 6.5 6.5 10.8 33.1 13.7 33.1 13.7s23.1 7.1 20.9 21.5zm157-43.2s-24.5.7-35.3 8.6-25.2 18-44.6 15.8c-19.4-2.9-24.5 7.9-24.5 7.9s-14.4 5-8.6-13.7c0 0 18-15.8 38.9-14.4l38.9-12.2s24.4-2.8 35.2 8z"/><path class="st3" d="M109.4 492.1c-17.3-5-31-33.8-15.8-49.7 18-18.7 39.6-87.1 39.6-87.1m64.1 133.9c14.4-2.2 17.3-23.8 9.4-31.7-10.1-10.1-7.2-25.9-7.2-25.9"/><path class="st2" d="M281.5 351c0 1.4-.7 3.6-1.4 5s-2.2 2.9-3.6 3.6c-5.8 2.9-16.6 7.2-33.8 7.2-26.6-.7-34.6-2.9-38.9-10.1 0 0 21.6-18 43.2-19.4h2.9c7.2 0 13.7.7 18 2.2 3.6 1.4 6.5 2.9 8.6 3.6 3.6 1.4 5 4.3 5 7.9z"/><path class="st3" d="M218.9 330.1s36-8.6 57.6 0"/><path class="st4" d="M270.7 346.7c0 7.9-6.5 13.7-13.7 13.7-7.9 0-13.7-6.5-13.7-13.7 0-4.3 1.4-7.9 4.3-10.1h2.9c7.2 0 13.7.7 18 2.2 1.5 2.1 2.2 5 2.2 7.9z"/><circle cx="257" cy="346.7" r="7.2"/><path class="st4" d="M115.3 342.5c0 1-.5 2-1 3.1-.5 1-1.5 1.5-2.6 1.5h-1c-3.1.5-7.7 1.5-12.2 1.5-5.1-2-9.2-7.1-9.2-12.8v-1c2.6-.5 6.1-1 9.7-.5-.5 1-1 2-1 3.1 0 3.6 2.6 6.1 6.1 6.1 3.6 0 6.1-2.6 6.1-6.1 1 .5 1.5 1 2.6 1.5 1 .5 2 2 2 3.1.5 0 .5.5.5.5z"/><path d="M111.5 338.2l-1.3-.5c-3.1-1.2-6.2-2.1-9.1-2.7-.7-.2-1.5-.3-2.2-.4h-.2v.1l-.3.6c-.6 1.2-1.1 2.4-1.1 3.6 0 4.3 3.6 7.9 7.9 7.9 4.2 0 7.7-3.4 7.9-7.6v-.30000000000000004c-.6-.3-1.1-.5-1.6-.7zm399.7 39.8v-2c0-.4 0-.8-.1-1.3 0-.4 0-.8-.1-1.1l-.1-1.2-.2-2.3-.3-2.3c-.1-1-.3-2.1-.5-3.1l-.1-.6c-.1-.6-.2-1.2-.4-1.8-.1-.7-.3-1.4-.4-2.2l-.5-2.1-.5-2.1-.6-2.1s-.4-1.4-.6-2l-.6-2c-.2-.7-.4-1.3-.6-1.9l-.5-1.5c-.5-1.5-1.1-3-1.6-4.4l-.5-1.3c-.2-.6-.4-1.1-.7-1.7l-1-2.4c-.2-.5-.4-1-.7-1.5-.3-.8-.6-1.5-1-2.2-.3-.7-.6-1.4-.9-2-1.4-3-2.5-5.5-3.2-7.3-4.4-10.1-17.3 1.5-27.4 10.1-.3.2-.6.5-.9.8l-.1.1-.9.8c-.6.5-1.1 1.1-1.6 1.8-.5.6-1 1.2-1.5 1.9-.3.4-.6.8-.8 1.2-.2.2-.3.4-.4.7l-.8 1.2-.6 1-.6 1.1-.6 1.1c-.2.4-.4.7-.5 1.1-.4.7-.7 1.4-1 2.1-.1.2-.2.3-.2.5-.4.9-.7 1.7-1 2.5-.1.3-.2.7-.4 1-.1.3-.2.7-.4 1l-.3.9-.2.5c-.1.2-.2.5-.2.7l-.2.5-.2.6-.1.3c0 .1-.1.2-.1.4 0 .1-.1.2-.1.4l-.1.3-.1.3c0 .1 0 .2-.1.3-.1.5-.2.9-.3 1.2 0 .1 0 .2-.1.3v.1c-.1 1.8 0 3.5.1 5.1 0 .3 0 .5.1.8 0 .2 0 .4.1.7 0 .2 0 .5.1.8 0 .2.1.5.1.8 0 .4.1.8.2 1.2l.3 1.8.3 1.2c0 .1 0 .2.1.3l.2.8c.1.6.3 1.2.5 1.8.1.4.2.8.4 1.2.1.5.3 1 .5 1.4l.4 1.2v.1l.3.8c0 .1.1.3.2.4l.5 1.1c.2.4.3.8.5 1.1.2.4.4.8.6 1.1l.6 1.1c.4.7.8 1.4 1.2 2l.9 1.4.5.7.3.4c.8 1 1.6 1.9 2.3 2.5.2.2.4.3.5.5.7.6 1.4 1.1 2 1.3l.3.1c.1.1.2.1.3.1.1 0 .2.1.2.1 4.3.7 5.7-4.3 12.2-2.9 6.5 1.4 3.6 15.1 7.9 19.4 4.3 4.3 3.6-4.3 5-15.1s-22.3-26.6-28.1-33.8c-5.8-7.9 1.4-6.5 8.6-4.3 7.9 2.2-7.2-10 0-21.6 7.2-11.6 15.1 2.8 15.8 15.8.7 13 14.4 6.5 14.4 31-.7 23.8 4.3 16.6 4.3 16.6.5-1.6 1-3.3 1.4-4.9l.3-1.2c.1-.4.2-.8.2-1.2l.2-1.2.2-1.2.2-1.2.3-2.5c.1-.8.1-1.5.2-2.2.1-1.5.1-3.1.1-4.6-.3-.7-.3-.9-.3-1.2zm-42.5 24.6c.3-.1.5-.1.8-.1-.3 0-.6 0-.8.1zM491.1 427.4v.3c0 .1 0 .2-.1.3-.2.6-.5 1.2-.8 1.8-.2.3-.3.5-.5.7l-.3.3s0 .1-.1.1l-.3.3c-.3.3-.7.5-1 .7l-.4.2-.3.1c-.1 0-.2.1-.2.1-.2 0-.4.1-.5.1h-.6l-.3-.1-.3-.1c-.9-.3-1.6-1.1-2.1-2.5-1.1-4.1-5.2-9.2-11-8.5h-.1c-.2 0-.4.1-.5.1h-.2c-.2 0-.3.1-.5.2-.2 0-.3.1-.5.2-.5.2-1 .4-1.5.7-.5.3-1.1.5-1.7.8-.3.2-.7.3-1.1.5l-.6.3c-.4.2-.8.3-1.1.5h-.1l-1.2.5-1.3.5-.8.3c-.3.1-.5.2-.8.2s-.5.1-.8.2l-1 .3h-.2c-.3.1-.7.2-1 .2l-.7.1c-.1 0-.2 0-.4.1-4.6.7-8.6-.4-11-5.1-3.6-8.6 11.5-10.8 7.2-18.7-3.6-7.9-1.4-10.8-7.9-15.8-5.3-4.1-4.4-11-.3-11.2l.4-.1h.4c.9 0 1.9.3 3.1 1.1 0 0 .1.4.4 1l.2.4c.4.9.9 2.2 1.5 3.8.3.7.6 1.4.9 2.2l.5 1.2.8 1.8.6 1.2.7 1.5 1.2 2.3c.2.4.4.8.7 1.2l.9 1.5.4.7c.7 1.2 1.5 2.4 2.2 3.4l.7 1c.6.7 1.1 1.4 1.7 1.9l.3.3c.1.1.3.3.5.4.5.4.9.7 1.4.9.1.1.3.1.5.2.4.1.7.2 1.1.2.5 0 1-.1 1.4-.4l.3-.2.3-.1.4-.2.4-.2.3-.1.3-.1c.3-.1.5-.1.8-.1h.4c.1 0 .2 0 .3.1l.3.1c.1 0 .2.1.2.1l.4.3s.2.3.3.4c0 .1.1.2.1.2l.1.3.1.3.1.3c0 .1.1.3.2.5.1.3.2.5.2.8l.1.3c.1.3.2.6.2.8l.1.4c.3.9.6 1.9 1.1 2.6.1.2.2.3.4.5l.4.1c3.6.6 18 12.1 16.6 16.5z"/><path class="st3" d="M122.4 631.1s-16.6 10.1-7.2 41.8"/><path class="st5" d="M244.9 538.2v27.3c-25.8-22.3-95.6-31.1-103.8-32.3v-37.5l-.6.2v-.9l-4.3 1.4h-1.4c-2.2 0-5.8.7-8.6.7l-.9 24.1-.8 13.3h-1c-4.9.2-28.1 2-47.3 13-.7-9.4-.7-18-.7-22.3v-2.5c8.4-4.1 17.6-7.6 29.5-9.8l.2-.7c.2 0 .4-.1.5-.1l4-19.5 16.2-2.2c11.5-4.3 22.3-10.1 34.6-10.1 6.5 0 13.7 1.4 20.9 5.8 5.8 2.9 10.1 4.3 14.4 3.6l-1.3 3.4-.1.2c-4.3 6.5-20.9-3.6-34.6-5h-1.4v26.6l1.4-.2v.2c2.8-.4 5.7-.5 8.7-.4h.8c17 .8 37 7.2 52.2 13.2l.4.2c11.2 4.6 19.8 8.8 23 10.3z"/><path class="st6" d="M75.6 522.3c8.5-4.2 18.4-7.8 29.7-10l-.2.7c-11.9 2.1-21.1 5.6-29.5 9.8v-.5zM136.2 496.4l4.3-1.4v.9l-3.7 1.2h-.7c-2.2 0-6.5.7-9.4.7l-1.4 23.4.9-24.1c2.8 0 6.4-.7 8.6-.7h1.4zM158.5 515.1v-26.6h1.4v26.4l-1.4.2zM169.4 514.7c16.8.6 36.8 7 52.2 13.2-15.2-6-35.2-12.4-52.2-13.2zM126 490.6l-16.2 2.2.3-1.5 16.6-2.2c17.3-6.5 33.1-17.3 56.2-4.3 5.8 2.9 10.8 4.3 14.4 3.6l-1.4 3.6c-.4.5-.8 1-1.3 1.3l1.3-3.4c-4.3.7-8.6-.7-14.4-3.6-7.2-4.4-14.4-5.8-20.9-5.8-12.3 0-23.1 5.8-34.6 10.1zM246.2 538.9v28.1c-26.6-23.8-105.1-32.4-105.1-32.4v-1.4c8.2 1.2 78 10 103.8 32.3v-27.3c.9.5 1.3.7 1.3.7z"/><path class="st3" d="M113.8 169.6s33.8-7.9 72.7 8.6m-53.3 21.6s-26.6-4.3-36.7 0"/><path class="st7" d="M216.3 574.5c-.2-.1-.3-.2-.5-.1-.3 0-.6.2-1.3.5h-.7c-.7-.7-.7-.7-1.4-.7h-.7c-10.8-2.9-36-1.5-50.4 1.4-5.8-1.4-10.8-1.4-14.4-1.4h-6.5c-5.7 0-11.5-1.4-15.8-3.6h-.2c-1.3-.7-2.8-1.3-4.1-2.1-.7 0-1.4-.7-2.2-1.4-1.4-1.4-3.6-2.2-4.3-3.6-.7-.7-1.4-2.2-2.2-2.9-1-1.9-1.3-3.5-1-4.7-.1-.5-.2-1-.1-1.4.3-4.5 7.1-5.7 11.2-6.9 5-1.4 6.5 10.1 14.4 6.5 7.9-4.3 19.4-4.3 27.4 0 5.8 2.9 34.6 10.1 47.5 13.7 1.8.4 2.5 1.8 2.1 3.1.1.2.1.4.1.6v.7s0 .7-.7.7c.6 0 .7 0 1.3.6h.1l.3.1h.4c.4 0 .8.2 1 .5.3.1.5.2.7.4z"/><path class="st8" d="M216.7 574.9v1.4l-.1.2-.3.4c-.1.1-.2.2-.2.3-.1.1-.2.2-.3.4-.1.1-.2.2-.3.4-.4.5-.9 1-1.5 1.5l-.4.4c-.7.7-1.6 1.4-2.5 2.1-.2.1-.4.3-.5.4-.7.6-1.4 1.1-2.2 1.7l-.8.6c-.2.2-.4.3-.7.5l-.7.5-2.5 1.7c-.3.2-.7.4-1 .7l-1.4.9-1.7 1c-.4.2-.8.5-1.1.7l-.5.3c-1.1.6-2.2 1.3-3.4 1.9 0 0-.1.1-.2.1l-2.1 1.1s-1.4.7-2.1 1l-.8.4c-1.4.7-2.8 1.3-4.2 1.9l-.6.3-.8.3-2.3.9c-.5.2-1 .4-1.6.6-.5.2-1 .4-1.6.5l-.2.1-1.5.5-2.1.7-1.8.5h-.1c-.6.2-1.2.3-1.8.4l-1.4.3h-.1l-1.5.3c-.9.2-1.7.3-2.6.4-.4.1-.8.1-1.2.1-1 .1-1.9.2-2.9.2h-13.399999999999999c-.5 0-1 0-1.5-.1-.5 0-1-.1-1.5-.2-.4 0-.9-.1-1.3-.2-.2 0-.3 0-.5-.1h-.3l-.6-.1c-.1 0-.2 0-.3-.1l-1.5-.3h-.2c-.2 0-.4-.1-.6-.2-.2-.1-.5-.1-.8-.2l-1-.3c-.2 0-.3-.1-.5-.2h-.1l-.7-.2-2.1-.5c-5.8-1.4-11.4-3.4-15.2-6-1.4-.7-3.6-2.2-5-3.6l-4.3-5c-1.4-3.6-.7-6.5 2.2-8.6l.7-.7c.7-.7 1.4-.7 2.2-1.4 1.4-.7 2.2-1.4 3.6-2.2 0 0 .7-.7 1.4-.7 1.4-.7 2.9-1.4 4.3-2.2h.7c4.3 2.2 10.1 3.6 15.8 3.6h6.5c3.6 0 8.6 0 14.4 1.4 14.4-2.9 39.6-4.3 50.4-1.4h.7c.7 0 .7 0 1.4.7h.7c.7-.3 1-.5 1.3-.5.2 0 .3 0 .5.1l.1.1.1.5z"/><path class="st3" d="M136.1 303.5s5.8 27.4 39.6 18m84.9 370.1s14.4 29.5 37.4 24.5"/><path d="M184.4 597.7v20.5c0 8.7-7.1 15.8-15.8 15.8h-18.8c-8.7 0-15.8-7.1-15.8-15.8v-17.2l2.1.5c.2.1.5.2.7.2h.1l.5.2 1 .3c.3.1.5.2.8.2l.6.2h.2l1.5.3c.1 0 .2 0 .3.1l.6.1h.3c.2 0 .3 0 .5.1l1.3.2 1.5.2 1.5.1h13.399999999999999c.9 0 1.9-.1 2.9-.2l1.2-.1c.8-.1 1.7-.2 2.6-.4l1.5-.3h.1l1.4-.3 1.8-.4h.1l1.8-.5c.7-.2 1.4-.4 2.1-.7l1.5-.5c.1 0 .2-.1.2-.1.5-.2 1-.4 1.6-.5.5-.2 1-.4 1.6-.6.8-.3 1.6-.6 2.3-.9.3-.3.5-.4.8-.5z"/></svg>