<?xml version="1.0" encoding="utf-8"?>
<!-- Generator: Adobe Illustrator 18.1.1, SVG Export Plug-In . SVG Version: 6.00 Build 0)  -->
<!DOCTYPE svg PUBLIC "-//W3C//DTD SVG 1.1//EN" "http://www.w3.org/Graphics/SVG/1.1/DTD/svg11.dtd">
<svg version="1.1" id="Layer_1" xmlns="http://www.w3.org/2000/svg" xmlns:xlink="http://www.w3.org/1999/xlink" x="0px" y="0px"
	 viewBox="0 0 85 103.5" style="enable-background:new 0 0 85 103.5;" xml:space="preserve">
<style type="text/css">
	.st0{fill:none;stroke:#000000;stroke-miterlimit:10;}
	.st1{fill:#792516;stroke:#000000;stroke-width:0.5;stroke-miterlimit:10;}
	.st2{fill:#FFFFFF;stroke:#000000;stroke-width:0.5;stroke-miterlimit:10;}
	.st3{fill:none;stroke:#000000;stroke-width:0.5;stroke-linecap:round;stroke-miterlimit:10;}
	.st4{fill:#510E00;stroke:#000000;stroke-width:0.5;stroke-miterlimit:10;}
	.st5{stroke:#000000;stroke-width:0.5;stroke-miterlimit:10;}
	.st6{fill:#541427;stroke:#000000;stroke-width:0.5;stroke-miterlimit:10;}
	.st7{fill:#C8535C;stroke:#000000;stroke-width:0.5;stroke-miterlimit:10;}
</style>
<path class="st0" d="M70.6,52.2c0,0-0.7,1-0.6-2.3c0-3.4-1.9-2.5-2-4.3s-1.2-3.8-2.2-2.2s1.1,3.3,0,3c-1-0.3-2-0.5-1.2,0.6
	c0.8,1,4.1,3.2,3.9,4.7c-0.2,1.5-0.1,2.7-0.7,2.1c-0.6-0.6-0.2-2.5-1.1-2.7c-0.9-0.2-1.1,0.5-1.7,0.4s-2.1-2-2-4.7
	c0,0,0.6-2.6,2-3.7c1.4-1.2,3.2-2.8,3.8-1.4S72,47.8,70.6,52.2z"/>
<path class="st0" d="M68.2,56.2c-0.2,0.6-0.9,0.9-1,0.2c-0.2-0.7-1-1.6-2.1-1c-1.2,0.6-2.6,1.1-3.2-0.1c-0.5-1.2,1.5-1.5,1-2.6
	s-0.3-1.5-1.1-2.2c-0.9-0.7-0.5-2,0.4-1.4c0,0,1.6,4.3,2.6,3.7s0.6,0.9,1.2,1.1C66.4,54.1,68.4,55.6,68.2,56.2z"/>
<path class="st0" d="M40.3,37.2c0,0-3.4,0.1-4.9,1.2c-1.5,1.1-3.5,2.5-6.2,2.2c-2.7-0.4-3.4,1.1-3.4,1.1s-2,0.7-1.2-1.9
	c0,0,2.5-2.2,5.4-2s5.4-1.7,5.4-1.7S38.8,35.7,40.3,37.2z"/>
<path class="st0" d="M18.5,43.2c-0.1,1-0.8,0.8-1.5,0.4c-0.7-0.5-1.4-1.2-1.4-1.2s-2.2-0.1-3.5-0.5c-0.2-0.1-0.4-0.2-0.6-0.3
	c-0.9-0.7-3.2-2.2-3.9-2.2s-2.3-0.5-0.5-2c0,0,2.9-0.6,3.9,0.9c0.9,1.5,4.6,1.9,4.6,1.9S18.8,41.2,18.5,43.2z"/>
<path class="st0" d="M16.8,44.8c0,0.2-0.1,0.4-0.2,0.6c-0.1,0.2-0.3,0.3-0.5,0.3c-0.1,0-0.1,0-0.2,0c-0.6,0.1-1.5,0.3-2.4,0.3
	c-1.7,0.1-3.5-0.3-3.5-2.1c0,0,0.6-0.4,1.7-0.6c0.5-0.1,1.2-0.2,1.9-0.1c0.7,0.1,1.4,0.2,2.2,0.6c0.2,0.1,0.3,0.2,0.5,0.3
	c0.2,0.1,0.4,0.4,0.4,0.6C16.8,44.7,16.8,44.8,16.8,44.8z"/>
<path class="st0" d="M39.1,45.5c0,0.2-0.1,0.5-0.2,0.7c-0.1,0.2-0.3,0.4-0.5,0.5c-0.8,0.4-2.3,1-4.7,1c-3.7-0.1-4.8-0.4-5.4-1.4
	c0,0,3-2.5,6-2.7c0.1,0,0.3,0,0.4,0c1,0,1.9,0.1,2.5,0.3v0c0.5,0.2,0.9,0.4,1.2,0.5C38.9,44.6,39.1,45,39.1,45.5z"/>
<path class="st0" d="M20.1,83.2H19v-1.1C19,82.7,19.5,83.2,20.1,83.2z"/>
<path class="st0" d="M25.3,82.1v1.1h-1.1c0.5,0,0.9-0.3,1-0.8C25.3,82.3,25.3,82.2,25.3,82.1z"/>
<path class="st0" d="M30.1,76.6c0,0.1,0,0.1,0,0.2c-0.7,1.1-5,3.8-7.9,3.8H22c0,0,0,0,0,0h-0.1c-0.3,0-0.7,0-1,0c-0.1,0-0.1,0-0.2,0
	c-0.6,0-1.2-0.1-1.8-0.3h0c0,0,0,0,0,0c-0.9-0.2-1.8-0.5-2.4-0.9c-0.2-0.1-0.5-0.3-0.7-0.5c-0.2-0.2-0.4-0.5-0.6-0.7
	c-0.2-0.5-0.1-0.9,0.3-1.2c0,0,0.1-0.1,0.1-0.1c0,0,0,0,0,0c0.1-0.1,0.2-0.1,0.3-0.2c0.2-0.1,0.3-0.2,0.5-0.3c0,0,0.1-0.1,0.2-0.1
	c0.2-0.1,0.4-0.2,0.6-0.3c0,0,0,0,0.1,0c0,0,0,0-0.1,0c-0.2-0.1-0.4-0.2-0.6-0.3c-0.1,0-0.2-0.1-0.3-0.2c-0.2-0.2-0.5-0.3-0.6-0.5
	c-0.1-0.1-0.2-0.3-0.3-0.4c-0.6-1.1,0.7-1.3,1.4-1.5c0.7-0.2,0.9,1.4,2,0.8c1.1-0.6,2.7-0.6,3.8,0c0.8,0.4,4.8,1.4,6.6,1.9
	c0.2,0,0.3,0.2,0.3,0.3c0,0,0,0.1,0,0.1c0,0,0,0.1-0.1,0.1c0,0,0,0,0,0c0,0,0,0-0.1,0c0,0,0.1,0,0.1,0c0.1,0,0.1,0,0.2,0.1
	c0,0,0.1,0,0.1,0C30,76.5,30,76.5,30.1,76.6C30.1,76.6,30.1,76.6,30.1,76.6z"/>
<path class="st1" d="M65.3,87.6c-4.5,3.7-15.9,13.2-20.5,13.8c-4.6,0.5-14.9-3.4-18.5-7.4c0,0,7.1-0.9,8.1-2.8
	c1-1.9,10.3-8.6,13.3-9.7c3-1.2,10.9-14.2,11.4-18.1c0.5-3.9,1-6.2,1.5-4.8c0.5,1.4,0.3,3.7,1.9,4.4c0,0,1.8,7,3.3,8.5
	c1.5,1.5,2.7,2.8,2.7,2.8S69.8,83.9,65.3,87.6z"/>
<path class="st1" d="M25.3,82.3c-0.1,0.5-0.5,0.8-1,0.8h-4.2c-0.6,0-1.1-0.5-1.1-1.1v1.1h0.4c0.2,0.1,0.4,0.2,0.6,0.2h4.4
	c0.2,0,0.4-0.1,0.6-0.2h0.4v-1.1C25.3,82.2,25.3,82.3,25.3,82.3z"/>
<path class="st1" d="M70.7,39.6c-1.6-2-2.7-1.4-2.9-1.2c0,0,0,0,0,0c0-1.1,0.2-16-3.1-23.2C61.2,7.7,50.5,4.4,45.3,2.8
	c-5.2-1.6-11-0.5-11-0.5c-4.5,1.3-7.2,2.3-9.4,3.4c-2.2,1.1-3.9,2.3-6.4,4C13.6,13,7.8,29.1,7.8,32S5,37.2,6.1,40.3
	c1.2,3.1,1.9,6.1,1.4,8.3c-0.5,2.2-0.5,8.5,0,10c0.5,1.5,2.9,10.7,2.9,10.7s0,0,0,0.1c1.2-0.6,2.5-1.1,4.2-1.4c0,0,0,0,0,0l0.6-2.8
	c0,0,0,0,0,0l2.3-0.3c1.6-0.6,3.1-1.4,4.8-1.4c0.9,0,1.9,0.2,2.9,0.8c0.8,0.4,1.4,0.6,2,0.5c0,0,0,0,0,0c-0.1,0.2-0.1,0.3-0.2,0.5
	c-0.6,0.9-2.9-0.5-4.8-0.7c-0.1,0-0.1,0-0.2,0v3.7c0,0,0,0,0,0c4.4-0.6,11.6,3,12,3.2c0,0,0,0,0,0v3.8c0,0,0,0,0,0
	c-3.7-3.2-13.9-4.4-14.5-4.5c0,0,0,0,0,0l0-5.3c0,0,0,0,0,0c-0.2,0.1-0.4,0.1-0.6,0.2c0,0-0.1,0-0.2,0c-0.3,0-0.8,0.1-1.2,0.1
	c0,0,0,0,0,0L17.3,71c0,0,0,0,0,0c-0.3,0-3.8,0.2-6.7,1.8c0,0,0,0,0,0c0,0.2,0,0.3,0,0.5c0.2,2.4,0.6,5.3,1.5,6.7
	c1.6,2.7,0.9,5.1,3.7,9.8c0.1,0.1,0.1,0.2,0.2,0.3c3,4.3,10.3,3.7,10.3,3.7s7.1-0.9,8.1-2.8c1-1.8,10.3-8.6,13.3-9.7
	c3-1.2,10.9-14.2,11.4-18c0.5-3.9,1-6.2,1.5-4.8c0.5,1.4,0.3,3.7,1.9,4.4c0,0,0,0,0,0c1.1,0.2,2.8-0.2,3.9-1.2c1.2-1,2.6-4.1,5.3-8
	C74.6,49.9,72.5,41.8,70.7,39.6z M16.6,45.4c-0.1,0.2-0.3,0.3-0.5,0.3c-0.1,0-0.1,0-0.2,0c-0.6,0.1-1.5,0.3-2.4,0.3
	c-1.7,0.1-3.5-0.3-3.5-2c0,0,0,0,0,0c0.1-0.1,0.7-0.4,1.7-0.6c0.5-0.1,1.2-0.2,1.9-0.1c0.7,0,1.5,0.2,2.2,0.6
	c0.2,0.1,0.3,0.2,0.5,0.3c0.2,0.1,0.4,0.4,0.4,0.7c0,0,0,0.1,0,0.1C16.8,45,16.7,45.2,16.6,45.4z M18.5,43.2c-0.1,1-0.8,0.8-1.5,0.4
	c-0.7-0.4-1.3-1.1-1.4-1.2l0,0c-0.2,0-2.3-0.1-3.5-0.5c-0.2-0.1-0.4-0.2-0.6-0.3c-0.8-0.7-3.2-2.2-3.9-2.2c-0.6,0-2.3-0.5-0.5-2
	c0,0,0,0,0,0c0.2,0,3-0.6,3.9,0.9c0.9,1.5,4.6,1.9,4.6,1.9c0,0,0,0,0,0C15.8,40.2,18.8,41.2,18.5,43.2z M30.1,76.8
	c-0.7,1.1-5,3.8-7.9,3.8h0.3c0.8,0,1.8-0.2,2.7-0.5c0,0,0.1,0,0.2,0v3.1h-0.4c-0.2,0.1-0.4,0.2-0.6,0.2h-4.4c-0.2,0-0.4-0.1-0.6-0.2
	H19v-2.9c0,0,0,0,0,0c-0.9-0.2-1.8-0.5-2.4-0.9c-0.2-0.1-0.5-0.3-0.7-0.5c-0.2-0.2-0.4-0.5-0.6-0.7c-0.2-0.5-0.1-0.9,0.3-1.2
	c0,0,0.1-0.1,0.1-0.1c0,0,0,0,0,0c0.1-0.1,0.2-0.1,0.3-0.2c0.2-0.1,0.3-0.2,0.5-0.3c0,0,0.1-0.1,0.2-0.1c0.2-0.1,0.4-0.2,0.6-0.3
	c0,0,0,0,0,0c-0.2-0.1-0.4-0.2-0.6-0.3c-0.1,0-0.2-0.1-0.3-0.2c-0.2-0.2-0.5-0.3-0.6-0.5c-0.1-0.1-0.2-0.3-0.3-0.4
	c-0.6-1.1,0.7-1.3,1.4-1.5c0.7-0.2,0.9,1.4,2,0.8c1.1-0.6,2.7-0.6,3.8,0c0.8,0.4,4.8,1.4,6.6,1.9c0.2,0,0.3,0.2,0.3,0.3
	c0,0,0,0.1,0,0.1c0,0,0,0.1-0.1,0.1c0,0,0,0,0,0c0,0,0,0,0,0c0.1,0,0.1,0,0.2,0.1c0,0,0.1,0,0.1,0c0.1,0,0.2,0.1,0.2,0.2
	c0,0,0,0,0,0.1C30.1,76.7,30.1,76.8,30.1,76.8z M38.9,46.1c-0.1,0.2-0.3,0.4-0.5,0.5c-0.8,0.4-2.4,1-4.7,1c-3.6-0.1-4.7-0.4-5.4-1.4
	c0,0,0,0,0,0c0.3-0.2,3.2-2.4,6-2.7c0.1,0,0.3,0,0.4,0c1,0,1.8,0.2,2.5,0.3v0c0.5,0.1,0.8,0.3,1.1,0.5c0.3,0.2,0.6,0.5,0.7,0.8
	C39.1,45.5,39.1,45.8,38.9,46.1z M40.3,37.2c-0.5,0-3.5,0.2-4.9,1.2c-1.5,1.1-3.5,2.5-6.2,2.1c-2.6-0.3-3.3,1-3.4,1.1c0,0,0,0,0,0
	c-0.1,0-2,0.6-1.1-1.9c0,0,0,0,0,0c0.1-0.1,2.5-2.2,5.4-2c2.9,0.2,5.3-1.6,5.4-1.7c0,0,0,0,0,0C35.6,36.1,38.8,35.8,40.3,37.2
	C40.3,37.2,40.3,37.2,40.3,37.2z M67.1,56.4c-0.2-0.7-1-1.6-2.1-1c-1.2,0.6-2.6,1.1-3.2-0.1c-0.5-1.2,1.6-1.5,1-2.6
	c-0.5-1.1-0.2-1.5-1.1-2.2c-0.9-0.7-0.5-2,0.4-1.4c0,0,0,0,0,0c0.1,0.2,1.6,4.3,2.6,3.7c1-0.6,0.6,0.9,1.2,1
	c0.5,0.1,2.5,1.7,2.3,2.3S67.3,57.1,67.1,56.4z M70.6,52.2c0,0-0.7,1-0.6-2.3c0-3.4-1.9-2.5-2-4.3c-0.1-1.8-1.2-3.8-2.2-2.2
	c-1,1.6,1.1,3.3,0,3c-1-0.3-2-0.5-1.2,0.6c0.8,1,4.1,3.2,3.9,4.7c-0.2,1.5-0.1,2.7-0.7,2.1c-0.6-0.6-0.2-2.5-1.1-2.7
	c-0.9-0.2-1.1,0.5-1.7,0.4c-0.5-0.1-2.1-2-2-4.7c0,0,0.2-0.7,0.5-1.4c0.3-0.8,0.8-1.7,1.5-2.3c1.3-1.2,3.2-2.8,3.8-1.4
	C69.6,43,72,47.8,70.6,52.2z"/>
<path class="st2" d="M16.8,44.8c0,0.2-0.1,0.4-0.2,0.5c-0.1,0.2-0.3,0.3-0.5,0.3c-0.1,0-0.1,0-0.2,0c-0.6,0.1-1.5,0.3-2.4,0.3
	c-1.7,0.1-3.5-0.3-3.5-2c0,0,0,0,0,0c0.1-0.1,0.7-0.4,1.7-0.6c0.5-0.1,1.2-0.2,1.9-0.1c0.7,0,1.5,0.2,2.2,0.6
	c0.2,0.1,0.3,0.2,0.5,0.3c0.2,0.1,0.4,0.4,0.4,0.7C16.8,44.7,16.8,44.8,16.8,44.8z"/>
<path d="M18.5,43.2c-0.1,1-0.8,0.8-1.5,0.4c-0.7-0.5-1.4-1.2-1.4-1.2s-2.2-0.1-3.5-0.5c-0.2-0.1-0.4-0.2-0.6-0.3
	c-0.9-0.7-3.2-2.2-3.9-2.2s-2.3-0.5-0.5-2c0,0,2.9-0.6,3.9,0.9c0.9,1.5,4.6,1.9,4.6,1.9S18.8,41.2,18.5,43.2z"/>
<path d="M40.3,37.2c0,0-3.4,0.1-4.9,1.2c-1.5,1.1-3.5,2.5-6.2,2.2c-2.7-0.4-3.4,1.1-3.4,1.1s-2,0.7-1.2-1.9c0,0,2.5-2.2,5.4-2
	s5.4-1.7,5.4-1.7S38.8,35.7,40.3,37.2z"/>
<path class="st3" d="M15.2,65.1c-2.4-0.7-4.3-4.7-2.2-6.9c2.5-2.6,5.5-12.1,5.5-12.1"/>
<path class="st3" d="M27.4,64.7c2-0.3,2.4-3.3,1.3-4.4c-1.4-1.4-1-3.6-1-3.6"/>
<path class="st2" d="M39.1,45.5c0,0.2-0.1,0.5-0.2,0.7c-0.1,0.2-0.3,0.4-0.5,0.5c-0.8,0.4-2.3,1-4.7,1c-3.7-0.1-4.8-0.4-5.4-1.4
	c0,0,3-2.5,6-2.7c0.1,0,0.3,0,0.4,0c1,0,1.9,0.1,2.5,0.3v0c0.5,0.2,0.9,0.4,1.2,0.5C38.9,44.6,39.1,45,39.1,45.5z"/>
<path class="st3" d="M30.4,42.6c0,0,5-1.2,8,0"/>
<path class="st4" d="M37.6,44.9c0,1.1-0.9,1.9-1.9,1.9c-1.1,0-1.9-0.9-1.9-1.9c0-0.6,0.2-1.1,0.6-1.4c0.1,0,0.3,0,0.4,0
	c1,0,1.9,0.1,2.5,0.3v0C37.5,44.1,37.6,44.5,37.6,44.9z"/>
<circle cx="35.7" cy="44.9" r="1"/>
<path class="st4" d="M16.8,44.8c0,0.2-0.1,0.4-0.2,0.6c-0.1,0.2-0.3,0.3-0.5,0.3c-0.1,0-0.1,0-0.2,0c-0.6,0.1-1.5,0.3-2.4,0.3
	c-1-0.4-1.8-1.4-1.8-2.5c0-0.1,0-0.1,0-0.2c0.5-0.1,1.2-0.2,1.9-0.1c-0.1,0.2-0.2,0.4-0.2,0.6c0,0.7,0.5,1.2,1.2,1.2
	c0.7,0,1.2-0.5,1.2-1.2c0,0,0,0,0,0c0.2,0.1,0.3,0.2,0.5,0.3c0.2,0.1,0.4,0.4,0.4,0.6C16.8,44.7,16.8,44.8,16.8,44.8z"/>
<path d="M15.7,43.8c0,0.6-0.5,1.1-1.1,1.1c-0.6,0-1.1-0.5-1.1-1.1c0-0.2,0.1-0.4,0.2-0.6C14.3,43.3,15,43.5,15.7,43.8
	C15.7,43.8,15.7,43.8,15.7,43.8z"/>
<path d="M70.6,52.2c0,0-0.7,1-0.6-2.3c0-3.4-1.9-2.5-2-4.3s-1.2-3.8-2.2-2.2s1.1,3.3,0,3c-1-0.3-2-0.5-1.2,0.6
	c0.8,1,4.1,3.2,3.9,4.7c-0.2,1.5-0.1,2.7-0.7,2.1c-0.6-0.6-0.2-2.5-1.1-2.7c-0.9-0.2-1.1,0.5-1.7,0.4s-2.1-2-2-4.7
	c0,0,0.6-2.6,2-3.7c1.4-1.2,3.2-2.8,3.8-1.4S72,47.8,70.6,52.2z"/>
<path d="M68.2,56.2c-0.2,0.6-0.9,0.9-1,0.2c-0.2-0.7-1-1.6-2.1-1c-1.2,0.6-2.6,1.1-3.2-0.1c-0.5-1.2,1.5-1.5,1-2.6s-0.3-1.5-1.1-2.2
	c-0.9-0.7-0.5-2,0.4-1.4c0,0,1.6,4.3,2.6,3.7s0.6,0.9,1.2,1.1C66.4,54.1,68.4,55.6,68.2,56.2z"/>
<path d="M25.3,80v2c0,0.1,0,0.2,0,0.3c-0.1,0.5-0.5,0.8-1,0.8h-4.2c-0.6,0-1.1-0.5-1.1-1.1v-1.8h0c0.6,0.1,1.2,0.2,1.8,0.3
	c0.1,0,0.1,0,0.2,0c0.3,0,0.6,0,1,0H22c0,0,0,0,0,0h0.5c0.8,0,1.8-0.2,2.7-0.5C25.2,80.1,25.3,80.1,25.3,80z"/>
<path d="M25.3,82.3L25.3,82.3c0,0.4-0.1,0.6-0.4,0.8c-0.2,0.1-0.4,0.2-0.6,0.2h-4.4c-0.2,0-0.4-0.1-0.6-0.2C19.2,83,19,82.8,19,82.6
	v-0.6c0,0.6,0.5,1.1,1.1,1.1h4.2C24.8,83.2,25.2,82.8,25.3,82.3z"/>
<path class="st3" d="M17,84.4c0,0-2.3,1.4-1,5.8"/>
<path class="st5" d="M34.2,71.6v3.9c-3.7-3.3-14.6-4.5-14.6-4.5l0-5.4c-0.2,0.1-0.4,0.1-0.6,0.2c0,0-0.1,0-0.1,0
	c-0.3,0-0.9,0.1-1.3,0.1L17.3,71c0,0-3.7,0.1-6.7,1.8c-0.1-1.3-0.1-2.5-0.1-3.1c0-0.2,0-0.3,0-0.4c1.2-0.6,2.6-1.1,4.2-1.4l0.6-2.9
	l2.3-0.3c2.4-0.9,4.6-2.4,7.8-0.6c0.8,0.4,1.5,0.6,2,0.5c-0.1,0.2-0.1,0.3-0.2,0.5c-0.6,0.9-2.9-0.5-4.8-0.6c-0.1,0-0.1,0-0.2,0v3.8
	C26.7,67.7,34.2,71.6,34.2,71.6z"/>
<path class="st3" d="M15.8,20.3c0,0,4.7-1.1,10.1,1.2"/>
<path class="st3" d="M18.5,24.5c0,0-3.7-0.6-5.1,0"/>
<path class="st6" d="M29.4,76.3c-1.5-0.3-5-0.2-7,0.2c-0.7-0.1-1.4-0.2-2-0.2c-0.3,0-0.6,0-0.9,0c-0.8-0.1-1.5-0.3-2.2-0.6
	c-0.9-0.4-1.5-0.9-1.8-1.4c-0.6-1.1,0.7-1.3,1.4-1.5c0.7-0.2,0.9,1.4,2,0.9c1.1-0.6,2.7-0.6,3.8,0c0.8,0.4,4.8,1.4,6.6,1.9
	C29.7,75.7,29.7,76.1,29.4,76.3z"/>
<path class="st7" d="M30.1,76.6c0,0.1,0,0.1,0,0.2c-0.7,1.1-5,3.8-7.9,3.8H22c0,0,0,0,0,0h-0.1c-0.3,0-0.7,0-1,0c-0.1,0-0.1,0-0.2,0
	c-0.6,0-1.2-0.1-1.8-0.3h0c0,0,0,0,0,0c-0.9-0.2-1.8-0.5-2.4-0.9c-0.2-0.1-0.5-0.3-0.7-0.5c-0.2-0.2-0.4-0.5-0.6-0.7
	c-0.2-0.5-0.1-0.9,0.3-1.2c0,0,0.1-0.1,0.1-0.1c0,0,0,0,0,0c0.1-0.1,0.2-0.1,0.3-0.2c0.2-0.1,0.3-0.2,0.5-0.3c0,0,0.1-0.1,0.2-0.1
	c0.2-0.1,0.4-0.2,0.6-0.3c0,0,0,0,0.1,0c0.6,0.3,1.4,0.5,2.2,0.5c0.3,0,0.6,0,0.9,0c0.5,0,1.2,0,2,0.2c2-0.4,5.5-0.6,7-0.2
	c0,0,0.1,0,0.1,0c0.1,0,0.1,0,0.2,0.1c0,0,0.1,0,0.1,0C30,76.5,30,76.5,30.1,76.6C30.1,76.6,30.1,76.6,30.1,76.6z"/>
<path class="st3" d="M18.9,38.9c0,0,0.8,3.8,5.5,2.5"/>
<path class="st3" d="M36.2,92.8c0,0,2,4.1,5.2,3.4"/>
<g>
</g>
<g>
</g>
<g>
</g>
<g>
</g>
<g>
</g>
<g>
</g>
</svg>
