<?xml version="1.0" encoding="utf-8"?>
<!-- Generator: Adobe Illustrator 18.1.1, SVG Export Plug-In . SVG Version: 6.00 Build 0)  -->
<!DOCTYPE svg PUBLIC "-//W3C//DTD SVG 1.1//EN" "http://www.w3.org/Graphics/SVG/1.1/DTD/svg11.dtd">
<svg version="1.1" id="Layer_1" xmlns="http://www.w3.org/2000/svg" xmlns:xlink="http://www.w3.org/1999/xlink" x="0px" y="0px"
	 viewBox="0 0 612 792" style="enable-background:new 0 0 612 792;" xml:space="preserve">
<style type="text/css">
	.st0{fill:none;stroke:#000000;stroke-miterlimit:10;}
	.st1{fill:#792516;stroke:#000000;stroke-width:3;stroke-miterlimit:10;}
	.st2{fill:#FFFFFF;stroke:#000000;stroke-width:0.5;stroke-miterlimit:10;}
	.st3{fill:none;stroke:#000000;stroke-width:2;stroke-linecap:round;stroke-miterlimit:10;}
	.st4{fill:#510E00;stroke:#000000;stroke-width:0.5;stroke-miterlimit:10;}
	.st5{stroke:#000000;stroke-width:2;stroke-miterlimit:10;}
	.st6{stroke:#000000;stroke-width:0.5;stroke-miterlimit:10;}
	.st7{fill:#541427;stroke:#000000;stroke-width:0.5;stroke-miterlimit:10;}
	.st8{fill:#C8535C;stroke:#000000;stroke-width:0.5;stroke-miterlimit:10;}
</style>
<path class="st0" d="M511.2,378c0-0.1,0-0.2,0-0.3c0-0.5,0-1,0-1.5c0-0.1,0-0.2,0-0.2c0-0.4,0-0.8-0.1-1.3c0-0.4,0-0.8-0.1-1.1
	c0-0.4-0.1-0.8-0.1-1.2c-0.1-0.8-0.1-1.5-0.2-2.3c-0.1-0.8-0.2-1.5-0.3-2.3c-0.1-1-0.3-2.1-0.5-3.1c0-0.2-0.1-0.4-0.1-0.6
	c-0.1-0.6-0.2-1.2-0.4-1.8c-0.1-0.7-0.3-1.4-0.4-2.2c-0.2-0.7-0.3-1.4-0.5-2.1c-0.2-0.7-0.3-1.4-0.5-2.1c-0.2-0.7-0.4-1.4-0.6-2.1
	s-0.4-1.4-0.6-2c0,0,0,0,0,0c-0.2-0.7-0.4-1.3-0.6-2c-0.2-0.7-0.4-1.3-0.6-1.9c-0.2-0.5-0.3-1-0.5-1.5c-0.5-1.5-1.1-3-1.6-4.4
	c-0.2-0.4-0.3-0.9-0.5-1.3c-0.2-0.6-0.4-1.1-0.7-1.7c-0.3-0.8-0.7-1.6-1-2.4c-0.2-0.5-0.4-1-0.7-1.5c-0.3-0.8-0.6-1.5-1-2.2
	c-0.3-0.7-0.6-1.4-0.9-2c-1.4-3-2.5-5.5-3.2-7.3c-4.4-10.1-17.3,1.5-27.4,10.1c-0.3,0.2-0.6,0.5-0.9,0.8c0,0-0.1,0.1-0.1,0.1
	c-0.3,0.3-0.6,0.5-0.9,0.8c-0.6,0.5-1.1,1.1-1.6,1.8c-0.5,0.6-1,1.2-1.5,1.9c-0.3,0.4-0.6,0.8-0.8,1.2c-0.2,0.2-0.3,0.4-0.4,0.7
	c-0.3,0.4-0.5,0.8-0.8,1.2c-0.2,0.3-0.4,0.7-0.6,1c-0.2,0.4-0.4,0.7-0.6,1.1c-0.2,0.4-0.4,0.7-0.6,1.1c-0.2,0.4-0.4,0.7-0.5,1.1
	c-0.4,0.7-0.7,1.4-1,2.1c-0.1,0.2-0.2,0.3-0.2,0.5c-0.4,0.9-0.7,1.7-1,2.5c-0.1,0.3-0.2,0.7-0.4,1c-0.1,0.3-0.2,0.7-0.4,1
	s-0.2,0.6-0.3,0.9c-0.1,0.2-0.1,0.3-0.2,0.5c-0.1,0.2-0.2,0.5-0.2,0.7c-0.1,0.2-0.1,0.3-0.2,0.5c-0.1,0.2-0.1,0.4-0.2,0.6
	c0,0.1-0.1,0.2-0.1,0.3c0,0.1-0.1,0.2-0.1,0.4c0,0.1-0.1,0.2-0.1,0.4c0,0.1-0.1,0.2-0.1,0.3c0,0.1-0.1,0.2-0.1,0.3
	c0,0.1,0,0.2-0.1,0.3c-0.1,0.5-0.2,0.9-0.3,1.2c0,0.1,0,0.2-0.1,0.3c0,0,0,0.1,0,0.1c0,0,0,0,0,0v0c0,0,0,0,0,0l0,0v0c0,0,0,0,0,0
	c-0.1,1.8,0,3.5,0.1,5.1c0,0.3,0,0.5,0.1,0.8c0,0,0,0,0,0c0,0.2,0,0.4,0.1,0.7c0,0,0,0,0,0c0,0,0,0,0,0c0,0.2,0,0.5,0.1,0.8
	c0,0.2,0.1,0.5,0.1,0.8c0,0.4,0.1,0.8,0.2,1.2c0.1,0.6,0.2,1.2,0.3,1.8c0.1,0.4,0.2,0.8,0.3,1.2c0,0.1,0,0.2,0.1,0.3
	c0.1,0.3,0.1,0.5,0.2,0.8c0.1,0.6,0.3,1.2,0.5,1.8c0.1,0.4,0.2,0.8,0.4,1.2c0.1,0.5,0.3,1,0.5,1.4c0.1,0.4,0.3,0.8,0.4,1.2
	c0,0,0,0,0,0.1c0.1,0.3,0.2,0.5,0.3,0.8c0,0.1,0.1,0.3,0.2,0.4c0.2,0.4,0.3,0.7,0.5,1.1c0.2,0.4,0.3,0.8,0.5,1.1
	c0.2,0.4,0.4,0.8,0.6,1.1c0.2,0.4,0.4,0.7,0.6,1.1c0.4,0.7,0.8,1.4,1.2,2c0.3,0.5,0.6,0.9,0.9,1.4c0.2,0.2,0.3,0.5,0.5,0.7
	c0.1,0.1,0.2,0.3,0.3,0.4c0.8,1,1.6,1.9,2.3,2.5c0.2,0.2,0.4,0.3,0.5,0.5c0.7,0.6,1.4,1.1,2,1.3c0.1,0,0.2,0.1,0.3,0.1
	c0.1,0,0.2,0,0.2,0.1c0,0,0.1,0,0.1,0c0,0,0,0,0,0c0,0,0,0,0,0c0.1,0,0.2,0.1,0.2,0.1c4.3,0.7,5.7-4.3,12.2-2.9
	c6.5,1.4,3.6,15.1,7.9,19.4c4.3,4.3,3.6-4.3,5-15.1c1.4-10.8-22.3-26.6-28.1-33.8c-5.8-7.9,1.4-6.5,8.6-4.3c7.9,2.2-7.2-10,0-21.6
	c7.2-11.6,15.1,2.8,15.8,15.8c0.7,13,14.4,6.5,14.4,31c-0.7,23.8,4.3,16.6,4.3,16.6c0.5-1.6,1-3.3,1.4-4.9c0.1-0.4,0.2-0.7,0.2-1.1
	c0,0,0-0.1,0-0.1c0.1-0.4,0.2-0.8,0.2-1.2c0.1-0.4,0.1-0.8,0.2-1.2c0.1-0.4,0.1-0.8,0.2-1.2c0.1-0.4,0.1-0.8,0.2-1.2
	c0.1-0.8,0.2-1.7,0.3-2.5c0.1-0.8,0.1-1.5,0.2-2.2c0.1-1.5,0.1-3.1,0.1-4.6C511.2,378.5,511.2,378.3,511.2,378z M289.7,290.7
	c-0.1-0.1-0.2-0.2-0.3-0.2c-0.3-0.2-0.6-0.5-0.8-0.7c-0.3-0.2-0.6-0.5-1-0.7c-0.2-0.2-0.5-0.3-0.7-0.5c-0.1-0.1-0.2-0.2-0.4-0.2
	c-0.1-0.1-0.2-0.2-0.4-0.2c-0.1-0.1-0.2-0.1-0.3-0.2c-0.3-0.2-0.5-0.3-0.8-0.5c-0.2-0.1-0.3-0.2-0.5-0.2c-0.2-0.1-0.3-0.2-0.5-0.2
	c-0.2-0.1-0.3-0.2-0.5-0.2c-0.2-0.1-0.3-0.2-0.5-0.2c-0.2-0.1-0.5-0.2-0.7-0.3c-1-0.4-2-0.8-3-1.1c-0.5-0.2-1-0.3-1.5-0.4
	c-0.3-0.1-0.5-0.1-0.8-0.2c-0.3-0.1-0.5-0.1-0.8-0.2c-0.5-0.1-1-0.2-1.6-0.3c-0.3-0.1-0.6-0.1-1-0.2c-0.3-0.1-0.6-0.1-1-0.2
	c-0.6-0.1-1.3-0.2-1.9-0.3c-0.6-0.1-1.3-0.2-1.9-0.2c-0.3,0-0.6,0-0.9-0.1c-0.2,0-0.4,0-0.5,0c-1.7-0.1-3.3-0.2-4.8-0.2
	c-0.1,0-0.3,0-0.4,0H262c-0.3,0-0.7,0-1,0c-0.3,0-0.6,0-0.9,0c-0.3,0-0.6,0-0.9,0c-0.3,0-0.5,0-0.8,0c-0.1,0-0.3,0-0.4,0
	c-0.1,0-0.3,0-0.4,0c-0.3,0-0.5,0-0.8,0c-0.3,0-0.6,0-0.8,0.1c-0.2,0-0.5,0-0.6,0.1c-0.3,0-0.5,0-0.5,0s-18,13.6-38.9,12.2
	c-0.4,0-0.8-0.1-1.2-0.1c-0.4,0-0.7,0-1.1,0c-0.6,0-1.2,0-1.8,0c-0.3,0-0.6,0-0.9,0s-0.6,0-0.9,0.1c-0.4,0-0.9,0.1-1.3,0.1
	c-0.5,0.1-1,0.1-1.5,0.2c-0.4,0-0.8,0.1-1.2,0.2c-0.7,0.1-1.3,0.2-2,0.4c-0.7,0.1-1.3,0.3-1.9,0.5c-0.6,0.1-1.2,0.3-1.8,0.5
	c-0.5,0.1-0.9,0.3-1.4,0.4c-0.9,0.3-1.7,0.6-2.5,0.9c-0.3,0.1-0.6,0.2-0.9,0.4c-0.6,0.2-1.3,0.5-1.9,0.8c-0.3,0.1-0.6,0.2-0.9,0.4
	c-0.7,0.3-1.4,0.6-2,0.9c-0.4,0.2-0.8,0.4-1.2,0.6c-0.7,0.4-1.4,0.7-2,1.1c-0.3,0.1-0.5,0.3-0.8,0.4c-0.8,0.5-1.6,0.9-2.3,1.4
	c-0.3,0.2-0.5,0.3-0.8,0.5c-1.8,1.1-3.2,2.1-4.3,3c-0.1,0.1-0.2,0.1-0.2,0.2c-0.6,0.5-1.1,0.9-1.5,1.2c-0.1,0-0.1,0.1-0.2,0.1
	c0,0-0.1,0.1-0.1,0.1c-0.2,0.2-0.4,0.3-0.4,0.3c-5.8,18.7,8.6,13.7,8.6,13.7s5.1-10.8,24.5-7.9c1.8,0.2,3.6,0.3,5.4,0.3
	c1,0,2,0,2.9-0.1c1.1-0.1,2.1-0.2,3.1-0.3c0.4-0.1,0.9-0.1,1.3-0.2c0.5-0.1,0.9-0.2,1.4-0.2c0.3,0,0.6-0.1,0.9-0.2
	c0.4-0.1,0.8-0.2,1.1-0.2c0.6-0.1,1.2-0.3,1.8-0.5c0.7-0.2,1.3-0.4,2-0.6c0.6-0.2,1.2-0.4,1.8-0.6c0.6-0.2,1.2-0.4,1.8-0.7
	c0.2-0.1,0.5-0.2,0.7-0.3c0.5-0.2,1-0.4,1.4-0.6c0.7-0.3,1.4-0.6,2-0.9c0.6-0.3,1.1-0.6,1.7-0.8c0.8-0.4,1.6-0.9,2.4-1.3
	c0.4-0.2,0.8-0.5,1.2-0.7c0.3-0.2,0.7-0.4,1-0.6c0.3-0.2,0.7-0.4,1-0.6c0.3-0.2,0.7-0.4,1-0.7c0.4-0.2,0.8-0.5,1.2-0.8
	c0.4-0.3,0.8-0.5,1.1-0.8c2.3-1.5,4.4-3.1,6.4-4.5c0.3-0.2,0.6-0.4,0.9-0.6c0,0,0,0,0.1,0c0,0,0.1-0.1,0.1-0.1
	c0.4-0.2,0.7-0.5,1.1-0.7c0.4-0.2,0.8-0.4,1.2-0.6c0.3-0.1,0.6-0.3,0.9-0.4c0.3-0.1,0.6-0.3,0.8-0.4c0.5-0.2,1-0.4,1.5-0.6
	c0.3-0.1,0.7-0.3,1-0.4c0.5-0.2,1-0.3,1.5-0.5c0.1,0,0.2-0.1,0.2-0.1c0.5-0.1,0.9-0.3,1.4-0.4c0.7-0.2,1.5-0.4,2.2-0.6
	c0.6-0.2,1.2-0.3,1.8-0.5c0.7-0.2,1.3-0.3,2-0.4c0.2,0,0.3-0.1,0.5-0.1l0.1,0c0.4-0.1,0.8-0.2,1.2-0.2c0,0,0,0,0,0
	c0.5-0.1,0.9-0.2,1.3-0.2c0.6-0.1,1.1-0.2,1.7-0.3c0.4-0.1,0.8-0.1,1.2-0.2c0.3,0,0.6-0.1,0.9-0.1c0.2,0,0.4-0.1,0.6-0.1
	c0.1,0,0.2,0,0.3,0c0.1,0,0.2,0,0.4,0c0,0,0.1,0,0.1,0c0.3,0,0.6-0.1,0.9-0.1c0.3,0,0.7-0.1,1-0.1c0.4-0.1,0.8-0.1,1.2-0.1
	c0.6-0.1,1.2-0.1,1.8-0.2c0.4,0,0.9-0.1,1.2-0.1c0.2,0,0.3,0,0.5,0c0.3,0,0.6,0,0.9-0.1c0.7-0.1,1.3-0.1,1.8-0.1c0.1,0,0.2,0,0.3,0
	c0.4,0,0.7,0,0.7,0C290,291,289.9,290.9,289.7,290.7z M133.3,331.9c0-0.1,0-0.2,0-0.3c0-0.1,0-0.2,0-0.3c0-0.2,0-0.3-0.1-0.5
	c0-0.1,0-0.3-0.1-0.4c0-0.3-0.1-0.6-0.2-0.9c-0.1-0.2-0.1-0.5-0.2-0.7c-0.1-0.2-0.1-0.5-0.2-0.7c-0.1-0.2-0.2-0.5-0.3-0.8
	s-0.2-0.5-0.4-0.8s-0.3-0.5-0.4-0.7c-0.1-0.2-0.3-0.5-0.4-0.7c-0.6-0.9-1.4-1.8-2.1-2.7c-0.2-0.2-0.4-0.4-0.6-0.6
	c-0.2-0.2-0.5-0.4-0.7-0.6c-0.2-0.2-0.4-0.4-0.6-0.5c-0.2-0.2-0.4-0.4-0.7-0.6c0,0-0.1-0.1-0.1-0.1c-0.2-0.2-0.4-0.3-0.6-0.4
	c-0.2-0.2-0.5-0.4-0.7-0.5s-0.5-0.3-0.7-0.5c-0.3-0.2-0.6-0.4-1-0.6c-0.2-0.1-0.3-0.2-0.5-0.3c-0.2-0.1-0.3-0.2-0.5-0.3
	c-1.8-1.1-3.6-2-5.1-2.7c-0.3-0.1-0.6-0.2-0.8-0.4c0,0,0,0-0.1,0c-0.2-0.1-0.3-0.1-0.5-0.2c-0.9-0.4-1.7-0.7-2.2-0.9
	c-0.1,0-0.2-0.1-0.3-0.1c-0.1,0-0.3-0.1-0.4-0.1c-0.4-0.1-0.5-0.2-0.5-0.2s-26.6-2.9-33.1-13.7c-0.1-0.2-0.2-0.4-0.4-0.5
	c-0.2-0.2-0.3-0.4-0.5-0.6c-0.2-0.2-0.3-0.4-0.5-0.6c-0.2-0.2-0.4-0.4-0.5-0.5c-0.2-0.2-0.4-0.3-0.6-0.5c-0.1-0.1-0.2-0.2-0.3-0.3
	c-0.3-0.2-0.6-0.5-0.9-0.6c-0.2-0.2-0.5-0.3-0.8-0.5c-0.2-0.1-0.3-0.2-0.5-0.3c-0.2-0.1-0.5-0.2-0.7-0.4c-0.3-0.2-0.6-0.3-0.9-0.4
	c-0.2-0.1-0.5-0.2-0.7-0.3c-0.3-0.1-0.6-0.2-0.9-0.3c-0.3-0.1-0.6-0.2-0.9-0.3c-0.4-0.1-0.8-0.2-1.2-0.3c0,0-0.1,0-0.2,0
	c-0.4-0.1-0.7-0.2-1.1-0.2c-0.3-0.1-0.6-0.1-0.9-0.2c-0.5-0.1-1.1-0.2-1.7-0.2c-0.1,0-0.2,0-0.3,0c-0.3,0-0.5-0.1-0.8-0.1
	c-0.4,0-0.8-0.1-1.2-0.1c-0.4,0-0.8,0-1.2,0c-0.3,0-0.6,0-0.9,0c-0.5,0-1,0-1.5,0c-0.2,0-0.4,0-0.6,0c-0.2,0-0.3,0-0.5,0
	c-0.7,0-1.4,0.1-2,0.1c0,0-0.1,0-0.1,0c-0.2,0-0.4,0-0.5,0c-0.6,0.1-1.2,0.1-1.7,0.2c-0.2,0-0.5,0.1-0.7,0.1
	c-0.6,0.1-1.1,0.2-1.5,0.2c-0.1,0-0.2,0-0.3,0c0,0-0.1,0-0.1,0c0,0-0.1,0-0.1,0c-0.8,0.7-1.5,1.3-2.1,1.9c-0.2,0.2-0.3,0.3-0.5,0.5
	c-0.1,0.2-0.3,0.3-0.4,0.5c0,0,0,0,0,0c-0.1,0.1-0.3,0.3-0.4,0.5c-0.1,0.1-0.2,0.3-0.4,0.4c-0.1,0.1-0.2,0.3-0.3,0.4
	c-0.1,0.1-0.2,0.3-0.3,0.4c-0.1,0.1-0.2,0.3-0.3,0.4c-0.1,0.1-0.2,0.3-0.2,0.4c-0.1,0.1-0.2,0.3-0.3,0.5c-0.2,0.4-0.3,0.7-0.4,1
	c-0.1,0.2-0.1,0.5-0.2,0.7c0,0.2-0.1,0.3-0.1,0.5c0,0.3,0,0.6,0,0.8c0,0.1,0,0.2,0,0.4c0,0.1,0,0.2,0.1,0.3c0,0.1,0.1,0.2,0.1,0.3
	c0,0.1,0.1,0.2,0.1,0.3c0.1,0.2,0.2,0.4,0.3,0.6c0,0.1,0.1,0.2,0.2,0.3c0.1,0.1,0.1,0.2,0.2,0.3c0.1,0.1,0.1,0.2,0.2,0.2
	c0.1,0.1,0.2,0.2,0.3,0.3c0.1,0.1,0.2,0.2,0.4,0.3c0.1,0,0.1,0.1,0.2,0.1c0.2,0.1,0.3,0.2,0.5,0.3c0.1,0.1,0.3,0.2,0.4,0.2
	c0,0,0.1,0,0.1,0.1c0.2,0.1,0.4,0.2,0.6,0.3c0.1,0,0.2,0.1,0.4,0.1c0.2,0.1,0.4,0.1,0.5,0.2c0.2,0.1,0.4,0.1,0.6,0.2
	c0.4,0.1,0.8,0.2,1.1,0.3c0.1,0,0.2,0,0.4,0.1c0,0,0.1,0,0.1,0c0.2,0,0.3,0,0.4,0.1c0.1,0,0.2,0,0.4,0c0.1,0,0.1,0,0.2,0
	c0.1,0,0.1,0,0.2,0c0.2,0,0.5,0,0.7,0.1c0.2,0,0.5,0,0.7,0c0.3,0,0.6,0,0.9,0.1c0.1,0,0.2,0,0.3,0.1c0.3,0.1,0.7,0.2,1.1,0.3
	c0,0,0,0,0,0c0,0,0,0,0,0c0.3,0.1,0.5,0.2,0.8,0.3c0.2,0.1,0.5,0.2,0.7,0.3c0.3,0.1,0.5,0.2,0.8,0.3c0.2,0.1,0.4,0.2,0.6,0.3
	c0.2,0.1,0.4,0.2,0.7,0.3c0.3,0.1,0.5,0.3,0.8,0.4c0.8,0.4,1.7,0.9,2.6,1.4c0.4,0.2,0.9,0.5,1.4,0.8c0.5,0.3,0.9,0.5,1.4,0.8
	c0.3,0.2,0.6,0.4,0.9,0.5c0.3,0.2,0.6,0.4,0.9,0.6c0.3,0.2,0.6,0.4,1,0.6c0.9,0.5,1.7,1.1,2.6,1.6c4.1,2.6,8,5.3,10.4,7.2
	c1.4,0.8,2.9,1.5,4.3,2.2c9.4,2.9,25.2,3.6,25.2,3.6s0,0,0.1,0.1c0,0,0,0,0,0c0,0,0.1,0.1,0.1,0.1c0.2,0.2,0.4,0.4,0.8,0.7
	c0.1,0.1,0.2,0.2,0.4,0.3c1.4,1.3,3.7,3.4,6.2,5.4c0.4,0.3,0.8,0.7,1.3,1c0.4,0.3,0.9,0.6,1.3,1c5,2.9,10.1,4.3,10.8-2.9
	c0-0.3,0.1-0.7,0.1-1c0-0.3,0-0.6,0-0.8C133.3,332.3,133.3,332.1,133.3,331.9z M121,345.8c0-0.2-0.2-0.6-0.8-0.5
	c0-1-0.7-2.3-1.6-3.2c-0.4-0.5-0.9-0.8-1.3-1c-1.4-0.8-2.2-1.5-3.6-2.2c-4.5-2.3-8.6-3.2-12.6-3.8c0,0,0,0,0,0
	c-0.7-0.1-1.5-0.2-2.2-0.3c-0.1,0-0.2,0-0.3,0c-0.2,0-0.4-0.1-0.7-0.1c-1.6-0.2-3.1-0.3-4.6-0.3h0c-0.1,0-0.2,0-0.3,0
	c-0.3,0-0.6,0-0.9,0c-0.1,0-0.2,0-0.2,0c-0.6,0-1.2,0.1-1.7,0.1c-0.9,0.1-1.8,0.2-2.7,0.3c-0.4,0-0.8,0.1-1.1,0.2
	c-0.7,0.1-1.4,0.2-2,0.4c-2.5,0.4-4.6,1-6.3,1.6c-0.1,0-0.2,0.1-0.3,0.1c-3.5,1.2-5.4,2.5-5.6,2.6l0,0c0,0.2,0,0.5,0,0.7
	c0,0.1,0,0.2,0,0.4c0,0.3,0,0.7,0.1,1c0,0.1,0,0.2,0,0.2c0,0.1,0,0.2,0.1,0.3c0,0.1,0,0.2,0,0.3c0,0.1,0,0.2,0,0.2
	c0.1,0.3,0.1,0.5,0.2,0.8c1.7,7,8.3,10.1,16,11.1c0.3,0,0.5,0.1,0.8,0.1c0.3,0,0.6,0.1,0.8,0.1c0.3,0,0.7,0.1,1,0.1
	c0.4,0,0.8,0,1.2,0.1c0.2,0,0.4,0,0.7,0c1.4,0,2.7,0,4.1,0c0.8,0,1.6,0,2.4-0.1c0.7,0,1.4-0.1,2.1-0.2c0,0,0,0,0,0
	c0.7-0.1,1.4-0.1,2-0.2c0,0,0,0,0,0c1-0.1,2-0.3,3-0.4c3-0.5,5.6-1,7.7-1.3h1.4c1.4,0,2.9-0.8,3.6-2.2c0.5-1,1.1-2.2,1.3-3.2
	c0.1-0.4,0.1-0.7,0.1-1.1C121,346,121,345.9,121,345.8z M281.5,350.3c0-0.1,0-0.2,0-0.2c0-0.1,0-0.2,0-0.3c0-0.1,0-0.3-0.1-0.4
	c0-0.1,0-0.3-0.1-0.4c0-0.3-0.1-0.6-0.2-0.8c0,0,0-0.1,0-0.1c-0.1-0.3-0.2-0.6-0.3-0.9c-0.1-0.2-0.2-0.3-0.2-0.5
	c0-0.1-0.1-0.2-0.2-0.3c-0.1-0.1-0.1-0.2-0.2-0.4c0-0.1-0.1-0.2-0.2-0.2c-0.1-0.1-0.2-0.2-0.3-0.3c-0.1-0.2-0.3-0.3-0.4-0.4
	c-0.3-0.3-0.6-0.5-0.9-0.7c-0.4-0.3-0.8-0.5-1.2-0.7c0,0-0.1,0-0.1,0c0,0,0,0,0,0c-0.2-0.1-0.4-0.2-0.6-0.2
	c-0.3-0.1-0.5-0.2-0.8-0.3c-0.2-0.1-0.5-0.2-0.8-0.3c-0.1,0-0.2-0.1-0.2-0.1c-0.4-0.2-0.7-0.3-1.1-0.5c-0.5-0.2-0.9-0.4-1.4-0.6
	c-0.2-0.1-0.5-0.2-0.8-0.3c-0.7-0.3-1.4-0.6-2.1-0.9c-0.4-0.2-0.9-0.4-1.3-0.5c-4.3-1.5-10.8-2.2-18-2.2H247c-0.1,0-0.2,0-0.2,0
	c-0.3,0-0.6,0-0.9,0.1c-0.3,0-0.7,0.1-1,0.1c-0.4,0-0.9,0.1-1.3,0.2c-0.5,0.1-1.1,0.2-1.6,0.3c-1.3,0.2-2.5,0.5-3.8,0.8
	c-0.1,0-0.2,0-0.2,0.1c-0.5,0.1-0.9,0.2-1.3,0.4c-0.3,0.1-0.7,0.2-1,0.3c-0.3,0.1-0.7,0.2-1,0.3c-0.7,0.2-1.4,0.5-2.1,0.7
	c-0.5,0.2-0.9,0.3-1.4,0.5c-0.1,0-0.2,0.1-0.3,0.1c-0.5,0.2-1,0.4-1.6,0.6c0,0-0.1,0-0.1,0c-0.6,0.2-1.2,0.5-1.7,0.7
	c-1.3,0.6-2.6,1.2-3.9,1.8c-0.5,0.2-1,0.5-1.4,0.7c-0.4,0.2-0.7,0.4-1.1,0.6c-1.8,0.9-3.5,1.9-5,2.8c-0.3,0.2-0.6,0.4-0.9,0.6
	c-0.3,0.2-0.6,0.4-0.9,0.5c-0.2,0.1-0.4,0.3-0.6,0.4c-0.2,0.1-0.4,0.2-0.5,0.3c-0.3,0.2-0.6,0.4-1,0.6c-0.3,0.2-0.6,0.4-0.9,0.6
	c-1.3,0.8-2.4,1.6-3.4,2.3c-0.2,0.2-0.5,0.4-0.7,0.5c-0.8,0.6-1.5,1.1-2.1,1.5c-0.1,0.1-0.3,0.2-0.4,0.3c-0.1,0.1-0.1,0.1-0.2,0.2
	c-0.1,0.1-0.2,0.1-0.2,0.2c0,0,0,0-0.1,0c-0.1,0.1-0.2,0.2-0.3,0.2l0,0c0,0,0,0,0,0c4.3,7.2,12.3,9.4,38.9,10.1
	c17.2,0,28-4.3,33.8-7.2c1.4-0.7,2.9-2.2,3.6-3.6c0.7-1.4,1.4-3.6,1.4-5C281.5,350.8,281.5,350.5,281.5,350.3z M120.3,568.5
	c-0.7,0-1.4-0.7-2.2-1.4c-1.4-1.4-3.6-2.2-4.3-3.6c-0.7-0.7-1.4-2.2-2.2-2.9c-1-1.9-1.3-3.5-1-4.7c-0.1-0.5-0.2-1-0.1-1.4
	c-1,1.4-1.1,3.4,0.4,6c0.8,0.7,1.5,2.2,2.2,2.9c0.7,1.4,2.9,2.2,4.3,3.6c0.8,0.7,1.5,1.4,2.2,1.4c1.4,0.8,2.9,1.5,4.3,2.2h0.5
	C123.1,569.9,121.6,569.3,120.3,568.5z"/>
<path class="st1" d="M509,308.5c-11.5-14.4-19.4-10.1-20.9-8.6c0-7.9,1.4-115.2-22.3-167c-25.2-54-102.2-77.8-139.7-89.3L247,40
	c-32.4,9.4-51.8,16.6-67.7,24.5c-15.8,7.9-28.1,16.6-46.1,28.8c-35.3,23.8-77,139.7-77,160.6c0,20.9-20.2,37.3-12.3,59.7
	c8.6,22.3,13.7,43.9,10.1,59.8c-3.6,15.8-3.6,61.2,0,72c3.6,10.8,20.9,77,20.9,77v0.7c0.2-0.1,0.5-0.2,0.7-0.3
	c8.4-4.1,17.6-7.6,29.5-9.8l0.2-0.7l4.2-19.5l0.4,0l16.2-2.2c11.5-4.3,22.3-10.1,34.6-10.1c6.5,0,13.7,1.4,20.9,5.8
	c5.8,2.9,10.1,4.3,14.4,3.6l-1.3,3.4l-0.1,0.2c-4.3,6.5-20.9-3.6-34.6-5h-1.4v26.6c0.5-0.1,0.9-0.1,1.4-0.2c2.8-0.3,5.7-0.4,8.7-0.3
	c0.3,0,0.5,0,0.8,0c2.1,0.1,4.3,0.3,6.5,0.5c0.5,0.1,1,0.1,1.5,0.2c0.5,0,0.9,0.1,1.4,0.2c0.7,0.1,1.4,0.2,2.1,0.3
	c0.9,0.1,1.8,0.3,2.7,0.5c0.3,0.1,0.7,0.1,1,0.2c1,0.2,2,0.4,3.1,0.6c0.7,0.2,1.5,0.3,2.2,0.5c0.9,0.2,1.7,0.4,2.6,0.6
	c0.7,0.2,1.4,0.3,2,0.5c0.2,0,0.4,0.1,0.6,0.2c0.6,0.2,1.3,0.3,1.9,0.5c0.5,0.2,1.1,0.3,1.6,0.5c0.5,0.1,1.1,0.3,1.6,0.5
	c0.5,0.2,1.1,0.3,1.6,0.5c0.5,0.2,1.1,0.3,1.6,0.5c0.9,0.3,1.8,0.6,2.7,0.9c0.1,0,0.2,0.1,0.3,0.1c1,0.3,2,0.7,3,1
	c1.1,0.4,2.3,0.8,3.4,1.2c1,0.3,1.9,0.7,2.9,1c0.8,0.3,1.5,0.6,2.2,0.8c0.7,0.3,1.5,0.5,2.2,0.8c0.5,0.2,1,0.4,1.5,0.6
	c0.1,0.1,0.3,0.1,0.4,0.2c12.6,5,21.7,9.5,22.9,10.1v27.4c-25.8-22.3-95.6-31.1-103.8-32.3c-0.3,0-0.5-0.1-0.6-0.1V495l-4.3,1.4
	h-1.4c-2.2,0-5.8,0.7-8.6,0.7l-0.9,24.1l-0.5,13.3c-0.1,0-0.3,0-0.5,0c-0.2,0-0.4,0-0.8,0c-0.2,0-0.3,0-0.5,0c-0.1,0-0.3,0-0.5,0
	c-0.2,0-0.3,0-0.5,0c-7.4,0.6-28,3.1-45.5,12.9v3.6c1.4,17.3,4.3,38.2,10.8,48.2c11.5,19.4,6.5,36.7,26.6,70.6
	c0.3,0.3,0.4,0.5,0.6,0.8c0.2,0.4,0.4,0.9,0.8,1.4c21.6,31,74.2,26.6,74.2,26.6s51.1-6.5,58.3-20.2c7.2-13,74.2-61.9,95.8-69.8
	c20.7-8.2,74-94.8,81.4-126c0,0,0-0.1,0-0.1c0.2-1,0.3-1.9,0.5-2.7c1.6-12.6,3.2-22.9,4.9-29.5c0.1-0.5,0.3-1.1,0.4-1.6
	c1.9-7.4,3.8-9.6,5.7-4.3c3.6,10,2.2,26.6,13.7,31.7c7.9,1.4,20.2-1.4,28.1-8.6c8.6-7.2,18.7-29.5,38.2-57.6
	C537.1,382.7,522,324.4,509,308.5z M267.9,338.8c0.2,0,0.5,0.1,0.7,0.2c3.2,0.8,5.2,2.1,7.2,3.5c0.4,0.3,0.8,0.6,1.3,0.9
	c0,0,0,0,0,0c1.6,1.3,3.2,3.1,3.7,4.9c0.7,2.8,0.7,5-0.7,7.1c-0.7,1.4-2.2,2.9-3.6,3.6c-5.8,2.9-17.3,7.2-33.8,7.2
	c-25.4-0.7-33.5-2.8-38.6-9.7c-0.1-0.1-0.2-0.3-0.3-0.4c2.2-1.4,23-17.3,43.2-19.4h2.9C257.1,336.6,262.9,338,267.9,338.8z
	 M57.1,307.6C57.1,307.6,57.1,307.5,57.1,307.6C57.1,307.5,57.1,307.5,57.1,307.6c-0.4-0.1-0.8-0.2-1.2-0.3c-0.1,0-0.2,0-0.3-0.1
	c-0.3-0.1-0.6-0.1-0.9-0.1c-0.2,0-0.4,0-0.7,0c-0.2,0-0.5,0-0.7-0.1c-0.1,0-0.1,0-0.2,0c-0.1,0-0.1,0-0.2,0
	c-4.3-0.7-11.1-3.6-5.7-10.5c0.1-0.1,0.2-0.3,0.4-0.4c0.1-0.2,0.3-0.3,0.4-0.5c0,0,0,0,0,0c0.1-0.1,0.3-0.3,0.4-0.5
	c0.2-0.2,0.3-0.3,0.5-0.5c0.2-0.2,0.4-0.4,0.6-0.6c0.2-0.2,0.4-0.4,0.6-0.6c0.3-0.2,0.6-0.5,0.9-0.7c0,0,0,0,0.1,0
	c0.8,0,4.8-0.8,9.5-0.8c0.3,0,0.6,0,0.9,0c0.2,0,0.4,0,0.6,0c6.3,0.1,13.5,1.6,16.9,7.3c6.5,10.8,33.1,13.7,33.1,13.7
	c1.4-0.1,20,6.1,21,18.4c0,0.1,0,0.2,0,0.3c0,0.1,0,0.2,0,0.3c0,0.2,0,0.5,0,0.7c0,0.3,0,0.6,0,0.8c0,0.3-0.1,0.6-0.1,1
	c-0.7,7.2-5.8,5.8-10.8,2.9c-4.7-2.7-8.8-7.2-9.9-8.4c-0.1-0.1-0.1-0.1-0.1-0.1c0,0,0,0,0,0c0,0-0.1-0.1-0.1-0.1
	c-1.4,0-16.6-0.7-25.2-3.6c-1.4-0.7-2.9-1.4-4.3-2.2c-4.9-4.2-17.9-12.5-24.9-15.1C57.6,307.8,57.4,307.7,57.1,307.6z M103.8,354.3
	C103.8,354.2,103.8,354.3,103.8,354.3c-0.7,0.1-1.4,0.2-2.1,0.2c0,0,0,0,0,0c-0.7,0.1-1.4,0.1-2.1,0.2c-0.8,0-1.6,0.1-2.4,0.1
	c-1.4,0.1-2.8,0.1-4.1,0c-0.2,0-0.4,0-0.7,0c-0.4,0-0.8,0-1.2-0.1c-0.3,0-0.7,0-1-0.1c-0.3,0-0.6,0-0.8-0.1c-0.3,0-0.6-0.1-0.8-0.1
	c-9-1.1-16.5-5-16.5-14.2c0,0,0,0,0,0c0.8-0.7,5-2.9,12.2-4.3c1.5-0.3,3.2-0.6,5.1-0.8c2.7-0.3,5.6-0.3,8.6,0.1c0.1,0,0.2,0,0.4,0
	c0.1,0,0.2,0,0.3,0c3.7,0.1,7.8,0.9,11.6,2.5c1,0.4,1.9,0.8,2.8,1.3c0.2,0.1,0.3,0.2,0.5,0.2c0.1,0,0.2,0.1,0.2,0.1
	c1.4,0.7,2.2,1.4,3.6,2.2c1.4,0.7,2.9,2.9,2.9,5v0.7c0.5,0,0.4,0.5,0,1.3c0,0,0,0,0,0c-0.2,0.5-0.5,1-0.7,1.6
	c-0.7,1.4-2.2,2.2-3.6,2.2h-1.4c-2.1,0.3-4.7,0.9-7.6,1.3C105.9,354,104.9,354.1,103.8,354.3z M216.7,576.3
	C216.7,576.3,216.7,576.3,216.7,576.3c0,0.1,0,0.1,0,0.1c-3.2,5-17.2,15-32.3,21.4v20.4c0,8.7-7.1,15.8-15.8,15.8h-18.8
	c-8.7,0-15.8-7.1-15.8-15.8V601c-5.8-1.4-11.4-3.4-15.2-6c-1.4-0.7-3.6-2.2-5-3.6l-4.3-5c-1.4-3.6-0.7-6.5,2.2-8.6l0.7-0.7
	c0.7-0.7,1.4-0.7,2.2-1.4c1.4-0.7,2.2-1.4,3.6-2.2c0,0,0.7-0.7,1.4-0.7c1.4-0.7,2.9-1.4,4.3-2.2h0.5c-1.3-0.7-2.8-1.3-4.1-2.1
	c-0.7,0-1.4-0.7-2.2-1.4c-1.4-1.4-3.6-2.2-4.3-3.6c-0.7-0.7-1.4-2.2-2.2-2.9c-1-1.9-1.3-3.5-1-4.7c-0.1-0.5-0.2-1-0.1-1.4
	c0.3-4.5,7.1-5.7,11.2-6.9c5-1.4,6.5,10.1,14.4,6.5c7.9-4.3,19.4-4.3,27.4,0c5.8,2.9,34.6,10.1,47.5,13.7c1.8,0.4,2.5,1.8,2.1,3.1
	c0.1,0.2,0.1,0.4,0.1,0.6v0.7c0,0,0,0.7-0.7,0.7c0.6,0,0.7,0,1.3,0.6h0.1c0.1,0,0.2,0.1,0.3,0.1h0.4c0.4,0,0.8,0.2,1,0.5
	c0.3,0.1,0.5,0.2,0.7,0.4c0,0,0.1,0.1,0.1,0.1l0.2,0.2V576.3z M279.5,292.1c-0.1,0-0.2,0-0.3,0c-0.2,0-0.4,0-0.6,0.1
	c-0.3,0-0.6,0.1-0.9,0.1c-0.4,0-0.8,0.1-1.2,0.2c-0.5,0.1-1.1,0.2-1.7,0.3c-0.4,0.1-0.9,0.2-1.3,0.2c0,0,0,0,0,0
	c-0.4,0.1-0.8,0.2-1.2,0.2l-0.1,0c-0.2,0-0.3,0.1-0.5,0.1c-5.8,1.2-11.6,3-15.9,5.8c-0.3,0.2-0.6,0.4-0.9,0.6c-2,1.5-4.1,3-6.4,4.5
	c-0.4,0.2-0.8,0.5-1.1,0.8c-0.4,0.3-0.8,0.5-1.2,0.8c-0.4,0.2-0.7,0.4-1,0.7c-0.3,0.2-0.6,0.4-1,0.6c-0.3,0.2-0.7,0.4-1,0.6
	c-9,5.2-19.8,9.2-32.9,7.2c-18.7-2.2-23.8,7.2-24.5,7.9c-0.7,0-14.3,4.3-8-13.5c0-0.1,0-0.1,0.1-0.2c0.7-0.7,18-15.8,38.9-14.4
	c20.9,1.4,38.2-11.5,38.9-12.2c0.2,0.3,2.7,0.2,6.3,0.4h0.4c0,0,0,0,0,0c7.8,0.3,20.5,1.6,27.8,8.3
	C288.8,291.2,284.7,291.4,279.5,292.1z M491.1,427.4C491.1,427.4,491.1,427.4,491.1,427.4c0,0.1,0,0.2,0,0.3c0,0.1,0,0.2-0.1,0.3
	c-0.2,0.6-0.5,1.2-0.8,1.8c-0.2,0.3-0.3,0.5-0.5,0.7c-0.1,0.1-0.2,0.2-0.3,0.3c0,0,0,0.1-0.1,0.1c-0.1,0.1-0.2,0.2-0.3,0.3
	c-0.3,0.3-0.7,0.5-1,0.7c-0.1,0.1-0.3,0.1-0.4,0.2c-0.1,0-0.2,0.1-0.3,0.1c-0.1,0-0.2,0.1-0.2,0.1c-0.2,0-0.4,0.1-0.5,0.1
	c-0.1,0-0.2,0-0.3,0c-0.1,0-0.2,0-0.3,0c-0.1,0-0.2-0.1-0.3-0.1c0,0,0,0,0,0c-0.1,0-0.2-0.1-0.3-0.1c0,0,0,0,0,0
	c-0.9-0.3-1.6-1.1-2.1-2.5c-1.1-4.1-5.2-9.2-11-8.5c0,0-0.1,0-0.1,0c-0.2,0-0.4,0.1-0.5,0.1c-0.1,0-0.1,0-0.2,0c0,0,0,0,0,0
	c-0.2,0-0.3,0.1-0.5,0.2c-0.2,0-0.3,0.1-0.5,0.2c-0.5,0.2-1,0.4-1.5,0.7c-0.5,0.3-1.1,0.5-1.7,0.8c-0.3,0.2-0.7,0.3-1.1,0.5
	c-0.2,0.1-0.4,0.2-0.6,0.3c-0.4,0.2-0.8,0.3-1.1,0.5c0,0-0.1,0-0.1,0c-0.4,0.2-0.8,0.3-1.2,0.5c-0.4,0.2-0.9,0.3-1.3,0.5
	c-0.3,0.1-0.5,0.2-0.8,0.3c-0.3,0.1-0.5,0.2-0.8,0.2s-0.5,0.1-0.8,0.2c-0.3,0.1-0.7,0.2-1,0.3c-0.1,0-0.2,0-0.2,0
	c-0.3,0.1-0.7,0.2-1,0.2c-0.2,0-0.5,0.1-0.7,0.1c-0.1,0-0.2,0-0.4,0.1c-4.6,0.7-8.6-0.4-11-5.1c-3.6-8.6,11.5-10.8,7.2-18.7
	c-3.6-7.9-1.4-10.8-7.9-15.8c-5.3-4.1-4.4-11-0.3-11.2c0,0,0,0,0,0c0.1,0,0.3-0.1,0.4-0.1c0.1,0,0.3,0,0.4,0c0.9,0,1.9,0.3,3.1,1.1
	c0,0,0.1,0.4,0.4,1c0.1,0.1,0.1,0.3,0.2,0.4c0.4,0.9,0.9,2.2,1.5,3.8c0.3,0.7,0.6,1.4,0.9,2.2c0.2,0.4,0.3,0.8,0.5,1.2
	c0.3,0.6,0.5,1.2,0.8,1.8c0.2,0.4,0.4,0.8,0.6,1.2c0.2,0.5,0.5,1,0.7,1.5c0.4,0.8,0.8,1.5,1.2,2.3c0.2,0.4,0.5,0.8,0.7,1.2
	c0.3,0.5,0.6,1,0.9,1.5c0.1,0.2,0.3,0.5,0.4,0.7c0.7,1.2,1.5,2.4,2.2,3.4c0.2,0.3,0.5,0.7,0.7,1c0.6,0.7,1.1,1.4,1.7,1.9
	c0.1,0.1,0.2,0.2,0.3,0.3c0.1,0.1,0.3,0.3,0.5,0.4c0.5,0.4,0.9,0.7,1.4,0.9c0.1,0.1,0.3,0.1,0.5,0.2c0.4,0.1,0.7,0.2,1.1,0.2
	c0,0,0,0,0,0c0.2-0.1,0.5-0.2,0.7-0.3c1.1-0.7,2-1,2.7-1c0,0,0,0,0,0c0.3-0.1,0.5-0.1,0.8-0.1c0.1,0,0.2,0,0.3,0c0,0,0.1,0,0.1,0
	c0.1,0,0.2,0,0.3,0.1c0.1,0,0.2,0.1,0.3,0.1c0.1,0,0.2,0.1,0.2,0.1c0.1,0.1,0.3,0.2,0.4,0.3c0.1,0.1,0.2,0.3,0.3,0.4
	c0,0.1,0.1,0.2,0.1,0.2c0,0.1,0.1,0.2,0.1,0.3c0,0.1,0.1,0.2,0.1,0.3c0,0.1,0.1,0.2,0.1,0.3c0,0.1,0.1,0.3,0.2,0.5
	c0.1,0.3,0.2,0.5,0.2,0.8c0,0.1,0.1,0.2,0.1,0.3c0.1,0.3,0.2,0.6,0.2,0.8c0,0.1,0.1,0.3,0.1,0.4c0.3,0.9,0.6,1.9,1.1,2.6
	c0.1,0.2,0.2,0.3,0.4,0.5c0,0,0,0,0,0c0.1,0,0.3,0.1,0.4,0.1C478.1,411.5,492.5,423,491.1,427.4z M510.2,391.8
	c-0.1,0.4-0.2,0.8-0.2,1.2c0,0,0,0.1,0,0.1c-0.1,0.4-0.2,0.7-0.2,1.1c-0.4,1.6-0.8,3.3-1.4,4.9c0,0-5,7.2-4.3-16.6
	c0-24.5-13.7-18-14.4-31c-0.7-13-8.6-27.4-15.8-15.8c-7.2,11.6,7.9,23.8,0,21.6c-7.2-2.2-14.4-3.6-8.6,4.3
	c5.8,7.2,29.5,23,28.1,33.8c-1.4,10.8-0.7,19.4-5,15.1c-4.3-4.3-1.4-18-7.9-19.4c-6.5-1.4-7.9,3.6-12.2,2.9c-0.1,0-0.2,0-0.2-0.1
	c0,0,0,0,0,0c0,0,0,0,0,0c0,0-0.1,0-0.1,0c-3.6-1.3-12.8-12.5-13.9-28.6c-0.1-1.7-0.2-3.4-0.1-5.1c0,0,0,0,0,0c0,0,0,0,0,0s0,0,0,0
	v0c0,0,0,0,0,0c0,0,0,0,0-0.1c0-0.1,0-0.2,0.1-0.3c0.4-1.4,1.7-5.5,3.5-9.6c2-5.4,5.3-11.3,9.7-15.6c0,0,0.1-0.1,0.1-0.1
	c0.3-0.3,0.6-0.6,0.9-0.9c9.4-8.6,23-20.2,27.4-10.1C500.7,332.2,515.8,362.4,510.2,391.8z M493.2,558.4l-19.4-20.2
	C463,527.4,450,477,450,477c-11.5-5-10-21.7-13.6-31.7c-1.8-5.1-3.7-3.3-5.5,3.5c-0.1,0.5-0.3,1-0.4,1.6c-1.6,6.6-3.1,16.6-4.7,28.7
	c-0.1,1.1-0.4,2.2-0.7,3.5c0,0.1,0,0.1,0,0.1c-6.6,31.1-60.7,119.1-81.6,127.5c-21.6,7.9-88.6,56.1-95.8,69.8s-58.3,20.2-58.3,20.2
	c25.9,28.8,100.1,56.9,133.2,53.3c33.1-4.4,115.2-72.8,147.6-99.4C502.6,627.5,493.2,558.4,493.2,558.4z"/>
<path class="st2" d="M121,346c0,1.4-0.7,2.9-1.4,3.6c-0.7,1.4-2.2,2.2-3.6,2.2h-1.4c-4.3,0.7-10.8,2.2-17.3,2.2
	C85,354.6,72,351.7,72,339.5c0.7-0.7,5-2.9,12.2-4.3c3.6-0.7,8.6-1.4,13.7-0.7c5,0,10.8,1.4,15.8,4.3c1.4,0.7,2.2,1.4,3.6,2.2
	c1.4,0.7,2.9,2.9,2.9,5C121,345.2,121,346,121,346L121,346z"/>
<path d="M133.2,334.4c-0.7,7.2-5.8,5.8-10.8,2.9c-5-3.6-10.1-8.6-10.1-8.6s-15.8-0.7-25.2-3.6c-1.4-0.7-2.9-1.4-4.3-2.2
	c-6.5-5-23-15.8-28.1-15.8s-16.6-3.6-3.6-14.4c0,0,20.9-4.3,28.1,6.5c6.5,10.8,33.1,13.7,33.1,13.7S135.4,320,133.2,334.4
	L133.2,334.4z M290.2,291.2c0,0-24.5,0.7-35.3,8.6s-25.2,18-44.6,15.8c-19.4-2.9-24.5,7.9-24.5,7.9s-14.4,5-8.6-13.7
	c0,0,18-15.8,38.9-14.4s38.9-12.2,38.9-12.2S279.4,280.4,290.2,291.2L290.2,291.2z"/>
<path class="st3" d="M109.4,492.1c-17.3-5-31-33.8-15.8-49.7c18-18.7,39.6-87.1,39.6-87.1 M197.3,489.2c14.4-2.2,17.3-23.8,9.4-31.7
	c-10.1-10.1-7.2-25.9-7.2-25.9"/>
<path class="st2" d="M281.5,351c0,1.4-0.7,3.6-1.4,5s-2.2,2.9-3.6,3.6c-5.8,2.9-16.6,7.2-33.8,7.2c-26.6-0.7-34.6-2.9-38.9-10.1
	c0,0,21.6-18,43.2-19.4h2.9c7.2,0,13.7,0.7,18,2.2c3.6,1.4,6.5,2.9,8.6,3.6C280.1,344.5,281.5,347.4,281.5,351L281.5,351z"/>
<path class="st3" d="M218.9,330.1c0,0,36-8.6,57.6,0"/>
<path class="st4" d="M270.7,346.7c0,7.9-6.5,13.7-13.7,13.7c-7.9,0-13.7-6.5-13.7-13.7c0-4.3,1.4-7.9,4.3-10.1h2.9
	c7.2,0,13.7,0.7,18,2.2C270,340.9,270.7,343.8,270.7,346.7z"/>
<circle cx="257" cy="346.7" r="7.2"/>
<path class="st4" d="M115.3,342.5c0,1-0.5,2-1,3.1c-0.5,1-1.5,1.5-2.6,1.5h-1c-3.1,0.5-7.7,1.5-12.2,1.5c-5.1-2-9.2-7.1-9.2-12.8v-1
	c2.6-0.5,6.1-1,9.7-0.5c-0.5,1-1,2-1,3.1c0,3.6,2.6,6.1,6.1,6.1c3.6,0,6.1-2.6,6.1-6.1c1,0.5,1.5,1,2.6,1.5c1,0.5,2,2,2,3.1
	C115.3,342,115.3,342.5,115.3,342.5L115.3,342.5z"/>
<path d="M111.5,338.2c-0.4-0.2-0.9-0.3-1.3-0.5c-3.1-1.2-6.2-2.1-9.1-2.7c0,0,0,0,0,0c-0.7-0.2-1.5-0.3-2.2-0.4c-0.1,0-0.1,0-0.2,0
	c0,0,0,0,0,0h0c0,0,0,0,0,0c0,0,0,0,0,0l0,0c0,0,0,0,0,0.1c-0.1,0.2-0.2,0.4-0.3,0.6c-0.6,1.2-1.1,2.4-1.1,3.6
	c0,4.3,3.6,7.9,7.9,7.9c4.2,0,7.7-3.4,7.9-7.6c0,0,0-0.1,0-0.1c0-0.1,0-0.1,0-0.2C112.5,338.6,112,338.4,111.5,338.2z M511.2,378
	c0-0.1,0-0.2,0-0.3c0-0.5,0-1,0-1.5c0-0.1,0-0.2,0-0.2c0-0.4,0-0.8-0.1-1.3c0-0.4,0-0.8-0.1-1.1c0-0.4-0.1-0.8-0.1-1.2
	c-0.1-0.8-0.1-1.5-0.2-2.3c-0.1-0.8-0.2-1.5-0.3-2.3c-0.1-1-0.3-2.1-0.5-3.1c0-0.2-0.1-0.4-0.1-0.6c-0.1-0.6-0.2-1.2-0.4-1.8
	c-0.1-0.7-0.3-1.4-0.4-2.2c-0.2-0.7-0.3-1.4-0.5-2.1c-0.2-0.7-0.3-1.4-0.5-2.1c-0.2-0.7-0.4-1.4-0.6-2.1s-0.4-1.4-0.6-2c0,0,0,0,0,0
	c-0.2-0.7-0.4-1.3-0.6-2c-0.2-0.7-0.4-1.3-0.6-1.9c-0.2-0.5-0.3-1-0.5-1.5c-0.5-1.5-1.1-3-1.6-4.4c-0.2-0.4-0.3-0.9-0.5-1.3
	c-0.2-0.6-0.4-1.1-0.7-1.7c-0.3-0.8-0.7-1.6-1-2.4c-0.2-0.5-0.4-1-0.7-1.5c-0.3-0.8-0.6-1.5-1-2.2c-0.3-0.7-0.6-1.4-0.9-2
	c-1.4-3-2.5-5.5-3.2-7.3c-4.4-10.1-17.3,1.5-27.4,10.1c-0.3,0.2-0.6,0.5-0.9,0.8c0,0-0.1,0.1-0.1,0.1c-0.3,0.3-0.6,0.5-0.9,0.8
	c-0.6,0.5-1.1,1.1-1.6,1.8c-0.5,0.6-1,1.2-1.5,1.9c-0.3,0.4-0.6,0.8-0.8,1.2c-0.2,0.2-0.3,0.4-0.4,0.7c-0.3,0.4-0.5,0.8-0.8,1.2
	c-0.2,0.3-0.4,0.7-0.6,1c-0.2,0.4-0.4,0.7-0.6,1.1c-0.2,0.4-0.4,0.7-0.6,1.1c-0.2,0.4-0.4,0.7-0.5,1.1c-0.4,0.7-0.7,1.4-1,2.1
	c-0.1,0.2-0.2,0.3-0.2,0.5c-0.4,0.9-0.7,1.7-1,2.5c-0.1,0.3-0.2,0.7-0.4,1c-0.1,0.3-0.2,0.7-0.4,1s-0.2,0.6-0.3,0.9
	c-0.1,0.2-0.1,0.3-0.2,0.5c-0.1,0.2-0.2,0.5-0.2,0.7c-0.1,0.2-0.1,0.3-0.2,0.5c-0.1,0.2-0.1,0.4-0.2,0.6c0,0.1-0.1,0.2-0.1,0.3
	c0,0.1-0.1,0.2-0.1,0.4c0,0.1-0.1,0.2-0.1,0.4c0,0.1-0.1,0.2-0.1,0.3c0,0.1-0.1,0.2-0.1,0.3c0,0.1,0,0.2-0.1,0.3
	c-0.1,0.5-0.2,0.9-0.3,1.2c0,0.1,0,0.2-0.1,0.3c0,0,0,0.1,0,0.1v0c0,0,0,0,0,0l0,0v0c0,0,0,0,0,0c-0.1,1.8,0,3.5,0.1,5.1
	c0,0.3,0,0.5,0.1,0.8c0,0,0,0,0,0c0,0.2,0,0.4,0.1,0.7c0,0,0,0,0,0c0,0,0,0,0,0c0,0.2,0,0.5,0.1,0.8c0,0.2,0.1,0.5,0.1,0.8
	c0,0.4,0.1,0.8,0.2,1.2c0.1,0.6,0.2,1.2,0.3,1.8c0.1,0.4,0.2,0.8,0.3,1.2c0,0.1,0,0.2,0.1,0.3c0.1,0.3,0.1,0.5,0.2,0.8
	c0.1,0.6,0.3,1.2,0.5,1.8c0.1,0.4,0.2,0.8,0.4,1.2c0.1,0.5,0.3,1,0.5,1.4c0.1,0.4,0.3,0.8,0.4,1.2c0,0,0,0,0,0.1
	c0.1,0.3,0.2,0.5,0.3,0.8c0,0.1,0.1,0.3,0.2,0.4c0.2,0.4,0.3,0.7,0.5,1.1c0.2,0.4,0.3,0.8,0.5,1.1c0.2,0.4,0.4,0.8,0.6,1.1
	c0.2,0.4,0.4,0.7,0.6,1.1c0.4,0.7,0.8,1.4,1.2,2c0.3,0.5,0.6,0.9,0.9,1.4c0.2,0.2,0.3,0.5,0.5,0.7c0.1,0.1,0.2,0.3,0.3,0.4
	c0.8,1,1.6,1.9,2.3,2.5c0.2,0.2,0.4,0.3,0.5,0.5c0.7,0.6,1.4,1.1,2,1.3c0.1,0,0.2,0.1,0.3,0.1c0.1,0.1,0.2,0.1,0.3,0.1c0,0,0,0,0,0
	c0,0,0,0,0,0c0.1,0,0.2,0.1,0.2,0.1c4.3,0.7,5.7-4.3,12.2-2.9c6.5,1.4,3.6,15.1,7.9,19.4c4.3,4.3,3.6-4.3,5-15.1
	c1.4-10.8-22.3-26.6-28.1-33.8c-5.8-7.9,1.4-6.5,8.6-4.3c7.9,2.2-7.2-10,0-21.6c7.2-11.6,15.1,2.8,15.8,15.8
	c0.7,13,14.4,6.5,14.4,31c-0.7,23.8,4.3,16.6,4.3,16.6c0.5-1.6,1-3.3,1.4-4.9c0.1-0.4,0.2-0.8,0.3-1.2c0.1-0.4,0.2-0.8,0.2-1.2
	c0.1-0.4,0.1-0.8,0.2-1.2c0.1-0.4,0.1-0.8,0.2-1.2c0.1-0.4,0.1-0.8,0.2-1.2c0.1-0.8,0.2-1.7,0.3-2.5c0.1-0.8,0.1-1.5,0.2-2.2
	c0.1-1.5,0.1-3.1,0.1-4.6C511.2,378.5,511.2,378.3,511.2,378z M468.7,402.6c0.3-0.1,0.5-0.1,0.8-0.1
	C469.2,402.5,468.9,402.5,468.7,402.6z"/>
<path d="M491.1,427.4C491.1,427.4,491.1,427.4,491.1,427.4c0,0.1,0,0.2,0,0.3c0,0.1,0,0.2-0.1,0.3c-0.2,0.6-0.5,1.2-0.8,1.8
	c-0.2,0.3-0.3,0.5-0.5,0.7c-0.1,0.1-0.2,0.2-0.3,0.3c0,0,0,0.1-0.1,0.1c-0.1,0.1-0.2,0.2-0.3,0.3c-0.3,0.3-0.7,0.5-1,0.7
	c-0.1,0.1-0.3,0.1-0.4,0.2c-0.1,0-0.2,0.1-0.3,0.1c-0.1,0-0.2,0.1-0.2,0.1c-0.2,0-0.4,0.1-0.5,0.1c-0.1,0-0.2,0-0.3,0
	c-0.1,0-0.2,0-0.3,0c-0.1,0-0.2-0.1-0.3-0.1c0,0,0,0,0,0c-0.1,0-0.2-0.1-0.3-0.1c0,0,0,0,0,0c-0.9-0.3-1.6-1.1-2.1-2.5
	c-1.1-4.1-5.2-9.2-11-8.5c0,0-0.1,0-0.1,0c-0.2,0-0.4,0.1-0.5,0.1c-0.1,0-0.1,0-0.2,0c0,0,0,0,0,0c-0.2,0-0.3,0.1-0.5,0.2
	c-0.2,0-0.3,0.1-0.5,0.2c-0.5,0.2-1,0.4-1.5,0.7c-0.5,0.3-1.1,0.5-1.7,0.8c-0.3,0.2-0.7,0.3-1.1,0.5c-0.2,0.1-0.4,0.2-0.6,0.3
	c-0.4,0.2-0.8,0.3-1.1,0.5c0,0-0.1,0-0.1,0c-0.4,0.2-0.8,0.3-1.2,0.5c-0.4,0.2-0.9,0.3-1.3,0.5c-0.3,0.1-0.5,0.2-0.8,0.3
	c-0.3,0.1-0.5,0.2-0.8,0.2s-0.5,0.1-0.8,0.2c-0.3,0.1-0.7,0.2-1,0.3c-0.1,0-0.2,0-0.2,0c-0.3,0.1-0.7,0.2-1,0.2
	c-0.2,0-0.5,0.1-0.7,0.1c-0.1,0-0.2,0-0.4,0.1c-4.6,0.7-8.6-0.4-11-5.1c-3.6-8.6,11.5-10.8,7.2-18.7c-3.6-7.9-1.4-10.8-7.9-15.8
	c-5.3-4.1-4.4-11-0.3-11.2c0,0,0,0,0,0c0.1,0,0.3-0.1,0.4-0.1c0.1,0,0.3,0,0.4,0c0.9,0,1.9,0.3,3.1,1.1c0,0,0.1,0.4,0.4,1
	c0.1,0.1,0.1,0.3,0.2,0.4c0.4,0.9,0.9,2.2,1.5,3.8c0.3,0.7,0.6,1.4,0.9,2.2c0.2,0.4,0.3,0.8,0.5,1.2c0.3,0.6,0.5,1.2,0.8,1.8
	c0.2,0.4,0.4,0.8,0.6,1.2c0.2,0.5,0.5,1,0.7,1.5c0.4,0.8,0.8,1.5,1.2,2.3c0.2,0.4,0.4,0.8,0.7,1.2c0.3,0.5,0.6,1,0.9,1.5
	c0.1,0.2,0.3,0.5,0.4,0.7c0.7,1.2,1.5,2.4,2.2,3.4c0.2,0.3,0.5,0.7,0.7,1c0.6,0.7,1.1,1.4,1.7,1.9c0.1,0.1,0.2,0.2,0.3,0.3
	c0.1,0.1,0.3,0.3,0.5,0.4c0.5,0.4,0.9,0.7,1.4,0.9c0.1,0.1,0.3,0.1,0.5,0.2c0.4,0.1,0.7,0.2,1.1,0.2c0,0,0,0,0,0
	c0.5,0,1-0.1,1.4-0.4c0.1-0.1,0.2-0.1,0.3-0.2c0.1,0,0.2-0.1,0.3-0.1c0.1-0.1,0.3-0.1,0.4-0.2s0.2-0.1,0.4-0.2
	c0.1,0,0.2-0.1,0.3-0.1c0.1,0,0.2-0.1,0.3-0.1c0,0,0,0,0,0s0,0,0,0c0.3-0.1,0.5-0.1,0.8-0.1c0.1,0,0.2,0,0.3,0c0,0,0.1,0,0.1,0
	c0.1,0,0.2,0,0.3,0.1c0.1,0,0.2,0.1,0.3,0.1c0.1,0,0.2,0.1,0.2,0.1c0.1,0.1,0.3,0.2,0.4,0.3s0.2,0.3,0.3,0.4c0,0.1,0.1,0.2,0.1,0.2
	c0,0.1,0.1,0.2,0.1,0.3c0,0.1,0.1,0.2,0.1,0.3c0,0.1,0.1,0.2,0.1,0.3c0,0.1,0.1,0.3,0.2,0.5c0.1,0.3,0.2,0.5,0.2,0.8
	c0,0.1,0.1,0.2,0.1,0.3c0.1,0.3,0.2,0.6,0.2,0.8c0,0.1,0.1,0.3,0.1,0.4c0.3,0.9,0.6,1.9,1.1,2.6c0.1,0.2,0.2,0.3,0.4,0.5
	c0,0,0,0,0,0c0.1,0,0.3,0.1,0.4,0.1C478.1,411.5,492.5,423,491.1,427.4z"/>
<path class="st3" d="M122.4,631.1c0,0-16.6,10.1-7.2,41.8"/>
<path class="st5" d="M244.9,538.2v27.3c-25.8-22.3-95.6-31.1-103.8-32.3v-37.5l-0.6,0.2V495l-4.3,1.4h-1.4c-2.2,0-5.8,0.7-8.6,0.7
	l-0.9,24.1l-0.8,13.3c0,0,0,0-0.2,0c-0.2,0-0.4,0-0.8,0c-4.9,0.2-28.1,2-47.3,13c-0.7-9.4-0.7-18-0.7-22.3v-2.5
	c8.4-4.1,17.6-7.6,29.5-9.8l0.2-0.7c0.2,0,0.4-0.1,0.5-0.1l4-19.5l16.2-2.2c11.5-4.3,22.3-10.1,34.6-10.1c6.5,0,13.7,1.4,20.9,5.8
	c5.8,2.9,10.1,4.3,14.4,3.6l-1.3,3.4l-0.1,0.2c-4.3,6.5-20.9-3.6-34.6-5h-1.4v26.6c0.5-0.1,0.9-0.1,1.4-0.2v0.2
	c2.8-0.4,5.7-0.5,8.7-0.4c0.3,0,0.5,0,0.8,0c17,0.8,37,7.2,52.2,13.2c0.1,0.1,0.3,0.1,0.4,0.2C233.1,532.5,241.7,536.7,244.9,538.2z
	"/>
<path class="st6" d="M75.6,522.3c8.5-4.2,18.4-7.8,29.7-10l-0.2,0.7c-11.9,2.1-21.1,5.6-29.5,9.8V522.3z"/>
<path class="st6" d="M136.2,496.4l4.3-1.4v0.9l-3.7,1.2h-0.7c-2.2,0-6.5,0.7-9.4,0.7l-1.4,23.4l0.9-24.1c2.8,0,6.4-0.7,8.6-0.7
	H136.2z"/>
<path class="st6" d="M158.5,515.1v-26.6h1.4v26.4C159.4,515,159,515,158.5,515.1z"/>
<path class="st6" d="M169.4,514.7c16.8,0.6,36.8,7,52.2,13.2C206.4,521.9,186.4,515.5,169.4,514.7z"/>
<path class="st6" d="M126,490.6l-16.2,2.2l0.3-1.5l16.6-2.2c17.3-6.5,33.1-17.3,56.2-4.3c5.8,2.9,10.8,4.3,14.4,3.6l-1.4,3.6
	c-0.4,0.5-0.8,1-1.3,1.3l1.3-3.4c-4.3,0.7-8.6-0.7-14.4-3.6c-7.2-4.4-14.4-5.8-20.9-5.8C148.3,480.5,137.5,486.3,126,490.6z"/>
<path class="st6" d="M246.2,538.9V567c-26.6-23.8-105.1-32.4-105.1-32.4v-1.4c8.2,1.2,78,10,103.8,32.3v-27.3
	C245.8,538.7,246.2,538.9,246.2,538.9z"/>
<path class="st3" d="M113.8,169.6c0,0,33.8-7.9,72.7,8.6 M133.2,199.8c0,0-26.6-4.3-36.7,0"/>
<path class="st7" d="M216.3,574.5c-0.2-0.1-0.3-0.2-0.5-0.1c-0.3,0-0.6,0.2-1.3,0.5h-0.7c-0.7-0.7-0.7-0.7-1.4-0.7h-0.7
	c-10.8-2.9-36-1.5-50.4,1.4c-5.8-1.4-10.8-1.4-14.4-1.4h-6.5c-5.7,0-11.5-1.4-15.8-3.6h-0.2c-1.3-0.7-2.8-1.3-4.1-2.1
	c-0.7,0-1.4-0.7-2.2-1.4c-1.4-1.4-3.6-2.2-4.3-3.6c-0.7-0.7-1.4-2.2-2.2-2.9c-1-1.9-1.3-3.5-1-4.7c-0.1-0.5-0.2-1-0.1-1.4
	c0.3-4.5,7.1-5.7,11.2-6.9c5-1.4,6.5,10.1,14.4,6.5c7.9-4.3,19.4-4.3,27.4,0c5.8,2.9,34.6,10.1,47.5,13.7c1.8,0.4,2.5,1.8,2.1,3.1
	c0.1,0.2,0.1,0.4,0.1,0.6v0.7c0,0,0,0.7-0.7,0.7c0.6,0,0.7,0,1.3,0.6h0.1c0.1,0,0.2,0.1,0.3,0.1h0.4c0.4,0,0.8,0.2,1,0.5
	C215.9,574.2,216.1,574.3,216.3,574.5z"/>
<path class="st8" d="M216.7,574.9v1.4c0,0,0,0,0,0c0,0,0,0,0,0c0,0.1-0.1,0.1-0.1,0.2c-0.1,0.1-0.2,0.3-0.3,0.4
	c-0.1,0.1-0.2,0.2-0.2,0.3c-0.1,0.1-0.2,0.2-0.3,0.4c-0.1,0.1-0.2,0.2-0.3,0.4c-0.4,0.5-0.9,1-1.5,1.5c-0.1,0.1-0.3,0.3-0.4,0.4
	c-0.7,0.7-1.6,1.4-2.5,2.1c-0.2,0.1-0.4,0.3-0.5,0.4c-0.7,0.6-1.4,1.1-2.2,1.7c-0.3,0.2-0.5,0.4-0.8,0.6c-0.2,0.2-0.4,0.3-0.7,0.5
	c-0.2,0.2-0.5,0.3-0.7,0.5c-0.8,0.6-1.7,1.1-2.5,1.7c-0.3,0.2-0.7,0.4-1,0.7c-0.5,0.3-0.9,0.6-1.4,0.9c-0.6,0.3-1.1,0.7-1.7,1
	c-0.4,0.2-0.8,0.5-1.1,0.7c-0.2,0.1-0.3,0.2-0.5,0.3c-1.1,0.6-2.2,1.3-3.4,1.9c0,0-0.1,0.1-0.2,0.1c-0.7,0.4-1.4,0.7-2.1,1.1
	s-1.4,0.7-2.1,1c-0.3,0.1-0.5,0.3-0.8,0.4c-1.4,0.7-2.8,1.3-4.2,1.9c-0.2,0.1-0.4,0.2-0.6,0.3c-0.3,0.1-0.5,0.2-0.8,0.3
	c-0.8,0.3-1.5,0.6-2.3,0.9c-0.5,0.2-1,0.4-1.6,0.6c-0.5,0.2-1,0.4-1.6,0.5c-0.1,0-0.1,0.1-0.2,0.1c-0.5,0.2-1,0.3-1.5,0.5
	c-0.7,0.2-1.4,0.5-2.1,0.7c-0.6,0.2-1.2,0.3-1.8,0.5c0,0,0,0-0.1,0c-0.6,0.2-1.2,0.3-1.8,0.4c0,0,0,0,0,0c-0.5,0.1-0.9,0.2-1.4,0.3
	c0,0-0.1,0-0.1,0c-0.5,0.1-1,0.2-1.5,0.3c-0.9,0.2-1.7,0.3-2.6,0.4c-0.4,0.1-0.8,0.1-1.2,0.1c-1,0.1-1.9,0.2-2.9,0.2
	c-0.4,0-0.8,0-1.2,0h-10.7c-0.5,0-1,0-1.5,0c-0.5,0-1,0-1.5-0.1c-0.5,0-1-0.1-1.5-0.2c-0.4,0-0.9-0.1-1.3-0.2c0,0,0,0,0,0
	c-0.2,0-0.3,0-0.5-0.1c-0.1,0-0.2,0-0.3,0c-0.2,0-0.4-0.1-0.6-0.1c-0.1,0-0.2,0-0.3-0.1c-0.5-0.1-1-0.2-1.5-0.3c0,0-0.1,0-0.2,0
	c-0.2,0-0.4-0.1-0.6-0.2c-0.2-0.1-0.5-0.1-0.8-0.2c-0.3-0.1-0.7-0.2-1-0.3c-0.2,0-0.3-0.1-0.5-0.2c0,0-0.1,0-0.1,0h0c0,0,0,0,0,0
	c-0.2-0.1-0.5-0.1-0.7-0.2c-0.7-0.2-1.4-0.3-2.1-0.5c-5.8-1.4-11.4-3.4-15.2-6c-1.4-0.7-3.6-2.2-5-3.6l-4.3-5
	c-1.4-3.6-0.7-6.5,2.2-8.6l0.7-0.7c0.7-0.7,1.4-0.7,2.2-1.4c1.4-0.7,2.2-1.4,3.6-2.2c0,0,0.7-0.7,1.4-0.7c1.4-0.7,2.9-1.4,4.3-2.2
	h0.7c4.3,2.2,10.1,3.6,15.8,3.6h6.5c3.6,0,8.6,0,14.4,1.4c14.4-2.9,39.6-4.3,50.4-1.4h0.7c0.7,0,0.7,0,1.4,0.7h0.7
	c0.7-0.3,1-0.5,1.3-0.5c0.2,0,0.3,0,0.5,0.1c0,0,0.1,0.1,0.1,0.1L216.7,574.9z"/>
<path class="st3" d="M136.1,303.5c0,0,5.8,27.4,39.6,18 M260.6,691.6c0,0,14.4,29.5,37.4,24.5"/>
<path d="M184.4,597.7v20.5c0,8.7-7.1,15.8-15.8,15.8h-18.8c-8.7,0-15.8-7.1-15.8-15.8V601c0.7,0.2,1.4,0.3,2.1,0.5
	c0.2,0.1,0.5,0.2,0.7,0.2c0,0,0,0,0,0h0c0,0,0.1,0,0.1,0c0.2,0.1,0.3,0.1,0.5,0.2c0.3,0.1,0.7,0.2,1,0.3c0.3,0.1,0.5,0.2,0.8,0.2
	c0.2,0.1,0.4,0.1,0.6,0.2c0.1,0,0.1,0,0.2,0c0.5,0.1,1,0.2,1.5,0.3c0.1,0,0.2,0,0.3,0.1c0.2,0,0.4,0.1,0.6,0.1c0.1,0,0.2,0,0.3,0
	c0.2,0,0.3,0,0.5,0.1c0,0,0,0,0,0c0.4,0.1,0.9,0.1,1.3,0.2c0.5,0.1,1,0.1,1.5,0.2c0.5,0,1,0.1,1.5,0.1c0.5,0,1,0,1.5,0h10.7
	c0.4,0,0.8,0,1.2,0c0.9,0,1.9-0.1,2.9-0.2c0.4,0,0.8-0.1,1.2-0.1c0.8-0.1,1.7-0.2,2.6-0.4c0.5-0.1,1-0.2,1.5-0.3c0,0,0,0,0.1,0
	c0.5-0.1,0.9-0.2,1.4-0.3c0,0,0,0,0,0c0.6-0.1,1.2-0.3,1.8-0.4c0,0,0,0,0.1,0c0.6-0.2,1.2-0.3,1.8-0.5c0.7-0.2,1.4-0.4,2.1-0.7
	c0.5-0.2,1-0.3,1.5-0.5c0.1,0,0.2-0.1,0.2-0.1c0.5-0.2,1-0.4,1.6-0.5c0.5-0.2,1-0.4,1.6-0.6c0.8-0.3,1.6-0.6,2.3-0.9
	C183.9,597.9,184.1,597.8,184.4,597.7z"/>
</svg>
