<?xml version="1.0" encoding="utf-8"?>
<!-- Generator: Adobe Illustrator 18.1.1, SVG Export Plug-In . SVG Version: 6.00 Build 0)  -->
<!DOCTYPE svg PUBLIC "-//W3C//DTD SVG 1.1//EN" "http://www.w3.org/Graphics/SVG/1.1/DTD/svg11.dtd">
<svg version="1.1" xmlns="http://www.w3.org/2000/svg" xmlns:xlink="http://www.w3.org/1999/xlink" x="0px" y="0px"
	 viewBox="0 0 85 103.5" style="enable-background:new 0 0 85 103.5;" xml:space="preserve">
<style type="text/css">
	.st0{fill:#FFFFFF;stroke:#000000;stroke-width:0.3;stroke-miterlimit:10;}
	.st1{fill:none;stroke:#000000;stroke-width:0.3;stroke-miterlimit:10;}
	.st2{stroke:#000000;stroke-width:0.3;stroke-miterlimit:10;}
	.st3{fill:none;stroke:#000000;stroke-width:0.3;stroke-linecap:round;stroke-miterlimit:10;}
	.st4{fill:#FFFFFF;stroke:#000000;stroke-width:0.3;stroke-linecap:round;stroke-miterlimit:10;}
	.st5{fill:#FAB499;stroke:#000000;stroke-width:0.3;stroke-linecap:round;stroke-miterlimit:10;}
	.st6{fill:#F8C1D9;stroke:#000000;stroke-width:0.3;stroke-linecap:round;stroke-miterlimit:10;}
	.st7{fill:#89BBE5;stroke:#000000;stroke-width:0.3;stroke-linecap:round;stroke-miterlimit:10;}
	.st8{fill:#FFF200;stroke:#000000;stroke-width:0.3;stroke-linecap:round;stroke-miterlimit:10;}
	.st9{fill:#92278F;stroke:#000000;stroke-width:0.3;stroke-linecap:round;stroke-miterlimit:10;}
	.st10{stroke:#000000;stroke-width:0.3;stroke-linecap:round;stroke-miterlimit:10;}
	.st11{fill:#DD706E;stroke:#000000;stroke-width:0.3;stroke-linecap:round;stroke-miterlimit:10;}
</style>
<g id="Layer_1">
</g>
<g id="Layer_2">
	<path class="st0" d="M72,53.5c0.4-0.3,0.6-1.7-0.5-3.2c-1.1-1.5-4.8-3-5-3.6c-0.2-0.6,3.3,1.6,3.3,1c0-0.3-1.1-1.5-3.1-2.2
		c-1.2-0.4-2.6-0.7-4.4-0.7c-0.4,0-0.9,0.1-1.3,0.2c-0.5,0.1-1,0.3-1.5,0.5c-2,0.8-4,2.2-5.7,3.6c-0.7,0.6-1.4,1.2-2.1,1.7
		c-1.1,0.9-1.9,1.6-2.6,2.1c0,0,0,0-0.1,0.1c-1,0.7-2.8,1.9-4.7,2.9c-0.6,0.3-1.2,0.6-1.8,0.9c-1,0.4-1.9,0.8-2.8,1
		c0,0.2,0,0.5-0.1,0.7c-1,1.7-3.4,1.7-4.3,0c-0.1-0.2-0.1-0.3-0.1-0.5c0-0.2,0.1-0.4,0.2-0.6c-1.5-0.4-3.6-1-5.9-2
		c-0.2-0.1-0.5-0.2-0.7-0.3c-1.7-0.7-3.5-1.6-5.2-2.7c-0.2-0.1-0.4-0.3-0.6-0.4c-1.3-0.8-2.7-1.5-4.2-2.1c-2-0.8-4-1.4-5.9-1.5
		c-3.4-0.3-6.4,0.8-8.1,4.1c0,0-0.4,1,0.7-0.1c1.1-1.1,3.5-2.2,2.7-1.2s-5.1,4.9-5,8.5c0.1,3.6,0.7,2.4,0.7,1.8
		c0-0.6,1.6-5.6,1.7-3.3c0.1,2.3-0.1,6.3,2.7,8.6c2.8,2.4,2.1,0.7,1.9,0.2c-0.2-0.5-1.2-2.5-0.2-1.6c0.7,0.6,3.2,2.7,6.3,4.3
		c1,0.5,2.1,1,3.2,1.4c0.6,0.2,1.1,0.3,1.7,0.5c1.7,0.4,3.2,0.6,4.6,0.8c2.8,0.4,5,0.8,6.6,2.5c0.2,0.2,0.4,0.4,0.6,0.5
		c0.8,0.7,1.6,1.2,2.4,1.6c1.5,0.7,3.1,0.9,4.7,0.4c1.2-0.4,2.8-1.2,4.1-2.7c1.5-1.7,4.9-3.5,8.6-5.1c1.5-0.7,3-1.3,4.4-1.8
		c2.1-0.8,4-1.4,5.4-1.9c0.6-0.2,1.1-0.4,1.6-0.7c3.8-2.2,5.3-7.3,5.6-6.6c0.4,0.8-0.7,3.8,0.5,3c1.2-0.9,2.8-4.9,0.7-8.4
		C69,49.6,71.6,53.8,72,53.5z M44.7,67.4c0,0,0,0.1,0,0.2c-0.7,2.4-2.9,6.3-6.6,6.2c-2.1-0.1-3.8-0.9-5.1-2.1
		c-1-0.9-1.8-1.9-2.3-2.8c-1.2-2.2-2.7-5.6-5.4-8.2l6.5-1.2c0,0,0.4,3.9,3.7,3.4c0.6-0.1,1.3-0.3,2-0.7c0,0,1,0.6,2.3,0.7
		c0.7,0.1,1.4,0,2.1-0.5c2-1.2,2.2-2.1,2.1-3.7c0,0,2.4,1.3,4.3,1.4C48.3,60,45.3,65,44.7,67.4z"/>
	<path class="st1" d="M48.3,60c0,0-3,5.1-3.6,7.4c0,0,0,0.1,0,0.2c-0.7,2.4-2.9,6.3-6.6,6.2c-2.1-0.1-3.8-0.9-5.1-2.1
		c-1-0.9-1.8-1.9-2.3-2.8c-1.2-2.2-2.7-5.6-5.4-8.2l6.5-1.2c0,0,0.4,3.9,3.7,3.4c0.6-0.1,1.3-0.3,2-0.7c0,0,1,0.6,2.3,0.7
		c0.7,0.1,1.4,0,2.1-0.5c2-1.2,2.2-2.1,2.1-3.7C44,58.6,46.4,59.9,48.3,60z"/>
	<path class="st1" d="M39.7,58.4c-1,1.7-3.4,1.7-4.3,0c-0.1-0.2-0.1-0.3-0.1-0.5c0-0.2,0.1-0.4,0.2-0.6c0.2-0.2,0.5-0.4,0.8-0.4h2.6
		c0.5,0,0.9,0.4,1,0.8C39.9,58,39.8,58.2,39.7,58.4z"/>
	<path class="st2" d="M48.3,60c0,0-3,5.1-3.6,7.4c0,0,0,0.1,0,0.2c-0.7,2.4-2.9,6.3-6.6,6.2c-2.1-0.1-3.8-0.9-5.1-2.1
		c-1-0.9-1.8-1.9-2.3-2.8c-1.2-2.2-2.7-5.6-5.4-8.2l6.5-1.2c0,0,0.4,3.9,3.7,3.4c0.6-0.1,1.3-0.3,2-0.7c0,0,1,0.6,2.3,0.7
		c0.7,0.1,1.4,0,2.1-0.5c2-1.2,2.2-2.1,2.1-3.7C44,58.6,46.4,59.9,48.3,60z"/>
	<path class="st3" d="M17.8,59.7c0,0,1.7,2,7.5,0.9"/>
	<path class="st3" d="M48.3,60c0,0,4.6,1,9-1.7"/>
	<path class="st4" d="M39.8,62.8v1.7c0,0.6-0.5,1.1-1.1,1.1h-2.1c-0.6,0-1.1-0.5-1.1-1.1v-1.7c0.6-0.1,1.3-0.3,2-0.7
		C37.6,62,38.6,62.7,39.8,62.8z"/>
	<path class="st3" d="M49.7,50.6c-0.1,0.8-0.3,1.6-0.6,2.2c-1,0.7-2.8,1.9-4.7,2.9c-1.9-1.2-3.1-4.1-3.3-7.6
		c0.9-3.7,3.3-6.3,5.5-5.9C49.1,42.7,50.4,46.5,49.7,50.6z"/>
	<path class="st3" d="M49.7,50.6c-0.1,0.8-0.3,1.6-0.6,2.2c-1,0.7-2.8,1.9-4.7,2.9c-1.9-1.2-3.1-4.1-3.3-7.6
		c0.9-3.7,3.3-6.3,5.5-5.9C49.1,42.7,50.4,46.5,49.7,50.6z"/>
	<path class="st5" d="M25,35.8c-0.7-0.3-1.4-0.4-2.1-0.3c-3.4,0.5-5.5,5.7-4.7,11.6c0.1,1,0.4,1.9,0.6,2.8c-2-0.8-4-1.4-5.9-1.5
		c1.6-2.9,4.4-8.9,6-17.2c1,1.5,2.7,3.4,5.2,3.8C24.2,35,24.5,35.3,25,35.8z"/>
	<path class="st5" d="M61.1,45c-0.5,0.1-1,0.3-1.5,0.5c-2,0.8-4,2.2-5.7,3.6c0.3-0.9,0.5-1.8,0.7-2.8c1.1-6.2-1-11.8-4.6-12.4
		c-1.9-0.3-3.8,0.7-5.3,2.6c-1.5,1.8-2.7,4.5-3.2,7.5c-0.3,1.5-0.3,2.9-0.3,4.2c0.2,3.5,1.4,6.4,3.3,7.6c-0.6,0.3-1.2,0.6-1.8,0.9
		c-1,0.4-1.9,0.8-2.8,1c-0.1-0.4-0.5-0.8-1-0.8h-2.6c-0.3,0-0.6,0.2-0.8,0.4c-1.5-0.4-3.6-1-5.9-2c-0.2-0.1-0.5-0.2-0.7-0.3
		c1-1.3,1.7-3.3,1.9-5.6c0.1-1.3,0.1-2.7-0.1-4.2c-0.4-2.9-1.5-5.4-2.8-7.2c2.9,2.1,7.2,4.2,12.1,3.2c0,0,1.4-1-1.2-3.4
		c-2.6-2.4-3.3-9.6,1.7-11.6c0,0,0,0,0,0c0,0,0.1,0,0.1,0c0,0,0.1,0,0.1,0c0,0,0.1,0,0.1,0c0,0,0.1,0,0.1,0c0.2-0.1,0.5-0.1,0.8-0.2
		c0,0,0.1,0,0.1,0c0.1,0,0.2,0,0.4-0.1c0.1,0,0.3,0,0.4-0.1c0.1,0,0.1,0,0.2,0c0.1,0,0.2,0,0.4,0c0.1,0,0.2,0,0.2,0
		c0.1,0,0.2,0,0.2,0c0.1,0,0.3,0,0.4,0c0.1,0,0.2,0,0.3,0c0.1,0,0.2,0,0.2,0c0.2,0,0.4,0,0.6,0c0.2,0,0.4,0,0.6,0.1
		c0.1,0,0.1,0,0.2,0c0.2,0,0.3,0.1,0.5,0.1c0.1,0,0.3,0.1,0.4,0.1c0.1,0,0.1,0,0.2,0.1c0.1,0,0.3,0.1,0.4,0.1c0.1,0,0.3,0.1,0.4,0.1
		c0.1,0,0.3,0.1,0.4,0.2c0.1,0,0.2,0.1,0.3,0.1c0.1,0,0.2,0.1,0.3,0.2c0.2,0.1,0.5,0.2,0.7,0.4c0.1,0.1,0.2,0.1,0.4,0.2
		c0.1,0.1,0.2,0.2,0.4,0.2c0.3,0.2,0.6,0.4,0.9,0.7c0.1,0,0.1,0.1,0.2,0.2c0.1,0.1,0.3,0.2,0.4,0.3h0c0.4,0.6,0.8,1.2,1.2,1.7
		c3.6,5.2,4.6,8.5,6.4,11.8C59.8,43.2,60.4,44.1,61.1,45z"/>
	<path class="st6" d="M39.7,58.4c-1,1.7-3.4,1.7-4.3,0c-0.1-0.2-0.1-0.3-0.1-0.5c0-0.2,0.1-0.4,0.2-0.6c0.2-0.2,0.5-0.4,0.8-0.4h2.6
		c0.5,0,0.9,0.4,1,0.8C39.9,58,39.8,58.2,39.7,58.4z"/>
	<path class="st4" d="M30.8,49.5c-0.2,2.3-0.9,4.3-1.9,5.6c-1.7-0.7-3.5-1.6-5.2-2.7c-0.2-0.1-0.4-0.3-0.6-0.4
		c-1.3-0.8-2.7-1.5-4.2-2.1c-0.3-0.9-0.5-1.8-0.6-2.8c-0.9-5.9,1.2-11.1,4.7-11.6c0.7-0.1,1.4,0,2.1,0.3c1,0.4,2,1.2,2.8,2.4
		c1.3,1.8,2.4,4.3,2.8,7.2C30.9,46.8,30.9,48.2,30.8,49.5z"/>
	<path class="st4" d="M54.5,46.3c-0.2,1-0.4,1.9-0.7,2.8c-0.7,0.6-1.4,1.2-2.1,1.7c-1.1,0.9-1.9,1.6-2.6,2.1c0,0,0,0-0.1,0.1
		c0.3-0.7,0.5-1.5,0.6-2.2c0.7-4.2-0.6-7.9-3.1-8.3c-2.2-0.4-4.6,2.2-5.5,5.9c-0.1-1.3,0-2.8,0.3-4.2c0.5-3,1.7-5.7,3.2-7.5
		c1.6-1.9,3.5-3,5.3-2.6C53.5,34.5,55.6,40,54.5,46.3z"/>
	<path class="st7" d="M49.7,50.6c-0.1,0.8-0.3,1.6-0.6,2.2c-1,0.7-2.8,1.9-4.7,2.9c-1.9-1.2-3.1-4.1-3.3-7.6
		c0.9-3.7,3.3-6.3,5.5-5.9C49.1,42.7,50.4,46.5,49.7,50.6z"/>
	<path class="st8" d="M51.7,28.8L51.7,28.8c-0.1-0.1-0.3-0.2-0.4-0.3c-0.1-0.1-0.1-0.1-0.2-0.2c-0.3-0.2-0.6-0.5-0.9-0.7
		c-0.1-0.1-0.2-0.2-0.4-0.2c-0.1-0.1-0.2-0.2-0.4-0.2c-0.2-0.1-0.5-0.3-0.7-0.4c-0.1-0.1-0.2-0.1-0.3-0.2c-0.1,0-0.2-0.1-0.3-0.1
		c-0.1-0.1-0.3-0.1-0.4-0.2c-0.1-0.1-0.3-0.1-0.4-0.1c-0.1,0-0.3-0.1-0.4-0.1c-0.1,0-0.1,0-0.2-0.1c-0.1,0-0.3-0.1-0.4-0.1
		c-0.2,0-0.3-0.1-0.5-0.1c-0.1,0-0.1,0-0.2,0c-0.2,0-0.4-0.1-0.6-0.1c-0.2,0-0.4,0-0.6,0c-0.1,0-0.2,0-0.2,0c-0.1,0-0.2,0-0.3,0
		c-0.1,0-0.3,0-0.4,0c-0.1,0-0.2,0-0.2,0c-0.1,0-0.1,0-0.2,0c-0.1,0-0.2,0-0.4,0c-0.1,0-0.1,0-0.2,0c-0.1,0-0.3,0-0.4,0.1
		c-0.1,0-0.2,0-0.4,0.1c0,0-0.1,0-0.1,0c-0.3,0.1-0.6,0.1-0.8,0.2c0,0-0.1,0-0.1,0c0,0-0.1,0-0.1,0c0,0-0.1,0-0.1,0c0,0-0.1,0-0.1,0
		c0,0,0,0,0,0c-5.1,2.1-4.3,9.2-1.7,11.6c2.6,2.4,1.2,3.4,1.2,3.4c-4.8,1-9.2-1.1-12.1-3.2c-0.9-1.1-1.8-1.9-2.8-2.4
		c-0.5-0.5-0.8-0.8-0.8-0.8c-2.5-0.4-4.2-2.3-5.2-3.8c-0.7-1-1-1.9-1-1.9s-7.3,0-7-10.6C11.3,8.2,17.9,6.4,21.1,4.1s7-4.5,14.1-2.2
		c5.7,1.8,7.4,8.3,7.9,12.3c0.1,0.6,0.1,1.2,0.2,1.6c0,0.3,0,0.6,0.1,0.8c0.1,2.8,2.2,4.9,4.5,6.4C50.2,24.4,51.6,28.5,51.7,28.8z"
		/>
	<path class="st3" d="M67.7,92.8c-0.3-0.2-8.4-7-10.3-12.7c-1-3-0.7-8.1-0.2-12.5c2.1-0.8,4-1.4,5.4-1.9c0.6-0.2,1.1-0.4,1.6-0.7
		c-0.7,4-2,12.9-1.4,15.9C63.6,85,67.5,92.5,67.7,92.8z"/>
	<path class="st5" d="M24.3,97c0.1,4.1-1.9,5.8-7.7-4.6c-4.4-7.9-1.8-18.1-0.3-22.6c1,0.5,2.1,1,3.2,1.4c0.6,0.2,1.1,0.3,1.7,0.5
		c1.7,0.4,3.2,0.6,4.6,0.8c2.8,0.4,5,0.8,6.6,2.5c0.2,0.2,0.4,0.4,0.6,0.5C24.1,82.7,24.3,93,24.3,97z"/>
	<path class="st9" d="M52.9,30.5c-0.4-0.5-0.8-1.1-1.2-1.7h0v0c-0.1-0.3-1.5-4.4-3.8-5.8c-2.3-1.4-4.4-3.6-4.5-6.4
		c0-0.2,0-0.5-0.1-0.8c1.1,0.2,2.6,0.6,4.1,1.8c0.3,0.2,0.6,0.5,0.9,0.8c0.2,0.2,0.5,0.5,0.7,0.8C52.1,23.1,54.9,27,52.9,30.5z"/>
	<path class="st5" d="M59.4,42.3c-1.8-3.3-2.8-6.6-6.4-11.8c2-3.5-0.9-7.4-3.9-11.2c-0.2-0.3-0.5-0.6-0.7-0.8c1.7-0.1,4.7,1,7.6,8
		C59.2,34.2,59.4,40,59.4,42.3z"/>
	<path class="st6" d="M66.7,45.5c-1.2-0.4-2.6-0.7-4.4-0.7c-0.4,0-0.9,0.1-1.3,0.2c-0.7-0.9-1.2-1.8-1.7-2.7
		c0.1-2.4-0.2-8.1-3.4-15.9c-2.9-7-5.9-8-7.6-8c-0.3-0.3-0.6-0.6-0.9-0.8c2.6-1,7.9-2.7,10.7-0.1c3.7,3.5,8.3,10,8.7,17.1
		C67.2,39.8,67.5,43.3,66.7,45.5z"/>
	<path class="st5" d="M66.4,95.8c-11.8-6.9-13.5-20.2-13.6-26.3c1.5-0.7,3-1.3,4.4-1.8c-0.5,4.3-0.8,9.5,0.2,12.5
		c1.9,5.7,10.1,12.4,10.3,12.7c-0.1-0.2-4.1-7.8-4.9-11.7c-0.6-3.1,0.7-11.9,1.4-15.9c3.8-2.2,5.3-7.3,5.6-6.6
		c0.4,0.8-0.7,3.8,0.5,3c1.2-0.9,2.8-4.9,0.7-8.4c-2.1-3.5,0.5,0.8,1,0.5s0.6-1.7-0.5-3.2c-1.1-1.5-4.8-3-5-3.6
		c-0.2-0.6,3.3,1.6,3.3,1c0-0.3-1.1-1.5-3.1-2.2c0.8-2.2,0.5-5.8,0.1-11c-0.5-7.1-5-13.6-8.7-17.1c-2.8-2.6-8.1-0.9-10.7,0.1
		c-1.5-1.2-3-1.7-4.1-1.8c0-0.5-0.1-1-0.2-1.6c5.3-3.1,9.1-11,15.1-8.6c7.1,2.8,12,14.3,15.2,24c3.2,9.7,2.2,19.2-1.6,34.2
		c-3.9,15-1.4,23.5,0.9,27C75.1,94.2,82.1,105,66.4,95.8z"/>
	<path class="st6" d="M67.7,92.8c-0.3-0.2-8.4-7-10.3-12.7c-1-3-0.7-8.1-0.2-12.5c2.1-0.8,4-1.4,5.4-1.9c0.6-0.2,1.1-0.4,1.6-0.7
		c-0.7,4-2,12.9-1.4,15.9C63.6,85,67.5,92.5,67.7,92.8z"/>
	<path class="st3" d="M18.1,29.3c0,0-2.5-5-1.7-8.6"/>
	<path class="st3" d="M24.2,35c0,0,0.7-1.1-0.6-2.4c-1.2-1.3-2.9-4.6-2.6-5.8"/>
	<path class="st3" d="M43.2,30.4c0,0,4.9-3.6,9.1,2.5"/>
	<path class="st3" d="M11,36.2c0,0,2.4,3.6,7.5,4.4"/>
	<path class="st3" d="M11.7,32.7c0,0,3.1,5,7.4,6.2"/>
	<path class="st3" d="M14,31.1c0,0,1.9,5.5,5.8,6.6"/>
	<path class="st3" d="M52.4,35.3c0,0,5.1-3.7,5.7-6.4"/>
	<path class="st3" d="M53.1,36.2c0,0,6.5-3,7-5.8"/>
	<path class="st3" d="M53.9,37.8c0,0,6.4-1.3,7.1-4.1"/>
	<path class="st3" d="M33.6,54.7c0,0,4.3-1,6.8,0"/>
	<path class="st3" d="M34.8,53.3c0,0,1.8-1.1,4.8-0.3"/>
	<path class="st6" d="M19.6,90.7c-4.5-10.2-1.6-17-0.1-19.6c0.6,0.2,1.1,0.3,1.7,0.5c1.7,0.4,3.2,0.6,4.6,0.8
		C17.5,83.2,19.5,90.3,19.6,90.7z"/>
	<path class="st7" d="M30.8,49.5c-0.2,2.3-0.9,4.3-1.9,5.6c-1.7-0.7-3.5-1.6-5.2-2.7c-0.2-0.1-0.4-0.3-0.6-0.4
		c-0.2-0.6-0.3-1.2-0.4-1.8c-0.6-3.9,0.8-7.2,3-7.6c2.2-0.3,4.5,2.5,5.1,6.4C30.8,49.2,30.8,49.3,30.8,49.5z"/>
	<ellipse transform="matrix(0.985 0.1726 -0.1726 0.985 9.0823 -7.1698)" class="st10" cx="45.8" cy="48.6" rx="2.4" ry="4.1"/>
	<ellipse transform="matrix(0.9897 -0.1433 0.1433 0.9897 -6.7357 4.3279)" class="st10" cx="26.7" cy="48.9" rx="2.4" ry="4.1"/>
	<circle class="st4" cx="26.6" cy="46.9" r="0.9"/>
	<circle class="st4" cx="46" cy="46.5" r="0.9"/>
	<path class="st11" d="M44.7,67.5c-0.7,2.4-2.9,6.3-6.6,6.2c-2.1-0.1-3.8-0.9-5.1-2.1c0.9-0.9,2.9-2.5,4.6-2.1
		C37.6,69.5,41.4,67.1,44.7,67.5z"/>
	<path class="st3" d="M37.6,70.6c0,0-0.3-0.4,0-1.1"/>
	<g>
	</g>
	<g>
	</g>
	<g>
	</g>
	<g>
	</g>
	<g>
	</g>
	<g>
	</g>
</g>
</svg>
