<svg xmlns="http://www.w3.org/2000/svg" viewBox="0 0 85 103.5" enable-background="new 0 0 85 103.5"><style type="text/css">.st0{fill:#FFFFFF;stroke:#000000;stroke-width:0.3;stroke-miterlimit:10;} .st1{fill:none;stroke:#000000;stroke-width:0.3;stroke-miterlimit:10;} .st2{stroke:#000000;stroke-width:0.3;stroke-miterlimit:10;} .st3{fill:none;stroke:#000000;stroke-width:0.3;stroke-linecap:round;stroke-miterlimit:10;} .st4{fill:#FFFFFF;stroke:#000000;stroke-width:0.3;stroke-linecap:round;stroke-miterlimit:10;} .st5{fill:#FAB499;stroke:#000000;stroke-width:0.3;stroke-linecap:round;stroke-miterlimit:10;} .st6{fill:#F8C1D9;stroke:#000000;stroke-width:0.3;stroke-linecap:round;stroke-miterlimit:10;} .st7{fill:#89BBE5;stroke:#000000;stroke-width:0.3;stroke-linecap:round;stroke-miterlimit:10;} .st8{fill:#FFF200;stroke:#000000;stroke-width:0.3;stroke-linecap:round;stroke-miterlimit:10;} .st9{fill:#92278F;stroke:#000000;stroke-width:0.3;stroke-linecap:round;stroke-miterlimit:10;} .st10{stroke:#000000;stroke-width:0.3;stroke-linecap:round;stroke-miterlimit:10;} .st11{fill:#DD706E;stroke:#000000;stroke-width:0.3;stroke-linecap:round;stroke-miterlimit:10;}</style><g id="Layer_2"><path class="st0" d="M72 53.5c.4-.3.6-1.7-.5-3.2-1.1-1.5-4.8-3-5-3.6-.2-.6 3.3 1.6 3.3 1 0-.3-1.1-1.5-3.1-2.2-1.2-.4-2.6-.7-4.4-.7-.4 0-.9.1-1.3.2-.5.1-1 .3-1.5.5-2 .8-4 2.2-5.7 3.6-.7.6-1.4 1.2-2.1 1.7-1.1.9-1.9 1.6-2.6 2.1l-.1.1c-1 .7-2.8 1.9-4.7 2.9l-1.8.9c-1 .4-1.9.8-2.8 1 0 .2 0 .5-.1.7-1 1.7-3.4 1.7-4.3 0-.1-.2-.1-.3-.1-.5s.1-.4.2-.6c-1.5-.4-3.6-1-5.9-2l-.7-.3c-1.7-.7-3.5-1.6-5.2-2.7l-.6-.4c-1.3-.8-2.7-1.5-4.2-2.1-2-.8-4-1.4-5.9-1.5-3.4-.3-6.4.8-8.1 4.1 0 0-.4 1 .7-.1s3.5-2.2 2.7-1.2-5.1 4.9-5 8.5c.1 3.6.7 2.4.7 1.8 0-.6 1.6-5.6 1.7-3.3.1 2.3-.1 6.3 2.7 8.6 2.8 2.4 2.1.7 1.9.2-.2-.5-1.2-2.5-.2-1.6.7.6 3.2 2.7 6.3 4.3 1 .5 2.1 1 3.2 1.4l1.7.5c1.7.4 3.2.6 4.6.8 2.8.4 5 .8 6.6 2.5.2.2.4.4.6.5.8.7 1.6 1.2 2.4 1.6 1.5.7 3.1.9 4.7.4 1.2-.4 2.8-1.2 4.1-2.7 1.5-1.7 4.9-3.5 8.6-5.1 1.5-.7 3-1.3 4.4-1.8 2.1-.8 4-1.4 5.4-1.9.6-.2 1.1-.4 1.6-.7 3.8-2.2 5.3-7.3 5.6-6.6.4.8-.7 3.8.5 3 1.2-.9 2.8-4.9.7-8.4-2-3.6.6.6 1 .3zm-27.3 13.9v.2c-.7 2.4-2.9 6.3-6.6 6.2-2.1-.1-3.8-.9-5.1-2.1-1-.9-1.8-1.9-2.3-2.8-1.2-2.2-2.7-5.6-5.4-8.2l6.5-1.2s.4 3.9 3.7 3.4c.6-.1 1.3-.3 2-.7 0 0 1 .6 2.3.7.7.1 1.4 0 2.1-.5 2-1.2 2.2-2.1 2.1-3.7 0 0 2.4 1.3 4.3 1.4 0-.1-3 4.9-3.6 7.3z"/><path class="st1" d="M48.3 60s-3 5.1-3.6 7.4v.2c-.7 2.4-2.9 6.3-6.6 6.2-2.1-.1-3.8-.9-5.1-2.1-1-.9-1.8-1.9-2.3-2.8-1.2-2.2-2.7-5.6-5.4-8.2l6.5-1.2s.4 3.9 3.7 3.4c.6-.1 1.3-.3 2-.7 0 0 1 .6 2.3.7.7.1 1.4 0 2.1-.5 2-1.2 2.2-2.1 2.1-3.7 0-.1 2.4 1.2 4.3 1.3zM39.7 58.4c-1 1.7-3.4 1.7-4.3 0-.1-.2-.1-.3-.1-.5s.1-.4.2-.6c.2-.2.5-.4.8-.4h2.6c.5 0 .9.4 1 .8 0 .3-.1.5-.2.7z"/><path class="st2" d="M48.3 60s-3 5.1-3.6 7.4v.2c-.7 2.4-2.9 6.3-6.6 6.2-2.1-.1-3.8-.9-5.1-2.1-1-.9-1.8-1.9-2.3-2.8-1.2-2.2-2.7-5.6-5.4-8.2l6.5-1.2s.4 3.9 3.7 3.4c.6-.1 1.3-.3 2-.7 0 0 1 .6 2.3.7.7.1 1.4 0 2.1-.5 2-1.2 2.2-2.1 2.1-3.7 0-.1 2.4 1.2 4.3 1.3z"/><path class="st3" d="M17.8 59.7s1.7 2 7.5.9M48.3 60s4.6 1 9-1.7"/><path class="st4" d="M39.8 62.8v1.7c0 .6-.5 1.1-1.1 1.1h-2.1c-.6 0-1.1-.5-1.1-1.1v-1.7c.6-.1 1.3-.3 2-.7.1-.1 1.1.6 2.3.7z"/><path class="st3" d="M49.7 50.6c-.1.8-.3 1.6-.6 2.2-1 .7-2.8 1.9-4.7 2.9-1.9-1.2-3.1-4.1-3.3-7.6.9-3.7 3.3-6.3 5.5-5.9 2.5.5 3.8 4.3 3.1 8.4zM49.7 50.6c-.1.8-.3 1.6-.6 2.2-1 .7-2.8 1.9-4.7 2.9-1.9-1.2-3.1-4.1-3.3-7.6.9-3.7 3.3-6.3 5.5-5.9 2.5.5 3.8 4.3 3.1 8.4z"/><path class="st5" d="M25 35.8c-.7-.3-1.4-.4-2.1-.3-3.4.5-5.5 5.7-4.7 11.6.1 1 .4 1.9.6 2.8-2-.8-4-1.4-5.9-1.5 1.6-2.9 4.4-8.9 6-17.2 1 1.5 2.7 3.4 5.2 3.8.1 0 .4.3.9.8zM61.1 45c-.5.1-1 .3-1.5.5-2 .8-4 2.2-5.7 3.6.3-.9.5-1.8.7-2.8 1.1-6.2-1-11.8-4.6-12.4-1.9-.3-3.8.7-5.3 2.6-1.5 1.8-2.7 4.5-3.2 7.5-.3 1.5-.3 2.9-.3 4.2.2 3.5 1.4 6.4 3.3 7.6l-1.8.9c-1 .4-1.9.8-2.8 1-.1-.4-.5-.8-1-.8h-2.6c-.3 0-.6.2-.8.4-1.5-.4-3.6-1-5.9-2l-.7-.3c1-1.3 1.7-3.3 1.9-5.6.1-1.3.1-2.7-.1-4.2-.4-2.9-1.5-5.4-2.8-7.2 2.9 2.1 7.2 4.2 12.1 3.2 0 0 1.4-1-1.2-3.4-2.6-2.4-3.3-9.6 1.7-11.6h.4c.2-.1.5-.1.8-.2h.1c.1 0 .2 0 .4-.1.1 0 .3 0 .4-.1h2.5c.2 0 .4 0 .6.1h.2l.5.1.4.1c.1 0 .1 0 .2.1l.4.1.4.1c.1 0 .3.1.4.2l.3.1c.1 0 .2.1.3.2.2.1.5.2.7.4.1.1.2.1.4.2.1.1.2.2.4.2.3.2.6.4.9.7.1 0 .1.1.2.2l.4.3c.4.6.8 1.2 1.2 1.7 3.6 5.2 4.6 8.5 6.4 11.8.4.8 1 1.7 1.7 2.6z"/><path class="st6" d="M39.7 58.4c-1 1.7-3.4 1.7-4.3 0-.1-.2-.1-.3-.1-.5s.1-.4.2-.6c.2-.2.5-.4.8-.4h2.6c.5 0 .9.4 1 .8 0 .3-.1.5-.2.7z"/><path class="st4" d="M30.8 49.5c-.2 2.3-.9 4.3-1.9 5.6-1.7-.7-3.5-1.6-5.2-2.7l-.6-.4c-1.3-.8-2.7-1.5-4.2-2.1-.3-.9-.5-1.8-.6-2.8-.9-5.9 1.2-11.1 4.7-11.6.7-.1 1.4 0 2.1.3 1 .4 2 1.2 2.8 2.4 1.3 1.8 2.4 4.3 2.8 7.2.2 1.4.2 2.8.1 4.1zM54.5 46.3c-.2 1-.4 1.9-.7 2.8-.7.6-1.4 1.2-2.1 1.7-1.1.9-1.9 1.6-2.6 2.1l-.1.1c.3-.7.5-1.5.6-2.2.7-4.2-.6-7.9-3.1-8.3-2.2-.4-4.6 2.2-5.5 5.9-.1-1.3 0-2.8.3-4.2.5-3 1.7-5.7 3.2-7.5 1.6-1.9 3.5-3 5.3-2.6 3.7.4 5.8 5.9 4.7 12.2z"/><path class="st7" d="M49.7 50.6c-.1.8-.3 1.6-.6 2.2-1 .7-2.8 1.9-4.7 2.9-1.9-1.2-3.1-4.1-3.3-7.6.9-3.7 3.3-6.3 5.5-5.9 2.5.5 3.8 4.3 3.1 8.4z"/><path class="st8" d="M51.7 28.8l-.4-.3-.2-.2-.9-.7c-.1-.1-.2-.2-.4-.2-.1-.1-.2-.2-.4-.2l-.7-.4-.3-.2-.3-.1-.4-.2c-.1-.1-.3-.1-.4-.1l-.4-.1c-.1 0-.1 0-.2-.1l-.4-.1-.5-.1h-.2l-.6-.1h-2.5c-.1 0-.3 0-.4.1-.1 0-.2 0-.4.1h-.1c-.3.1-.6.1-.8.2h-.4c-5.1 2.1-4.3 9.2-1.7 11.6 2.6 2.4 1.2 3.4 1.2 3.4-4.8 1-9.2-1.1-12.1-3.2-.9-1.1-1.8-1.9-2.8-2.4l-.8-.8c-2.5-.4-4.2-2.3-5.2-3.8-.7-1-1-1.9-1-1.9s-7.3 0-7-10.6c.3-10.2 6.9-12 10.1-14.3s7-4.5 14.1-2.2c5.7 1.8 7.4 8.3 7.9 12.3.1.6.1 1.2.2 1.6 0 .3 0 .6.1.8.1 2.8 2.2 4.9 4.5 6.4 2.3 1.4 3.7 5.5 3.8 5.8z"/><path class="st3" d="M67.7 92.8c-.3-.2-8.4-7-10.3-12.7-1-3-.7-8.1-.2-12.5 2.1-.8 4-1.4 5.4-1.9.6-.2 1.1-.4 1.6-.7-.7 4-2 12.9-1.4 15.9.8 4.1 4.7 11.6 4.9 11.9z"/><path class="st5" d="M24.3 97c.1 4.1-1.9 5.8-7.7-4.6-4.4-7.9-1.8-18.1-.3-22.6 1 .5 2.1 1 3.2 1.4l1.7.5c1.7.4 3.2.6 4.6.8 2.8.4 5 .8 6.6 2.5.2.2.4.4.6.5-8.9 7.2-8.7 17.5-8.7 21.5z"/><path class="st9" d="M52.9 30.5c-.4-.5-.8-1.1-1.2-1.7-.1-.3-1.5-4.4-3.8-5.8-2.3-1.4-4.4-3.6-4.5-6.4 0-.2 0-.5-.1-.8 1.1.2 2.6.6 4.1 1.8.3.2.6.5.9.8.2.2.5.5.7.8 3.1 3.9 5.9 7.8 3.9 11.3z"/><path class="st5" d="M59.4 42.3c-1.8-3.3-2.8-6.6-6.4-11.8 2-3.5-.9-7.4-3.9-11.2-.2-.3-.5-.6-.7-.8 1.7-.1 4.7 1 7.6 8 3.2 7.7 3.4 13.5 3.4 15.8z"/><path class="st6" d="M66.7 45.5c-1.2-.4-2.6-.7-4.4-.7-.4 0-.9.1-1.3.2-.7-.9-1.2-1.8-1.7-2.7.1-2.4-.2-8.1-3.4-15.9-2.9-7-5.9-8-7.6-8-.3-.3-.6-.6-.9-.8 2.6-1 7.9-2.7 10.7-.1 3.7 3.5 8.3 10 8.7 17.1.4 5.2.7 8.7-.1 10.9z"/><path class="st5" d="M66.4 95.8c-11.8-6.9-13.5-20.2-13.6-26.3 1.5-.7 3-1.3 4.4-1.8-.5 4.3-.8 9.5.2 12.5 1.9 5.7 10.1 12.4 10.3 12.7-.1-.2-4.1-7.8-4.9-11.7-.6-3.1.7-11.9 1.4-15.9 3.8-2.2 5.3-7.3 5.6-6.6.4.8-.7 3.8.5 3 1.2-.9 2.8-4.9.7-8.4-2.1-3.5.5.8 1 .5s.6-1.7-.5-3.2c-1.1-1.5-4.8-3-5-3.6-.2-.6 3.3 1.6 3.3 1 0-.3-1.1-1.5-3.1-2.2.8-2.2.5-5.8.1-11-.5-7.1-5-13.6-8.7-17.1-2.8-2.6-8.1-.9-10.7.1-1.5-1.2-3-1.7-4.1-1.8 0-.5-.1-1-.2-1.6 5.3-3.1 9.1-11 15.1-8.6 7.1 2.8 12 14.3 15.2 24 3.2 9.7 2.2 19.2-1.6 34.2-3.9 15-1.4 23.5.9 27 2.4 3.2 9.4 14-6.3 4.8z"/><path class="st6" d="M67.7 92.8c-.3-.2-8.4-7-10.3-12.7-1-3-.7-8.1-.2-12.5 2.1-.8 4-1.4 5.4-1.9.6-.2 1.1-.4 1.6-.7-.7 4-2 12.9-1.4 15.9.8 4.1 4.7 11.6 4.9 11.9z"/><path class="st3" d="M18.1 29.3s-2.5-5-1.7-8.6M24.2 35s.7-1.1-.6-2.4c-1.2-1.3-2.9-4.6-2.6-5.8M43.2 30.4s4.9-3.6 9.1 2.5M11 36.2s2.4 3.6 7.5 4.4M11.7 32.7s3.1 5 7.4 6.2M14 31.1s1.9 5.5 5.8 6.6M52.4 35.3s5.1-3.7 5.7-6.4M53.1 36.2s6.5-3 7-5.8M53.9 37.8s6.4-1.3 7.1-4.1M33.6 54.7s4.3-1 6.8 0M34.8 53.3s1.8-1.1 4.8-.3"/><path class="st6" d="M19.6 90.7c-4.5-10.2-1.6-17-.1-19.6l1.7.5c1.7.4 3.2.6 4.6.8-8.3 10.8-6.3 17.9-6.2 18.3z"/><path class="st7" d="M30.8 49.5c-.2 2.3-.9 4.3-1.9 5.6-1.7-.7-3.5-1.6-5.2-2.7l-.6-.4c-.2-.6-.3-1.2-.4-1.8-.6-3.9.8-7.2 3-7.6 2.2-.3 4.5 2.5 5.1 6.4v.5z"/><ellipse transform="matrix(.985 .173 -.173 .985 9.082 -7.17)" class="st10" cx="45.8" cy="48.6" rx="2.4" ry="4.1"/><ellipse transform="matrix(.99 -.143 .143 .99 -6.736 4.328)" class="st10" cx="26.7" cy="48.9" rx="2.4" ry="4.1"/><circle class="st4" cx="26.6" cy="46.9" r=".9"/><circle class="st4" cx="46" cy="46.5" r=".9"/><path class="st11" d="M44.7 67.5c-.7 2.4-2.9 6.3-6.6 6.2-2.1-.1-3.8-.9-5.1-2.1.9-.9 2.9-2.5 4.6-2.1 0 0 3.8-2.4 7.1-2z"/><path class="st3" d="M37.6 70.6s-.3-.4 0-1.1"/></g></svg>