<?xml version="1.0" encoding="utf-8"?>
<!-- Generator: Adobe Illustrator 18.1.1, SVG Export Plug-In . SVG Version: 6.00 Build 0)  -->
<!DOCTYPE svg PUBLIC "-//W3C//DTD SVG 1.1//EN" "http://www.w3.org/Graphics/SVG/1.1/DTD/svg11.dtd">
<svg version="1.1" id="Layer_1" xmlns="http://www.w3.org/2000/svg" xmlns:xlink="http://www.w3.org/1999/xlink" x="0px" y="0px"
	 viewBox="0 0 612 792" style="enable-background:new 0 0 612 792;" xml:space="preserve">
<style type="text/css">
	.st0{fill:#F9ED32;stroke:#000000;stroke-miterlimit:10;}
	.st1{fill:none;stroke:#000000;stroke-miterlimit:10;}
	.st2{fill:#662D91;stroke:#000000;stroke-miterlimit:10;}
	.st3{fill:#F9ED32;stroke:#000000;stroke-width:0.7057;stroke-miterlimit:10;}
	.st4{stroke:#000000;stroke-width:0.7057;stroke-miterlimit:10;}
	.st5{stroke:#000000;stroke-miterlimit:10;}
	.st6{fill:#F7941E;stroke:#000000;stroke-miterlimit:10;}
	.st7{fill:#F15A29;stroke:#000000;stroke-miterlimit:10;}
	.st8{fill:none;stroke:#000000;stroke-linecap:round;stroke-miterlimit:10;}
	.st9{fill:#5D53A3;stroke:#000000;stroke-linecap:round;stroke-miterlimit:10;}
	.st10{stroke:#000000;stroke-linecap:round;stroke-miterlimit:10;}
	.st11{fill:#262262;stroke:#000000;stroke-linecap:round;stroke-miterlimit:10;}
</style>
<path class="st0" d="M286.3,467.3c0,0.3,0,0.7-0.1,1c-0.2,3.6-1.9,8.7-6.5,13.5c0.3,3.9,0.1,8.7-1.7,13c0,0.1-0.1,0.2-0.1,0.2
	c-0.9,2-2.1,3.8-3.7,5.5c-0.2,2.6-1,6.3-2.9,9.6c-0.4,0.6-0.8,1.4-1.4,2.1c-0.1,0.1-0.2,0.2-0.3,0.3c-2.2,2.7-6.3,5.8-13,6.5
	l-1.7,0.2c-3.1,0.2-5.8,0.5-8.4,0.7l-2.6,0.2c-3.6,0.5-6.5,0.7-9.6,0.7c-4.3,0-8-0.7-11.6-2.4c-0.5-0.2-2.7-1-7.7-1
	c-8.2,0-16.9,1.9-18.3,2.7c-4.1,1.9-28.2,5.8-54,5.8c-27,0-63.1-4.1-83.4-23.8c-26.5-26-34-54-32-70.1c1-7.7,3.9-13.2,8.4-16.1
	c3.1-1.9,2.9-10.6,1.5-15.7l-0.5-1.5l0.2-1.4c2.2-14.2,8.2-47.7,16.4-55.2c4.1-3.9,2.9-13.7,1.7-17.4c-1.7-4.8-8.2-40.7-9.6-48
	l-1.2-6l43.6-13.2l26,26v-34l43.4-37.8l17.1,40.5l1.2,3.1c-2.4,0.2-4.6,0.7-7,1.4l-0.7-2.2l-13.2-31.3l-33.7,29.4v47.5l-34.9-34.9
	L52,275.5c0,0,0,0.2,0.1,0.5c0,0.3,0.1,0.8,0.2,1.3c1.5,8.2,7.6,41.1,9.1,45.2c1.5,4.6,3.6,18.1-3.6,24.8
	c-6.2,5.8-12,39.2-13.6,48.8l-0.6,2.3c0,0,4.8,17.8-4.6,23.6c-9.2,5.7-9.4,40,23,73.1c0.8,0.8,1.5,1.5,2.3,2.3
	c0.2,0.2,0.4,0.4,0.6,0.6c34.9,33,124.5,18.5,128.8,16.3c4.3-2.4,24.1-5.5,32.1-1.9c6.3,2.9,11.8,1.7,21,0.7
	c2.4-0.2,4.8-0.5,7.7-0.7h0.2c6.8-0.5,10.1-3.6,11.6-7.2c1.7-3.9,1.2-8,1.2-8c8.4-5.5,4.8-18.1,4.8-18.1c7.8-6.1,7.9-12.9,6.4-17.8
	c-1.2-4.1-3.5-6.9-3.7-7.2c0.1-0.1,0.2-0.2,0.3-0.3c4.7-4,3.5-11.9,2.1-17.6c-0.9-3-1.7-5.4-1.9-5.9c1.2-4.3,1.7-9.5,1-14.8
	c0-0.2,0-0.4-0.1-0.6c-0.1-1.1-0.3-2.2-0.5-3.3c-0.5-2.4-1.2-4.8-2.2-7.2c-1.2-2.9-3.1-5.5-5.3-8c-0.2-0.2-0.5-0.7-1-1
	c-6.5-6-14.9-4.1-19.5-1.7c-1.9,1-3.1,2.2-3.4,2.9c-0.7,2.4-15.9,19-25.5,19.5c-6.2,0.3-7.4,6.3-7.5,13.8c0,0.8,0,1.6,0,2.5
	c0,3.2,0.2,6.5,0.2,9.7c0,0.3,0,0.7,0,1v0.5c0,12-49.4-10.1-49.4-10.1c-10.9-20-40.2-42.9-40.2-42.9l-7.2-34.9l0.1,0.1l22,19.2
	l13.2-6.8l0.5-29.4l29.4,59.8l31.3-19.8l-0.1-0.4l0.1-0.1L198,340c2.1-0.7,4.2-1.4,6.4-2.4c0,0,0.1,0,0.1-0.1l6.4,17.9v0.2l2.9,10.4
	l0.2,0l0.1,0.3l0.6-0.2l5.4,15.1l-42.4,27.2l-20.5-41.2v5.3l-21.2,10.6l-10.4-8.9l2.6,12.5c6.8,5.5,28.7,23.9,39,41.2
	c11.1,4.8,28.9,11.6,37.6,12.3v-2.4c-0.5-10.8-1-27.2,14-28c5.1-0.2,17.1-11.3,19.5-15.4c0.7-1.9,2.4-3.6,4.3-5.1
	c3.6-2.7,8.9-4.4,13.7-4.5c0.2,0,0.5,0,0.7,0c0.3,0,0.7,0,1,0c4.9,0.2,9.4,2.1,13.2,5.3c0,0,0.1-0.1,0.1-0.1c0,0,0.1,0.1,0.1,0.1
	c0,0,0.1,0.1,0.1,0.1c0,0-0.1,0.1-0.1,0.2l1.9,1.9c2.7,2.9,4.8,6,6.3,9.1c2.8,5.9,3.8,12,3.9,17.2c0,0.8,0,1.7,0,2.4
	c-0.1,3.5-0.6,6.6-1,8.7c0,0,0,0.1,0,0.1c0,0.1,0,0.1,0,0.2c1.5,4.3,4.4,14,1.8,22c0,0,0,0,0,0c-0.3,0.8-0.6,1.6-1.1,2.3
	c0,0,0,0.1,0.1,0.1c0,0,0,0.1-0.1,0.1C284.9,457.7,286.5,462.2,286.3,467.3z"/>
<path class="st0" d="M44.2,396.1c1.6-9.5,7.4-43,13.6-48.8L44.2,396.1z"/>
<path class="st0" d="M198,340l-0.1-0.4c2.2-0.7,4.3-1.5,6.5-2.4l0.1,0.4c0,0-0.1,0-0.1,0.1C202.2,338.6,200.1,339.3,198,340z"/>
<polygon class="st0" points="115,355.9 114.9,355.3 137.1,374.6 150.3,367.8 150.8,338.4 180.2,398.2 211.4,378.5 211.5,378.9 
	180.2,398.7 150.8,338.9 150.3,368.3 137.1,375 "/>
<path class="st0" d="M211.5,432.5c0,3.2,0.2,6.5,0.2,9.7C211.7,439,211.6,435.6,211.5,432.5z"/>
<polygon class="st0" points="214,366.4 213.9,366.1 214.4,365.9 214.5,366.2 "/>
<path class="st0" d="M269.9,512.3c0.6-0.7,1-1.5,1.4-2.1C270.9,511,270.5,511.7,269.9,512.3z"/>
<path class="st0" d="M271.3,390.2c-3.8-3.2-8.3-5-13.2-5.3c4.9,0.1,9.5,1.8,13.3,5.2C271.4,390.1,271.3,390.2,271.3,390.2z"/>
<path class="st0" d="M274.9,454.1C274.9,454.1,274.9,454.1,274.9,454.1c0.1-0.1,0.2-0.2,0.3-0.3C275.2,453.9,275,454,274.9,454.1z"
	/>
<path class="st0" d="M275.4,430.2c1-4.3,1.6-9.5,1.1-14.7c0.6,5.3,0.1,10.5-1,14.8C275.4,430.2,275.4,430.2,275.4,430.2z"/>
<path class="st0" d="M272.3,479.1c0,0,3.6,12.5-4.8,18.1c0,0,0.5,4.1-1.2,8c-1.4,3.6-4.8,6.7-11.6,7.2h-0.2
	c-2.9,0.2-5.3,0.5-7.7,0.7c-9.2,1-14.7,2.2-21-0.7c-8-3.6-27.7-0.5-32.1,1.9c-4.3,2.2-93.9,16.7-128.8-16.3
	c35.1,32.7,124,18.2,128.5,16c4.3-2.2,24.1-5.3,32-1.9c6.5,2.9,11.8,1.7,21,0.7c2.2-0.2,4.8-0.5,7.7-0.7h0.2
	c6.7-0.5,10.1-3.9,11.6-7.2c1.5-3.3,1.3-6.8,1.2-7.7c0-0.1,0-0.2,0-0.2c7.5-5,5.4-15.5,4.9-17.7c-0.1-0.3-0.1-0.4-0.1-0.4
	c7.7-6,8-12.7,6.6-17.6C280.2,466.2,280.1,473,272.3,479.1z"/>
<path class="st0" d="M279.7,481.8c0.5,3.9,0.2,8.7-1.7,13C279.8,490.5,280.1,485.7,279.7,481.8z"/>
<path class="st0" d="M273.5,392.4l-1.9-1.9c0-0.1,0.1-0.1,0.1-0.2c0.7,0.5,1.4,1.2,1.8,1.8c2.7,2.9,4.8,6,6.3,9.2
	c2.9,6,3.8,12.2,3.9,17.5c-0.1-5.3-1.1-11.3-3.9-17.2C278.3,398.4,276.1,395.3,273.5,392.4z"/>
<path class="st0" d="M282.6,430.2c0-0.1,0-0.1,0-0.2c1.8,4.4,4.7,14.3,1.8,22.2C287,444.2,284.1,434.5,282.6,430.2z"/>
<path class="st0" d="M286.3,467.3c0.2-5.1-1.4-9.6-3-12.5c0,0,0-0.1,0.1-0.1C285.2,457.8,286.5,462.2,286.3,467.3z"/>
<polygon class="st1" points="214.7,366.1 214.5,366.2 214,366.4 213.9,366.1 211.1,355.8 "/>
<path class="st2" d="M272.3,479.1c0,0,3.6,12.5-4.8,18.1c0,0,0.5,4.1-1.2,8c-1.4,3.6-4.8,6.7-11.6,7.2h-0.2
	c-2.9,0.2-5.3,0.5-7.7,0.7c-9.2,1-14.7,2.2-21-0.7c-8-3.6-27.7-0.5-32.1,1.9c-4.3,2.2-93.9,16.7-128.8-16.3
	c-0.2-0.2-0.4-0.4-0.6-0.6c-0.8-0.8-1.6-1.5-2.3-2.3c-32.1-33-31.7-67.5-22.7-72.9c9.4-5.8,4.6-23.6,4.6-23.6s0.1-0.9,0.4-2.6
	c1.6-9.5,7.4-43,13.6-48.8c7.2-6.8,5.1-20.2,3.6-24.8c-1.3-4-7.5-37-9.1-45.2c-0.1-0.6-0.2-1-0.2-1.3s-0.1-0.5-0.1-0.5l33.7-10.1
	l34.9,34.9v-47.5l33.7-29.4l13.2,31.3l0.7,2.2c-20,5.3-34.7,22.2-34.7,41.9c0,24.1,21.7,43.6,48.4,43.6c5.5,0,10.8-1,15.7-2.4
	l13.6,38.4l0.1,0.4l-31.3,19.8l-29.4-59.8l-0.5,29.4l-13.2,6.8l-22-19.2l-0.1-0.1l7.2,34.9c0,0,29.4,22.9,40.2,42.9
	c0,0,49.4,22.2,49.4,10.1v-0.5c0-0.3,0-0.7,0-1c-0.1-3.2-0.2-6.5-0.2-9.7c0-0.8,0-1.7,0-2.5c0.1-7.2,1.5-13,7.5-13.3
	c9.6-0.5,25.1-17.1,25.5-19.5c0.2-0.7,1.4-1.9,3.4-2.9c4.6-2.4,13-4.3,19.5,1.7c0.2,0.2,0.7,0.5,1,1c2.4,2.4,4.1,5.1,5.3,7.9
	c0.9,2.3,1.6,4.6,2.1,7c0,0.1,0,0.2,0.1,0.3c-6.1-3.9-21.2,5.1-23,6.2c0,0,0,0,0,0c-0.1,0.1-0.1,0.1-0.1,0.1
	c-3.7-3.1-7.4-6.7-8.4-7.7c-0.2-0.2-0.3-0.3-0.3-0.3s0.3,4.7,1.8,9.8c1.4,4.4,3.8,9.1,7.8,11.1c1.4,0.7,3.1,1.2,5.1,1h0.1
	c0.3,0,0.5,0,0.8,0c8.2-0.3,12.3-1,14.1-1.5c0.1,0,0.2,0,0.3-0.1c0.8-0.2,1.1-0.3,1.1-0.3s0,0,0,0.1c0.2,0.4,1.2,2.7,1.9,5.9
	c1.4,5.3,2.5,13.1-1.8,17.3c-0.1,0.1-0.2,0.2-0.3,0.3c-0.1,0.1-0.2,0.1-0.2,0.2c0,0,0,0,0.1,0.1c0.5,0.5,2.7,3.1,3.9,6.9
	C280.2,466.2,280.1,473,272.3,479.1z"/>
<path class="st0" d="M227.8,284C227.8,284,227.8,283.9,227.8,284c-0.2-0.4-0.3-0.8-0.5-1.2c-0.3-0.8-0.7-1.5-1-2.3
	c-0.3-0.7-0.7-1.3-1-1.9c-0.2-0.3-0.4-0.6-0.5-0.9c-0.1-0.2-0.2-0.4-0.3-0.6c-0.4-0.7-0.9-1.3-1.3-1.9c-3.1-4.4-7.1-8.3-11.8-11.5
	c-2.4-1.7-5.3-3.1-8-4.3c-6.5-2.9-13.5-4.3-21.2-4.3c-2.4,0-4.6,0.2-6.7,0.5c-2.4,0.2-4.6,0.7-7,1.4c-20,5.3-34.7,22.2-34.7,41.9
	c0,24.1,21.7,43.6,48.4,43.6c5.5,0,10.8-1,15.7-2.4c0,0,0.1,0,0.1,0c2.1-0.7,4.2-1.4,6.4-2.4c0,0,0.1,0,0.1-0.1
	c0.4-0.2,0.6-0.2,0.8-0.4c0.3-0.2,0.7-0.3,1-0.5c0.2-0.1,0.4-0.2,0.5-0.3c0,0,0,0,0.1,0c1.5-0.8,3-1.8,4.4-2.8
	c0.1-0.1,0.2-0.1,0.3-0.2c6.2-4.3,11.1-9.9,14.4-16.4c0.1-0.2,0.2-0.5,0.4-0.7c2.6-5.3,4-11.2,4-17.4
	C230.5,293.7,229.6,288.6,227.8,284z M210.1,326.4c-1.2,1-2.4,1.9-3.8,2.7c-1.2,0.7-2.4,1.4-3.6,1.9c-2.2,1-4.3,1.9-6.5,2.4
	c-4.3,1.2-8.7,1.9-13.5,1.9c-5.2,0-10.1-0.8-14.7-2.4c-0.2,0-0.3-0.1-0.5-0.2c-15.4-5.3-26.2-18.6-26.2-34.1
	c0-16.9,12.8-31.1,30.1-35.4c2.2-0.5,4.6-1,7-1.2c1.4-0.2,2.9-0.2,4.3-0.2c5,0,9.9,0.8,14.4,2.2c2.2,0.7,4.3,1.6,6.3,2.6
	c1.2,0.5,2.2,1.2,3.1,1.7c2,1.2,3.9,2.7,5.6,4.2c0,0,0,0,0.1,0c0.2,0.2,0.4,0.4,0.6,0.5l1.5,1.4v0l0.5,0.5l0.1,0.3l0.1,0.2
	c0.2,0.2,0.4,0.6,0.8,0.8l0,0c0.1,0,0.1,0.1,0.2,0.1l1.2,1.5c0.5,0.5,1,1.2,1.4,1.9l1.4,2.2c0.2,0.2,0.5,0.7,0.5,1
	c0.5,0.7,0.7,1.4,1,2.2c0.2,0.7,0.7,1.4,1,2.4l0.5,1.2l0.2,1.2c0,0.2,0,0.5,0.2,0.7c0.2,0.5,0.2,1,0.2,1.7c0,0.5,0.2,1,0.2,1.7
	c0,0.2,0,0.5,0.2,1c0,0.5,0.2,1.2,0.2,1.9v4.3c-0.7,0.5-0.7,1.7-1,2.9c0,0.2,0,0.7-0.2,1.2l-0.5,1.7c0,0.5-0.2,1-0.5,1.7l-0.5,1.7
	v0.2l-0.7,1.7l-0.7,1.7v0.2l-0.7,1.2l-0.5,0.7c-0.2,0.5-0.5,1-0.7,1.2l-1,1.5c-0.2,0.5-0.5,0.7-1,1.2l-1.5,1.7c-1,1-1.9,2.2-3.1,3.1
	L210.1,326.4z"/>
<path class="st2" d="M223.8,296.5c0-0.5,0-1.2-0.2-1.9c0-0.2,0-0.5-0.2-1c0-0.5-0.2-1-0.2-1.7c0-0.5-0.2-1-0.2-1.7
	c0-0.2,0-0.5-0.2-0.7l-0.2-1.2c0-0.5-0.2-0.7-0.5-1.2c-0.2-0.7-0.5-1.4-1-2.4l-1-2.2c-0.2-0.2-0.5-0.7-0.5-1l-1.4-2.2l-1.4-1.9
	l-1.2-1.4c-0.2-0.2-0.5-0.7-1-1c0,0-0.2-0.2-0.2-0.5l-1.4-1.4c-0.7-0.7-1.7-1.4-2.7-2.2c-0.7-0.7-1.4-1.2-2.4-1.7l-0.5-0.2l-1.4-1
	c-1-0.7-1.9-1.2-3.1-1.7c-6-3.1-13.3-4.8-20.7-4.8c-1.4,0-2.9,0-4.3,0.2c-2.4,0.2-4.8,0.7-7,1.2c-17.3,4.3-30.1,18.6-30.1,35.4
	c0,20.2,18.6,36.6,41.4,36.6c4.8,0,9.2-0.7,13.5-1.9c2.2-0.7,4.3-1.4,6.5-2.4c1.2-0.5,2.4-1.2,3.6-1.9c1.4-0.7,2.7-1.7,3.9-2.7
	l1.7-1.4c1.2-1,2.2-1.9,3.1-3.1l1.4-1.7l1-1.2l1-1.4c0.2-0.5,0.5-1,0.7-1.2l0.5-0.7l0.7-1.2v-0.2l0.7-1.7l0.7-1.7v-0.2
	c0.2-0.5,0.5-1.2,0.5-1.7c0.2-0.5,0.2-1,0.5-1.7c0.2-0.5,0.2-1,0.5-1.7l0.2-1.2c0.2-1.2,0.2-2.4,0.5-3.4v-2.2
	C223.8,297.9,223.8,297.2,223.8,296.5L223.8,296.5z M193.2,305.4c-1.4,1.9-3.4,3.6-5.8,4.8l-3.6,1.4c-1.7,0.5-3.4,0.7-5.1,0.7
	c-6.7,0-12.3-3.9-14-9.4c-2.2-7.2,3.1-14.9,11.6-17.3c0.7-0.2,1.4-0.5,2.2-0.5c1-0.2,1.9-0.2,2.9-0.2c1.7,0,3.1,0.2,4.6,0.7
	c4.6,1.2,8,4.6,9.2,8.9C196.4,298.2,195.4,302,193.2,305.4z"/>
<path class="st3" d="M195.4,294.3c-1.2-4.3-4.8-7.5-9.2-8.9c-1.4-0.5-2.9-0.7-4.6-0.7c-1,0-1.9,0-2.9,0.2c-0.7,0-1.4,0.2-2.2,0.5
	c-8.4,2.4-13.5,10.1-11.6,17.3c1.7,5.5,7.2,9.4,14,9.4c1.7,0,3.4-0.2,5.1-0.7c1.2-0.5,2.4-0.7,3.6-1.4c2.4-1.2,4.3-2.9,5.8-4.8
	C195.4,302,196.4,298.2,195.4,294.3z M190.6,298.2c-0.2,2.9-2.2,5.3-4.8,7.2l-3.1,1.4c-5.5,1.7-11.3-0.7-12.5-5.1s2.2-9.4,8-11.1
	c1-0.2,1.7-0.5,2.7-0.5c3.4-0.2,6.5,0.7,8.4,2.7c0.7,0.7,1.2,1.7,1.7,2.9C190.6,296.5,190.6,297.2,190.6,298.2z"/>
<path class="st4" d="M190.6,298.2c-0.2,2.9-2.2,5.3-4.8,7.2l-3.1,1.4c-5.5,1.7-11.3-0.7-12.5-5.1s2.2-9.4,8-11.1
	c1-0.2,1.7-0.5,2.7-0.5c3.4-0.2,6.5,0.7,8.4,2.7c0.7,0.7,1.2,1.7,1.7,2.9C190.6,296.5,190.6,297.2,190.6,298.2z"/>
<path class="st1" d="M210.3,271.4c-0.7-0.5-1.4-1.2-2.4-1.7L210.3,271.4z M207.9,269.7c-0.5-0.5-1.2-1-1.7-1.2l1.4,1
	C207.7,269.5,207.7,269.7,207.9,269.7z M212.8,273.8c-0.7-0.7-1.7-1.4-2.7-2.2C211.1,272.2,212,272.9,212.8,273.8z M205.8,328.8
	l1.9-1.2l3.6-2.9l-1.7,1.4C208.4,327.1,207.2,328.1,205.8,328.8L205.8,328.8z"/>
<path class="st0" d="M222.6,252.2l2.9,3.1l-2.9-11.1L265,222l4.6,11.1c-2.2,1-4.1,2.2-6,3.6l-1.9-5.1l-30.6,16.1l8.7,32.5l-18.8-20
	l-9.4,3.4c-2.4-1.7-5.3-3.1-8-4.3L222.6,252.2L222.6,252.2z M293.7,346.6l-11.3,2.4l-2.4,0.5l-13.3,2.7l-4.1,0.7l-20-19.3l1.4,24.6
	l-28.9,8l-3.6-10.4v-0.2l-5.3-18.8c2.2-1,4.1-2.2,6-3.6l7.2,24.6l17.6-4.8l-1-3.9l-0.7-15.2l-1-17.3l30.1,28.9l21.7-4.3l-0.2-4.3h7
	L293.7,346.6L293.7,346.6z"/>
<polygon class="st1" points="214.7,366.1 214.5,366.2 214,366.4 213.9,366.1 211.1,355.8 "/>
<path class="st2" d="M264.6,345.4l-30.1-28.9l1,17.3l0.7,15.2l0.2,3.9l-17.6,4.8l-7.2-24.6c11.6-8,19-20.5,19-34.7
	s-7.7-27-19.3-34.9l9.4-3.4l18.8,20l-8.9-32.5l30.6-16.1l1.9,5.1l-1.7,1.4c-8,6.7-12.5,16.4-12.5,27c0,11.8,8.4,24.6,18.3,29.6
	c-4.1-1.4-6.7-2.4-7-2.4l-9.4-3.6v41.9l5.1,1.4c7,1.9,17.8,4.3,28.9,4.8h0.7l0.2,4.3L264.6,345.4L264.6,345.4z"/>
<path class="st0" d="M322.9,293.8c-1.2-2.9-2.4-5.3-4.1-7.7c-0.7-1.2-1.7-2.2-2.7-3.1c-3.4-3.9-7.7-6-12.3-6.7l-1.7-0.2
	c-2.7-0.5-5.1-1.4-7-2.7c-2.4-1.4-4.3-3.4-5.3-5.1c0-0.2-0.2-0.5-0.2-0.5c0.7,0,1.7-0.2,3.1-0.2h2.4c2.2,0.2,4.6,0.5,7,0.7
	c5.3,1,9.9,1.9,9.9,2.2l8,2.2l2.4-25.3l0.7-7l1.7-16.4l-8.4,0.7c-0.5,0-14.5,1.2-34.7,4.6c-4.6,0.7-8.7,1.9-12.5,3.9
	c-2.2,1-4.1,2.2-6,3.6l-1.7,1.4c-8,6.7-12.5,16.4-12.5,27c0,11.8,8.4,24.6,18.3,29.6c-4.1-1.4-6.7-2.4-6.7-2.4l-9.4-3.6v41.9
	l5.1,1.4c7,1.9,17.8,4.3,28.9,4.8h7.7c11.8-0.5,20.2-3.1,25.8-8.7c0.5-0.5,0.7-1,1.2-1.2c4.1-4.8,5.8-11.1,5.8-17.6
	C325.8,303.7,324.6,298.4,322.9,293.8z M318.8,310c-0.2,4.8-1.4,9.2-4.1,12.3c-4.3,5.1-12.5,7.2-22.2,7.5h-7
	c-9.2-0.5-18.8-2.2-27.5-4.6v-26.5c0,0,15.9,6.3,26.3,7.7c5.1,0.7,8.9,0.5,8.7-2.4c-0.2-6-4.3-10.6-9.6-12.5c-2.2-1-4.6-1.4-7.2-1.4
	c-8.9,0-20-13.7-20-25.1c0-7.2,2.7-15.7,9.9-21.7c1.7-1.4,3.6-2.7,6-3.9c3.1-1.7,6.7-2.9,11.1-3.4c20-3.1,34.2-4.3,34.2-4.3l-1,8.7
	l-0.7,7l-1.7,16.4c0,0-5.3-1.4-11.6-2.4c-2.2-0.2-4.6-0.7-7-0.7c-5.5-0.2-10.6,0.2-12,3.1c-2.9,5.8,2.9,13.5,12,17.3
	c1.9,0.7,4.1,1.4,6.3,1.9l1.4,0.2c8.9,1.2,15.2,13.5,15.7,24.8L318.8,310L318.8,310z"/>
<path class="st2" d="M318.8,307.8v1.9c-0.2,4.8-1.4,9.2-4.1,12.3c-4.3,5.1-12.5,7.2-22.2,7.5h-7c-9.2-0.5-18.8-2.2-27.5-4.6v-26.3
	c0,0,15.9,6.3,26.3,7.7c5.1,0.7,8.9,0.5,8.7-2.4c-0.2-6-4.3-10.6-9.6-12.5c-2.2-1-4.6-1.4-7.2-1.4c-8.9,0-20-13.7-20-25.1
	c0-7.2,2.7-15.7,9.9-21.7c1.7-1.4,3.6-2.7,6-3.9c3.1-1.7,6.7-2.9,11.1-3.4c20-3.1,34.2-4.3,34.2-4.3l-1,8.7l-0.7,7l-1.7,16.4
	c0,0-5.3-1.4-11.6-2.4c-2.2-0.2-4.6-0.7-7-0.7c-5.5-0.2-10.6,0.2-12,3.1c-2.9,5.8,2.9,13.5,12,17.3c1.9,0.7,4.1,1.4,6.3,1.9l1.4,0.2
	C312,284.2,318.5,296.5,318.8,307.8L318.8,307.8z"/>
<path class="st0" d="M325.8,276v33c0-5.3-1.2-10.6-2.9-15.2c-1.2-2.9-2.4-5.3-4.1-7.7c-0.7-1.2-1.7-2.2-2.7-3.1
	c-3.4-3.9-7.7-6-12.3-6.7l-1.7-0.2C302.1,276,325.8,276,325.8,276z M369.1,275.3l-5.3,7h-6.5v8.4l-6.7,8.9v-24.3H369.1z
	 M382.6,240.3v17.6l-7,8.9v-19.5h-53l0.7-7H382.6z M357.3,332.9v21h-38.6v-26l1.2-1.2c4.1-4.8,5.8-11.1,5.8-17.6v38.1h24.8v-16.6
	C350.6,330.5,357.3,332.9,357.3,332.9z"/>
<path class="st2" d="M375.6,247.3v19.5l-6.5,8.4h-18.8v24.3L332,323.5l18.3,6.7v16.6h-24.8V276h-20.2c-3.6,0-7-0.7-10.1-2.7
	c-2.4-1.4-4.3-3.4-5.3-5.1c0-0.2-0.2-0.5-0.2-0.5c0.7,0,1.7-0.2,3.1-0.2h2.4c2.2,0.2,4.6,0.5,7,0.7c5.3,1,9.9,1.9,9.9,2.2l8,2.2
	l2.4-25.3L375.6,247.3L375.6,247.3z"/>
<path class="st0" d="M489.3,312c-0.5-7-4.6-14.3-12.2-21.7l-0.2-0.2c-1.6-1.6-3.2-3-5-4.4c-0.1-0.1-0.2-0.1-0.3-0.2
	c-14.5-11.8-32.8-20.2-33.7-20.7l-7-3.1l-9.6,28.9l-2.9-37.1l-27.7-5.5l-8,10.4l-7,8.9l-6.5,8.4l-5.3,7l-6.5,8.4l-7,9.1l-18,23.5
	L332,324l18.3,6.7l0.2,0.1l6.8,2.6l7.5,2.7l10.1-10.8l14.7,6l4.8,18.3l6.7,1.4l-5.5,16.9l23.6,8l2.2,0.7l8.2,2.9l1.2,0.5l8-22.6v21
	l33.5,10.8v-45.5c7.5-4.1,16.9-13.5,17.1-30.1C489.4,312.9,489.3,312.4,489.3,312z M395.4,325.6l-22.2-9.2l-10.1,11.1l-0.2-0.1
	l-5.4-2.1l-7-2.7l-7.1-2.6l-0.1-0.1l7.2-9.1l7-9.2l15.2-19.8l2.2-2.9l7.7-10.1l10.8-14l18.3,3.6l3.9,48.2l1.5,17.8l1.7,22.2h0
	l-0.2,0l-15.2-3.1l-3.4-0.5L395.4,325.6z M465,338.9v40l-19.5-6.3v-36.1h-7.2l-5.5,15.4l-6.5,18.6l-22.2-7.5l3.9-11.1l18.3,3.9
	l-3.8-47.7l12.3-37.1c0,0,18.3,8.4,32.1,19.5c1.9,1.4,3.6,3.1,5.3,4.6c5.8,5.8,10.1,12.1,9.9,18.3c0,11.3-5,17.9-9.6,21.5
	C468.5,337.9,465,338.9,465,338.9z"/>
<path class="st5" d="M363.8,282.3l-6.5,8.4v-8.4H363.8z"/>
<path class="st2" d="M418.8,347.1l-15.4-3.1l-3.4-0.7l-4.6-17.6l-22.2-9.2l-10.4,11.1l-5.5-2.2l-6.7-2.4l-7.2-2.7l7.2-9.4l6.7-8.9
	l15.2-19.8l10.1-13l10.8-14l18.3,3.6l3.9,48.2l1.2,17.8L418.8,347.1z"/>
<path class="st0" d="M378,302.3l21.4-34l3.6,39.5L378,302.3z"/>
<path class="st5" d="M396.8,278.9l-13.3,21.2l15.4,3.4L396.8,278.9z"/>
<path class="st2" d="M482.1,313.4c-0.2,20.7-17.1,25.5-17.1,25.5v40l-19.5-6.3v-36.1h-7.2l-5.5,15.4l-6.5,18.6l-22.2-7.5l3.9-11.1
	l18.3,3.9l-3.9-47.7l12.3-37.1c0,0,18.3,8.4,32,19.5c1.9,1.4,3.6,3.1,5.3,4.6C478,300.8,482.4,307.1,482.1,313.4z"/>
<path class="st0" d="M454.4,323.7c-1,0-1.9-0.2-2.9-0.5l-10.6-4.1l6.7-14.7l9.9,4.3c1.9,1,3.4,2.4,4.1,4.3s0.5,4.1-0.2,6
	C460,322.3,457.3,323.7,454.4,323.7L454.4,323.7z"/>
<path class="st5" d="M449.4,309l-3.6,8.2l7.2,2.9c2.2,0.7,4.3,0,5.3-2.2c1-2.2,0.2-4.8-2.2-5.8L449.4,309z"/>
<path class="st6" d="M354.2,529.2c7,0,14.2-1.9,18.8-5.3c0,0.2-0.1,0.4-0.2,0.6c-1.4,5.1-3,9.7-4.9,14.1c-5.1,11.1-12,19-21.9,21.9
	c-8,2.5-16.7,3.3-25.4,2.6c-3.8-0.3-7.6-0.9-11.3-1.7c-1.2-0.3-2.3-0.5-3.5-0.9c-20.9-5.8-40.2-20.1-49.1-41.1
	c0-0.1-0.1-0.2-0.2-0.4c6.7-0.7,10.8-3.8,13-6.5c0.1-0.1,0.2-0.2,0.3-0.3c0.6-0.7,1-1.5,1.4-2.1c1.9-3.4,2.7-7,2.9-9.6
	c1.6-1.7,2.8-3.5,3.7-5.5c0-0.1,0.1-0.2,0.1-0.2c1.8-4.3,2-9.1,1.7-13c4.6-4.8,6.3-9.9,6.5-13.5c0-0.3,0-0.7,0.1-1
	c0.2-5.1-1.4-9.6-3-12.5c0,0,0-0.1,0.1-0.1c0.4-0.8,0.7-1.6,1-2.4c0,0,0,0,0,0c2.6-8-0.3-17.7-1.8-22c0-0.1,0-0.1,0-0.2
	c0.5-2.3,0.9-5.3,1-8.8c0-0.8,0-1.6,0-2.4c-0.1-5.3-1.1-11.3-3.9-17.2c-1.5-3.1-3.6-6.3-6.3-9.1l-1.9-1.9c0-0.1,0.1-0.1,0.1-0.2
	c5.3-7.2,12.5-15.3,21.6-21.8c0.2-0.1,0.4-0.2,0.5-0.4c8.6-5.8,18.7-10,30.3-10c15.3-0.1,27,2.9,35.5,9c4.2,3,7.7,6.8,10.5,11.3
	c3.1,5,5.4,11,6.9,17.8c0.4,1.8,0.7,3.7,1,5.6c0,0.1,0,0.2,0,0.3c-6.3,1.2-12.8,6.8-14.4,18.3c0,0.2-0.1,0.4-0.1,0.5
	c-0.2,1.5-0.4,3.2-0.4,5.1c0,0.3,0,0.6,0,0.9c-2.6,0-6-0.2-9.6-0.5c-1.7-0.2-3.4-0.2-4.8-0.2c-14.5,0-18.8,8.9-22.2,15.9
	c-1.5,3.1-2.1,6.6-2.1,10c0,0.5,0,1,0,1.5c0.2,5.3,1.5,10.2,2.6,13.3c0,0,0,0.1,0,0.1c-2,4.8-2.8,9.7-2.8,14.4c0,0.5,0,1,0,1.5
	c0.1,8.1,2.3,15.2,3.6,18.7l0,0.2c-0.1,0.7-0.2,1.3-0.2,2c0,0.2,0,0.3,0,0.5c0,5.7,3.3,10.6,6.5,13.5l0.5,1c2.3,4.9,6.9,8.3,13,9.7
	C349.5,529,351.8,529.2,354.2,529.2z"/>
<path class="st0" d="M576.6,504.7c-0.2,3.4-1.9,8.4-7.7,12.3c-1.2,1-2.9,2.2-4.6,3.4c-12.8,9.6-36.9,27.7-69.6,28.2h-1.2
	c-36.9,0-96.1-19-103.9-22.7c-1.4-0.7-2.7-1.4-4.1-1.6c-0.1,0-0.2,0-0.3-0.1c-2.7-1-5.1-1.4-7-1.4c-1.6,0-3,0.3-4.3,1c0,0,0,0,0,0
	c-0.3,0.1-0.5,0.3-0.8,0.5l-0.2,0.2c0,0-0.1,0.1-0.2,0.1v0c-4.6,3.1-11.7,5.2-18.6,5.2c-2.4,0-4.6-0.2-6.7-0.7
	c-6.2-1.4-10.8-4.8-13.1-9.9l-0.5-1c-3.2-3.2-6.5-8-6.5-13.7c0-0.2,0-0.3,0-0.5c0-0.6,0.1-1.3,0.2-1.9c0,0,0-0.1,0-0.1v0
	c-1.3-3.6-3.5-10.7-3.6-18.9c0-0.5,0-1,0-1.5c0-0.6,0-1.2,0.1-1.9c0.2-4.1,1.1-8.3,2.8-12.4c0,0,0-0.1,0-0.1c0,0,0,0,0,0
	c-1.1-3.1-2.5-8.1-2.6-13.4c0-0.7,0-1.5,0-2.2c0.1-3.1,0.8-6.2,2.1-9.1c3.4-7,7.7-15.9,22.2-15.9c1.4,0,3.1,0,4.8,0.2
	c3.6,0.5,6.7,0.5,9.6,0.5v-0.2c0-0.3,0-0.6,0-0.9c0-1.8,0.1-3.5,0.4-5c0,0,0,0,0,0c0-0.1,0-0.2,0.1-0.3c1.7-11.6,8.2-17.1,14.4-18.3
	l2.2-0.2c3.4,0,6.5,1.5,9.2,4.1c1.9,2.1,3.2,4.7,4.3,7.6c0,0,0,0,0,0c0.1,0.3,0.2,0.6,0.3,1c0.1,0.2,0.1,0.4,0.2,0.5
	c2.2,7.7,2.2,17.1,1.9,21.7c1.2,3.1,5.5,13.5,14,13.5c14-0.2,29.9-5.3,32.8-8.4c0-0.7,0-1.7,0.2-2.4c0.2-5.1,1-16.9,14-16.9
	c1,0,2.2,0,3.1,0.2h1.7c1.9,0,3.4-0.5,4.1-1.4c0.2-0.5,0.2-0.7,0.2-1.2c-2.2-4.1-19.5-21.9-34.5-36.2l-2.4-2.4l0.2-2.7l1.2,0.5
	l8-22.6v5.1l-2.1,16.4l-0.1,0.4c0,0,34,32.5,36.1,38.6c0.3,0.8,0.5,1.7,0.5,2.5c0,0.2,0,0.3,0,0.5c-0.1,5.3-5.1,10-14,8.8
	c-10.4-1.4-8.9,6.5-9.6,14c-0.7,7.5-23.8,13.7-39.3,14c-15.4,0.2-21.2-19.5-21.2-19.5s0-0.1,0-0.4c0,0,0,0,0,0c0-0.2,0-0.4,0-0.8
	c0.1-2.9,0.1-10.4-1-16.9c-1.2-6.3-3.8-11.6-8.9-10.8h-0.5c-5.3,1.2-7.5,6.8-8.2,12.3c-0.2,2-0.3,3.9-0.3,5.6c0,0.3,0,0.7,0,1
	c0,2.3,0.2,4.1,0.3,5c0,0.3,0,0.5,0,0.5s-4.3,1.4-17.6,0c-13.2-1.4-16.1,3.4-20.2,11.8c-1,2.1-1.4,4.6-1.5,7.2
	c-0.1,6.6,2.5,13.3,3,14.7c0.1,0.2,0.1,0.3,0.1,0.3c-2.6,4.7-3.5,9.8-3.5,14.6c0,0.2,0,0.5,0,0.7c0.1,9.1,3.3,17,3.9,18.4
	c0.1,0.2,0.1,0.2,0.1,0.2c-0.3,0.9-0.5,1.7-0.5,2.5c0,0,0,0,0,0c-0.2,5.6,5.6,10,5.6,10c0,0.5,0.2,1,0.5,1.5
	c3.8,10.4,22.4,7.7,28.7,3.1c1.7-1.2,3.6-2.2,5.8-2.4c4.6-1,9.6,0.2,14.5,2.2l3.4,1.4c7.7,3.6,67,22.4,101.9,22.2
	c34.9-0.5,59.5-22.4,70.4-30.1c10.8-7.7,0-19.3,0-19.3s-7.2-51.1-18.8-55.9l-45.3-57.1c0,0-32-34.5-7.2-44.6
	c16.7-6.8,37.3,13.9,49,28.2c0.7,0.8,1.3,1.6,1.9,2.4c3.8,4.8,6.4,8.5,7.1,9.6c0.1,0.2,0.2,0.3,0.2,0.3l13.3-50.1c0,0,0,0-0.1-0.1
	c-1.7-2.1-26.1-32.9-58.7-39.6c-14.7-3.1-23.8-0.1-29.1,4.6c-0.1,0.1-0.2,0.2-0.3,0.2c-1.7-1.7-3.4-3.1-5.3-4.6c0,0,0,0,0,0
	c4.8-4.3,12-8.2,23.6-8.2c3.9,0,8,0.5,12.5,1.4c35.9,7.5,61.9,41,62.9,42.4l2.2,2.7l-18.1,68.4l-8.4-13
	c-9.9-14.9-31.1-38.8-45.5-38.8c-1.4,0-2.9,0.2-4.3,0.7c-3.9,1.4-4.6,3.4-5.1,4.8c-1.7,7.2,7.7,21,14.7,28.7l0.5,0.5l0.2,0.5
	c15.7,24.3,36.4,52,42.2,54.5c13,5.3,19.8,38.6,22.9,59.3C573.7,491.9,577.3,497.9,576.6,504.7z"/>
<path class="st2" d="M565,492.4c0,0-7.2-51.1-18.8-55.9l-45.3-57.1c0,0-32-34.5-7.2-44.6c16.7-6.8,37.3,13.9,49,28.2
	c0.7,0.8,1.3,1.6,1.9,2.4c3.8,4.8,6.4,8.5,7.1,9.6l13.4-49.9c-1.7-2.1-26.1-32.9-58.7-39.6c-14.7-3.1-23.8-0.1-29.1,4.6
	c7.7,7.5,11.5,14.9,12,22c0,0.5,0,0.9,0,1.4c-0.2,16.6-9.6,26-17.1,30.1V389l-33.5-10.8v-15.9l-2.1,16.4c1.5,1.5,34,32.4,36.1,38.5
	c0.4,1,0.5,2,0.5,3c0,0.2,0,0.3,0,0.5c-0.1,5.3-5.1,10-14,8.8c-10.4-1.4-8.9,6.5-9.6,14c-0.7,7.5-23.8,13.7-39.3,14
	c-15.4,0.2-21.2-19.5-21.2-19.5s0-0.1,0-0.4c0,0,0,0,0,0c0,0,0,0,0,0s0-0.3,0-0.7c0.1-2.9,0.1-10.4-1-16.9
	c-1.2-6.3-3.8-11.6-8.9-10.8h-0.5c-5.3,1.2-7.5,6.8-8.2,12.3c-0.2,2-0.3,3.9-0.3,5.6c0,0.3,0,0.7,0,1c0.1,2.9,0.3,5,0.3,5s0,0,0,0
	c0,0.3,0,0.5,0,0.5s-4.3,1.4-17.6,0c-13.2-1.4-16.1,3.4-20.2,11.8c-1,2.1-1.4,4.6-1.5,7.2c0.1,7.2,3.1,14.5,3.1,14.5
	c0,0.1-0.1,0.1-0.1,0.2c0.1,0.2,0.1,0.3,0.1,0.3c-2.6,4.7-3.5,9.8-3.5,14.6c0,0.2,0,0.5,0,0.7c0.2,9.9,4,18.1,4,18.1
	c0,0.1-0.1,0.2-0.1,0.2c0.1,0.2,0.1,0.2,0.1,0.2c-0.3,0.9-0.5,1.7-0.5,2.5c0,0,0,0,0,0c-0.2,5.6,5.6,10,5.6,10c0,0.5,0.2,1,0.5,1.5
	c3.8,10.4,22.4,7.7,28.7,3.1c1.7-1.2,3.6-2.2,5.8-2.4c4.6-1,9.6,0.2,14.5,2.2l3.4,1.4c7.7,3.6,67,22.4,101.9,22.2
	c34.9-0.5,59.5-22.4,70.4-30.1C575.9,503.9,565,492.4,565,492.4z M525.9,456c2.6-1.8,7.2,0.2,10.1,4.4c3,4.3,3.2,9.2,0.6,11
	c-2.6,1.8-7.2-0.2-10.1-4.4C523.5,462.7,523.3,457.8,525.9,456z M481.4,439.8c7.4-2.2,14.4-0.5,15.6,3.7c1.2,4.2-3.8,9.4-11.2,11.5
	c-7.4,2.2-14.4,0.5-15.6-3.7C469,447.1,474,441.9,481.4,439.8z"/>
<path class="st2" d="M334.4,467.3c-2.6,4.7-3.5,9.8-3.5,14.6c0-4.9,0.8-10.1,3.4-14.9C334.4,467.2,334.4,467.3,334.4,467.3z"/>
<path class="st2" d="M334.8,501.1c0.1,0.2,0.1,0.2,0.1,0.2c-0.3,0.9-0.5,1.7-0.5,2.5C334.3,502.9,334.5,502,334.8,501.1z"/>
<path class="st2" d="M370.5,432.9c0,0.3,0,0.5,0,0.5s-4.3,1.4-17.6,0c-13.2-1.4-16.1,3.4-20.2,11.8c-1,2.1-1.4,4.6-1.5,7.2
	c0-2.7,0.3-5.4,1.5-7.6c4.1-8.4,7-13.2,20.2-11.8C365.5,434.2,370,433,370.5,432.9z"/>
<path class="st2" d="M388.2,419.8c-1.2-6.3-3.8-11.6-8.9-10.8h-0.5c-5.3,1.2-7.5,6.8-8.2,12.3c-0.2,2-0.3,3.9-0.3,5.6
	c0-1.9,0.1-4,0.3-6.1c0.7-5.5,2.9-11.1,8.2-12.3h0.5c5.1-1,7.5,4.3,8.9,10.8c1.4,6.9,1.1,14.9,1,17.3
	C389.2,433.8,389.3,426.3,388.2,419.8z"/>
<path class="st2" d="M436.7,378.7C436.6,378.7,436.6,378.7,436.7,378.7l2.1-16.9v0.5L436.7,378.7z"/>
<polygon class="st2" points="438.8,377.2 472.2,388 472.2,389 438.8,378.2 "/>
<path class="st2" d="M459.2,429.5c-10.4-1.4-8.9,6.5-9.6,14c-0.7,7.5-23.8,13.7-39.3,14c-15.4,0.2-21.2-19.5-21.2-19.5s0-0.1,0-0.4
	c0.3,1.2,6,19.7,21.2,19.5c15.4-0.2,38.5-6.5,39.3-14c0.7-7.5-0.7-15.2,9.6-14c8.4,1.2,13.5-3.2,13.9-8.3c0-0.2,0-0.3,0-0.5
	c0,0.2,0,0.3,0,0.5C473.2,426,468.2,430.7,459.2,429.5z"/>
<path class="st2" d="M497.1,443.5c1.2,4.2-3.8,9.4-11.2,11.5c-7.4,2.2-14.4,0.5-15.6-3.7c-1.2-4.2,3.8-9.4,11.2-11.5
	C488.8,437.6,495.8,439.3,497.1,443.5z"/>
<path class="st2" d="M536,460.4c3,4.3,3.2,9.2,0.6,11c-2.6,1.8-7.2-0.2-10.1-4.4c-3-4.3-3.2-9.2-0.6-11
	C528.5,454.2,533.1,456.2,536,460.4z"/>
<path class="st2" d="M544.7,365.3c3.8,4.8,6.4,8.5,7.1,9.6l0,0.1C551.8,375,549.1,371,544.7,365.3z"/>
<path class="st2" d="M565.3,324.7l-0.1,0.4c-1.7-2.1-26.1-32.9-58.7-39.6c-14.7-3.1-23.8-0.1-29.1,4.6c0,0,0,0,0,0l-0.2-0.2
	c5.3-4.6,14.5-8,29.4-4.8C540.2,291.9,565.3,324.7,565.3,324.7z"/>
<path class="st7" d="M420.9,376.5l-2.2-0.7l-36.6,3.6l8-16.1l-14.9,6l-2.9-11.1h-15.2l-2.7-3.8h-35.9v-7l-23.4,10.8l-13.2-8.9
	l-2.4,0.5l2.2,16.9l-15.4-14.2l-4.1,0.7l-19.5-18.8l-0.5-0.5l1.4,24.5l0,0.1l12.5,15.7l-29.4,1.2l15.7,14.2c3.9-2.8,9.3-4.4,14-4.5
	c0.2,0,0.5,0,0.7,0c0.3,0,0.7,0,1,0c4.9,0.2,9.4,2.1,13.2,5.3c0,0,0.1-0.1,0.1-0.1c5.1-7.1,12.4-15.4,21.6-21.8
	c8.6-5.9,18.9-10.2,30.8-10.4c15.4-0.2,27.1,2.8,35.7,8.9c4.3,3.1,7.8,7,10.6,11.6c3,5,5.2,10.8,6.6,17.5c0.4,1.9,0.8,3.9,1.1,6
	c0.1,0,0.1,0,0.2-0.1c0.7-0.2,1.3-0.2,2-0.2c3.6,0,6.8,1.4,9.2,4.1c2.2,2,3.6,4.9,4.5,8.1c0.1,0.3,0.2,0.7,0.3,1l0.1-0.1l13-9.8
	l-10.4-6L420.9,376.5z M379.7,533.1l5.8-8.9l0.2-0.3c-2.7-1-5.1-1.4-7-1.4c-2,0-3.6,0.4-4.8,1.2c-0.1,0.1-0.2,0.1-0.3,0.2
	c0,0.2-0.2,0.2-0.2,0.2c-4.8,18.3-13,32.5-27,36.6c-11.6,3.5-24.6,3.6-37.2,0.6c-1.2-0.3-2.3-0.5-3.5-0.9
	c-20.9-5.9-40-20.2-48.7-41.2c-0.1,0-0.2,0.1-0.3,0.1c-0.4,0.1-1,0.1-1.4,0.1c-3.1,0.2-6,0.5-8.4,0.7c-0.5,8-1.2,16.9-3.4,21.2
	l14.5-1.9l-21.7,33.2l39-16.9v16.9l18.5-7.2l14.2,14.5l14-9.6l16.1,3.1l15.9-10.1h10.1l8-16.9l23.1-4.1L379.7,533.1z"/>
<path class="st1" d="M279.7,401.1c0,0,56.9-57.6,97.3-4.6 M293,368.3c0,0,30.8-5.8,27.9,24.6c-2.9,30.4-25.3,26.3-27.9,54
	c-2.7,27.7-8.4,78.3,10.6,90.6c19,12.3,36.9,19.3,64.3,1.2 M347.4,528.5c0,0,4.8,17.6-27,34.7 M359.5,366.8c0,0,14.9,37.3-14.5,59.5
	"/>
<path class="st8" d="M495.4,421.8c0,0-14.2-5.8-22.4-1 M334.4,467.1c0,0,44.6,1.9,42.6-12.8 M334.9,501.1c0,0,25.1,2.7,28.2-6.7
	c3.4-9.2,15.9-6.7,15.9-6.7 M340,513.6c0,0,11.1,2.4,14-2.9 M71.1,405.2c0,0,30.4-23.1,51.1-14.5 M234.7,458.6c0,0,14,8.4,21.4,6.5
	l18.8-10.8 M230.8,478.6c0,0,8.2,1,13.7,3.6c5.5,2.7,21,5.5,27.7-3.1 M236.1,494.3l31.3,2.9"/>
<path class="st9" d="M275.4,430.5c0,0-2.9,1.2-16.4,1.9c-1.9,0-3.6-0.2-5.1-1c-8.9-4.3-9.6-21-9.6-21s4.3,4.3,8.7,8
	c2.7,2.2,5.3,4.3,7,4.8C264.1,424.7,273.7,425.6,275.4,430.5L275.4,430.5z"/>
<path class="st10" d="M275.4,430.3c0,0,0,0.1,0,0.1c-0.3-0.8-0.7-1.4-1.3-2c-0.2-0.2-0.5-0.5-0.8-0.7c-0.8-0.6-1.9-1.2-3-1.6
	c-3.5-1.5-8-2.2-10.5-3.2c-1.6-0.7-4.2-2.6-6.8-4.7c-0.1,0-0.1-0.1-0.2-0.1c0,0,16.5-10.3,23.1-6.3c0,0,0,0,0.1,0c0.2,1,0.4,2,0.5,3
	c0,0.2,0,0.4,0.1,0.6C277.1,420.8,276.6,426,275.4,430.3z"/>
<path class="st8" d="M228.9,420.8c0,0,14.9,5.1,17.1-0.7 M127.9,430.5c0,0-27.7,0.2-34.5-10.6 M478.3,460.6c0,0,33.7-0.5,36.1-6.5"
	/>
<path class="st11" d="M536.6,471.4c-2.6,1.8-7.2-0.2-10.1-4.4c-3-4.3-3.2-9.2-0.6-11c2.6-1.8,7.2,0.2,10.1,4.4
	C539,464.7,539.2,469.6,536.6,471.4z"/>
<path class="st11" d="M485.9,455c-7.4,2.2-14.4,0.5-15.6-3.7c-1.2-4.2,3.8-9.4,11.2-11.5c7.4-2.2,14.4-0.5,15.6,3.7
	C498.3,447.7,493.3,452.9,485.9,455z"/>
<path class="st8" d="M385.8,516.7c0,0,8.9-11.1,7.2-17.8"/>
<ellipse class="st11" cx="116.6" cy="471.9" rx="9.2" ry="4.8"/>
<ellipse class="st11" cx="143.8" cy="437.2" rx="10.1" ry="4.8"/>
<ellipse class="st11" cx="208.2" cy="477.2" rx="4.6" ry="10.1"/>
<path class="st11" d="M79.8,442.3c0,0,7.7,16.1,21,7.2c13.3-8.9-4.3-12.8-8.9-17.1C87.5,428,63.9,427.3,79.8,442.3z"/>
</svg>
