<?xml version="1.0" encoding="utf-8"?>
<!-- Generator: Adobe Illustrator 18.1.1, SVG Export Plug-In . SVG Version: 6.00 Build 0)  -->
<!DOCTYPE svg PUBLIC "-//W3C//DTD SVG 1.1//EN" "http://www.w3.org/Graphics/SVG/1.1/DTD/svg11.dtd">
<svg version="1.1" id="Layer_1" xmlns="http://www.w3.org/2000/svg" xmlns:xlink="http://www.w3.org/1999/xlink" x="0px" y="0px"
	 viewBox="0 0 254 176" style="enable-background:new 0 0 254 176;" xml:space="preserve">
<style type="text/css">
	.st0{fill:#F9ED32;stroke:#000000;stroke-miterlimit:10;}
	.st1{fill:none;stroke:#000000;stroke-miterlimit:10;}
	.st2{fill:#662D91;stroke:#000000;stroke-miterlimit:10;}
	.st3{fill:#F9ED32;stroke:#000000;stroke-width:0.7057;stroke-miterlimit:10;}
	.st4{stroke:#000000;stroke-width:0.7057;stroke-miterlimit:10;}
	.st5{stroke:#000000;stroke-miterlimit:10;}
	.st6{fill:#F7941E;stroke:#000000;stroke-miterlimit:10;}
	.st7{fill:#F15A29;stroke:#000000;stroke-miterlimit:10;}
	.st8{fill:none;stroke:#000000;stroke-linecap:round;stroke-miterlimit:10;}
	.st9{fill:#5D53A3;stroke:#000000;stroke-linecap:round;stroke-miterlimit:10;}
	.st10{stroke:#000000;stroke-linecap:round;stroke-miterlimit:10;}
	.st11{fill:#262262;stroke:#000000;stroke-linecap:round;stroke-miterlimit:10;}
</style>
<path class="st0" d="M118.8,118c-0.1,1.5-0.8,3.6-2.7,5.6c0.3,2.4-0.1,5.5-2.3,7.8c-0.1,1.1-0.4,2.6-1.2,4c-0.2,0.4-0.4,0.7-0.7,1
	c-0.9,1.1-2.6,2.4-5.4,2.7c-0.2,0-0.5,0.1-0.7,0.1c-1.3,0.1-2.4,0.2-3.5,0.3c-0.4,0-0.7,0.1-1.1,0.1c-1.5,0.2-2.7,0.3-4,0.3
	c-1.8,0-3.3-0.3-4.8-1c-0.2-0.1-1.1-0.4-3.2-0.4c-3.4,0-7,0.8-7.6,1.1c-1.7,0.8-11.7,2.4-22.4,2.4c-11.2,0-26.2-1.7-34.6-9.9
	c-11-10.8-14.1-22.4-13.3-29.1c0.4-3.2,1.6-5.5,3.5-6.7c1.3-0.8,1.2-4.4,0.6-6.5l-0.2-0.6l0.1-0.6c0.9-5.9,3.4-19.8,6.8-22.9
	c1.7-1.6,1.2-5.7,0.7-7.2c-0.7-2-3.4-16.9-4-19.9l-0.5-2.5l18.1-5.5l10.8,10.8V27.3l18-15.7l7.1,16.8l0.5,1.3
	c-1,0.1-1.9,0.3-2.9,0.6l-0.3-0.9l-5.5-13l-14,12.2v19.7L35.6,33.8l-14,4.2c0,0,3.2,17.6,3.9,19.5c0.6,1.9,1.5,7.5-1.5,10.3
	s-5.9,21.2-5.9,21.2s2,7.4-1.9,9.8c-3.9,2.4-3.9,17.2,10.4,31.2s51.8,7.9,53.7,7c1.8-0.9,10-2.2,13.3-0.8c2.7,1.2,4.9,0.7,8.7,0.3
	c0.9-0.1,2-0.2,3.2-0.3c0,0,0.1,0,0.1,0c2.8-0.2,4.2-1.6,4.8-3c0.7-1.6,0.5-3.3,0.5-3.3c3.5-2.3,2-7.5,2-7.5
	c6-4.7,1.2-10.3,1.2-10.3c2.1-1.6,1.6-5,1-7.4c-0.4-1.4-0.8-2.5-0.8-2.5c0.5-2.2,0.8-5,0.2-7.7c-0.2-1-0.5-2-0.9-3
	c-0.5-1.2-1.3-2.3-2.2-3.3c-0.1-0.1-0.2-0.3-0.4-0.4c-2.7-2.5-6.2-1.7-8.1-0.7c-0.8,0.4-1.3,0.9-1.4,1.2c-0.3,1-6.6,7.9-10.6,8.1
	s-3,6.2-3,11.2s-20.5-4.2-20.5-4.2c-4.5-8.2-16.7-17.8-16.7-17.8l-3-14.5l9.2,8l5.5-2.8l0.2-12.2l12.2,24.8l13-8.2l-5.7-16.1
	c0.9-0.3,1.8-0.6,2.7-1l2.7,7.6l0,0.1l1.2,4.3l0.3-0.1l2.3,6.4L73.7,93.2l-8.5-17.1l0,2.2l-8.8,4.4l-4.3-3.7l1.1,5.2
	c2.8,2.3,11.9,9.9,16.2,17.1c4.6,2,12,4.8,15.6,5.1c0-0.3,0-0.7,0-1c-0.2-4.5-0.4-11.3,5.8-11.6c2.1-0.1,7.1-4.7,8.1-6.4
	c0.3-0.8,1-1.5,1.8-2.1c1.6-1.2,4-1.9,6.1-1.9c2.2,0,4.2,0.7,5.9,2.2c0.3,0.2,0.6,0.5,0.8,0.8c1.1,1.2,2,2.5,2.6,3.8
	c2.2,4.6,1.7,9.5,1.2,11.9c0.8,2,2.2,6.8,0.3,10.2C118.4,113.7,119,115.7,118.8,118z"/>
<polygon class="st1" points="89.1,75.6 88.8,75.7 87.6,71.3 "/>
<path class="st2" d="M113,122.5c0,0,1.5,5.2-2,7.5c0,0,0.2,1.7-0.5,3.3c-0.6,1.5-2,2.8-4.8,3c0,0-0.1,0-0.1,0
	c-1.2,0.1-2.2,0.2-3.2,0.3c-3.8,0.4-6.1,0.9-8.7-0.3c-3.3-1.5-11.5-0.2-13.3,0.8c-1.8,0.9-39.4,7-53.7-7s-14.2-28.9-10.4-31.2
	c3.9-2.4,1.9-9.8,1.9-9.8S21,70.6,24,67.8s2.1-8.4,1.5-10.3c-0.6-1.9-3.9-19.5-3.9-19.5l14-4.2l14.5,14.5V28.6l14-12.2l5.5,13
	l0.3,0.9c-8.3,2.2-14.4,9.2-14.4,17.4c0,10,9,18.1,20.1,18.1c2.3,0,4.5-0.4,6.5-1l5.7,16.1l-13,8.2L62.6,64.3l-0.2,12.2l-5.5,2.8
	l-9.2-8l3,14.5c0,0,12.2,9.5,16.7,17.8c0,0,20.5,9.2,20.5,4.2s-1-11,3-11.2s10.4-7.1,10.6-8.1c0.1-0.3,0.6-0.8,1.4-1.2
	c1.9-1,5.4-1.8,8.1,0.7c0.1,0.1,0.3,0.2,0.4,0.4c1,1,1.7,2.1,2.2,3.3c0.4,1,0.7,2,0.9,3c-2.7-1.7-9.6,2.6-9.6,2.6
	c-1.8-1.5-3.6-3.3-3.6-3.3s0.4,6.9,4,8.7c0.6,0.3,1.3,0.5,2.1,0.4c5.6-0.2,6.8-0.8,6.8-0.8s0.5,1,0.8,2.5c0.6,2.3,1.1,5.7-1,7.4
	C114.1,112.2,119,117.8,113,122.5z"/>
<path class="st0" d="M87.7,33.1c-1-0.7-2.2-1.3-3.3-1.8c-2.7-1.2-5.6-1.8-8.8-1.8c-1,0-1.9,0.1-2.8,0.2c-1,0.1-1.9,0.3-2.9,0.6
	c-8.3,2.2-14.4,9.2-14.4,17.4c0,10,9,18.1,20.1,18.1c2.3,0,4.5-0.4,6.5-1c0.9-0.3,1.8-0.6,2.7-1c0.2-0.1,0.3-0.1,0.4-0.2
	c0.9-0.4,1.7-0.9,2.5-1.5c4.8-3.3,7.9-8.5,7.9-14.4C95.8,41.7,92.6,36.4,87.7,33.1z M92.7,49.9c0,0.1,0,0.3-0.1,0.5
	c-0.1,0.2-0.1,0.5-0.2,0.7c0,0.2-0.1,0.4-0.2,0.7c-0.1,0.2-0.1,0.5-0.2,0.7c0,0,0,0.1,0,0.1c-0.1,0.2-0.2,0.5-0.3,0.7c0,0,0,0,0,0
	c-0.1,0.2-0.2,0.5-0.3,0.7c0,0,0,0,0,0.1c-0.1,0.2-0.2,0.3-0.3,0.5c-0.1,0.1-0.1,0.2-0.2,0.3c-0.1,0.2-0.2,0.4-0.3,0.5
	c-0.1,0.2-0.3,0.4-0.4,0.6c-0.1,0.2-0.2,0.3-0.4,0.5c-0.2,0.2-0.4,0.5-0.6,0.7c-0.4,0.4-0.8,0.9-1.3,1.3c-0.2,0.2-0.5,0.4-0.7,0.6
	c-0.5,0.4-1,0.8-1.6,1.1c-0.5,0.3-1,0.6-1.5,0.8c-0.9,0.4-1.8,0.8-2.7,1c-1.8,0.5-3.6,0.8-5.6,0.8c-9.5,0-17.2-6.8-17.2-15.2
	c0-7,5.3-12.9,12.5-14.7c0.9-0.2,1.9-0.4,2.9-0.5c0.6-0.1,1.2-0.1,1.8-0.1c3.1,0,6.1,0.7,8.6,2c0.5,0.2,0.9,0.5,1.3,0.7
	c1,0.6,2,1.4,2.8,2.2c0.2,0.2,0.4,0.4,0.6,0.6c0,0.1,0.1,0.1,0.1,0.2c0.1,0.1,0.2,0.3,0.4,0.4c0.2,0.2,0.3,0.4,0.5,0.6
	c0.2,0.2,0.4,0.5,0.6,0.8c0.2,0.3,0.4,0.6,0.6,0.9c0.1,0.1,0.2,0.3,0.2,0.4c0.2,0.3,0.3,0.6,0.4,0.9c0.1,0.3,0.3,0.6,0.4,1
	c0.1,0.2,0.1,0.3,0.2,0.5c0,0.2,0.1,0.3,0.1,0.5c0,0.1,0,0.2,0.1,0.3c0.1,0.2,0.1,0.4,0.1,0.7c0,0.2,0.1,0.4,0.1,0.7
	c0,0.1,0,0.2,0.1,0.4c0,0.2,0.1,0.5,0.1,0.8c0,0.3,0,0.6,0,0.9c0,0.3,0,0.6,0,0.9C92.8,48.9,92.8,49.4,92.7,49.9z"/>
<path class="st2" d="M92.9,46.7c0-0.2,0-0.5-0.1-0.8c0-0.1,0-0.2-0.1-0.4c0-0.2-0.1-0.4-0.1-0.7c0-0.2-0.1-0.4-0.1-0.7
	c0-0.1,0-0.2-0.1-0.3c0-0.2-0.1-0.3-0.1-0.5c0-0.2-0.1-0.3-0.2-0.5c-0.1-0.3-0.2-0.6-0.4-1c-0.1-0.3-0.3-0.6-0.4-0.9
	c-0.1-0.1-0.2-0.3-0.2-0.4c-0.2-0.3-0.4-0.6-0.6-0.9c-0.2-0.3-0.4-0.5-0.6-0.8c-0.2-0.2-0.3-0.4-0.5-0.6c-0.1-0.1-0.2-0.3-0.4-0.4
	c0,0-0.1-0.1-0.1-0.2c-0.2-0.2-0.4-0.4-0.6-0.6c-0.3-0.3-0.7-0.6-1.1-0.9c-0.3-0.3-0.6-0.5-1-0.7c-0.1,0-0.1-0.1-0.2-0.1l-0.6-0.4
	c-0.4-0.3-0.8-0.5-1.3-0.7c-2.5-1.3-5.5-2-8.6-2c-0.6,0-1.2,0-1.8,0.1c-1,0.1-2,0.3-2.9,0.5c-7.2,1.8-12.5,7.7-12.5,14.7
	c0,8.4,7.7,15.2,17.2,15.2c2,0,3.8-0.3,5.6-0.8c0.9-0.3,1.8-0.6,2.7-1c0.5-0.2,1-0.5,1.5-0.8c0.6-0.3,1.1-0.7,1.6-1.1
	c0.2-0.2,0.5-0.4,0.7-0.6c0.5-0.4,0.9-0.8,1.3-1.3c0.2-0.2,0.4-0.5,0.6-0.7c0.1-0.2,0.3-0.3,0.4-0.5c0.1-0.2,0.3-0.4,0.4-0.6
	c0.1-0.2,0.2-0.4,0.3-0.5c0.1-0.1,0.1-0.2,0.2-0.3c0.1-0.2,0.2-0.3,0.3-0.5c0,0,0,0,0-0.1c0.1-0.2,0.2-0.5,0.3-0.7c0,0,0,0,0,0
	c0.1-0.2,0.2-0.5,0.3-0.7c0,0,0-0.1,0-0.1c0.1-0.2,0.2-0.5,0.2-0.7c0.1-0.2,0.1-0.4,0.2-0.7c0.1-0.2,0.1-0.4,0.2-0.7
	c0-0.2,0.1-0.3,0.1-0.5c0.1-0.5,0.1-1,0.2-1.4c0-0.3,0-0.6,0-0.9C92.9,47.3,92.9,47,92.9,46.7z M80.2,50.4c-0.6,0.8-1.4,1.5-2.4,2
	c-0.5,0.2-1,0.4-1.5,0.6c-0.7,0.2-1.4,0.3-2.1,0.3c-2.8,0-5.1-1.6-5.8-3.9c-0.9-3,1.3-6.2,4.8-7.2c0.3-0.1,0.6-0.2,0.9-0.2
	c0.4-0.1,0.8-0.1,1.2-0.1c0.7,0,1.3,0.1,1.9,0.3c1.9,0.5,3.3,1.9,3.8,3.7C81.5,47.4,81.1,49,80.2,50.4z"/>
<path class="st3" d="M81.1,45.8c-0.5-1.8-2-3.1-3.8-3.7c-0.6-0.2-1.2-0.3-1.9-0.3c-0.4,0-0.8,0-1.2,0.1c-0.3,0-0.6,0.1-0.9,0.2
	c-3.5,1-5.6,4.2-4.8,7.2c0.7,2.3,3,3.9,5.8,3.9c0.7,0,1.4-0.1,2.1-0.3c0.5-0.2,1-0.3,1.5-0.6c1-0.5,1.8-1.2,2.4-2
	C81.1,49,81.5,47.4,81.1,45.8z M79.1,47.4C79.1,47.4,79.1,47.4,79.1,47.4c-0.1,1.2-0.9,2.2-2,3v0c-0.4,0.2-0.9,0.4-1.3,0.6
	c-2.3,0.7-4.7-0.3-5.2-2.1c-0.5-1.8,0.9-3.9,3.3-4.6c0.4-0.1,0.7-0.2,1.1-0.2c1.4-0.1,2.7,0.3,3.5,1.1c0,0,0,0,0,0
	c0.3,0.3,0.5,0.7,0.7,1.2C79.1,46.7,79.1,47,79.1,47.4z"/>
<path class="st4" d="M79.1,47.4C79.1,47.4,79.1,47.4,79.1,47.4c-0.1,1.2-0.9,2.2-2,3v0c-0.4,0.2-0.9,0.4-1.3,0.6
	c-2.3,0.7-4.7-0.3-5.2-2.1c-0.5-1.8,0.9-3.9,3.3-4.6c0.4-0.1,0.7-0.2,1.1-0.2c1.4-0.1,2.7,0.3,3.5,1.1c0,0,0,0,0,0
	c0.3,0.3,0.5,0.7,0.7,1.2C79.1,46.7,79.1,47,79.1,47.4z"/>
<path class="st1" d="M87.3,36.3c-0.3-0.2-0.6-0.5-1-0.7C86.6,35.8,87,36.1,87.3,36.3z"/>
<path class="st1" d="M86.3,35.6c-0.2-0.2-0.5-0.4-0.7-0.5l0.6,0.4C86.2,35.5,86.2,35.6,86.3,35.6z"/>
<path class="st1" d="M88.3,37.3c-0.3-0.3-0.7-0.6-1.1-0.9C87.6,36.6,88,36.9,88.3,37.3z"/>
<path class="st1" d="M85.4,60.1l0.8-0.5c0.5-0.4,1-0.8,1.5-1.2c-0.2,0.2-0.5,0.4-0.7,0.6C86.5,59.4,86,59.8,85.4,60.1z"/>
<path class="st0" d="M92.4,28.3l1.2,1.3L92.4,25l17.6-9.2l1.9,4.6c-0.9,0.4-1.7,0.9-2.5,1.5l-0.8-2.1l-12.7,6.7L99.5,40l-7.8-8.3
	l-3.9,1.4c-1-0.7-2.2-1.3-3.3-1.8L92.4,28.3z"/>
<path class="st0" d="M121.9,67.5l-4.7,1l-1,0.2l-5.5,1.1l-1.7,0.3l-8.3-8l0.6,10.2l0,0l-12,3.3l-1.5-4.3l0-0.1l-2.2-7.8
	c0.9-0.4,1.7-0.9,2.5-1.5l3,10.2l7.3-2L98,68.5l-0.3-6.3v0L97.3,55l12.5,12l9-1.8l-0.1-1.8c0.6,0,1.2,0,1.8,0c0.4,0,0.7,0,1.1,0
	L121.9,67.5z"/>
<polygon class="st1" points="89.1,75.6 88.8,75.7 87.6,71.3 "/>
<path class="st2" d="M109.8,67L97.3,55l0.4,7.2v0l0.3,6.3l0.1,1.6l-7.3,2l-3-10.2c4.8-3.3,7.9-8.5,7.9-14.4c0-5.9-3.2-11.2-8-14.5
	l3.9-1.4l7.8,8.3l-3.7-13.5l12.7-6.7l0.8,2.1c-0.2,0.2-0.5,0.4-0.7,0.6c-3.3,2.8-5.2,6.8-5.2,11.2c0,4.9,3.5,10.2,7.6,12.3
	c-1.7-0.6-2.8-1-2.9-1l-3.9-1.5v17.4l2.1,0.6c2.9,0.8,7.4,1.8,12,2c0.1,0,0.2,0,0.3,0l0.1,1.8L109.8,67z"/>
<path class="st0" d="M134,45.6c-0.5-1.2-1-2.2-1.7-3.2c-0.3-0.5-0.7-0.9-1.1-1.3c-1.4-1.6-3.2-2.5-5.1-2.8c-0.2,0-0.5-0.1-0.7-0.1h0
	c-1.1-0.2-2.1-0.6-2.9-1.1c-1-0.6-1.8-1.4-2.2-2.1c0-0.1-0.1-0.2-0.1-0.2c0.3,0,0.7-0.1,1.3-0.1c0.3,0,0.7,0,1,0
	c0.9,0.1,1.9,0.2,2.9,0.3c2.2,0.4,4.1,0.8,4.1,0.9l3.3,0.9l1-10.5l0.3-2.9l0.7-6.8l-3.5,0.3c-0.2,0-6,0.5-14.4,1.9
	c-1.9,0.3-3.6,0.8-5.2,1.6c-0.9,0.4-1.7,0.9-2.5,1.5c-0.2,0.2-0.5,0.4-0.7,0.6c-3.3,2.8-5.2,6.8-5.2,11.2c0,4.9,3.5,10.2,7.6,12.3
	c-1.7-0.6-2.8-1-2.8-1l-3.9-1.5v17.4l2.1,0.6c2.9,0.8,7.4,1.8,12,2c0.1,0,0.2,0,0.3,0c0.6,0,1.2,0,1.8,0c0.4,0,0.7,0,1.1,0
	c4.9-0.2,8.4-1.3,10.7-3.6c0.2-0.2,0.3-0.4,0.5-0.5c1.7-2,2.4-4.6,2.4-7.3C135.2,49.7,134.7,47.5,134,45.6z M132.3,52.3
	c-0.1,2-0.6,3.8-1.7,5.1c-1.8,2.1-5.2,3-9.2,3.1c-0.9,0-1.9,0-2.9,0c-3.8-0.2-7.8-0.9-11.4-1.9V47.6c0,0,6.6,2.6,10.9,3.2
	c2.1,0.3,3.7,0.2,3.6-1c-0.1-2.5-1.8-4.4-4-5.2c-0.9-0.4-1.9-0.6-3-0.6c-3.7,0-8.3-5.7-8.3-10.4c0-3,1.1-6.5,4.1-9
	c0.7-0.6,1.5-1.1,2.5-1.6c1.3-0.7,2.8-1.2,4.6-1.4c8.3-1.3,14.2-1.8,14.2-1.8l-0.4,3.6l-0.3,2.9l-0.7,6.8c0,0-2.2-0.6-4.8-1
	c-0.9-0.1-1.9-0.3-2.9-0.3c-2.3-0.1-4.4,0.1-5,1.3c-1.2,2.4,1.2,5.6,5,7.2c0.8,0.3,1.7,0.6,2.6,0.8c0.2,0,0.4,0.1,0.6,0.1
	c3.7,0.5,6.3,5.6,6.5,10.3C132.3,51.7,132.3,52,132.3,52.3z"/>
<path class="st2" d="M132.3,51.4v0.8c-0.1,2-0.6,3.8-1.7,5.1c-1.8,2.1-5.2,3-9.2,3.1c-0.9,0-1.9,0-2.9,0c-3.8-0.2-7.8-0.9-11.4-1.9
	V47.6c0,0,6.6,2.6,10.9,3.2c2.1,0.3,3.7,0.2,3.6-1c-0.1-2.5-1.8-4.4-4-5.2c-0.9-0.4-1.9-0.6-3-0.6c-3.7,0-8.3-5.7-8.3-10.4
	c0-3,1.1-6.5,4.1-9c0.7-0.6,1.5-1.1,2.5-1.6c1.3-0.7,2.8-1.2,4.6-1.4c8.3-1.3,14.2-1.8,14.2-1.8l-0.4,3.6l-0.3,2.9l-0.7,6.8
	c0,0-2.2-0.6-4.8-1c-0.9-0.1-1.9-0.3-2.9-0.3c-2.3-0.1-4.4,0.1-5,1.3c-1.2,2.4,1.2,5.6,5,7.2c0.8,0.3,1.7,0.6,2.6,0.8
	c0.2,0,0.4,0.1,0.6,0.1C129.5,41.6,132.2,46.7,132.3,51.4z"/>
<path class="st0" d="M135.2,38.2v13.7c0-2.2-0.5-4.4-1.2-6.3c-0.5-1.2-1-2.2-1.7-3.2c-0.3-0.5-0.7-0.9-1.1-1.3
	c-1.4-1.6-3.2-2.5-5.1-2.8c-0.2,0-0.5-0.1-0.7-0.1H135.2z"/>
<polygon class="st0" points="153.2,37.9 151,40.8 148.3,40.8 148.3,44.3 145.5,48 145.5,37.9 "/>
<polygon class="st0" points="158.8,23.4 158.8,30.7 155.9,34.4 155.9,26.3 133.9,26.3 134.2,23.4 "/>
<path class="st0" d="M148.3,61.8v8.7h-16V59.7c0.2-0.2,0.4-0.4,0.5-0.5c1.7-2,2.4-4.6,2.4-7.3v15.8h10.3v-6.9L148.3,61.8z"/>
<path class="st2" d="M155.9,26.3v8.1l-2.7,3.5h-7.8V48l-7.6,9.9l7.6,2.8v6.9h-10.3V38.2h-8.4c-1.5,0-2.9-0.3-4.2-1.1c0,0,0,0,0,0
	c-1-0.6-1.8-1.4-2.2-2.1c0-0.1-0.1-0.2-0.1-0.2c0.3,0,0.7-0.1,1.3-0.1c0.3,0,0.7,0,1,0c0.9,0.1,1.9,0.2,2.9,0.3
	c2.2,0.4,4.1,0.8,4.1,0.9l3.3,0.9l1-10.5H155.9z"/>
<path class="st0" d="M173,58.5l0.7,9.2h0L173,58.5z"/>
<path class="st0" d="M198,44.1c0,0-0.1-0.1-0.1-0.1c-0.7-0.7-1.4-1.3-2.2-1.9c-6-4.9-13.6-8.4-14-8.6l-2.9-1.3l-4,12l-1.2-15.4
	l-11.5-2.3l-3.3,4.3l-2.9,3.7l-2.7,3.5l-2.2,2.9l-2.7,3.5l-2.9,3.8l-7.6,9.9l7.6,2.8l2.9,1.1l3.1,1.1l4.2-4.5l6.1,2.5l2,7.6l2.8,0.6
	l-2.3,7l9.8,3.3l0.9,0.3l3.4,1.2l0.5,0.2l3.3-9.4v8.7l13.9,4.5V66.2c3.1-1.7,7-5.6,7.1-12.5C203.1,50.6,201.4,47.4,198,44.1z
	 M166,66.1l-1.9-7.3l-9.2-3.8l-4.2,4.6l-2.3-0.9l-2.9-1.1l-3-1.1l3-3.8l2.9-3.8l6.3-8.2l4.1-5.4l4.5-5.8l7.6,1.5l1.6,20l0.6,7.4
	l0.7,9.2h0l-6.4-1.3L166,66.1z M193,64.3v16.6l-8.1-2.6v-15h-3l-2.3,6.4l-2.7,7.7l-9.2-3.1l1.6-4.6l7.6,1.6l-1.6-19.8l5.1-15.4
	c0,0,7.6,3.5,13.3,8.1c0.8,0.6,1.5,1.3,2.2,1.9c2.4,2.4,4.2,5,4.1,7.6C200,62.3,193,64.3,193,64.3z"/>
<polygon class="st5" points="151,40.8 148.3,44.3 148.3,40.8 "/>
<polygon class="st2" points="173.8,67.7 167.4,66.4 166,66.1 164.1,58.8 154.9,55 150.6,59.6 148.3,58.7 145.5,57.7 142.5,56.6 
	145.5,52.7 148.3,49 154.6,40.8 158.8,35.4 163.3,29.6 170.9,31.1 172.5,51.1 173,58.5 "/>
<polygon class="st0" points="156.9,49.1 165.8,35 167.3,51.4 "/>
<polygon class="st5" points="164.7,39.4 159.2,48.2 165.6,49.6 "/>
<path class="st2" d="M200.1,53.7c-0.1,8.6-7.1,10.6-7.1,10.6v16.6l-8.1-2.6v-15h-3l-2.3,6.4l-2.7,7.7l-9.2-3.1l1.6-4.6l7.6,1.6
	l-1.6-19.8l5.1-15.4c0,0,7.6,3.5,13.3,8.1c0.8,0.6,1.5,1.3,2.2,1.9C198.4,48.5,200.2,51.1,200.1,53.7z"/>
<path class="st0" d="M188.6,58c-0.4,0-0.8-0.1-1.2-0.2l-4.4-1.7l2.8-6.1l4.1,1.8c0.8,0.4,1.4,1,1.7,1.8c0.3,0.8,0.2,1.7-0.1,2.5
	C190.9,57.4,189.8,58,188.6,58L188.6,58z"/>
<path class="st5" d="M186.5,51.9l-1.5,3.4l3,1.2c0.9,0.3,1.8,0,2.2-0.9l0,0c0.4-0.9,0.1-2-0.9-2.4L186.5,51.9z"/>
<path class="st6" d="M147,143.3c2.9,0,5.9-0.8,7.8-2.2c-0.6,2.2-1.3,4.2-2.1,6.1c0,0,0,0,0,0c-2.1,4.6-5,7.9-9.1,9.1
	c-13.4,4.1-31.1-2.8-37.1-17.2c2.8-0.3,4.5-1.6,5.4-2.7c0.3-0.3,0.5-0.7,0.7-1c0.8-1.4,1.1-2.9,1.2-4c2.2-2.2,2.5-5.4,2.3-7.8
	c1.9-2,2.6-4.1,2.7-5.6c0.2-2.3-0.5-4.3-1.2-5.6c1.8-3.5,0.4-8.2-0.3-10.2c0.5-2.5,1-7.3-1.2-11.9c-0.6-1.3-1.5-2.6-2.6-3.8
	c-0.3-0.3-0.6-0.6-0.8-0.8c2.2-3,5.2-6.4,9-9.1c3.6-2.5,7.9-4.3,12.8-4.3c14-0.1,20.6,6.1,22.4,18.3c-2.6,0.5-5.3,2.8-6,7.6h0
	c-0.1,0.8-0.2,1.7-0.2,2.7c-1.1,0-2.5-0.1-4-0.2c-0.7-0.1-1.4-0.1-2-0.1c-6,0-7.8,3.7-9.2,6.6c-1.7,3.5-0.6,8.1,0.2,10.3
	c-2.4,5.7-0.6,12,0.3,14.4c-0.5,2.8,1.1,5.3,2.6,6.7c0.1,0.1,0.1,0.3,0.2,0.4C140.1,141.7,143,143.3,147,143.3z"/>
<path class="st0" d="M239.3,133.1c-0.1,1.4-0.8,3.5-3.2,5.1c-0.5,0.4-1.2,0.9-1.9,1.4c-5.3,4-15.3,11.5-28.9,11.7h-0.5
	c-15.3,0-39.9-7.9-43.1-9.4c-0.6-0.3-1.2-0.6-1.8-0.7c-1.1-0.4-2.1-0.6-2.9-0.6c-0.8,0-1.5,0.2-2.1,0.6c0,0-0.1,0.1-0.1,0.1
	c-1.9,1.3-4.9,2.2-7.8,2.2c-4,0-6.9-1.6-8.2-4.4c-0.1-0.1-0.1-0.3-0.2-0.4c-1.5-1.5-3.1-3.9-2.6-6.7c-0.9-2.4-2.7-8.7-0.3-14.4
	c-0.8-2.2-1.9-6.8-0.2-10.3c1.4-2.9,3.2-6.6,9.2-6.6c0.6,0,1.3,0,2,0.1c1.5,0.2,2.8,0.2,4,0.2c0-1,0-1.9,0.2-2.7h0
	c0.7-4.8,3.4-7.1,6-7.6c0,0,0,0,0,0c0.3,0,0.6-0.1,0.9-0.1c1.4,0,2.7,0.6,3.8,1.7c0.9,1,1.5,2.3,2,3.8c0.9,3.2,0.9,7.1,0.8,9
	c0.5,1.3,2.3,5.6,5.8,5.6c5.8-0.1,12.4-2.2,13.6-3.5c0-0.3,0-0.7,0.1-1c0.1-2.1,0.4-7,5.8-7c0.4,0,0.9,0,1.3,0.1c0.2,0,0.5,0,0.7,0
	c0.8,0,1.4-0.2,1.7-0.6c0.1-0.2,0.1-0.3,0.1-0.5c-0.9-1.7-8.1-9.1-14.3-15l-1-1l0.1-1.1l0.5,0.2l3.3-9.4V74l-0.9,7
	c0,0,14.1,13.5,15,16c0.9,2.6-1.2,5.5-5.6,4.9c-4.3-0.6-3.7,2.7-4,5.8c-0.3,3.1-9.9,5.7-16.3,5.8c-6.4,0.1-8.8-8.1-8.8-8.1
	s0.2-4.1-0.4-7.5c-0.5-2.6-1.6-4.8-3.7-4.5c-0.1,0-0.1,0-0.2,0c-2.2,0.5-3.1,2.8-3.4,5.1c-0.3,2.5,0,5,0,5s-1.8,0.6-7.3,0
	c-5.5-0.6-6.7,1.4-8.4,4.9c-1.7,3.5,0.7,9.2,0.7,9.2c-3.4,6.2,0.2,14.1,0.2,14.1c-1.1,2.8,2.1,5.2,2.1,5.2c0,0.2,0.1,0.4,0.2,0.6
	c1.6,4.3,9.3,3.2,11.9,1.3c0.7-0.5,1.5-0.9,2.4-1c1.9-0.4,4,0.1,6,0.9c0.5,0.2,0.9,0.4,1.4,0.6c3.2,1.5,27.8,9.3,42.3,9.2
	c14.5-0.2,24.7-9.3,29.2-12.5c4.5-3.2,0-8,0-8s-3-21.2-7.8-23.2s-18.8-23.7-18.8-23.7s-13.3-14.3-3-18.5
	c10.3-4.2,24.2,16.8,24.2,16.8l5.5-20.8c0,0-10.4-13.6-24.4-16.5c-6.2-1.3-10,0-12.2,2c-0.7-0.7-1.4-1.3-2.2-1.9
	c2-1.8,5-3.4,9.8-3.4c1.6,0,3.3,0.2,5.2,0.6c14.9,3.1,25.7,17,26.1,17.6l0.9,1.1l-7.5,28.4l-3.5-5.4c-4.1-6.2-12.9-16.1-18.9-16.1
	c-0.6,0-1.2,0.1-1.8,0.3c-1.6,0.6-1.9,1.4-2.1,2c-0.7,3,3.2,8.7,6.1,11.9l0.2,0.2l0.1,0.2c6.5,10.1,15.1,21.6,17.5,22.6
	c5.4,2.2,8.2,16,9.5,24.6C238.1,127.8,239.6,130.3,239.3,133.1z"/>
<path class="st2" d="M234.5,135.8c-4.5,3.2-14.7,12.3-29.2,12.5c-14.5,0.2-39.2-7.6-42.3-9.2c-0.4-0.2-0.9-0.4-1.4-0.6
	c-2-0.8-4.1-1.2-6-0.9c-0.8,0.2-1.6,0.5-2.4,1c-2.6,1.9-10.3,3-11.9-1.3c-0.1-0.2-0.1-0.4-0.2-0.6c0,0-3.2-2.5-2.1-5.2
	c0,0-3.6-7.9-0.2-14.1c0,0-2.4-5.7-0.7-9.2c1.7-3.5,2.9-5.5,8.4-4.9c5.5,0.6,7.3,0,7.3,0s-0.3-2.5,0-5c0.3-2.3,1.2-4.6,3.4-5.1
	c0.1,0,0.1,0,0.2,0c2.1-0.4,3.1,1.8,3.7,4.5c0.7,3.4,0.4,7.5,0.4,7.5s2.3,8.2,8.8,8.1c6.4-0.1,16-2.7,16.3-5.8
	c0.3-3.1-0.3-6.3,4-5.8c4.3,0.6,6.5-2.3,5.6-4.9c-0.9-2.6-15-16-15-16l0.9-7v6.4l13.9,4.5V66.2c3.1-1.7,7-5.6,7.1-12.5
	c0-3.1-1.6-6.4-5-9.7c0,0-0.1-0.1-0.1-0.1c2.2-1.9,6-3.3,12.2-2c14,2.9,24.4,16.5,24.4,16.5L229,79.3c0,0-13.8-21-24.2-16.8
	c-10.3,4.2,3,18.5,3,18.5s14,21.7,18.8,23.7s7.8,23.2,7.8,23.2S239,132.7,234.5,135.8z"/>
<path class="st7" d="M164.1,148.8l-9.6,1.7l-3.3,7H147l-6.6,4.2l-6.7-1.3l-5.8,4l-5.9-6l-7.7,3v-7l-16.2,7l9-13.8l-6,0.8
	c0.9-1.8,1.2-5.5,1.4-8.8c1-0.1,2.2-0.2,3.5-0.3c0.2,0,0.5,0,0.7-0.1c6,14.4,23.7,21.2,37.1,17.2c5.8-1.7,9.2-7.6,11.2-15.2
	c0,0,0.1,0,0.1-0.1c0.5-0.4,1.2-0.6,2.1-0.6c0.8,0,1.8,0.2,2.9,0.6l-2.5,3.8L164.1,148.8z"/>
<path class="st7" d="M164.6,89.3l4.3,2.5l-5.4,4.1c-0.4-1.5-1-2.9-2-3.8c-1-1.1-2.3-1.7-3.8-1.7c-0.3,0-0.6,0-0.9,0.1c0,0,0,0,0,0
	c-1.8-12.3-8.4-18.5-22.4-18.3c-10.3,0.1-17.7,7.7-21.8,13.4c-1.7-1.4-3.7-2.2-5.9-2.2c-2,0-4.4,0.7-6.1,1.9l-6.5-5.9l12.2-0.5
	l-5.2-6.5l0,0l-0.6-10.2l8.3,8l1.7-0.3l6.4,5.9l-0.9-7l1-0.2l5.5,3.7l9.7-4.5v2.9h14.9l1.1,1.6h6.3l1.2,4.6l6.2-2.5l-3.3,6.7
	l15.2-1.5l0.9,0.3L164.6,89.3z"/>
<path class="st1" d="M116.1,90.1c0,0,23.6-23.9,40.4-1.9"/>
<path class="st1" d="M121.6,76.5c0,0,12.8-2.4,11.6,10.2s-10.5,10.9-11.6,22.4c-1.1,11.5-3.5,32.5,4.4,37.6s15.3,8,26.7,0.5"/>
<path class="st1" d="M144.2,143c0,0,2,7.3-11.2,14.4"/>
<path class="st1" d="M149.2,75.9c0,0,6.2,15.5-6,24.7"/>
<path class="st8" d="M205.6,98.7c0,0-5.9-2.4-9.3-0.4"/>
<path class="st8" d="M138.8,117.5c0,0,18.5,0.8,17.7-5.3"/>
<path class="st8" d="M139,131.6c0,0,10.4,1.1,11.7-2.8c1.4-3.8,6.6-2.8,6.6-2.8"/>
<path class="st8" d="M141.1,136.8c0,0,4.6,1,5.8-1.2"/>
<path class="st8" d="M29.5,91.8c0,0,12.6-9.6,21.2-6"/>
<path class="st8" d="M97.4,114c0,0,5.8,3.5,8.9,2.7s7.8-4.5,7.8-4.5"/>
<path class="st8" d="M95.8,122.3c0,0,3.4,0.4,5.7,1.5s8.7,2.3,11.5-1.3"/>
<line class="st8" x1="98" y1="128.8" x2="111" y2="130"/>
<path class="st9" d="M114.3,102.3c0,0-1.2,0.5-6.8,0.8c-0.8,0-1.5-0.1-2.1-0.4c-3.7-1.8-4-8.7-4-8.7s1.8,1.8,3.6,3.3
	c1.1,0.9,2.2,1.8,2.9,2C109.6,99.9,113.6,100.3,114.3,102.3z"/>
<path class="st10" d="M114.3,102.3c-0.7-2-4.7-2.4-6.5-3.1c-0.7-0.3-1.8-1.1-2.9-2c0,0,6.9-4.3,9.6-2.6
	C115.1,97.3,114.9,100.1,114.3,102.3z"/>
<path class="st8" d="M95,98.3c0,0,6.2,2.1,7.1-0.3"/>
<path class="st8" d="M53.1,102.3c0,0-11.5,0.1-14.3-4.4"/>
<path class="st8" d="M198.5,114.8c0,0,14-0.2,15-2.7"/>
<ellipse transform="matrix(0.8217 -0.5699 0.5699 0.8217 -26.8555 146.297)" class="st11" cx="220.4" cy="116.1" rx="2.4" ry="3.9"/>
<ellipse transform="matrix(0.9602 -0.2793 0.2793 0.9602 -22.5304 60.4362)" class="st11" cx="200.8" cy="109.3" rx="5.8" ry="3.3"/>
<path class="st8" d="M160.1,138.1c0,0,3.7-4.6,3-7.4"/>
<ellipse class="st11" cx="48.4" cy="119.5" rx="3.8" ry="2"/>
<ellipse class="st11" cx="59.7" cy="105.1" rx="4.2" ry="2"/>
<ellipse class="st11" cx="86.4" cy="121.7" rx="1.9" ry="4.2"/>
<path class="st11" d="M33.1,107.2c0,0,3.2,6.7,8.7,3c5.5-3.7-1.8-5.3-3.7-7.1C36.3,101.3,26.5,101,33.1,107.2z"/>
<g>
</g>
<g>
</g>
<g>
</g>
<g>
</g>
<g>
</g>
<g>
</g>
</svg>
