<svg xmlns="http://www.w3.org/2000/svg" viewBox="0 0 254 176" enable-background="new 0 0 254 176"><style type="text/css">.st0{fill:#F9ED32;stroke:#000000;stroke-miterlimit:10;} .st1{fill:none;stroke:#000000;stroke-miterlimit:10;} .st2{fill:#662D91;stroke:#000000;stroke-miterlimit:10;} .st3{fill:#F9ED32;stroke:#000000;stroke-width:0.7057;stroke-miterlimit:10;} .st4{stroke:#000000;stroke-width:0.7057;stroke-miterlimit:10;} .st5{stroke:#000000;stroke-miterlimit:10;} .st6{fill:#F7941E;stroke:#000000;stroke-miterlimit:10;} .st7{fill:#F15A29;stroke:#000000;stroke-miterlimit:10;} .st8{fill:none;stroke:#000000;stroke-linecap:round;stroke-miterlimit:10;} .st9{fill:#5D53A3;stroke:#000000;stroke-linecap:round;stroke-miterlimit:10;} .st10{stroke:#000000;stroke-linecap:round;stroke-miterlimit:10;} .st11{fill:#262262;stroke:#000000;stroke-linecap:round;stroke-miterlimit:10;}</style><path class="st0" d="M118.8 118c-.1 1.5-.8 3.6-2.7 5.6.3 2.4-.1 5.5-2.3 7.8-.1 1.1-.4 2.6-1.2 4-.2.4-.4.7-.7 1-.9 1.1-2.6 2.4-5.4 2.7l-.7.1c-1.3.1-2.4.2-3.5.3l-1.1.1c-1.5.2-2.7.3-4 .3-1.8 0-3.3-.3-4.8-1-.2-.1-1.1-.4-3.2-.4-3.4 0-7 .8-7.6 1.1-1.7.8-11.7 2.4-22.4 2.4-11.2 0-26.2-1.7-34.6-9.9-11-10.8-14.1-22.4-13.3-29.1.4-3.2 1.6-5.5 3.5-6.7 1.3-.8 1.2-4.4.6-6.5l-.2-.6.1-.6c.9-5.9 3.4-19.8 6.8-22.9 1.7-1.6 1.2-5.7.7-7.2-.7-2-3.4-16.9-4-19.9l-.5-2.5 18.1-5.5 10.8 10.8v-14.1l18-15.7 7.1 16.8.5 1.3c-1 .1-1.9.3-2.9.6l-.3-.9-5.5-13-14 12.2v19.7l-14.5-14.5-14 4.2s3.2 17.6 3.9 19.5c.6 1.9 1.5 7.5-1.5 10.3l-5.9 21.2s2 7.4-1.9 9.8c-3.9 2.4-3.9 17.2 10.4 31.2s51.8 7.9 53.7 7c1.8-.9 10-2.2 13.3-.8 2.7 1.2 4.9.7 8.7.3.9-.1 2-.2 3.2-.3h.1c2.8-.2 4.2-1.6 4.8-3 .7-1.6.5-3.3.5-3.3 3.5-2.3 2-7.5 2-7.5 6-4.7 1.2-10.3 1.2-10.3 2.1-1.6 1.6-5 1-7.4-.4-1.4-.8-2.5-.8-2.5.5-2.2.8-5 .2-7.7-.2-1-.5-2-.9-3-.5-1.2-1.3-2.3-2.2-3.3-.1-.1-.2-.3-.4-.4-2.7-2.5-6.2-1.7-8.1-.7-.8.4-1.3.9-1.4 1.2-.3 1-6.6 7.9-10.6 8.1s-3 6.2-3 11.2l-20.5-4.2c-4.5-8.2-16.7-17.8-16.7-17.8l-3-14.5 9.2 8 5.5-2.8.2-12.2 12.2 24.8 13-8.2-5.7-16.1c.9-.3 1.8-.6 2.7-1l2.7 7.6v.1l1.2 4.3.3-.1 2.3 6.4-17.6 11.3-8.5-17.1v2.2l-8.8 4.4-4.3-3.7 1.1 5.2c2.8 2.3 11.9 9.9 16.2 17.1 4.6 2 12 4.8 15.6 5.1v-1c-.2-4.5-.4-11.3 5.8-11.6 2.1-.1 7.1-4.7 8.1-6.4.3-.8 1-1.5 1.8-2.1 1.6-1.2 4-1.9 6.1-1.9 2.2 0 4.2.7 5.9 2.2.3.2.6.5.8.8 1.1 1.2 2 2.5 2.6 3.8 2.2 4.6 1.7 9.5 1.2 11.9.8 2 2.2 6.8.3 10.2.8 1.4 1.4 3.4 1.2 5.7z"/><path class="st1" d="M89.1 75.6l-.3.1-1.2-4.4z"/><path class="st2" d="M113 122.5s1.5 5.2-2 7.5c0 0 .2 1.7-.5 3.3-.6 1.5-2 2.8-4.8 3h-.1c-1.2.1-2.2.2-3.2.3-3.8.4-6.1.9-8.7-.3-3.3-1.5-11.5-.2-13.3.8-1.8.9-39.4 7-53.7-7s-14.2-28.9-10.4-31.2c3.9-2.4 1.9-9.8 1.9-9.8s2.8-18.5 5.8-21.3 2.1-8.4 1.5-10.3c-.6-1.9-3.9-19.5-3.9-19.5l14-4.2 14.5 14.5v-19.7l14-12.2 5.5 13 .3.9c-8.3 2.2-14.4 9.2-14.4 17.4 0 10 9 18.1 20.1 18.1 2.3 0 4.5-.4 6.5-1l5.7 16.1-13 8.2-12.2-24.8-.2 12.2-5.5 2.8-9.2-8 3 14.5s12.2 9.5 16.7 17.8c0 0 20.5 9.2 20.5 4.2s-1-11 3-11.2 10.4-7.1 10.6-8.1c.1-.3.6-.8 1.4-1.2 1.9-1 5.4-1.8 8.1.7.1.1.3.2.4.4 1 1 1.7 2.1 2.2 3.3.4 1 .7 2 .9 3-2.7-1.7-9.6 2.6-9.6 2.6-1.8-1.5-3.6-3.3-3.6-3.3s.4 6.9 4 8.7c.6.3 1.3.5 2.1.4 5.6-.2 6.8-.8 6.8-.8s.5 1 .8 2.5c.6 2.3 1.1 5.7-1 7.4.1 0 5 5.6-1 10.3z"/><path class="st0" d="M87.7 33.1c-1-.7-2.2-1.3-3.3-1.8-2.7-1.2-5.6-1.8-8.8-1.8-1 0-1.9.1-2.8.2-1 .1-1.9.3-2.9.6-8.3 2.2-14.4 9.2-14.4 17.4 0 10 9 18.1 20.1 18.1 2.3 0 4.5-.4 6.5-1 .9-.3 1.8-.6 2.7-1 .2-.1.3-.1.4-.2.9-.4 1.7-.9 2.5-1.5 4.8-3.3 7.9-8.5 7.9-14.4.2-6-3-11.3-7.9-14.6zm5 16.8c0 .1 0 .3-.1.5l-.2.7c0 .2-.1.4-.2.7l-.2.7v.1l-.3.7-.3.7v.1l-.3.5-.2.3c-.1.2-.2.4-.3.5l-.4.6c-.1.2-.2.3-.4.5l-.6.7c-.4.4-.8.9-1.3 1.3l-.7.6c-.5.4-1 .8-1.6 1.1-.5.3-1 .6-1.5.8-.9.4-1.8.8-2.7 1-1.8.5-3.6.8-5.6.8-9.5 0-17.2-6.8-17.2-15.2 0-7 5.3-12.9 12.5-14.7.9-.2 1.9-.4 2.9-.5.6-.1 1.2-.1 1.8-.1 3.1 0 6.1.7 8.6 2 .5.2.9.5 1.3.7 1 .6 2 1.4 2.8 2.2l.6.6.1.2c.1.1.2.3.4.4l.5.6c.2.2.4.5.6.8l.6.9c.1.1.2.3.2.4.2.3.3.6.4.9.1.3.3.6.4 1l.2.5.1.5c0 .1 0 .2.1.3.1.2.1.4.1.7 0 .2.1.4.1.7 0 .1 0 .2.1.4 0 .2.1.5.1.8v1.8c-.3.2-.3.7-.4 1.2z"/><path class="st2" d="M92.9 46.7c0-.2 0-.5-.1-.8 0-.1 0-.2-.1-.4 0-.2-.1-.4-.1-.7 0-.2-.1-.4-.1-.7 0-.1 0-.2-.1-.3l-.1-.5c0-.2-.1-.3-.2-.5-.1-.3-.2-.6-.4-1l-.4-.9c-.1-.1-.2-.3-.2-.4l-.6-.9-.6-.8-.5-.6c-.1-.1-.2-.3-.4-.4 0 0-.1-.1-.1-.2l-.6-.6c-.3-.3-.7-.6-1.1-.9-.3-.3-.6-.5-1-.7l-.2-.1-.6-.4c-.4-.3-.8-.5-1.3-.7-2.5-1.3-5.5-2-8.6-2-.6 0-1.2 0-1.8.1-1 .1-2 .3-2.9.5-7.2 1.8-12.5 7.7-12.5 14.7 0 8.4 7.7 15.2 17.2 15.2 2 0 3.8-.3 5.6-.8.9-.3 1.8-.6 2.7-1 .5-.2 1-.5 1.5-.8.6-.3 1.1-.7 1.6-1.1l.7-.6c.5-.4.9-.8 1.3-1.3l.6-.7.4-.5.4-.6c.1-.2.2-.4.3-.5l.2-.3.3-.5v-.1l.3-.7.3-.7v-.1c.1-.2.2-.5.2-.7.1-.2.1-.4.2-.7.1-.2.1-.4.2-.7l.1-.5c.1-.5.1-1 .2-1.4v-.9c.3-.2.3-.5.3-.8zm-12.7 3.7c-.6.8-1.4 1.5-2.4 2l-1.5.6c-.7.2-1.4.3-2.1.3-2.8 0-5.1-1.6-5.8-3.9-.9-3 1.3-6.2 4.8-7.2.3-.1.6-.2.9-.2.4-.1.8-.1 1.2-.1.7 0 1.3.1 1.9.3 1.9.5 3.3 1.9 3.8 3.7.5 1.5.1 3.1-.8 4.5z"/><path class="st3" d="M81.1 45.8c-.5-1.8-2-3.1-3.8-3.7-.6-.2-1.2-.3-1.9-.3-.4 0-.8 0-1.2.1-.3 0-.6.1-.9.2-3.5 1-5.6 4.2-4.8 7.2.7 2.3 3 3.9 5.8 3.9.7 0 1.4-.1 2.1-.3.5-.2 1-.3 1.5-.6 1-.5 1.8-1.2 2.4-2 .8-1.3 1.2-2.9.8-4.5zm-2 1.6c-.1 1.2-.9 2.2-2 3l-1.3.6c-2.3.7-4.7-.3-5.2-2.1s.9-3.9 3.3-4.6c.4-.1.7-.2 1.1-.2 1.4-.1 2.7.3 3.5 1.1.3.3.5.7.7 1.2-.1.3-.1.6-.1 1z"/><path class="st4" d="M79.1 47.4c-.1 1.2-.9 2.2-2 3l-1.3.6c-2.3.7-4.7-.3-5.2-2.1s.9-3.9 3.3-4.6c.4-.1.7-.2 1.1-.2 1.4-.1 2.7.3 3.5 1.1.3.3.5.7.7 1.2-.1.3-.1.6-.1 1z"/><path class="st1" d="M87.3 36.3c-.3-.2-.6-.5-1-.7l1 .7zM86.3 35.6c-.2-.2-.5-.4-.7-.5l.6.4s0 .1.1.1zM88.3 37.3c-.3-.3-.7-.6-1.1-.9.4.2.8.5 1.1.9zM85.4 60.1l.8-.5 1.5-1.2-.7.6c-.5.4-1 .8-1.6 1.1z"/><path class="st0" d="M92.4 28.3l1.2 1.3-1.2-4.6 17.6-9.2 1.9 4.6c-.9.4-1.7.9-2.5 1.5l-.8-2.1-12.7 6.7 3.6 13.5-7.8-8.3-3.9 1.4c-1-.7-2.2-1.3-3.3-1.8l7.9-3zM121.9 67.5l-4.7 1-1 .2-5.5 1.1-1.7.3-8.3-8 .6 10.2-12 3.3-1.5-4.3v-.1l-2.2-7.8c.9-.4 1.7-.9 2.5-1.5l3 10.2 7.3-2-.4-1.6-.3-6.3-.4-7.2 12.5 12 9-1.8-.1-1.8h2.9000000000000004l.3 4.1z"/><path class="st1" d="M89.1 75.6l-.3.1-1.2-4.4z"/><path class="st2" d="M109.8 67l-12.5-12 .4 7.2.3 6.3.1 1.6-7.3 2-3-10.2c4.8-3.3 7.9-8.5 7.9-14.4s-3.2-11.2-8-14.5l3.9-1.4 7.8 8.3-3.7-13.5 12.7-6.7.8 2.1-.7.6c-3.3 2.8-5.2 6.8-5.2 11.2 0 4.9 3.5 10.2 7.6 12.3-1.7-.6-2.8-1-2.9-1l-3.9-1.5v17.4l2.1.6c2.9.8 7.4 1.8 12 2h.3l.1 1.8-8.8 1.8z"/><path class="st0" d="M134 45.6c-.5-1.2-1-2.2-1.7-3.2-.3-.5-.7-.9-1.1-1.3-1.4-1.6-3.2-2.5-5.1-2.8l-.7-.1c-1.1-.2-2.1-.6-2.9-1.1-1-.6-1.8-1.4-2.2-2.1 0-.1-.1-.2-.1-.2.3 0 .7-.1 1.3-.1h1c.9.1 1.9.2 2.9.3 2.2.4 4.1.8 4.1.9l3.3.9 1-10.5.3-2.9.7-6.8-3.5.3c-.2 0-6 .5-14.4 1.9-1.9.3-3.6.8-5.2 1.6-.9.4-1.7.9-2.5 1.5l-.7.6c-3.3 2.8-5.2 6.8-5.2 11.2 0 4.9 3.5 10.2 7.6 12.3-1.7-.6-2.8-1-2.8-1l-3.9-1.5v17.4l2.1.6c2.9.8 7.4 1.8 12 2h3.2c4.9-.2 8.4-1.3 10.7-3.6.2-.2.3-.4.5-.5 1.7-2 2.4-4.6 2.4-7.3.1-2.4-.4-4.6-1.1-6.5zm-1.7 6.7c-.1 2-.6 3.8-1.7 5.1-1.8 2.1-5.2 3-9.2 3.1h-2.9c-3.8-.2-7.8-.9-11.4-1.9v-11s6.6 2.6 10.9 3.2c2.1.3 3.7.2 3.6-1-.1-2.5-1.8-4.4-4-5.2-.9-.4-1.9-.6-3-.6-3.7 0-8.3-5.7-8.3-10.4 0-3 1.1-6.5 4.1-9 .7-.6 1.5-1.1 2.5-1.6 1.3-.7 2.8-1.2 4.6-1.4 8.3-1.3 14.2-1.8 14.2-1.8l-.4 3.6-.3 2.9-.7 6.8s-2.2-.6-4.8-1c-.9-.1-1.9-.3-2.9-.3-2.3-.1-4.4.1-5 1.3-1.2 2.4 1.2 5.6 5 7.2.8.3 1.7.6 2.6.8l.6.1c3.7.5 6.3 5.6 6.5 10.3v.8z"/><path class="st2" d="M132.3 51.4v.8c-.1 2-.6 3.8-1.7 5.1-1.8 2.1-5.2 3-9.2 3.1h-2.9c-3.8-.2-7.8-.9-11.4-1.9v-10.9s6.6 2.6 10.9 3.2c2.1.3 3.7.2 3.6-1-.1-2.5-1.8-4.4-4-5.2-.9-.4-1.9-.6-3-.6-3.7 0-8.3-5.7-8.3-10.4 0-3 1.1-6.5 4.1-9 .7-.6 1.5-1.1 2.5-1.6 1.3-.7 2.8-1.2 4.6-1.4 8.3-1.3 14.2-1.8 14.2-1.8l-.4 3.6-.3 2.9-.7 6.8s-2.2-.6-4.8-1c-.9-.1-1.9-.3-2.9-.3-2.3-.1-4.4.1-5 1.3-1.2 2.4 1.2 5.6 5 7.2.8.3 1.7.6 2.6.8l.6.1c3.7.4 6.4 5.5 6.5 10.2z"/><path class="st0" d="M135.2 38.2v13.7c0-2.2-.5-4.4-1.2-6.3-.5-1.2-1-2.2-1.7-3.2-.3-.5-.7-.9-1.1-1.3-1.4-1.6-3.2-2.5-5.1-2.8l-.7-.1h9.8zM153.2 37.9l-2.2 2.9h-2.7v3.5l-2.8 3.7v-10.1zM158.8 23.4v7.3l-2.9 3.7v-8.1h-22l.3-2.9zM148.3 61.8v8.7h-16v-10.8l.5-.5c1.7-2 2.4-4.6 2.4-7.3v15.8h10.3v-6.9l2.8 1z"/><path class="st2" d="M155.9 26.3v8.1l-2.7 3.5h-7.8v10.1l-7.6 9.9 7.6 2.8v6.9h-10.3v-29.4h-8.4c-1.5 0-2.9-.3-4.2-1.1-1-.6-1.8-1.4-2.2-2.1 0-.1-.1-.2-.1-.2.3 0 .7-.1 1.3-.1h1c.9.1 1.9.2 2.9.3 2.2.4 4.1.8 4.1.9l3.3.9 1-10.5h22.1z"/><path class="st0" d="M173 58.5l.7 9.2-.7-9.2zM198 44.1l-.1-.1c-.7-.7-1.4-1.3-2.2-1.9-6-4.9-13.6-8.4-14-8.6l-2.9-1.3-4 12-1.2-15.4-11.5-2.3-3.3 4.3-2.9 3.7-2.7 3.5-2.2 2.9-2.7 3.5-2.9 3.8-7.6 9.9 7.6 2.8 2.9 1.1 3.1 1.1 4.2-4.5 6.1 2.5 2 7.6 2.8.6-2.3 7 9.8 3.3.9.3 3.4 1.2.5.2 3.3-9.4v8.7l13.9 4.5v-18.9c3.1-1.7 7-5.6 7.1-12.5 0-3.1-1.7-6.3-5.1-9.6zm-32 22l-1.9-7.3-9.2-3.8-4.2 4.6-2.3-.9-2.9-1.1-3-1.1 3-3.8 2.9-3.8 6.3-8.2 4.1-5.4 4.5-5.8 7.6 1.5 1.6 20 .6 7.4.7 9.2-6.4-1.3-1.4-.2zm27-1.8v16.6l-8.1-2.6v-15h-3l-2.3 6.4-2.7 7.7-9.2-3.1 1.6-4.6 7.6 1.6-1.6-19.8 5.1-15.4s7.6 3.5 13.3 8.1c.8.6 1.5 1.3 2.2 1.9 2.4 2.4 4.2 5 4.1 7.6 0 8.6-7 10.6-7 10.6z"/><path class="st5" d="M151 40.8l-2.7 3.5v-3.5z"/><path class="st2" d="M173.8 67.7l-6.4-1.3-1.4-.3-1.9-7.3-9.2-3.8-4.3 4.6-2.3-.9-2.8-1-3-1.1 3-3.9 2.8-3.7 6.3-8.2 4.2-5.4 4.5-5.8 7.6 1.5 1.6 20 .5 7.4z"/><path class="st0" d="M156.9 49.1l8.9-14.1 1.5 16.4z"/><path class="st5" d="M164.7 39.4l-5.5 8.8 6.4 1.4z"/><path class="st2" d="M200.1 53.7c-.1 8.6-7.1 10.6-7.1 10.6v16.6l-8.1-2.6v-15h-3l-2.3 6.4-2.7 7.7-9.2-3.1 1.6-4.6 7.6 1.6-1.6-19.8 5.1-15.4s7.6 3.5 13.3 8.1c.8.6 1.5 1.3 2.2 1.9 2.5 2.4 4.3 5 4.2 7.6z"/><path class="st0" d="M188.6 58c-.4 0-.8-.1-1.2-.2l-4.4-1.7 2.8-6.1 4.1 1.8c.8.4 1.4 1 1.7 1.8.3.8.2 1.7-.1 2.5-.6 1.3-1.7 1.9-2.9 1.9z"/><path class="st5" d="M186.5 51.9l-1.5 3.4 3 1.2c.9.3 1.8 0 2.2-.9.4-.9.1-2-.9-2.4l-2.8-1.3z"/><path class="st6" d="M147 143.3c2.9 0 5.9-.8 7.8-2.2-.6 2.2-1.3 4.2-2.1 6.1-2.1 4.6-5 7.9-9.1 9.1-13.4 4.1-31.1-2.8-37.1-17.2 2.8-.3 4.5-1.6 5.4-2.7.3-.3.5-.7.7-1 .8-1.4 1.1-2.9 1.2-4 2.2-2.2 2.5-5.4 2.3-7.8 1.9-2 2.6-4.1 2.7-5.6.2-2.3-.5-4.3-1.2-5.6 1.8-3.5.4-8.2-.3-10.2.5-2.5 1-7.3-1.2-11.9-.6-1.3-1.5-2.6-2.6-3.8l-.8-.8c2.2-3 5.2-6.4 9-9.1 3.6-2.5 7.9-4.3 12.8-4.3 14-.1 20.6 6.1 22.4 18.3-2.6.5-5.3 2.8-6 7.6-.1.8-.2 1.7-.2 2.7-1.1 0-2.5-.1-4-.2-.7-.1-1.4-.1-2-.1-6 0-7.8 3.7-9.2 6.6-1.7 3.5-.6 8.1.2 10.3-2.4 5.7-.6 12 .3 14.4-.5 2.8 1.1 5.3 2.6 6.7l.2.4c1.3 2.7 4.2 4.3 8.2 4.3z"/><path class="st0" d="M239.3 133.1c-.1 1.4-.8 3.5-3.2 5.1-.5.4-1.2.9-1.9 1.4-5.3 4-15.3 11.5-28.9 11.7h-.5c-15.3 0-39.9-7.9-43.1-9.4-.6-.3-1.2-.6-1.8-.7-1.1-.4-2.1-.6-2.9-.6-.8 0-1.5.2-2.1.6l-.1.1c-1.9 1.3-4.9 2.2-7.8 2.2-4 0-6.9-1.6-8.2-4.4l-.2-.4c-1.5-1.5-3.1-3.9-2.6-6.7-.9-2.4-2.7-8.7-.3-14.4-.8-2.2-1.9-6.8-.2-10.3 1.4-2.9 3.2-6.6 9.2-6.6.6 0 1.3 0 2 .1 1.5.2 2.8.2 4 .2 0-1 0-1.9.2-2.7.7-4.8 3.4-7.1 6-7.6l.9-.1c1.4 0 2.7.6 3.8 1.7.9 1 1.5 2.3 2 3.8.9 3.2.9 7.1.8 9 .5 1.3 2.3 5.6 5.8 5.6 5.8-.1 12.4-2.2 13.6-3.5 0-.3 0-.7.1-1 .1-2.1.4-7 5.8-7 .4 0 .9 0 1.3.1h.7c.8 0 1.4-.2 1.7-.6.1-.2.1-.3.1-.5-.9-1.7-8.1-9.1-14.3-15l-1-1 .1-1.1.5.2 3.3-9.4v2.1l-.9 7s14.1 13.5 15 16c.9 2.6-1.2 5.5-5.6 4.9-4.3-.6-3.7 2.7-4 5.8-.3 3.1-9.9 5.7-16.3 5.8-6.4.1-8.8-8.1-8.8-8.1s.2-4.1-.4-7.5c-.5-2.6-1.6-4.8-3.7-4.5h-.2c-2.2.5-3.1 2.8-3.4 5.1-.3 2.5 0 5 0 5s-1.8.6-7.3 0-6.7 1.4-8.4 4.9c-1.7 3.5.7 9.2.7 9.2-3.4 6.2.2 14.1.2 14.1-1.1 2.8 2.1 5.2 2.1 5.2 0 .2.1.4.2.6 1.6 4.3 9.3 3.2 11.9 1.3.7-.5 1.5-.9 2.4-1 1.9-.4 4 .1 6 .9l1.4.6c3.2 1.5 27.8 9.3 42.3 9.2 14.5-.2 24.7-9.3 29.2-12.5 4.5-3.2 0-8 0-8s-3-21.2-7.8-23.2l-18.8-23.7s-13.3-14.3-3-18.5c10.3-4.2 24.2 16.8 24.2 16.8l5.5-20.8s-10.4-13.6-24.4-16.5c-6.2-1.3-10 0-12.2 2-.7-.7-1.4-1.3-2.2-1.9 2-1.8 5-3.4 9.8-3.4 1.6 0 3.3.2 5.2.6 14.9 3.1 25.7 17 26.1 17.6l.9 1.1-7.5 28.4-3.5-5.4c-4.1-6.2-12.9-16.1-18.9-16.1-.6 0-1.2.1-1.8.3-1.6.6-1.9 1.4-2.1 2-.7 3 3.2 8.7 6.1 11.9l.2.2.1.2c6.5 10.1 15.1 21.6 17.5 22.6 5.4 2.2 8.2 16 9.5 24.6.7 1 2.2 3.5 1.9 6.3z"/><path class="st2" d="M234.5 135.8c-4.5 3.2-14.7 12.3-29.2 12.5-14.5.2-39.2-7.6-42.3-9.2-.4-.2-.9-.4-1.4-.6-2-.8-4.1-1.2-6-.9-.8.2-1.6.5-2.4 1-2.6 1.9-10.3 3-11.9-1.3l-.2-.6s-3.2-2.5-2.1-5.2c0 0-3.6-7.9-.2-14.1 0 0-2.4-5.7-.7-9.2 1.7-3.5 2.9-5.5 8.4-4.9 5.5.6 7.3 0 7.3 0s-.3-2.5 0-5c.3-2.3 1.2-4.6 3.4-5.1h.2c2.1-.4 3.1 1.8 3.7 4.5.7 3.4.4 7.5.4 7.5s2.3 8.2 8.8 8.1c6.4-.1 16-2.7 16.3-5.8.3-3.1-.3-6.3 4-5.8 4.3.6 6.5-2.3 5.6-4.9-.9-2.6-15-16-15-16l.9-7v6.4l13.9 4.5v-18.5c3.1-1.7 7-5.6 7.1-12.5 0-3.1-1.6-6.4-5-9.7l-.1-.1c2.2-1.9 6-3.3 12.2-2 14 2.9 24.4 16.5 24.4 16.5l-5.6 20.9s-13.8-21-24.2-16.8c-10.3 4.2 3 18.5 3 18.5s14 21.7 18.8 23.7l7.8 23.2s4.6 4.8.1 7.9z"/><path class="st7" d="M164.1 148.8l-9.6 1.7-3.3 7h-4.2l-6.6 4.2-6.7-1.3-5.8 4-5.9-6-7.7 3v-7l-16.2 7 9-13.8-6 .8c.9-1.8 1.2-5.5 1.4-8.8 1-.1 2.2-.2 3.5-.3.2 0 .5 0 .7-.1 6 14.4 23.7 21.2 37.1 17.2 5.8-1.7 9.2-7.6 11.2-15.2 0 0 .1 0 .1-.1.5-.4 1.2-.6 2.1-.6.8 0 1.8.2 2.9.6l-2.5 3.8 6.5 3.9zM164.6 89.3l4.3 2.5-5.4 4.1c-.4-1.5-1-2.9-2-3.8-1-1.1-2.3-1.7-3.8-1.7-.3 0-.6 0-.9.1-1.8-12.3-8.4-18.5-22.4-18.3-10.3.1-17.7 7.7-21.8 13.4-1.7-1.4-3.7-2.2-5.9-2.2-2 0-4.4.7-6.1 1.9l-6.5-5.9 12.2-.5-5.2-6.5-.6-10.2 8.3 8 1.7-.3 6.4 5.9-.9-7 1-.2 5.5 3.7 9.7-4.5v2.9h14.9l1.1 1.6h6.3l1.2 4.6 6.2-2.5-3.3 6.7 15.2-1.5.9.3-10.1 9.4z"/><path class="st1" d="M116.1 90.1s23.6-23.9 40.4-1.9M121.6 76.5s12.8-2.4 11.6 10.2-10.5 10.9-11.6 22.4c-1.1 11.5-3.5 32.5 4.4 37.6s15.3 8 26.7.5M144.2 143s2 7.3-11.2 14.4M149.2 75.9s6.2 15.5-6 24.7"/><path class="st8" d="M205.6 98.7s-5.9-2.4-9.3-.4M138.8 117.5s18.5.8 17.7-5.3M139 131.6s10.4 1.1 11.7-2.8c1.4-3.8 6.6-2.8 6.6-2.8M141.1 136.8s4.6 1 5.8-1.2M29.5 91.8s12.6-9.6 21.2-6M97.4 114s5.8 3.5 8.9 2.7l7.8-4.5M95.8 122.3s3.4.4 5.7 1.5 8.7 2.3 11.5-1.3M98 128.8l13 1.2"/><path class="st9" d="M114.3 102.3s-1.2.5-6.8.8c-.8 0-1.5-.1-2.1-.4-3.7-1.8-4-8.7-4-8.7s1.8 1.8 3.6 3.3c1.1.9 2.2 1.8 2.9 2 1.7.6 5.7 1 6.4 3z"/><path class="st10" d="M114.3 102.3c-.7-2-4.7-2.4-6.5-3.1-.7-.3-1.8-1.1-2.9-2 0 0 6.9-4.3 9.6-2.6.6 2.7.4 5.5-.2 7.7z"/><path class="st8" d="M95 98.3s6.2 2.1 7.1-.3M53.1 102.3s-11.5.1-14.3-4.4M198.5 114.8s14-.2 15-2.7"/><ellipse transform="matrix(.822 -.57 .57 .822 -26.855 146.297)" class="st11" cx="220.4" cy="116.1" rx="2.4" ry="3.9"/><ellipse transform="matrix(.96 -.279 .279 .96 -22.53 60.436)" class="st11" cx="200.8" cy="109.3" rx="5.8" ry="3.3"/><path class="st8" d="M160.1 138.1s3.7-4.6 3-7.4"/><ellipse class="st11" cx="48.4" cy="119.5" rx="3.8" ry="2"/><ellipse class="st11" cx="59.7" cy="105.1" rx="4.2" ry="2"/><ellipse class="st11" cx="86.4" cy="121.7" rx="1.9" ry="4.2"/><path class="st11" d="M33.1 107.2s3.2 6.7 8.7 3c5.5-3.7-1.8-5.3-3.7-7.1-1.8-1.8-11.6-2.1-5 4.1z"/></svg>