<svg xmlns="http://www.w3.org/2000/svg" viewBox="0 0 612 792" enable-background="new 0 0 612 792"><style type="text/css">.st0{fill:#F9ED32;stroke:#000000;stroke-miterlimit:10;} .st1{fill:none;stroke:#000000;stroke-miterlimit:10;} .st2{fill:#662D91;stroke:#000000;stroke-miterlimit:10;} .st3{fill:#F9ED32;stroke:#000000;stroke-width:0.7057;stroke-miterlimit:10;} .st4{stroke:#000000;stroke-width:0.7057;stroke-miterlimit:10;} .st5{stroke:#000000;stroke-miterlimit:10;} .st6{fill:#F7941E;stroke:#000000;stroke-miterlimit:10;} .st7{fill:#F15A29;stroke:#000000;stroke-miterlimit:10;} .st8{fill:none;stroke:#000000;stroke-linecap:round;stroke-miterlimit:10;} .st9{fill:#5D53A3;stroke:#000000;stroke-linecap:round;stroke-miterlimit:10;} .st10{stroke:#000000;stroke-linecap:round;stroke-miterlimit:10;} .st11{fill:#262262;stroke:#000000;stroke-linecap:round;stroke-miterlimit:10;}</style><path class="st0" d="M286.3 467.3c0 .3 0 .7-.1 1-.2 3.6-1.9 8.7-6.5 13.5.3 3.9.1 8.7-1.7 13 0 .1-.1.2-.1.2-.9 2-2.1 3.8-3.7 5.5-.2 2.6-1 6.3-2.9 9.6-.4.6-.8 1.4-1.4 2.1l-.3.3c-2.2 2.7-6.3 5.8-13 6.5l-1.7.2c-3.1.2-5.8.5-8.4.7l-2.6.2c-3.6.5-6.5.7-9.6.7-4.3 0-8-.7-11.6-2.4-.5-.2-2.7-1-7.7-1-8.2 0-16.9 1.9-18.3 2.7-4.1 1.9-28.2 5.8-54 5.8-27 0-63.1-4.1-83.4-23.8-26.5-26-34-54-32-70.1 1-7.7 3.9-13.2 8.4-16.1 3.1-1.9 2.9-10.6 1.5-15.7l-.5-1.5.2-1.4c2.2-14.2 8.2-47.7 16.4-55.2 4.1-3.9 2.9-13.7 1.7-17.4-1.7-4.8-8.2-40.7-9.6-48l-1.2-6 43.6-13.2 26 26v-34l43.4-37.8 17.1 40.5 1.2 3.1c-2.4.2-4.6.7-7 1.4l-.7-2.2-13.2-31.3-33.7 29.4v47.5l-34.9-34.9-34 10.3s0 .2.1.5c0 .3.1.8.2 1.3 1.5 8.2 7.6 41.1 9.1 45.2 1.5 4.6 3.6 18.1-3.6 24.8-6.2 5.8-12 39.2-13.6 48.8l-.6 2.3s4.8 17.8-4.6 23.6c-9.2 5.7-9.4 40 23 73.1l2.3 2.3.6.6c34.9 33 124.5 18.5 128.8 16.3 4.3-2.4 24.1-5.5 32.1-1.9 6.3 2.9 11.8 1.7 21 .7 2.4-.2 4.8-.5 7.7-.7h.2c6.8-.5 10.1-3.6 11.6-7.2 1.7-3.9 1.2-8 1.2-8 8.4-5.5 4.8-18.1 4.8-18.1 7.8-6.1 7.9-12.9 6.4-17.8-1.2-4.1-3.5-6.9-3.7-7.2l.3-.3c4.7-4 3.5-11.9 2.1-17.6-.9-3-1.7-5.4-1.9-5.9 1.2-4.3 1.7-9.5 1-14.8 0-.2 0-.4-.1-.6-.1-1.1-.3-2.2-.5-3.3-.5-2.4-1.2-4.8-2.2-7.2-1.2-2.9-3.1-5.5-5.3-8-.2-.2-.5-.7-1-1-6.5-6-14.9-4.1-19.5-1.7-1.9 1-3.1 2.2-3.4 2.9-.7 2.4-15.9 19-25.5 19.5-6.2.3-7.4 6.3-7.5 13.8v2.5l.2 9.7v1.5c0 12-49.4-10.1-49.4-10.1-10.9-20-40.2-42.9-40.2-42.9l-7.2-34.9.1.1 22 19.2 13.2-6.8.5-29.4 29.4 59.8 31.3-19.8-.1-.4.1-.1-13.4-38.3c2.1-.7 4.2-1.4 6.4-2.4 0 0 .1 0 .1-.1l6.4 17.9v.2l2.9 10.4h.2l.1.3.6-.2 5.4 15.1-42.4 27.2-20.5-41.2v5.3l-21.2 10.6-10.4-8.9 2.6 12.5c6.8 5.5 28.7 23.9 39 41.2 11.1 4.8 28.9 11.6 37.6 12.3v-2.4c-.5-10.8-1-27.2 14-28 5.1-.2 17.1-11.3 19.5-15.4.7-1.9 2.4-3.6 4.3-5.1 3.6-2.7 8.9-4.4 13.7-4.5h1.7c4.9.2 9.4 2.1 13.2 5.3l.1-.1.1.1.1.1s-.1.1-.1.2l1.9 1.9c2.7 2.9 4.8 6 6.3 9.1 2.8 5.9 3.8 12 3.9 17.2v2.4c-.1 3.5-.6 6.6-1 8.7v.30000000000000004c1.5 4.3 4.4 14 1.8 22-.3.8-.6 1.6-1.1 2.3 0 0 0 .1.1.1 0 0 0 .1-.1.1 1.7 3.2 3.3 7.7 3.1 12.8zM44.2 396.1c1.6-9.5 7.4-43 13.6-48.8l-13.6 48.8zM198 340l-.1-.4c2.2-.7 4.3-1.5 6.5-2.4l.1.4s-.1 0-.1.1c-2.2.9-4.3 1.6-6.4 2.3zM115 355.9l-.1-.6 22.2 19.3 13.2-6.8.5-29.4 29.4 59.8 31.2-19.7.1.4-31.3 19.8-29.4-59.8-.5 29.4-13.2 6.7zM211.5 432.5l.2 9.7c0-3.2-.1-6.6-.2-9.7zM214 366.4l-.1-.3.5-.2.1.3zM269.9 512.3c.6-.7 1-1.5 1.4-2.1-.4.8-.8 1.5-1.4 2.1zM271.3 390.2c-3.8-3.2-8.3-5-13.2-5.3 4.9.1 9.5 1.8 13.3 5.2l-.1.1zM274.9 454.1l.3-.3c0 .1-.2.2-.3.3zM275.4 430.2c1-4.3 1.6-9.5 1.1-14.7.6 5.3.1 10.5-1 14.8l-.1-.1zM272.3 479.1s3.6 12.5-4.8 18.1c0 0 .5 4.1-1.2 8-1.4 3.6-4.8 6.7-11.6 7.2h-.2c-2.9.2-5.3.5-7.7.7-9.2 1-14.7 2.2-21-.7-8-3.6-27.7-.5-32.1 1.9-4.3 2.2-93.9 16.7-128.8-16.3 35.1 32.7 124 18.2 128.5 16 4.3-2.2 24.1-5.3 32-1.9 6.5 2.9 11.8 1.7 21 .7 2.2-.2 4.8-.5 7.7-.7h.2c6.7-.5 10.1-3.9 11.6-7.2 1.5-3.3 1.3-6.8 1.2-7.7v-.2c7.5-5 5.4-15.5 4.9-17.7-.1-.3-.1-.4-.1-.4 7.7-6 8-12.7 6.6-17.6 1.7 4.9 1.6 11.7-6.2 17.8zM279.7 481.8c.5 3.9.2 8.7-1.7 13 1.8-4.3 2.1-9.1 1.7-13zM273.5 392.4l-1.9-1.9.1-.2c.7.5 1.4 1.2 1.8 1.8 2.7 2.9 4.8 6 6.3 9.2 2.9 6 3.8 12.2 3.9 17.5-.1-5.3-1.1-11.3-3.9-17.2-1.5-3.2-3.7-6.3-6.3-9.2zM282.6 430.2v-.2c1.8 4.4 4.7 14.3 1.8 22.2 2.6-8-.3-17.7-1.8-22zM286.3 467.3c.2-5.1-1.4-9.6-3-12.5 0 0 0-.1.1-.1 1.8 3.1 3.1 7.5 2.9 12.6z"/><path class="st1" d="M214.7 366.1l-.2.1-.5.2-.1-.3-2.8-10.3z"/><path class="st2" d="M272.3 479.1s3.6 12.5-4.8 18.1c0 0 .5 4.1-1.2 8-1.4 3.6-4.8 6.7-11.6 7.2h-.2c-2.9.2-5.3.5-7.7.7-9.2 1-14.7 2.2-21-.7-8-3.6-27.7-.5-32.1 1.9-4.3 2.2-93.9 16.7-128.8-16.3l-.6-.6c-.8-.8-1.6-1.5-2.3-2.3-32.1-33-31.7-67.5-22.7-72.9 9.4-5.8 4.6-23.6 4.6-23.6s.1-.9.4-2.6c1.6-9.5 7.4-43 13.6-48.8 7.2-6.8 5.1-20.2 3.6-24.8-1.3-4-7.5-37-9.1-45.2-.1-.6-.2-1-.2-1.3l-.1-.5 33.7-10.1 34.9 34.9v-47.5l33.7-29.4 13.2 31.3.7 2.2c-20 5.3-34.7 22.2-34.7 41.9 0 24.1 21.7 43.6 48.4 43.6 5.5 0 10.8-1 15.7-2.4l13.6 38.4.1.4-31.3 19.8-29.4-59.8-.5 29.4-13.2 6.8-22-19.2-.1-.1 7.2 34.9s29.4 22.9 40.2 42.9c0 0 49.4 22.2 49.4 10.1v-1.5c-.1-3.2-.2-6.5-.2-9.7v-2.5c.1-7.2 1.5-13 7.5-13.3 9.6-.5 25.1-17.1 25.5-19.5.2-.7 1.4-1.9 3.4-2.9 4.6-2.4 13-4.3 19.5 1.7.2.2.7.5 1 1 2.4 2.4 4.1 5.1 5.3 7.9.9 2.3 1.6 4.6 2.1 7 0 .1 0 .2.1.3-6.1-3.9-21.2 5.1-23 6.2l-.1.1c-3.7-3.1-7.4-6.7-8.4-7.7l-.3-.3s.3 4.7 1.8 9.8c1.4 4.4 3.8 9.1 7.8 11.1 1.4.7 3.1 1.2 5.1 1h.9c8.2-.3 12.3-1 14.1-1.5.1 0 .2 0 .3-.1.8-.2 1.1-.3 1.1-.3v.1c.2.4 1.2 2.7 1.9 5.9 1.4 5.3 2.5 13.1-1.8 17.3l-.3.3c-.1.1-.2.1-.2.2l.1.1c.5.5 2.7 3.1 3.9 6.9 1.4 5.1 1.3 11.9-6.5 18z"/><path class="st0" d="M227.8 284l-.5-1.2-1-2.3c-.3-.7-.7-1.3-1-1.9-.2-.3-.4-.6-.5-.9l-.3-.6c-.4-.7-.9-1.3-1.3-1.9-3.1-4.4-7.1-8.3-11.8-11.5-2.4-1.7-5.3-3.1-8-4.3-6.5-2.9-13.5-4.3-21.2-4.3-2.4 0-4.6.2-6.7.5-2.4.2-4.6.7-7 1.4-20 5.3-34.7 22.2-34.7 41.9 0 24.1 21.7 43.6 48.4 43.6 5.5 0 10.8-1 15.7-2.4h.1c2.1-.7 4.2-1.4 6.4-2.4 0 0 .1 0 .1-.1.4-.2.6-.2.8-.4l1-.5c.2-.1.4-.2.5-.3h.1c1.5-.8 3-1.8 4.4-2.8l.3-.2c6.2-4.3 11.1-9.9 14.4-16.4.1-.2.2-.5.4-.7 2.6-5.3 4-11.2 4-17.4.1-5.2-.8-10.3-2.6-14.9zm-17.7 42.4c-1.2 1-2.4 1.9-3.8 2.7-1.2.7-2.4 1.4-3.6 1.9-2.2 1-4.3 1.9-6.5 2.4-4.3 1.2-8.7 1.9-13.5 1.9-5.2 0-10.1-.8-14.7-2.4-.2 0-.3-.1-.5-.2-15.4-5.3-26.2-18.6-26.2-34.1 0-16.9 12.8-31.1 30.1-35.4 2.2-.5 4.6-1 7-1.2 1.4-.2 2.9-.2 4.3-.2 5 0 9.9.8 14.4 2.2 2.2.7 4.3 1.6 6.3 2.6 1.2.5 2.2 1.2 3.1 1.7 2 1.2 3.9 2.7 5.6 4.2h.1c.2.2.4.4.6.5l1.5 1.4.5.5.1.3.1.2c.2.2.4.6.8.8l.2.1 1.2 1.5c.5.5 1 1.2 1.4 1.9l1.4 2.2c.2.2.5.7.5 1 .5.7.7 1.4 1 2.2.2.7.7 1.4 1 2.4l.5 1.2.2 1.2c0 .2 0 .5.2.7.2.5.2 1 .2 1.7 0 .5.2 1 .2 1.7 0 .2 0 .5.2 1 0 .5.2 1.2.2 1.9v4.3c-.7.5-.7 1.7-1 2.9 0 .2 0 .7-.2 1.2l-.5 1.7c0 .5-.2 1-.5 1.7l-.5 1.7v.2l-.7 1.7-.7 1.7v.2l-.7 1.2-.5.7c-.2.5-.5 1-.7 1.2l-1 1.5c-.2.5-.5.7-1 1.2l-1.5 1.7c-1 1-1.9 2.2-3.1 3.1l-1.5 1.6z"/><path class="st2" d="M223.8 296.5c0-.5 0-1.2-.2-1.9 0-.2 0-.5-.2-1 0-.5-.2-1-.2-1.7 0-.5-.2-1-.2-1.7 0-.2 0-.5-.2-.7l-.2-1.2c0-.5-.2-.7-.5-1.2-.2-.7-.5-1.4-1-2.4l-1-2.2c-.2-.2-.5-.7-.5-1l-1.4-2.2-1.4-1.9-1.2-1.4c-.2-.2-.5-.7-1-1 0 0-.2-.2-.2-.5l-1.4-1.4c-.7-.7-1.7-1.4-2.7-2.2-.7-.7-1.4-1.2-2.4-1.7l-.5-.2-1.4-1c-1-.7-1.9-1.2-3.1-1.7-6-3.1-13.3-4.8-20.7-4.8-1.4 0-2.9 0-4.3.2-2.4.2-4.8.7-7 1.2-17.3 4.3-30.1 18.6-30.1 35.4 0 20.2 18.6 36.6 41.4 36.6 4.8 0 9.2-.7 13.5-1.9 2.2-.7 4.3-1.4 6.5-2.4 1.2-.5 2.4-1.2 3.6-1.9 1.4-.7 2.7-1.7 3.9-2.7l1.7-1.4c1.2-1 2.2-1.9 3.1-3.1l1.4-1.7 1-1.2 1-1.4c.2-.5.5-1 .7-1.2l.5-.7.7-1.2v-.2l.7-1.7.7-1.7v-.2c.2-.5.5-1.2.5-1.7.2-.5.2-1 .5-1.7.2-.5.2-1 .5-1.7l.2-1.2c.2-1.2.2-2.4.5-3.4v-2.2c.4-.5.4-1.2.4-1.9zm-30.6 8.9c-1.4 1.9-3.4 3.6-5.8 4.8l-3.6 1.4c-1.7.5-3.4.7-5.1.7-6.7 0-12.3-3.9-14-9.4-2.2-7.2 3.1-14.9 11.6-17.3.7-.2 1.4-.5 2.2-.5 1-.2 1.9-.2 2.9-.2 1.7 0 3.1.2 4.6.7 4.6 1.2 8 4.6 9.2 8.9 1.2 3.7.2 7.5-2 10.9z"/><path class="st3" d="M195.4 294.3c-1.2-4.3-4.8-7.5-9.2-8.9-1.4-.5-2.9-.7-4.6-.7-1 0-1.9 0-2.9.2-.7 0-1.4.2-2.2.5-8.4 2.4-13.5 10.1-11.6 17.3 1.7 5.5 7.2 9.4 14 9.4 1.7 0 3.4-.2 5.1-.7 1.2-.5 2.4-.7 3.6-1.4 2.4-1.2 4.3-2.9 5.8-4.8 2-3.2 3-7 2-10.9zm-4.8 3.9c-.2 2.9-2.2 5.3-4.8 7.2l-3.1 1.4c-5.5 1.7-11.3-.7-12.5-5.1s2.2-9.4 8-11.1c1-.2 1.7-.5 2.7-.5 3.4-.2 6.5.7 8.4 2.7.7.7 1.2 1.7 1.7 2.9-.4.8-.4 1.5-.4 2.5z"/><path class="st4" d="M190.6 298.2c-.2 2.9-2.2 5.3-4.8 7.2l-3.1 1.4c-5.5 1.7-11.3-.7-12.5-5.1s2.2-9.4 8-11.1c1-.2 1.7-.5 2.7-.5 3.4-.2 6.5.7 8.4 2.7.7.7 1.2 1.7 1.7 2.9-.4.8-.4 1.5-.4 2.5z"/><path class="st1" d="M210.3 271.4c-.7-.5-1.4-1.2-2.4-1.7l2.4 1.7zm-2.4-1.7c-.5-.5-1.2-1-1.7-1.2l1.4 1c.1 0 .1.2.3.2zm4.9 4.1c-.7-.7-1.7-1.4-2.7-2.2 1 .6 1.9 1.3 2.7 2.2zm-7 55l1.9-1.2 3.6-2.9-1.7 1.4c-1.2 1-2.4 2-3.8 2.7z"/><path class="st0" d="M222.6 252.2l2.9 3.1-2.9-11.1 42.4-22.2 4.6 11.1c-2.2 1-4.1 2.2-6 3.6l-1.9-5.1-30.6 16.1 8.7 32.5-18.8-20-9.4 3.4c-2.4-1.7-5.3-3.1-8-4.3l19-7.1zm71.1 94.4l-11.3 2.4-2.4.5-13.3 2.7-4.1.7-20-19.3 1.4 24.6-28.9 8-3.6-10.4v-.2l-5.3-18.8c2.2-1 4.1-2.2 6-3.6l7.2 24.6 17.6-4.8-1-3.9-.7-15.2-1-17.3 30.1 28.9 21.7-4.3-.2-4.3h7l.8 9.7z"/><path class="st1" d="M214.7 366.1l-.2.1-.5.2-.1-.3-2.8-10.3z"/><path class="st2" d="M264.6 345.4l-30.1-28.9 1 17.3.7 15.2.2 3.9-17.6 4.8-7.2-24.6c11.6-8 19-20.5 19-34.7s-7.7-27-19.3-34.9l9.4-3.4 18.8 20-8.9-32.5 30.6-16.1 1.9 5.1-1.7 1.4c-8 6.7-12.5 16.4-12.5 27 0 11.8 8.4 24.6 18.3 29.6-4.1-1.4-6.7-2.4-7-2.4l-9.4-3.6v41.9l5.1 1.4c7 1.9 17.8 4.3 28.9 4.8h.7l.2 4.3-21.1 4.4z"/><path class="st0" d="M322.9 293.8c-1.2-2.9-2.4-5.3-4.1-7.7-.7-1.2-1.7-2.2-2.7-3.1-3.4-3.9-7.7-6-12.3-6.7l-1.7-.2c-2.7-.5-5.1-1.4-7-2.7-2.4-1.4-4.3-3.4-5.3-5.1 0-.2-.2-.5-.2-.5.7 0 1.7-.2 3.1-.2h2.4c2.2.2 4.6.5 7 .7 5.3 1 9.9 1.9 9.9 2.2l8 2.2 2.4-25.3.7-7 1.7-16.4-8.4.7c-.5 0-14.5 1.2-34.7 4.6-4.6.7-8.7 1.9-12.5 3.9-2.2 1-4.1 2.2-6 3.6l-1.7 1.4c-8 6.7-12.5 16.4-12.5 27 0 11.8 8.4 24.6 18.3 29.6-4.1-1.4-6.7-2.4-6.7-2.4l-9.4-3.6v41.9l5.1 1.4c7 1.9 17.8 4.3 28.9 4.8h7.7c11.8-.5 20.2-3.1 25.8-8.7.5-.5.7-1 1.2-1.2 4.1-4.8 5.8-11.1 5.8-17.6.1-5.7-1.1-11-2.8-15.6zm-4.1 16.2c-.2 4.8-1.4 9.2-4.1 12.3-4.3 5.1-12.5 7.2-22.2 7.5h-7c-9.2-.5-18.8-2.2-27.5-4.6v-26.5s15.9 6.3 26.3 7.7c5.1.7 8.9.5 8.7-2.4-.2-6-4.3-10.6-9.6-12.5-2.2-1-4.6-1.4-7.2-1.4-8.9 0-20-13.7-20-25.1 0-7.2 2.7-15.7 9.9-21.7 1.7-1.4 3.6-2.7 6-3.9 3.1-1.7 6.7-2.9 11.1-3.4 20-3.1 34.2-4.3 34.2-4.3l-1 8.7-.7 7-1.7 16.4s-5.3-1.4-11.6-2.4c-2.2-.2-4.6-.7-7-.7-5.5-.2-10.6.2-12 3.1-2.9 5.8 2.9 13.5 12 17.3 1.9.7 4.1 1.4 6.3 1.9l1.4.2c8.9 1.2 15.2 13.5 15.7 24.8v2z"/><path class="st2" d="M318.8 307.8v1.9c-.2 4.8-1.4 9.2-4.1 12.3-4.3 5.1-12.5 7.2-22.2 7.5h-7c-9.2-.5-18.8-2.2-27.5-4.6v-26.3s15.9 6.3 26.3 7.7c5.1.7 8.9.5 8.7-2.4-.2-6-4.3-10.6-9.6-12.5-2.2-1-4.6-1.4-7.2-1.4-8.9 0-20-13.7-20-25.1 0-7.2 2.7-15.7 9.9-21.7 1.7-1.4 3.6-2.7 6-3.9 3.1-1.7 6.7-2.9 11.1-3.4 20-3.1 34.2-4.3 34.2-4.3l-1 8.7-.7 7-1.7 16.4s-5.3-1.4-11.6-2.4c-2.2-.2-4.6-.7-7-.7-5.5-.2-10.6.2-12 3.1-2.9 5.8 2.9 13.5 12 17.3 1.9.7 4.1 1.4 6.3 1.9l1.4.2c8.9 1.1 15.4 13.4 15.7 24.7z"/><path class="st0" d="M325.8 276v33c0-5.3-1.2-10.6-2.9-15.2-1.2-2.9-2.4-5.3-4.1-7.7-.7-1.2-1.7-2.2-2.7-3.1-3.4-3.9-7.7-6-12.3-6.7l-1.7-.2c0-.1 23.7-.1 23.7-.1zm43.3-.7l-5.3 7h-6.5v8.4l-6.7 8.9v-24.3h18.5zm13.5-35v17.6l-7 8.9v-19.5h-53l.7-7h59.3zm-25.3 92.6v21h-38.6v-26l1.2-1.2c4.1-4.8 5.8-11.1 5.8-17.6v38.1h24.8v-16.6c.1-.1 6.8 2.3 6.8 2.3z"/><path class="st2" d="M375.6 247.3v19.5l-6.5 8.4h-18.8v24.3l-18.3 24 18.3 6.7v16.6h-24.8v-70.8h-20.2c-3.6 0-7-.7-10.1-2.7-2.4-1.4-4.3-3.4-5.3-5.1 0-.2-.2-.5-.2-.5.7 0 1.7-.2 3.1-.2h2.4c2.2.2 4.6.5 7 .7 5.3 1 9.9 1.9 9.9 2.2l8 2.2 2.4-25.3h53.1z"/><path class="st0" d="M489.3 312c-.5-7-4.6-14.3-12.2-21.7l-.2-.2c-1.6-1.6-3.2-3-5-4.4l-.3-.2c-14.5-11.8-32.8-20.2-33.7-20.7l-7-3.1-9.6 28.9-2.9-37.1-27.7-5.5-8 10.4-7 8.9-6.5 8.4-5.3 7-6.5 8.4-7 9.1-18 23.5-.4.3 18.3 6.7.2.1 6.8 2.6 7.5 2.7 10.1-10.8 14.7 6 4.8 18.3 6.7 1.4-5.5 16.9 23.6 8 2.2.7 8.2 2.9 1.2.5 8-22.6v21l33.5 10.8v-45.5c7.5-4.1 16.9-13.5 17.1-30.1 0-.7-.1-1.2-.1-1.6zm-93.9 13.6l-22.2-9.2-10.1 11.1-.2-.1-5.4-2.1-7-2.7-7.1-2.6-.1-.1 7.2-9.1 7-9.2 15.2-19.8 2.2-2.9 7.7-10.1 10.8-14 18.3 3.6 3.9 48.2 1.5 17.8 1.7 22.2h-.2l-15.2-3.1-3.4-.5-4.6-17.4zm69.6 13.3v40l-19.5-6.3v-36.1h-7.2l-5.5 15.4-6.5 18.6-22.2-7.5 3.9-11.1 18.3 3.9-3.8-47.7 12.3-37.1s18.3 8.4 32.1 19.5c1.9 1.4 3.6 3.1 5.3 4.6 5.8 5.8 10.1 12.1 9.9 18.3 0 11.3-5 17.9-9.6 21.5-4 3-7.5 4-7.5 4z"/><path class="st5" d="M363.8 282.3l-6.5 8.4v-8.4h6.5z"/><path class="st2" d="M418.8 347.1l-15.4-3.1-3.4-.7-4.6-17.6-22.2-9.2-10.4 11.1-5.5-2.2-6.7-2.4-7.2-2.7 7.2-9.4 6.7-8.9 15.2-19.8 10.1-13 10.8-14 18.3 3.6 3.9 48.2 1.2 17.8 2 22.3z"/><path class="st0" d="M378 302.3l21.4-34 3.6 39.5-25-5.5z"/><path class="st5" d="M396.8 278.9l-13.3 21.2 15.4 3.4-2.1-24.6z"/><path class="st2" d="M482.1 313.4c-.2 20.7-17.1 25.5-17.1 25.5v40l-19.5-6.3v-36.1h-7.2l-5.5 15.4-6.5 18.6-22.2-7.5 3.9-11.1 18.3 3.9-3.9-47.7 12.3-37.1s18.3 8.4 32 19.5c1.9 1.4 3.6 3.1 5.3 4.6 6 5.7 10.4 12 10.1 18.3z"/><path class="st0" d="M454.4 323.7c-1 0-1.9-.2-2.9-.5l-10.6-4.1 6.7-14.7 9.9 4.3c1.9 1 3.4 2.4 4.1 4.3s.5 4.1-.2 6c-1.4 3.3-4.1 4.7-7 4.7z"/><path class="st5" d="M449.4 309l-3.6 8.2 7.2 2.9c2.2.7 4.3 0 5.3-2.2s.2-4.8-2.2-5.8l-6.7-3.1z"/><path class="st6" d="M354.2 529.2c7 0 14.2-1.9 18.8-5.3 0 .2-.1.4-.2.6-1.4 5.1-3 9.7-4.9 14.1-5.1 11.1-12 19-21.9 21.9-8 2.5-16.7 3.3-25.4 2.6-3.8-.3-7.6-.9-11.3-1.7-1.2-.3-2.3-.5-3.5-.9-20.9-5.8-40.2-20.1-49.1-41.1 0-.1-.1-.2-.2-.4 6.7-.7 10.8-3.8 13-6.5l.3-.3c.6-.7 1-1.5 1.4-2.1 1.9-3.4 2.7-7 2.9-9.6 1.6-1.7 2.8-3.5 3.7-5.5 0-.1.1-.2.1-.2 1.8-4.3 2-9.1 1.7-13 4.6-4.8 6.3-9.9 6.5-13.5 0-.3 0-.7.1-1 .2-5.1-1.4-9.6-3-12.5 0 0 0-.1.1-.1.4-.8.7-1.6 1-2.4 2.6-8-.3-17.7-1.8-22v-.2c.5-2.3.9-5.3 1-8.8v-2.4c-.1-5.3-1.1-11.3-3.9-17.2-1.5-3.1-3.6-6.3-6.3-9.1l-1.9-1.9.1-.2c5.3-7.2 12.5-15.3 21.6-21.8.2-.1.4-.2.5-.4 8.6-5.8 18.7-10 30.3-10 15.3-.1 27 2.9 35.5 9 4.2 3 7.7 6.8 10.5 11.3 3.1 5 5.4 11 6.9 17.8.4 1.8.7 3.7 1 5.6v.3c-6.3 1.2-12.8 6.8-14.4 18.3 0 .2-.1.4-.1.5-.2 1.5-.4 3.2-.4 5.1v.9c-2.6 0-6-.2-9.6-.5-1.7-.2-3.4-.2-4.8-.2-14.5 0-18.8 8.9-22.2 15.9-1.5 3.1-2.1 6.6-2.1 10v1.5c.2 5.3 1.5 10.2 2.6 13.3v.1c-2 4.8-2.8 9.7-2.8 14.4v1.5c.1 8.1 2.3 15.2 3.6 18.7v.2c-.1.7-.2 1.3-.2 2v.5c0 5.7 3.3 10.6 6.5 13.5l.5 1c2.3 4.9 6.9 8.3 13 9.7 2.1.3 4.4.5 6.8.5z"/><path class="st0" d="M576.6 504.7c-.2 3.4-1.9 8.4-7.7 12.3-1.2 1-2.9 2.2-4.6 3.4-12.8 9.6-36.9 27.7-69.6 28.2h-1.2c-36.9 0-96.1-19-103.9-22.7-1.4-.7-2.7-1.4-4.1-1.6-.1 0-.2 0-.3-.1-2.7-1-5.1-1.4-7-1.4-1.6 0-3 .3-4.3 1-.3.1-.5.3-.8.5l-.2.2s-.1.1-.2.1c-4.6 3.1-11.7 5.2-18.6 5.2-2.4 0-4.6-.2-6.7-.7-6.2-1.4-10.8-4.8-13.1-9.9l-.5-1c-3.2-3.2-6.5-8-6.5-13.7v-.5c0-.6.1-1.3.2-1.9v-.1c-1.3-3.6-3.5-10.7-3.6-18.9v-1.5c0-.6 0-1.2.1-1.9.2-4.1 1.1-8.3 2.8-12.4v-.1c-1.1-3.1-2.5-8.1-2.6-13.4v-2.2c.1-3.1.8-6.2 2.1-9.1 3.4-7 7.7-15.9 22.2-15.9 1.4 0 3.1 0 4.8.2 3.6.5 6.7.5 9.6.5v-1.1c0-1.8.1-3.5.4-5 0-.1 0-.2.1-.3 1.7-11.6 8.2-17.1 14.4-18.3l2.2-.2c3.4 0 6.5 1.5 9.2 4.1 1.9 2.1 3.2 4.7 4.3 7.6.1.3.2.6.3 1 .1.2.1.4.2.5 2.2 7.7 2.2 17.1 1.9 21.7 1.2 3.1 5.5 13.5 14 13.5 14-.2 29.9-5.3 32.8-8.4 0-.7 0-1.7.2-2.4.2-5.1 1-16.9 14-16.9 1 0 2.2 0 3.1.2h1.7c1.9 0 3.4-.5 4.1-1.4.2-.5.2-.7.2-1.2-2.2-4.1-19.5-21.9-34.5-36.2l-2.4-2.4.2-2.7 1.2.5 8-22.6v5.1l-2.1 16.4-.1.4s34 32.5 36.1 38.6c.3.8.5 1.7.5 2.5v.5c-.1 5.3-5.1 10-14 8.8-10.4-1.4-8.9 6.5-9.6 14-.7 7.5-23.8 13.7-39.3 14-15.4.2-21.2-19.5-21.2-19.5v-1.2000000000000002c.1-2.9.1-10.4-1-16.9-1.2-6.3-3.8-11.6-8.9-10.8h-.5c-5.3 1.2-7.5 6.8-8.2 12.3-.2 2-.3 3.9-.3 5.6v1c0 2.3.2 4.1.3 5v.5s-4.3 1.4-17.6 0c-13.2-1.4-16.1 3.4-20.2 11.8-1 2.1-1.4 4.6-1.5 7.2-.1 6.6 2.5 13.3 3 14.7.1.2.1.3.1.3-2.6 4.7-3.5 9.8-3.5 14.6v.7c.1 9.1 3.3 17 3.9 18.4l.1.2c-.3.9-.5 1.7-.5 2.5-.2 5.6 5.6 10 5.6 10 0 .5.2 1 .5 1.5 3.8 10.4 22.4 7.7 28.7 3.1 1.7-1.2 3.6-2.2 5.8-2.4 4.6-1 9.6.2 14.5 2.2l3.4 1.4c7.7 3.6 67 22.4 101.9 22.2 34.9-.5 59.5-22.4 70.4-30.1 10.8-7.7 0-19.3 0-19.3s-7.2-51.1-18.8-55.9l-45.3-57.1s-32-34.5-7.2-44.6c16.7-6.8 37.3 13.9 49 28.2.7.8 1.3 1.6 1.9 2.4 3.8 4.8 6.4 8.5 7.1 9.6.1.2.2.3.2.3l13.3-50.1-.1-.1c-1.7-2.1-26.1-32.9-58.7-39.6-14.7-3.1-23.8-.1-29.1 4.6-.1.1-.2.2-.3.2-1.7-1.7-3.4-3.1-5.3-4.6 4.8-4.3 12-8.2 23.6-8.2 3.9 0 8 .5 12.5 1.4 35.9 7.5 61.9 41 62.9 42.4l2.2 2.7-18.1 68.4-8.4-13c-9.9-14.9-31.1-38.8-45.5-38.8-1.4 0-2.9.2-4.3.7-3.9 1.4-4.6 3.4-5.1 4.8-1.7 7.2 7.7 21 14.7 28.7l.5.5.2.5c15.7 24.3 36.4 52 42.2 54.5 13 5.3 19.8 38.6 22.9 59.3 1.9 2.1 5.5 8.1 4.8 14.9z"/><path class="st2" d="M565 492.4s-7.2-51.1-18.8-55.9l-45.3-57.1s-32-34.5-7.2-44.6c16.7-6.8 37.3 13.9 49 28.2.7.8 1.3 1.6 1.9 2.4 3.8 4.8 6.4 8.5 7.1 9.6l13.4-49.9c-1.7-2.1-26.1-32.9-58.7-39.6-14.7-3.1-23.8-.1-29.1 4.6 7.7 7.5 11.5 14.9 12 22v1.4c-.2 16.6-9.6 26-17.1 30.1v45.4l-33.5-10.8v-15.9l-2.1 16.4c1.5 1.5 34 32.4 36.1 38.5.4 1 .5 2 .5 3v.5c-.1 5.3-5.1 10-14 8.8-10.4-1.4-8.9 6.5-9.6 14-.7 7.5-23.8 13.7-39.3 14-15.4.2-21.2-19.5-21.2-19.5v-1.1c.1-2.9.1-10.4-1-16.9-1.2-6.3-3.8-11.6-8.9-10.8h-.5c-5.3 1.2-7.5 6.8-8.2 12.3-.2 2-.3 3.9-.3 5.6v1c.1 2.9.3 5 .3 5v.5s-4.3 1.4-17.6 0c-13.2-1.4-16.1 3.4-20.2 11.8-1 2.1-1.4 4.6-1.5 7.2.1 7.2 3.1 14.5 3.1 14.5l-.1.2c.1.2.1.3.1.3-2.6 4.7-3.5 9.8-3.5 14.6v.7c.2 9.9 4 18.1 4 18.1 0 .1-.1.2-.1.2l.1.2c-.3.9-.5 1.7-.5 2.5-.2 5.6 5.6 10 5.6 10 0 .5.2 1 .5 1.5 3.8 10.4 22.4 7.7 28.7 3.1 1.7-1.2 3.6-2.2 5.8-2.4 4.6-1 9.6.2 14.5 2.2l3.4 1.4c7.7 3.6 67 22.4 101.9 22.2 34.9-.5 59.5-22.4 70.4-30.1 10.8-7.9-.1-19.4-.1-19.4zm-39.1-36.4c2.6-1.8 7.2.2 10.1 4.4 3 4.3 3.2 9.2.6 11-2.6 1.8-7.2-.2-10.1-4.4-3-4.3-3.2-9.2-.6-11zm-44.5-16.2c7.4-2.2 14.4-.5 15.6 3.7 1.2 4.2-3.8 9.4-11.2 11.5-7.4 2.2-14.4.5-15.6-3.7-1.2-4.2 3.8-9.4 11.2-11.5zM334.4 467.3c-2.6 4.7-3.5 9.8-3.5 14.6 0-4.9.8-10.1 3.4-14.9.1.2.1.3.1.3zM334.8 501.1l.1.2c-.3.9-.5 1.7-.5 2.5-.1-.9.1-1.8.4-2.7zM370.5 432.9v.5s-4.3 1.4-17.6 0c-13.2-1.4-16.1 3.4-20.2 11.8-1 2.1-1.4 4.6-1.5 7.2 0-2.7.3-5.4 1.5-7.6 4.1-8.4 7-13.2 20.2-11.8 12.6 1.2 17.1 0 17.6-.1zM388.2 419.8c-1.2-6.3-3.8-11.6-8.9-10.8h-.5c-5.3 1.2-7.5 6.8-8.2 12.3-.2 2-.3 3.9-.3 5.6 0-1.9.1-4 .3-6.1.7-5.5 2.9-11.1 8.2-12.3h.5c5.1-1 7.5 4.3 8.9 10.8 1.4 6.9 1.1 14.9 1 17.3 0-2.8.1-10.3-1-16.8zM436.7 378.7l2.1-16.9v.5l-2.1 16.4zM438.8 377.2l33.4 10.8v1l-33.4-10.8zM459.2 429.5c-10.4-1.4-8.9 6.5-9.6 14-.7 7.5-23.8 13.7-39.3 14-15.4.2-21.2-19.5-21.2-19.5v-.4c.3 1.2 6 19.7 21.2 19.5 15.4-.2 38.5-6.5 39.3-14 .7-7.5-.7-15.2 9.6-14 8.4 1.2 13.5-3.2 13.9-8.3v-.5.5c.1 5.2-4.9 9.9-13.9 8.7zM497.1 443.5c1.2 4.2-3.8 9.4-11.2 11.5-7.4 2.2-14.4.5-15.6-3.7-1.2-4.2 3.8-9.4 11.2-11.5 7.3-2.2 14.3-.5 15.6 3.7zM536 460.4c3 4.3 3.2 9.2.6 11-2.6 1.8-7.2-.2-10.1-4.4-3-4.3-3.2-9.2-.6-11 2.6-1.8 7.2.2 10.1 4.4zM544.7 365.3c3.8 4.8 6.4 8.5 7.1 9.6v.1s-2.7-4-7.1-9.7zM565.3 324.7l-.1.4c-1.7-2.1-26.1-32.9-58.7-39.6-14.7-3.1-23.8-.1-29.1 4.6l-.2-.2c5.3-4.6 14.5-8 29.4-4.8 33.6 6.8 58.7 39.6 58.7 39.6z"/><path class="st7" d="M420.9 376.5l-2.2-.7-36.6 3.6 8-16.1-14.9 6-2.9-11.1h-15.2l-2.7-3.8h-35.9v-7l-23.4 10.8-13.2-8.9-2.4.5 2.2 16.9-15.4-14.2-4.1.7-19.5-18.8-.5-.5 1.4 24.5v.1l12.5 15.7-29.4 1.2 15.7 14.2c3.9-2.8 9.3-4.4 14-4.5h1.7c4.9.2 9.4 2.1 13.2 5.3l.1-.1c5.1-7.1 12.4-15.4 21.6-21.8 8.6-5.9 18.9-10.2 30.8-10.4 15.4-.2 27.1 2.8 35.7 8.9 4.3 3.1 7.8 7 10.6 11.6 3 5 5.2 10.8 6.6 17.5.4 1.9.8 3.9 1.1 6 .1 0 .1 0 .2-.1.7-.2 1.3-.2 2-.2 3.6 0 6.8 1.4 9.2 4.1 2.2 2 3.6 4.9 4.5 8.1l.3 1 .1-.1 13-9.8-10.4-6 24.2-22.6zm-41.2 156.6l5.8-8.9.2-.3c-2.7-1-5.1-1.4-7-1.4-2 0-3.6.4-4.8 1.2l-.3.2c0 .2-.2.2-.2.2-4.8 18.3-13 32.5-27 36.6-11.6 3.5-24.6 3.6-37.2.6-1.2-.3-2.3-.5-3.5-.9-20.9-5.9-40-20.2-48.7-41.2l-.3.1c-.4.1-1 .1-1.4.1-3.1.2-6 .5-8.4.7-.5 8-1.2 16.9-3.4 21.2l14.5-1.9-21.7 33.2 39-16.9v16.9l18.5-7.2 14.2 14.5 14-9.6 16.1 3.1 15.9-10.1h10.1l8-16.9 23.1-4.1-15.5-9.2z"/><path class="st1" d="M279.7 401.1s56.9-57.6 97.3-4.6m-84-28.2s30.8-5.8 27.9 24.6c-2.9 30.4-25.3 26.3-27.9 54-2.7 27.7-8.4 78.3 10.6 90.6 19 12.3 36.9 19.3 64.3 1.2m-20.5-10.2s4.8 17.6-27 34.7m39.1-196.4s14.9 37.3-14.5 59.5"/><path class="st8" d="M495.4 421.8s-14.2-5.8-22.4-1m-138.6 46.3s44.6 1.9 42.6-12.8m-42.1 46.8s25.1 2.7 28.2-6.7c3.4-9.2 15.9-6.7 15.9-6.7m-39 25.9s11.1 2.4 14-2.9m-282.9-105.5s30.4-23.1 51.1-14.5m112.5 67.9s14 8.4 21.4 6.5l18.8-10.8m-44.1 24.3s8.2 1 13.7 3.6c5.5 2.7 21 5.5 27.7-3.1m-36.1 15.2l31.3 2.9"/><path class="st9" d="M275.4 430.5s-2.9 1.2-16.4 1.9c-1.9 0-3.6-.2-5.1-1-8.9-4.3-9.6-21-9.6-21s4.3 4.3 8.7 8c2.7 2.2 5.3 4.3 7 4.8 4.1 1.5 13.7 2.4 15.4 7.3z"/><path class="st10" d="M275.4 430.3v.1c-.3-.8-.7-1.4-1.3-2-.2-.2-.5-.5-.8-.7-.8-.6-1.9-1.2-3-1.6-3.5-1.5-8-2.2-10.5-3.2-1.6-.7-4.2-2.6-6.8-4.7l-.2-.1s16.5-10.3 23.1-6.3h.1c.2 1 .4 2 .5 3 0 .2 0 .4.1.6.5 5.4 0 10.6-1.2 14.9z"/><path class="st8" d="M228.9 420.8s14.9 5.1 17.1-.7m-118.1 10.4s-27.7.2-34.5-10.6m384.9 40.7s33.7-.5 36.1-6.5"/><path class="st11" d="M536.6 471.4c-2.6 1.8-7.2-.2-10.1-4.4-3-4.3-3.2-9.2-.6-11 2.6-1.8 7.2.2 10.1 4.4 3 4.3 3.2 9.2.6 11zM485.9 455c-7.4 2.2-14.4.5-15.6-3.7-1.2-4.2 3.8-9.4 11.2-11.5 7.4-2.2 14.4-.5 15.6 3.7 1.2 4.2-3.8 9.4-11.2 11.5z"/><path class="st8" d="M385.8 516.7s8.9-11.1 7.2-17.8"/><ellipse class="st11" cx="116.6" cy="471.9" rx="9.2" ry="4.8"/><ellipse class="st11" cx="143.8" cy="437.2" rx="10.1" ry="4.8"/><ellipse class="st11" cx="208.2" cy="477.2" rx="4.6" ry="10.1"/><path class="st11" d="M79.8 442.3s7.7 16.1 21 7.2c13.3-8.9-4.3-12.8-8.9-17.1-4.4-4.4-28-5.1-12.1 9.9z"/></svg>