<?xml version="1.0" encoding="utf-8"?>
<!-- Generator: Adobe Illustrator 18.1.1, SVG Export Plug-In . SVG Version: 6.00 Build 0)  -->
<!DOCTYPE svg PUBLIC "-//W3C//DTD SVG 1.1//EN" "http://www.w3.org/Graphics/SVG/1.1/DTD/svg11.dtd">
<svg version="1.1" id="Layer_1" xmlns="http://www.w3.org/2000/svg" xmlns:xlink="http://www.w3.org/1999/xlink" x="0px" y="0px"
	 viewBox="0 0 141.5 103.5" style="enable-background:new 0 0 141.5 103.5;" xml:space="preserve">
<style type="text/css">
	.st0{fill:#9E1F63;stroke:#000000;stroke-width:0.5286;stroke-miterlimit:10;}
	.st1{fill:#EE2A7B;stroke:#000000;stroke-width:0.5286;stroke-miterlimit:10;}
	.st2{fill:#BF1561;stroke:#000000;stroke-width:0.5286;stroke-miterlimit:10;}
	.st3{fill:#FFFFFF;stroke:#000000;stroke-width:0.5286;stroke-miterlimit:10;}
	.st4{fill:#7B0E4C;stroke:#000000;stroke-width:0.5286;stroke-miterlimit:10;}
	.st5{fill:none;stroke:#000000;stroke-width:0.5286;stroke-miterlimit:10;}
	.st6{fill:none;stroke:#000000;stroke-width:0.5286;stroke-linecap:round;stroke-miterlimit:10;}
</style>
<path class="st0" d="M119.8,13.7c0,0-10.1,4.1-12.4,7.8s-5.6,6.3-7.7,6.2c-0.6,0-1.8,0.1-3.1,0.4c2.9,0.5,5.6,1.7,6.3,2.7
	c0.2,0.4,0.3,1,0.1,1.8c-0.4,2.7-2.9,7.3-6.3,8.9c-2.8,1.4-7,5.5-10.2,8.6c-1.8,1.7-3.2,3.2-3.9,3.7c-0.3,0.2-0.7,0.7-1,1.2
	c-1.4,2.4-3.1,7.2-3.9,9.6c-0.4-1-0.9-2-1.3-2.7l3.6-8.1c-0.8-1-1.1-2.1-1.1-2.1c-0.8,1.6-2.5,2.5-4.6,2.9c-1.8,0.4-3.8,0.5-5.5,0.5
	c-3.8,0-11.4-3.4-11.4-3.4c-0.5,1-2.3,2.1-2.3,2.1c0,2.7,2,6.4,2,6.4s1.1,1.6,2.9,6.6c1.2,3.3-0.3,7.3-2.1,10.3
	c-2.7-4.1-3.4-12.3-3.5-17.4c-0.2-6.4-3.7-8.7-6.4-13.1C45.2,42,34.4,37.8,37.1,33c1-1.8,2.6-3,4.3-3.8c2.9-1.4,5.8-1.7,5.8-1.7
	l-0.1-2.6l0-0.9L47,21.8l-0.1-2.6C51.3,4.7,63,3.1,66.5,2.7c3.5-0.4,5,6.4,5,6.4c4.2,0.6,5.3,3.3,5.3,3.3c1.1-2,4.9-1.9,5.4-1.1
	c0.4,0.7,2.2,2.7,4,3.8c1.8,1.1,3.6,5.3,3.6,9.2c0,0.4,0,0.8,0.1,1.1c2.9-1.2,7.9-3.5,8.8-4.6c1.2-1.5,14.3-7.1,20.2-7.2
	C119.1,13.6,119.5,13.6,119.8,13.7z"/>
<path class="st1" d="M72.2,94.2c-5.7,4.2-14.8,6.9-19.8,6.6S42.1,97.5,45,93s7.8-10.3,10.2-12.6c0.8-0.8,1.8-2,2.8-3.5
	c1.8-3,3.4-6.9,2.1-10.3c-1.9-5-2.9-6.6-2.9-6.6s1.6-5.7,4.9-3c3.3,2.6,4.9,3.7,4.9,3.7s3.3-2.6,5.8-2.2c1.1,0.2,2.5,1.2,3.7,3.2
	c0.5,0.8,0.9,1.7,1.3,2.7c0.9,2.4,1.6,5.5,1.7,9.2C79.9,83.4,77.9,90,72.2,94.2z"/>
<path class="st0" d="M47.1,24.8c-1.6-0.3-4-0.7-7-0.7c-5.2,0-15.6-11-22.5-14.4c-0.1,0-0.2-0.1-0.3-0.1c0,0,11.1,1.2,17,5.8
	c4.5,3.5,9.2,5.6,12.6,6.5l0.1,2.1L47.1,24.8z"/>
<path class="st2" d="M47.3,27.4c0,0-3,0.3-5.8,1.7c-3.5-0.2-6.4-0.5-8.9-0.7c-3-0.3-9.1-1.7-11.2-5.4S6.3,9.1,2.4,8.6
	c0,0,7.4-0.4,15.2,1.1c6.9,3.5,17.2,14.4,22.5,14.4c3,0,5.5,0.4,7,0.7L47.3,27.4z"/>
<path class="st2" d="M135.9,12.7c-7.1,3.4-13.6,8.9-17.2,15.2c-2.6,4.7-11.4,4.9-15.7,4.7c0.1-0.8,0.1-1.5-0.1-1.8
	c-0.7-1.1-3.3-2.2-6.3-2.7c1.3-0.2,2.5-0.4,3.1-0.4c2,0.1,5.4-2.5,7.7-6.2s12.4-7.8,12.4-7.8c-0.3,0-0.6,0-1,0
	C126.7,11.6,135.9,12.7,135.9,12.7z"/>
<path class="st3" d="M66.2,26.4c-2.7,6.4-8.2,5.7-11.5,4.6c-0.8-0.3-1.5-0.8-2.1-1.6c-1.5-1.9-2.3-5.2-1.3-9.2
	c0.3-1.2,0.8-2.6,1.5-3.9c2.8-5.3,8.2-6.5,11-6.7C65,9.5,66.2,10,67,11C70.2,15.1,68.6,20.6,66.2,26.4z"/>
<path class="st3" d="M87.9,27.8C87.9,27.8,87.9,27.8,87.9,27.8c-0.5,1.9-1.8,3.4-4.2,4.3c-1.4,0.6-3.2,0.9-5.5,1
	c-6,0.2-6.9-5.3-6.2-9.1c0.3-1.8,1.8-3.3,3.2-4.3c2.1-1.5,4.8-1.9,7.1-0.7C86.5,21,88.4,25.5,87.9,27.8z"/>
<path class="st2" d="M52.6,29.4c-1.2,0-2.7-0.4-3.2-2.6c-0.7-3.1,0.5-5.8,1.9-6.6C50.2,24.2,51,27.5,52.6,29.4z"/>
<path class="st2" d="M87.3,31.7c-1.5,0.8-2.7,0.7-3.6,0.4c2.4-0.9,3.7-2.5,4.2-4.3C88.7,29.1,89.1,30.7,87.3,31.7z"/>
<ellipse cx="84.6" cy="26.4" rx="0.9" ry="2.2"/>
<ellipse transform="matrix(-0.9406 -0.3396 0.3396 -0.9406 97.7165 56.5037)" cx="53.8" cy="19.7" rx="0.8" ry="2.1"/>
<path class="st3" d="M86.5,50.1c-1.8,1.7-3.2,3.2-3.9,3.7c-0.3,0.2-0.7,0.7-1,1.2c-0.7-0.3-1.2-0.7-1.6-1.2c-0.8-1-1.1-2.1-1.1-2.1
	c-0.8,1.6-2.5,2.5-4.6,2.9c-1.8,0.4-3.8,0.5-5.5,0.5c-3.8,0-11.4-3.4-11.4-3.4c-0.5,1-2.3,2.1-2.3,2.1c-6.2-4.6-6.4-17.3-6.4-17.3
	c1.5,0.9,3,1.7,4.5,2.4c18,8.3,35-0.1,35.4-0.2l0,0C88.9,40.2,87.3,47,86.5,50.1z"/>
<path class="st4" d="M88.6,38.7L88.6,38.7c-0.4,0.2-17.4,8.6-35.4,0.2c1.1-1,2.9-2,6.2-1.6c6.2,0.8,7.4,3.7,10.4,3.4
	c3-0.3,2.7-3.1,6.8-3.2C80.6,37.5,88.6,38.7,88.6,38.7z"/>
<path class="st2" d="M72.7,58.6c-2.5-0.4-5.8,2.2-5.8,2.2s-1.6-1.1-4.9-3.7c-3.3-2.6-4.9,3-4.9,3s-2-3.7-2-6.4c0,0,1.8-1.2,2.3-2.1
	c0,0,7.6,3.4,11.4,3.4c1.8,0,3.8-0.1,5.5-0.5C74.7,56.5,72.7,58.6,72.7,58.6z"/>
<path class="st2" d="M80,53.8l-3.6,8.1c-1.2-2-2.6-3.1-3.7-3.2c0,0,2-2.1,1.6-4.1c2-0.4,3.8-1.3,4.6-2.9
	C78.9,51.6,79.2,52.8,80,53.8z"/>
<path class="st5" d="M45.9,34.6c0,0,1,0.8,2.8,1.9"/>
<path class="st5" d="M94.1,33.1c0,0-1,3.9-5.5,5.6"/>
<path class="st6" d="M97.2,34c0,0-4-1.9-6.4,0C88.3,36,80,37.6,78.2,35.9c-1.7-1.7-4.4-3.6-6.4-3.6c0,0,3.5,3.2,1.7,4.2"/>
<path class="st6" d="M43.3,36.6c0,0,2.6-3.1,5.9-2.1s6.9,2.3,8.6,1c1.7-1.3,4.4-3.2,6-3.1"/>
<path class="st6" d="M62.8,34.6c0,0-1-0.2-0.9-1.9"/>
<path class="st6" d="M64.2,34.4c0,0,3,3.5,4.5,2.8c1.4-0.7,0.9-1.7,2.2-1.7"/>
<path class="st6" d="M65.9,31.7c0,0,1.9-1.5,3.3,0"/>
<path class="st6" d="M55.1,33.1c0,0,1.8,0.1,3.3-0.4"/>
<path class="st6" d="M63.7,7.7c0,0,1.8,0.8,2.2,2.4"/>
<path class="st6" d="M71.5,9.1c0,0,0.6,4.1,0,5.2"/>
<path class="st6" d="M72.7,17.7c0,0,1.1-4.3,4.1-5.2"/>
<path class="st6" d="M30.5,18.9c0,0-2.2,0.4-3.9-0.7s-2.8-1.6-4.5-1.4"/>
<line class="st6" x1="111.1" y1="23.1" x2="106.2" y2="23.1"/>
<line class="st6" x1="109.5" y1="25.7" x2="104.2" y2="25.7"/>
<path class="st6" d="M67,64.9c0,0,4.8,9.7-3,21.7"/>
<line class="st6" x1="57.1" y1="44.2" x2="57.1" y2="48.7"/>
<line class="st6" x1="62.3" y1="44.9" x2="62.3" y2="51.2"/>
<line class="st6" x1="68.6" y1="46.5" x2="68.6" y2="51.2"/>
<line class="st6" x1="75.2" y1="45.7" x2="75.2" y2="50.8"/>
<line class="st6" x1="80" y1="44.9" x2="80" y2="47.4"/>
<g>
</g>
<g>
</g>
<g>
</g>
<g>
</g>
<g>
</g>
<g>
</g>
</svg>
