<svg xmlns="http://www.w3.org/2000/svg" viewBox="0 0 85 103.5" enable-background="new 0 0 85 103.5"><path fill="#9E1F63" stroke="#000" stroke-width=".529" stroke-miterlimit="10" d="M73.6 26.6s-6.3 2.6-7.7 4.9-3.5 3.9-4.8 3.8c-.4 0-1.1.1-1.9.2 1.8.3 3.5 1 3.9 1.7.1.2.2.6.1 1.1-.3 1.7-1.8 4.5-3.9 5.6-1.8.8-4.4 3.4-6.3 5.3-1.1 1.1-2 2-2.4 2.3-.2.1-.4.4-.6.8-.9 1.5-1.9 4.5-2.4 6-.3-.7-.5-1.2-.8-1.7l2.3-5c-.5-.6-.7-1.3-.7-1.3-.5 1-1.6 1.5-2.8 1.8-1.1.2-2.4.3-3.5.3-2.3 0-7.1-2.1-7.1-2.1-.3.6-1.4 1.3-1.4 1.3 0 1.7 1.3 4 1.3 4s.7 1 1.8 4.1c.8 2.1-.2 4.6-1.3 6.4-1.7-2.6-2.1-7.7-2.2-10.9-.1-4-2.3-5.4-4-8.2-1.7-2.7-8.5-5.4-6.8-8.4.6-1.1 1.6-1.9 2.7-2.4 1.8-.9 3.6-1.1 3.6-1.1l-.1-1.6v-.6l-.1-1.3-.4-1.6c2.8-9 10.1-10 12.3-10.3 2.2-.3 3.1 4 3.1 4 2.6.4 3.3 2.1 3.3 2.1.7-1.3 3.1-1.2 3.3-.7.3.4 1.4 1.7 2.5 2.4s2.3 3.3 2.3 5.7v.7c1.8-.8 4.9-2.2 5.5-2.9.8-.9 8.9-4.4 12.6-4.5.2.1.4.1.6.1z"/><path fill="#EE2A7B" stroke="#000" stroke-width=".529" stroke-miterlimit="10" d="M43.9 76.8c-3.5 2.6-9.2 4.3-12.4 4.1s-6.4-2.1-4.6-4.9c1.8-2.8 4.9-6.4 6.3-7.8.5-.5 1.1-1.2 1.7-2.2 1.2-1.8 2.1-4.3 1.3-6.4-1.2-3.1-1.8-4.1-1.8-4.1s1-3.5 3-1.9c2.1 1.6 3 2.3 3 2.3s2.1-1.6 3.6-1.4c.7.1 1.5.8 2.3 2 .3.5.6 1 .8 1.7.6 1.5 1 3.4 1.1 5.7.5 6.2-.7 10.3-4.3 12.9z"/><path fill="#9E1F63" stroke="#000" stroke-width=".529" stroke-miterlimit="10" d="M28.3 33.5c-1-.2-2.5-.4-4.4-.4-3.3 0-9.7-6.8-14-9l-.2-.1s6.9.7 10.6 3.6c2.8 2.2 5.7 3.5 7.8 4l.1 1.3.1.6z"/><path fill="#BF1561" stroke="#000" stroke-width=".529" stroke-miterlimit="10" d="M28.4 35.2s-1.9.2-3.6 1.1c-2.2-.1-4-.3-5.5-.4-1.9-.2-5.7-1.1-7-3.4s-9.4-8.7-11.8-9c0 0 4.6-.2 9.5.7 4.3 2.2 10.8 9 14 9 1.9 0 3.4.2 4.4.4v1.6zM83.6 26c-4.4 2.1-8.5 5.5-10.7 9.5-1.6 2.9-7.1 3.1-9.8 2.9.1-.5.1-.9-.1-1.1-.4-.7-2.1-1.4-3.9-1.7.8-.1 1.5-.3 1.9-.2 1.3.1 3.4-1.5 4.8-3.8l7.7-4.9h-.6c5-1.4 10.7-.7 10.7-.7z"/><path fill="#fff" stroke="#000" stroke-width=".529" stroke-miterlimit="10" d="M40.2 34.5c-1.7 4-5.1 3.6-7.2 2.9-.5-.2-.9-.5-1.3-1-.9-1.2-1.4-3.3-.8-5.7.2-.8.5-1.6.9-2.4 1.7-3.3 5.1-4 6.9-4.2.8-.1 1.5.3 2 .9 2 2.5 1 5.9-.5 9.5zM53.7 35.4c-.3 1.2-1.1 2.1-2.6 2.7-.9.3-2 .6-3.4.6-3.8.1-4.3-3.3-3.9-5.7.2-1.1 1.1-2 2-2.7 1.3-.9 3-1.2 4.4-.5 2.6 1.3 3.8 4.2 3.5 5.6z"/><path fill="#BF1561" stroke="#000" stroke-width=".529" stroke-miterlimit="10" d="M31.7 36.4c-.8 0-1.7-.3-2-1.6-.4-2 .3-3.6 1.2-4.1-.7 2.4-.2 4.5.8 5.7zM53.3 37.8c-.9.5-1.7.4-2.2.2 1.5-.6 2.3-1.5 2.6-2.7.5.9.8 1.9-.4 2.5z"/><ellipse cx="51.6" cy="34.5" rx=".5" ry="1.3"/><ellipse transform="matrix(-.941 -.34 .34 -.941 52.679 69.92)" cx="32.5" cy="30.4" rx=".5" ry="1.3"/><path fill="#fff" stroke="#000" stroke-width=".529" stroke-miterlimit="10" d="M52.9 49.3c-1.1 1.1-2 2-2.4 2.3-.2.1-.4.4-.6.8-.4-.2-.7-.5-1-.8-.5-.6-.7-1.3-.7-1.3-.5 1-1.6 1.5-2.8 1.8-1.1.2-2.4.3-3.5.3-2.3 0-7.1-2.1-7.1-2.1-.3.6-1.4 1.3-1.4 1.3-3.8-2.9-4-10.8-4-10.8.9.6 1.9 1.1 2.8 1.5 11.2 5.2 21.8 0 22.1-.1 0 1-1 5.2-1.4 7.1z"/><path fill="#7B0E4C" stroke="#000" stroke-width=".529" stroke-miterlimit="10" d="M54.1 42.2c-.2.1-10.8 5.3-22.1.1.7-.6 1.8-1.2 3.8-1 3.8.5 4.6 2.3 6.5 2.1 1.9-.2 1.7-1.9 4.2-2 2.6.1 7.6.8 7.6.8z"/><path fill="#BF1561" stroke="#000" stroke-width=".529" stroke-miterlimit="10" d="M44.3 54.6c-1.6-.2-3.6 1.4-3.6 1.4s-1-.7-3-2.3c-2.1-1.6-3 1.9-3 1.9s-1.3-2.3-1.3-4c0 0 1.1-.7 1.4-1.3 0 0 4.8 2.1 7.1 2.1 1.1 0 2.3 0 3.5-.3.1 1.2-1.1 2.5-1.1 2.5zM48.8 51.6l-2.3 5c-.8-1.2-1.6-1.9-2.3-2 0 0 1.2-1.3 1-2.5 1.3-.3 2.3-.8 2.8-1.8.1-.1.3.7.8 1.3z"/><path stroke="#000" stroke-width=".529" stroke-miterlimit="10" d="M27.5 39.7s.6.5 1.8 1.2M57.5 38.7s-.6 2.4-3.4 3.5" fill="none"/><path stroke="#000" stroke-width=".529" stroke-linecap="round" stroke-miterlimit="10" d="M59.5 39.3s-2.5-1.2-4 0-6.8 2.2-7.8 1.2-2.8-2.2-4-2.2c0 0 2.2 2 1.1 2.6M25.9 40.9s1.6-1.9 3.7-1.3 4.3 1.4 5.3.6 2.7-2 3.7-1.9M38.1 39.7s-.7-.1-.6-1.2M38.9 39.5s1.9 2.2 2.8 1.8c.9-.4.6-1 1.4-1.1M40 37.8s1.2-1 2 0M33.3 38.7s1.1 0 2-.3M38.7 22.9s1.1.5 1.4 1.5M43.5 23.7s.4 2.5 0 3.2M44.3 29.1s.7-2.7 2.5-3.3M17.9 29.9s-1.4.3-2.4-.4c-1.1-.7-1.8-1-2.8-.9M68.2 32.5h-3.1M67.2 34.1h-3.3M40.7 58.5s3 6-1.9 13.5M34.5 45.6v2.8M37.8 46v4M41.7 47v3M45.8 46.6v3.1M48.8 46v1.6" fill="none"/></svg>