<?xml version="1.0" encoding="utf-8"?>
<!-- Generator: Adobe Illustrator 18.1.1, SVG Export Plug-In . SVG Version: 6.00 Build 0)  -->
<!DOCTYPE svg PUBLIC "-//W3C//DTD SVG 1.1//EN" "http://www.w3.org/Graphics/SVG/1.1/DTD/svg11.dtd">
<svg version="1.1" id="Layer_1" xmlns="http://www.w3.org/2000/svg" xmlns:xlink="http://www.w3.org/1999/xlink" x="0px" y="0px"
	 viewBox="0 0 111.7 141.7" style="enable-background:new 0 0 111.7 141.7;" xml:space="preserve">
<style type="text/css">
	.st0{fill:#7B0E4C;}
	.st1{fill:#9E1F63;stroke:#000000;stroke-miterlimit:10;}
	.st2{fill:#FFFFFF;stroke:#000000;stroke-miterlimit:10;}
	.st3{fill:#BF1561;stroke:#000000;stroke-miterlimit:10;}
	.st4{fill:none;stroke:#000000;stroke-linecap:round;stroke-miterlimit:10;}
	.st5{fill:none;stroke:#000000;stroke-width:2;stroke-linecap:round;stroke-miterlimit:10;}
	.st6{fill:#EE2A7B;}
</style>
<path class="st0" d="M80.6,16.2C69.7,8,56.9,17.7,54.1,25.4c-2,5.6,0.9,15.7,2.6,20.7c-0.7-0.4-1.4-0.9-2.2-1.4v0
	c-1.5-5.6-3.6-13.9-3.2-17.5c0.7-5.7,7.2-15.5,17.9-18.5c10.7-3,20.1,4.4,20.1,4.4S91.5,24.4,80.6,16.2z"/>
<path class="st0" d="M39.9,23c-0.8,1.8-1.6,8.9,2.2,11.7c2.2,1.6,4.8,4.6,6.8,6.9c-1.1-0.5-2.2-1-3.3-1.3c-1.1-1.3-2.5-2.8-4.5-4.4
	c-5.7-4.9-4.8-8.1-3.3-15.6c1.4-7.5,3.5-11.7,6.2-13.1c2.7-1.3,8.4,0.9,4.9,2.5C45.4,11.3,40.8,21.3,39.9,23z"/>
<path class="st1" d="M103.2,103.5c-3,7.3-22.3,17.8-34.8,26.2c-12.5,8.3-18.7,3.7-22,0.8c-3.3-2.8-10.5-6-21.8-10.5
	c-6.7-2.6-13-12.7-17.2-20.6c-1.4-2.7-2.6-5.1-3.4-6.9c-0.8-1.9-1-4-0.3-6c0.3-1,0.7-2.1,1.2-3.4c2.4-6.6,6.3-16.8,10-22.1
	c3-4.4,8.6-8.7,13.8-12.4c4.6-3.2,8.9-6,11-7.9c0.4-0.4,0.8-0.6,1.4-0.7c1.2-0.3,2.8-0.2,4.5,0.3c1.1,0.3,2.2,0.8,3.3,1.3
	c2,0.9,4,2,5.7,3.1v0c0.8,0.5,1.6,1,2.2,1.4c1.6,1.1,2.6,1.8,2.6,1.8s0.5-1.2,5.5-6.4c5-5.2,16-0.2,22.8,4.3
	c6.5,4.3,6.2,11.2,6.2,11.8c-4.2-4.8-10.3-7.5-17.5-8.5c-7.5-1-11.6,8.9-13.2,14.5c-1.2-1.8-2.7-3.3-4.4-4.3
	c-5.7-3.5-11-8.9-19.2-6.5c-3,0.9-5.6,2.7-7.6,5C27.6,62.9,19,74.2,21,82.4c2.7,10.8,7.2,16.8,25.5,17.4
	c12.6,0.4,17.7-5.7,19.9-11.5c8.5,8,16.4,6.4,24.3,3.8c4.9-1.6,7.8-5.8,8.9-10.9c1,2.5,2.5,5.2,4.4,7.1
	C108.9,92.7,106.2,96.2,103.2,103.5z"/>
<path class="st2" d="M68,81.2c-0.2,1.8-0.6,4.4-1.6,7c-2.2,5.8-7.3,11.9-19.9,11.5C28.2,99.1,23.7,93.2,21,82.4
	c-2-8.2,6.5-19.4,10.8-24.4c2-2.3,4.6-4.2,7.6-5c8.2-2.4,13.5,3,19.2,6.5c1.7,1,3.2,2.6,4.4,4.3C66.9,69.1,68.5,76.8,68,81.2z"/>
<path class="st2" d="M99.6,81.1c-1.1,5.1-4,9.3-8.9,10.9c-7.9,2.6-15.8,4.2-24.3-3.8c1-2.7,1.4-5.2,1.6-7c0.5-4.4-1.2-12.1-4.9-17.5
	c1.7-5.6,5.7-15.5,13.2-14.5c7.2,0.9,13.2,3.6,17.5,8.5c2,2.3,3.6,5,4.7,8.2C100.2,70.8,100.7,76.4,99.6,81.1z"/>
<ellipse class="st3" cx="18.2" cy="104.3" rx="4.3" ry="4.5"/>
<ellipse class="st3" cx="96.9" cy="100" rx="4.3" ry="2.5"/>
<path class="st3" d="M42,47c-2.9,2.1-7.7,5.3-13.4,1.6c4.6-3.2,8.9-6,11-7.9c0.4-0.4,0.8-0.6,1.4-0.7C42.5,42,44.2,45.4,42,47z"/>
<path class="st3" d="M12.7,90c0,4-2.3,7.4-5.3,9.4c-1.4-2.7-2.6-5.1-3.4-6.9c-0.8-1.9-1-4-0.3-6c0.3-1,0.7-2.1,1.2-3.4
	C8.3,84.1,12.7,86.1,12.7,90z"/>
<path class="st4" d="M60.2,52.3c0,0,3.1,1.4,1.1,9.2"/>
<path class="st4" d="M16.1,77.3c0,0,0.3-15.4,12.5-28.7"/>
<path class="st4" d="M80.6,45.8c0,0-5.4-0.7-7.9,3.8"/>
<path class="st4" d="M54.1,50.3c0,0-7.6-1.7-12,2"/>
<path class="st4" d="M61.9,48.6c0,0,3.3-7.8,8.8-9.3"/>
<path class="st4" d="M18.2,85.6c0,0,2.6,6.1,7.2,6.9"/>
<path class="st4" d="M18.2,94.2c0,0,9,10.8,24.9,10.8s21.4-8.4,21.4-8.4"/>
<path class="st4" d="M100.2,88c0,0-3.4,10.5-13.3,10.2s-17.6-5.1-17.6-5.1"/>
<path class="st5" d="M28.6,113.6c0,0,7-7.2,10.3-3.8s3.6,8.6,8.1,4.9s8-8.5,11.5-3.5s4.1,10,7.7,6.8c3.6-3.2,14.1-14.2,18.8-15.4
	s9.5-1.6,6.2,6.9"/>
<path d="M66.3,105.1c0.6-1-0.7-2.1-1.6-1.3c-1.3,1.1-2.8,2.6-2.8,3.5c0,1.6,0.7,3.1,2.5,2.5c1.4-0.5,1.3-2.3,1.2-3.2
	c0-0.3,0-0.5,0.2-0.8C66,105.7,66.2,105.4,66.3,105.1z"/>
<path d="M69.2,101.1c0,0,3.9,1.2,4,3.2c0.2,2-1.2,3.6-2,1.9s0.1-2.4-1-3C69.2,102.7,67.9,101.7,69.2,101.1z"/>
<ellipse class="st6" cx="59.7" cy="83.3" rx="4.8" ry="4.6"/>
<ellipse class="st6" cx="74" cy="81" rx="4.8" ry="4.6"/>
<ellipse cx="60.5" cy="83.3" rx="1.6" ry="1.6"/>
<ellipse cx="73.6" cy="81.7" rx="1.6" ry="1.6"/>
<g>
</g>
<g>
</g>
<g>
</g>
<g>
</g>
<g>
</g>
<g>
</g>
</svg>
