<svg xmlns="http://www.w3.org/2000/svg" viewBox="0 0 111.7 141.7" enable-background="new 0 0 111.7 141.7"><style type="text/css">.st0{fill:#7B0E4C;} .st1{fill:#9E1F63;stroke:#000000;stroke-miterlimit:10;} .st2{fill:#FFFFFF;stroke:#000000;stroke-miterlimit:10;} .st3{fill:#BF1561;stroke:#000000;stroke-miterlimit:10;} .st4{fill:none;stroke:#000000;stroke-linecap:round;stroke-miterlimit:10;} .st5{fill:none;stroke:#000000;stroke-width:2;stroke-linecap:round;stroke-miterlimit:10;} .st6{fill:#EE2A7B;}</style><path class="st0" d="M80.6 16.2c-10.9-8.2-23.7 1.5-26.5 9.2-2 5.6.9 15.7 2.6 20.7-.7-.4-1.4-.9-2.2-1.4-1.5-5.6-3.6-13.9-3.2-17.5.7-5.7 7.2-15.5 17.9-18.5s20.1 4.4 20.1 4.4 2.2 11.3-8.7 3.1zM39.9 23c-.8 1.8-1.6 8.9 2.2 11.7 2.2 1.6 4.8 4.6 6.8 6.9-1.1-.5-2.2-1-3.3-1.3-1.1-1.3-2.5-2.8-4.5-4.4-5.7-4.9-4.8-8.1-3.3-15.6 1.4-7.5 3.5-11.7 6.2-13.1 2.7-1.3 8.4.9 4.9 2.5s-8.1 11.6-9 13.3z"/><path class="st1" d="M103.2 103.5c-3 7.3-22.3 17.8-34.8 26.2-12.5 8.3-18.7 3.7-22 .8-3.3-2.8-10.5-6-21.8-10.5-6.7-2.6-13-12.7-17.2-20.6-1.4-2.7-2.6-5.1-3.4-6.9-.8-1.9-1-4-.3-6 .3-1 .7-2.1 1.2-3.4 2.4-6.6 6.3-16.8 10-22.1 3-4.4 8.6-8.7 13.8-12.4 4.6-3.2 8.9-6 11-7.9.4-.4.8-.6 1.4-.7 1.2-.3 2.8-.2 4.5.3 1.1.3 2.2.8 3.3 1.3 2 .9 4 2 5.7 3.1.8.5 1.6 1 2.2 1.4 1.6 1.1 2.6 1.8 2.6 1.8s.5-1.2 5.5-6.4 16-.2 22.8 4.3c6.5 4.3 6.2 11.2 6.2 11.8-4.2-4.8-10.3-7.5-17.5-8.5-7.5-1-11.6 8.9-13.2 14.5-1.2-1.8-2.7-3.3-4.4-4.3-5.7-3.5-11-8.9-19.2-6.5-3 .9-5.6 2.7-7.6 5-4.4 5.1-13 16.4-11 24.6 2.7 10.8 7.2 16.8 25.5 17.4 12.6.4 17.7-5.7 19.9-11.5 8.5 8 16.4 6.4 24.3 3.8 4.9-1.6 7.8-5.8 8.9-10.9 1 2.5 2.5 5.2 4.4 7.1 4.9 4.4 2.2 7.9-.8 15.2z"/><path class="st2" d="M68 81.2c-.2 1.8-.6 4.4-1.6 7-2.2 5.8-7.3 11.9-19.9 11.5-18.3-.6-22.8-6.5-25.5-17.3-2-8.2 6.5-19.4 10.8-24.4 2-2.3 4.6-4.2 7.6-5 8.2-2.4 13.5 3 19.2 6.5 1.7 1 3.2 2.6 4.4 4.3 3.9 5.3 5.5 13 5 17.4zM99.6 81.1c-1.1 5.1-4 9.3-8.9 10.9-7.9 2.6-15.8 4.2-24.3-3.8 1-2.7 1.4-5.2 1.6-7 .5-4.4-1.2-12.1-4.9-17.5 1.7-5.6 5.7-15.5 13.2-14.5 7.2.9 13.2 3.6 17.5 8.5 2 2.3 3.6 5 4.7 8.2 1.7 4.9 2.2 10.5 1.1 15.2z"/><ellipse class="st3" cx="18.2" cy="104.3" rx="4.3" ry="4.5"/><ellipse class="st3" cx="96.9" cy="100" rx="4.3" ry="2.5"/><path class="st3" d="M42 47c-2.9 2.1-7.7 5.3-13.4 1.6 4.6-3.2 8.9-6 11-7.9.4-.4.8-.6 1.4-.7 1.5 2 3.2 5.4 1 7zM12.7 90c0 4-2.3 7.4-5.3 9.4-1.4-2.7-2.6-5.1-3.4-6.9-.8-1.9-1-4-.3-6 .3-1 .7-2.1 1.2-3.4 3.4 1 7.8 3 7.8 6.9z"/><path class="st4" d="M60.2 52.3s3.1 1.4 1.1 9.2M16.1 77.3s.3-15.4 12.5-28.7M80.6 45.8s-5.4-.7-7.9 3.8M54.1 50.3s-7.6-1.7-12 2M61.9 48.6s3.3-7.8 8.8-9.3M18.2 85.6s2.6 6.1 7.2 6.9M18.2 94.2s9 10.8 24.9 10.8l21.4-8.4M100.2 88s-3.4 10.5-13.3 10.2l-17.6-5.1"/><path class="st5" d="M28.6 113.6s7-7.2 10.3-3.8 3.6 8.6 8.1 4.9 8-8.5 11.5-3.5 4.1 10 7.7 6.8c3.6-3.2 14.1-14.2 18.8-15.4s9.5-1.6 6.2 6.9"/><path d="M66.3 105.1c.6-1-.7-2.1-1.6-1.3-1.3 1.1-2.8 2.6-2.8 3.5 0 1.6.7 3.1 2.5 2.5 1.4-.5 1.3-2.3 1.2-3.2 0-.3 0-.5.2-.8.2-.1.4-.4.5-.7zM69.2 101.1s3.9 1.2 4 3.2c.2 2-1.2 3.6-2 1.9s.1-2.4-1-3c-1-.5-2.3-1.5-1-2.1z"/><ellipse class="st6" cx="59.7" cy="83.3" rx="4.8" ry="4.6"/><ellipse class="st6" cx="74" cy="81" rx="4.8" ry="4.6"/><ellipse cx="60.5" cy="83.3" rx="1.6" ry="1.6"/><ellipse cx="73.6" cy="81.7" rx="1.6" ry="1.6"/></svg>