<?xml version="1.0" encoding="utf-8"?>
<!-- Generator: Adobe Illustrator 18.1.1, SVG Export Plug-In . SVG Version: 6.00 Build 0)  -->
<!DOCTYPE svg PUBLIC "-//W3C//DTD SVG 1.1//EN" "http://www.w3.org/Graphics/SVG/1.1/DTD/svg11.dtd">
<svg version="1.1" id="Layer_1" xmlns="http://www.w3.org/2000/svg" xmlns:xlink="http://www.w3.org/1999/xlink" x="0px" y="0px"
	 viewBox="0 0 85 103.5" enable-background="new 0 0 85 103.5" xml:space="preserve">
<g>
	<path fill="#9E1F63" stroke="#000000" stroke-width="0.5286" stroke-miterlimit="10" d="M73.6,26.6c0,0-6.3,2.6-7.7,4.9
		s-3.5,3.9-4.8,3.8c-0.4,0-1.1,0.1-1.9,0.2c1.8,0.3,3.5,1,3.9,1.7c0.1,0.2,0.2,0.6,0.1,1.1c-0.3,1.7-1.8,4.5-3.9,5.6
		c-1.8,0.8-4.4,3.4-6.3,5.3c-1.1,1.1-2,2-2.4,2.3c-0.2,0.1-0.4,0.4-0.6,0.8c-0.9,1.5-1.9,4.5-2.4,6c-0.3-0.7-0.5-1.2-0.8-1.7l2.3-5
		c-0.5-0.6-0.7-1.3-0.7-1.3c-0.5,1-1.6,1.5-2.8,1.8c-1.1,0.2-2.4,0.3-3.5,0.3c-2.3,0-7.1-2.1-7.1-2.1c-0.3,0.6-1.4,1.3-1.4,1.3
		c0,1.7,1.3,4,1.3,4s0.7,1,1.8,4.1c0.8,2.1-0.2,4.6-1.3,6.4c-1.7-2.6-2.1-7.7-2.2-10.9c-0.1-4-2.3-5.4-4-8.2
		c-1.7-2.7-8.5-5.4-6.8-8.4c0.6-1.1,1.6-1.9,2.7-2.4c1.8-0.9,3.6-1.1,3.6-1.1l-0.1-1.6l0-0.6l-0.1-1.3L28.1,30
		C30.9,21,38.2,20,40.4,19.7c2.2-0.3,3.1,4,3.1,4c2.6,0.4,3.3,2.1,3.3,2.1c0.7-1.3,3.1-1.2,3.3-0.7c0.3,0.4,1.4,1.7,2.5,2.4
		c1.1,0.7,2.3,3.3,2.3,5.7c0,0.3,0,0.5,0,0.7c1.8-0.8,4.9-2.2,5.5-2.9c0.8-0.9,8.9-4.4,12.6-4.5C73.2,26.6,73.4,26.6,73.6,26.6z"/>
	<path fill="#EE2A7B" stroke="#000000" stroke-width="0.5286" stroke-miterlimit="10" d="M43.9,76.8c-3.5,2.6-9.2,4.3-12.4,4.1
		s-6.4-2.1-4.6-4.9c1.8-2.8,4.9-6.4,6.3-7.8c0.5-0.5,1.1-1.2,1.7-2.2c1.2-1.8,2.1-4.3,1.3-6.4c-1.2-3.1-1.8-4.1-1.8-4.1s1-3.5,3-1.9
		c2.1,1.6,3,2.3,3,2.3s2.1-1.6,3.6-1.4c0.7,0.1,1.5,0.8,2.3,2c0.3,0.5,0.6,1,0.8,1.7c0.6,1.5,1,3.4,1.1,5.7
		C48.7,70.1,47.5,74.2,43.9,76.8z"/>
	<path fill="#9E1F63" stroke="#000000" stroke-width="0.5286" stroke-miterlimit="10" d="M28.3,33.5c-1-0.2-2.5-0.4-4.4-0.4
		c-3.3,0-9.7-6.8-14-9c-0.1,0-0.1-0.1-0.2-0.1c0,0,6.9,0.7,10.6,3.6c2.8,2.2,5.7,3.5,7.8,4l0.1,1.3L28.3,33.5z"/>
	<path fill="#BF1561" stroke="#000000" stroke-width="0.5286" stroke-miterlimit="10" d="M28.4,35.2c0,0-1.9,0.2-3.6,1.1
		c-2.2-0.1-4-0.3-5.5-0.4c-1.9-0.2-5.7-1.1-7-3.4s-9.4-8.7-11.8-9c0,0,4.6-0.2,9.5,0.7c4.3,2.2,10.8,9,14,9c1.9,0,3.4,0.2,4.4,0.4
		L28.4,35.2z"/>
	<path fill="#BF1561" stroke="#000000" stroke-width="0.5286" stroke-miterlimit="10" d="M83.6,26c-4.4,2.1-8.5,5.5-10.7,9.5
		c-1.6,2.9-7.1,3.1-9.8,2.9c0.1-0.5,0.1-0.9-0.1-1.1c-0.4-0.7-2.1-1.4-3.9-1.7c0.8-0.1,1.5-0.3,1.9-0.2c1.3,0.1,3.4-1.5,4.8-3.8
		s7.7-4.9,7.7-4.9c-0.2,0-0.4,0-0.6,0C77.9,25.3,83.6,26,83.6,26z"/>
	<path fill="#FFFFFF" stroke="#000000" stroke-width="0.5286" stroke-miterlimit="10" d="M40.2,34.5c-1.7,4-5.1,3.6-7.2,2.9
		c-0.5-0.2-0.9-0.5-1.3-1c-0.9-1.2-1.4-3.3-0.8-5.7c0.2-0.8,0.5-1.6,0.9-2.4c1.7-3.3,5.1-4,6.9-4.2c0.8-0.1,1.5,0.3,2,0.9
		C42.7,27.5,41.7,30.9,40.2,34.5z"/>
	<path fill="#FFFFFF" stroke="#000000" stroke-width="0.5286" stroke-miterlimit="10" d="M53.7,35.4C53.7,35.4,53.7,35.4,53.7,35.4
		c-0.3,1.2-1.1,2.1-2.6,2.7c-0.9,0.3-2,0.6-3.4,0.6c-3.8,0.1-4.3-3.3-3.9-5.7c0.2-1.1,1.1-2,2-2.7c1.3-0.9,3-1.2,4.4-0.5
		C52.8,31.1,54,34,53.7,35.4z"/>
	<path fill="#BF1561" stroke="#000000" stroke-width="0.5286" stroke-miterlimit="10" d="M31.7,36.4c-0.8,0-1.7-0.3-2-1.6
		c-0.4-2,0.3-3.6,1.2-4.1C30.2,33.1,30.7,35.2,31.7,36.4z"/>
	<path fill="#BF1561" stroke="#000000" stroke-width="0.5286" stroke-miterlimit="10" d="M53.3,37.8c-0.9,0.5-1.7,0.4-2.2,0.2
		c1.5-0.6,2.3-1.5,2.6-2.7C54.2,36.2,54.5,37.2,53.3,37.8z"/>
	<ellipse cx="51.6" cy="34.5" rx="0.5" ry="1.3"/>
	<ellipse transform="matrix(-0.9406 -0.3396 0.3396 -0.9406 52.6791 69.92)" cx="32.5" cy="30.4" rx="0.5" ry="1.3"/>
	<path fill="#FFFFFF" stroke="#000000" stroke-width="0.5286" stroke-miterlimit="10" d="M52.9,49.3c-1.1,1.1-2,2-2.4,2.3
		c-0.2,0.1-0.4,0.4-0.6,0.8c-0.4-0.2-0.7-0.5-1-0.8c-0.5-0.6-0.7-1.3-0.7-1.3c-0.5,1-1.6,1.5-2.8,1.8c-1.1,0.2-2.4,0.3-3.5,0.3
		c-2.3,0-7.1-2.1-7.1-2.1c-0.3,0.6-1.4,1.3-1.4,1.3c-3.8-2.9-4-10.8-4-10.8c0.9,0.6,1.9,1.1,2.8,1.5c11.2,5.2,21.8,0,22.1-0.1l0,0
		C54.3,43.2,53.3,47.4,52.9,49.3z"/>
	<path fill="#7B0E4C" stroke="#000000" stroke-width="0.5286" stroke-miterlimit="10" d="M54.1,42.2L54.1,42.2
		c-0.2,0.1-10.8,5.3-22.1,0.1c0.7-0.6,1.8-1.2,3.8-1c3.8,0.5,4.6,2.3,6.5,2.1c1.9-0.2,1.7-1.9,4.2-2C49.1,41.5,54.1,42.2,54.1,42.2z
		"/>
	<path fill="#BF1561" stroke="#000000" stroke-width="0.5286" stroke-miterlimit="10" d="M44.3,54.6c-1.6-0.2-3.6,1.4-3.6,1.4
		s-1-0.7-3-2.3c-2.1-1.6-3,1.9-3,1.9s-1.3-2.3-1.3-4c0,0,1.1-0.7,1.4-1.3c0,0,4.8,2.1,7.1,2.1c1.1,0,2.3,0,3.5-0.3
		C45.5,53.3,44.3,54.6,44.3,54.6z"/>
	<path fill="#BF1561" stroke="#000000" stroke-width="0.5286" stroke-miterlimit="10" d="M48.8,51.6l-2.3,5c-0.8-1.2-1.6-1.9-2.3-2
		c0,0,1.2-1.3,1-2.5c1.3-0.3,2.3-0.8,2.8-1.8C48.1,50.2,48.3,51,48.8,51.6z"/>
	<path fill="none" stroke="#000000" stroke-width="0.5286" stroke-miterlimit="10" d="M27.5,39.7c0,0,0.6,0.5,1.8,1.2"/>
	<path fill="none" stroke="#000000" stroke-width="0.5286" stroke-miterlimit="10" d="M57.5,38.7c0,0-0.6,2.4-3.4,3.5"/>
	<path fill="none" stroke="#000000" stroke-width="0.5286" stroke-linecap="round" stroke-miterlimit="10" d="M59.5,39.3
		c0,0-2.5-1.2-4,0c-1.5,1.2-6.8,2.2-7.8,1.2s-2.8-2.2-4-2.2c0,0,2.2,2,1.1,2.6"/>
	<path fill="none" stroke="#000000" stroke-width="0.5286" stroke-linecap="round" stroke-miterlimit="10" d="M25.9,40.9
		c0,0,1.6-1.9,3.7-1.3s4.3,1.4,5.3,0.6s2.7-2,3.7-1.9"/>
	<path fill="none" stroke="#000000" stroke-width="0.5286" stroke-linecap="round" stroke-miterlimit="10" d="M38.1,39.7
		c0,0-0.7-0.1-0.6-1.2"/>
	<path fill="none" stroke="#000000" stroke-width="0.5286" stroke-linecap="round" stroke-miterlimit="10" d="M38.9,39.5
		c0,0,1.9,2.2,2.8,1.8c0.9-0.4,0.6-1,1.4-1.1"/>
	<path fill="none" stroke="#000000" stroke-width="0.5286" stroke-linecap="round" stroke-miterlimit="10" d="M40,37.8
		c0,0,1.2-1,2,0"/>
	<path fill="none" stroke="#000000" stroke-width="0.5286" stroke-linecap="round" stroke-miterlimit="10" d="M33.3,38.7
		c0,0,1.1,0,2-0.3"/>
	<path fill="none" stroke="#000000" stroke-width="0.5286" stroke-linecap="round" stroke-miterlimit="10" d="M38.7,22.9
		c0,0,1.1,0.5,1.4,1.5"/>
	<path fill="none" stroke="#000000" stroke-width="0.5286" stroke-linecap="round" stroke-miterlimit="10" d="M43.5,23.7
		c0,0,0.4,2.5,0,3.2"/>
	<path fill="none" stroke="#000000" stroke-width="0.5286" stroke-linecap="round" stroke-miterlimit="10" d="M44.3,29.1
		c0,0,0.7-2.7,2.5-3.3"/>
	<path fill="none" stroke="#000000" stroke-width="0.5286" stroke-linecap="round" stroke-miterlimit="10" d="M17.9,29.9
		c0,0-1.4,0.3-2.4-0.4c-1.1-0.7-1.8-1-2.8-0.9"/>
	
		<line fill="none" stroke="#000000" stroke-width="0.5286" stroke-linecap="round" stroke-miterlimit="10" x1="68.2" y1="32.5" x2="65.1" y2="32.5"/>
	
		<line fill="none" stroke="#000000" stroke-width="0.5286" stroke-linecap="round" stroke-miterlimit="10" x1="67.2" y1="34.1" x2="63.9" y2="34.1"/>
	<path fill="none" stroke="#000000" stroke-width="0.5286" stroke-linecap="round" stroke-miterlimit="10" d="M40.7,58.5
		c0,0,3,6-1.9,13.5"/>
	
		<line fill="none" stroke="#000000" stroke-width="0.5286" stroke-linecap="round" stroke-miterlimit="10" x1="34.5" y1="45.6" x2="34.5" y2="48.4"/>
	
		<line fill="none" stroke="#000000" stroke-width="0.5286" stroke-linecap="round" stroke-miterlimit="10" x1="37.8" y1="46" x2="37.8" y2="50"/>
	
		<line fill="none" stroke="#000000" stroke-width="0.5286" stroke-linecap="round" stroke-miterlimit="10" x1="41.7" y1="47" x2="41.7" y2="50"/>
	
		<line fill="none" stroke="#000000" stroke-width="0.5286" stroke-linecap="round" stroke-miterlimit="10" x1="45.8" y1="46.6" x2="45.8" y2="49.7"/>
	
		<line fill="none" stroke="#000000" stroke-width="0.5286" stroke-linecap="round" stroke-miterlimit="10" x1="48.8" y1="46" x2="48.8" y2="47.6"/>
</g>
</svg>
