<?xml version="1.0" encoding="utf-8"?>
<!-- Generator: Adobe Illustrator 18.1.1, SVG Export Plug-In . SVG Version: 6.00 Build 0)  -->
<!DOCTYPE svg PUBLIC "-//W3C//DTD SVG 1.1//EN" "http://www.w3.org/Graphics/SVG/1.1/DTD/svg11.dtd">
<svg version="1.1" id="Layer_1" xmlns="http://www.w3.org/2000/svg" xmlns:xlink="http://www.w3.org/1999/xlink" x="0px" y="0px"
	 viewBox="0 0 137.7 155.2" style="enable-background:new 0 0 137.7 155.2;" xml:space="preserve">
<style type="text/css">
	.st0{fill:#779221;}
	.st1{fill:#9CB92D;stroke:#000000;stroke-miterlimit:10;}
	.st2{fill:#FFFFFF;stroke:#000000;stroke-miterlimit:10;}
	.st3{fill:none;stroke:#000000;stroke-linecap:round;stroke-miterlimit:10;}
	.st4{fill:#D7DF23;}
</style>
<g>
	<path class="st0" d="M58.5,37.9c-0.3,0.1-0.5,0.3-0.8,0.4l-0.8-0.2c-0.2-3.2-0.6-7.7-0.8-10.4C55.6,23.1,44.7,16.1,41,13.5
		c-3.7-2.7-7.3,5.3-8.8,10.7c-0.6,2.1-0.6,6-0.3,9.9c0.1,0.9,0.1,1.9,0.2,2.8c0.5,4.8,1.1,8.9,1.1,8.9c-2.3,1.6-2.7,7.8-2.7,7.8
		c-1.8-4.1-2.7-8.5-3.2-12.6c-0.1-1.1-0.2-2.2-0.3-3.3c-0.3-6,0.2-10.6,0.2-10.6S34,16,37,12s20,12,20,12L58.5,37.9z"/>
	<path class="st0" d="M27.1,37.5c0.1,1,0.1,2.2,0.3,3.3c-0.5,0.4-1,0.9-1.5,1.3c-9.3,7.8-4.3,17.2-4.3,17.2
		C16.3,75.1,20,81.8,20,81.8c-2,2.2-3.3,11.3-3.3,11.3c0.2-3-3.7-5.5-5.2-11.3s5-20.9,5-20.9s-5-4.2,2.5-14.3
		C21.8,42.9,24.4,39.9,27.1,37.5z"/>
	<path class="st0" d="M51.7,36.4l-4.1-1.3c-5.5-4.8-10-2.6-15.4,1.7C32,35.9,31.9,35,31.9,34c3-1.8,6.2-2.8,9.6-3.2
		C47.5,30.1,50.5,34.1,51.7,36.4z"/>
	<path class="st1" d="M119.3,107c-6.6,15.7-24.8,34.3-30,39.3c-0.8,0.8-2,1-3.1,0.6L26.2,120c-0.9-0.4-1.6-1.3-1.6-2.3
		C20.7,64.4,38.7,41,43.7,35.6c0.7-0.8,1.8-1.1,2.9-0.8l0.9,0.3l4.1,1.3l5.2,1.7l0.8,0.2c0.2-0.2,0.5-0.3,0.8-0.4l0.1,0.5
		c2,0.2,3.7,0.6,5.2,1.2c1.2,0.5,2.6,0,3.3-1c1-1.5,2.6-3.3,4.9-3.5c0,0,0.1,0,0.1,0l1.9-2.4c0.8-1,2.1-1.4,3.3-0.9L87.6,36
		c0.8,0.3,1.4,1,1.6,1.9c0.1,0.3,0.1,0.6,0.2,0.9c0.6,2.1-1.2,4-3.3,3.5C85,42,83.9,41.8,83,41.6c-8.2-1.6-6.5-2-6,5
		s-3.3,11.2-3.3,11.2c-0.2,0.4-0.4,0.8-0.5,1.2c-2.2-4.2-5-8-8.2-10.4c0,0,0,0,0,0c-3.4-2.6-7.2-3.7-11.3-2.3
		c-0.1,0-0.2,0.1-0.3,0.1c-2,1-20.3,10.5-19.1,28.7c0.6,9.5,4.8,14.9,10.1,17.5c0.7,0.3,1.5,0.4,2.2,0.1c1-0.4,1.9-0.5,2.7-0.5
		c1.6,0.1,3.2,0.8,4.5,1.8c0.5,0.4,1.2,0.6,1.8,0.6c2.1-0.1,4.1-0.5,5.9-1c8.1-2.4,12.5-3.6,14.8-9.5c0.1,0.2,0.2,0.3,0.2,0.3
		s1.3,1.5,4.5,2.8c0.5,0.2,1.2,0.5,1.8,0.7l0,0c2.2,0.7,5.2,1.3,8.8,1.3c8.4,0.1,16.4-2.1,18.2-11.9c0.3,0.5,0.4,0.7,0.4,0.7
		l2.2,2.1c0.6,0.6,1,1.5,0.8,2.3c-0.1,0.3,0.1,0.8,0.7,1.6c0.5,0.7,1.4,1.5,2.8,2.7C122.7,91.6,127,88.6,119.3,107z"/>
	<path class="st1" d="M71.9,35c-3.9,0.5-5.9,5.2-6.1,5.6c-1.8-1.1-4.2-2-7.3-2.2l-0.1-0.5C62.9,35.7,70.9,35,71.9,35z"/>
	<path class="st2" d="M109.8,77.3c-1.7,9.8-9.8,12-18.2,11.9c-3.7,0-6.6-0.6-8.8-1.3l0,0c-0.7-0.2-1.3-0.4-1.8-0.7
		c-3.1-1.3-4.5-2.8-4.5-2.8s-0.1-0.1-0.2-0.3c0.6-1.5,1.1-3.4,1.5-5.7c0.8-4.8-1.1-12.6-4.6-19.3c0.2-0.4,0.3-0.8,0.5-1.2
		c0,0,3.8-4.2,3.3-11.2s-2.2-6.6,6-5c2.4,0.5,5.4,1.1,8.5,2.3c7.5,2.9,15.7,8.8,18,22.4C110.2,70.8,110.3,74.3,109.8,77.3z"/>
	<path d="M79.3,101c0,0-3.7,3.2-1.3,6.7c1.7,2.5,2.6,0.2,3-1.3c0.1-0.6,0.1-1.2-0.2-1.8c-0.5-1.1-1.2-2.9-0.7-3.6
		C80.8,100,79.3,101,79.3,101z"/>
	<path d="M85.2,100c0,0,1.7,0.8,1.7,2.8s2.4,4.7,4.1,2.5c1.7-2.2-2.9-4.8-2.9-4.8S84.7,98.4,85.2,100z"/>
	<path class="st3" d="M65.8,40.6C65.8,40.6,65.8,40.6,65.8,40.6"/>
	<path class="st3" d="M65.8,40.6c4.3,2.6,5.5,6.3,5.5,6.3"/>
	<path class="st3" d="M41.7,50.2c0,0,7.8-8.8,13.8-6.9c5.6,1.8,9.1,4.9,9.5,5.3"/>
	<path class="st3" d="M31,74.2c0,0,0.3-20.1,5.1-27.6"/>
	<path class="st3" d="M82.8,87.9c4.7,4,11.1,3.8,19.1,3.5c8-0.4,12-7.5,12-7.5"/>
	<path class="st3" d="M75.1,86.4c0,0-1.9,9.2-18,11.2"/>
	<path class="st3" d="M33.6,87.7c0,0,7.7,6,10.1,6.4"/>
	<path class="st3" d="M101.5,93.1c0,0-13.4,4.5-20.5-5.9"/>
	<path d="M40.9,112.7c0,0,4.9-8.8,10.1-7.1s4.9,8.9,8.9,8.5s4-4,8.6-3.4s19.1,10.5,21,10.9c0,0,12.6-12.2,13.4-14.5s2.4-9.6,5.4-8.7
		s3,0.9,3,0.9l0.8-7.1c0,0,4,1.5,6.4,3.4s0,0.9,0,0.9l-5.3-2.7l-0.8,7.8c0,0-4.2-2.5-5-0.4s-8.7,19.3-17.5,24
		c0,0-22.5-14.3-24.9-11.5s-7.3,3.5-8.9,0.5s-5.8-9-8.8-5.5c-3,3.5-1.4,8.4-4.9,9.1S40.9,112.7,40.9,112.7z"/>
	<circle class="st4" cx="84.1" cy="77.2" r="4"/>
	<path class="st2" d="M77.8,78.4c-0.4,2.3-0.8,4.2-1.5,5.7c-2.3,5.9-6.7,7.2-14.8,9.5c-2.1,0.6-4.5,1-7,1.1
		c-1.5-1.4-3.3-2.4-5.3-2.5c-1.1,0-2.3,0.3-3.7,0.9c-5.9-2.4-10.6-7.8-11.3-18.1C33,55.9,53.5,46.4,53.5,46.4c8-3,15.2,4,19.7,12.7
		C76.7,65.8,78.5,73.5,77.8,78.4z"/>
	<path class="st3" d="M54.5,94.7c3.3,2.9,5.4,7.3,5.4,7.3"/>
	<path class="st3" d="M45.6,93.2C39.2,96.1,31,104.6,31,104.6"/>
	<circle class="st4" cx="71.4" cy="80" r="4"/>
	<circle cx="71.4" cy="80" r="1.8"/>
	<circle cx="84.1" cy="77.2" r="1.8"/>
</g>
<g>
</g>
<g>
</g>
<g>
</g>
<g>
</g>
<g>
</g>
<g>
</g>
</svg>
