<svg xmlns="http://www.w3.org/2000/svg" viewBox="0 0 137.7 155.2" enable-background="new 0 0 137.7 155.2"><style type="text/css">.st0{fill:#779221;} .st1{fill:#9CB92D;stroke:#000000;stroke-miterlimit:10;} .st2{fill:#FFFFFF;stroke:#000000;stroke-miterlimit:10;} .st3{fill:none;stroke:#000000;stroke-linecap:round;stroke-miterlimit:10;} .st4{fill:#D7DF23;}</style><path class="st0" d="M58.5 37.9l-.8.4-.8-.2c-.2-3.2-.6-7.7-.8-10.4-.5-4.6-11.4-11.6-15.1-14.2-3.7-2.7-7.3 5.3-8.8 10.7-.6 2.1-.6 6-.3 9.9l.2 2.8c.5 4.8 1.1 8.9 1.1 8.9-2.3 1.6-2.7 7.8-2.7 7.8-1.8-4.1-2.7-8.5-3.2-12.6l-.3-3.3c-.3-6 .2-10.6.2-10.6s6.8-11.1 9.8-15.1l20 12 1.5 13.9zM27.1 37.5c.1 1 .1 2.2.3 3.3l-1.5 1.3c-9.3 7.8-4.3 17.2-4.3 17.2-5.3 15.8-1.6 22.5-1.6 22.5-2 2.2-3.3 11.3-3.3 11.3.2-3-3.7-5.5-5.2-11.3l5-20.9s-5-4.2 2.5-14.3c2.8-3.7 5.4-6.7 8.1-9.1zM51.7 36.4l-4.1-1.3c-5.5-4.8-10-2.6-15.4 1.7-.2-.9-.3-1.8-.3-2.8 3-1.8 6.2-2.8 9.6-3.2 6-.7 9 3.3 10.2 5.6z"/><path class="st1" d="M119.3 107c-6.6 15.7-24.8 34.3-30 39.3-.8.8-2 1-3.1.6l-60-26.9c-.9-.4-1.6-1.3-1.6-2.3-3.9-53.3 14.1-76.7 19.1-82.1.7-.8 1.8-1.1 2.9-.8l.9.3 4.1 1.3 5.2 1.7.8.2c.2-.2.5-.3.8-.4l.1.5c2 .2 3.7.6 5.2 1.2 1.2.5 2.6 0 3.3-1 1-1.5 2.6-3.3 4.9-3.5h.1l1.9-2.4c.8-1 2.1-1.4 3.3-.9l10.4 4.2c.8.3 1.4 1 1.6 1.9l.2.9c.6 2.1-1.2 4-3.3 3.5-1.1-.3-2.2-.5-3.1-.7-8.2-1.6-6.5-2-6 5l-3.3 11.2c-.2.4-.4.8-.5 1.2-2.2-4.2-5-8-8.2-10.4-3.4-2.6-7.2-3.7-11.3-2.3l-.3.1c-2 1-20.3 10.5-19.1 28.7.6 9.5 4.8 14.9 10.1 17.5.7.3 1.5.4 2.2.1 1-.4 1.9-.5 2.7-.5 1.6.1 3.2.8 4.5 1.8.5.4 1.2.6 1.8.6 2.1-.1 4.1-.5 5.9-1 8.1-2.4 12.5-3.6 14.8-9.5.1.2.2.3.2.3s1.3 1.5 4.5 2.8c.5.2 1.2.5 1.8.7 2.2.7 5.2 1.3 8.8 1.3 8.4.1 16.4-2.1 18.2-11.9.3.5.4.7.4.7l2.2 2.1c.6.6 1 1.5.8 2.3-.1.3.1.8.7 1.6.5.7 1.4 1.5 2.8 2.7 6 4.9 10.3 1.9 2.6 20.3zM71.9 35c-3.9.5-5.9 5.2-6.1 5.6-1.8-1.1-4.2-2-7.3-2.2l-.1-.5c4.5-2.2 12.5-2.9 13.5-2.9z"/><path class="st2" d="M109.8 77.3c-1.7 9.8-9.8 12-18.2 11.9-3.7 0-6.6-.6-8.8-1.3-.7-.2-1.3-.4-1.8-.7-3.1-1.3-4.5-2.8-4.5-2.8s-.1-.1-.2-.3c.6-1.5 1.1-3.4 1.5-5.7.8-4.8-1.1-12.6-4.6-19.3l.5-1.2s3.8-4.2 3.3-11.2-2.2-6.6 6-5c2.4.5 5.4 1.1 8.5 2.3 7.5 2.9 15.7 8.8 18 22.4.7 4.4.8 7.9.3 10.9z"/><path d="M79.3 101s-3.7 3.2-1.3 6.7c1.7 2.5 2.6.2 3-1.3.1-.6.1-1.2-.2-1.8-.5-1.1-1.2-2.9-.7-3.6.7-1-.8 0-.8 0zM85.2 100s1.7.8 1.7 2.8 2.4 4.7 4.1 2.5c1.7-2.2-2.9-4.8-2.9-4.8s-3.4-2.1-2.9-.5z"/><path class="st3" d="M65.8 40.6M65.8 40.6c4.3 2.6 5.5 6.3 5.5 6.3M41.7 50.2s7.8-8.8 13.8-6.9c5.6 1.8 9.1 4.9 9.5 5.3M31 74.2s.3-20.1 5.1-27.6M82.8 87.9c4.7 4 11.1 3.8 19.1 3.5 8-.4 12-7.5 12-7.5M75.1 86.4s-1.9 9.2-18 11.2M33.6 87.7s7.7 6 10.1 6.4M101.5 93.1s-13.4 4.5-20.5-5.9"/><path d="M40.9 112.7s4.9-8.8 10.1-7.1 4.9 8.9 8.9 8.5 4-4 8.6-3.4 19.1 10.5 21 10.9c0 0 12.6-12.2 13.4-14.5s2.4-9.6 5.4-8.7l3 .9.8-7.1s4 1.5 6.4 3.4v.9l-5.3-2.7-.8 7.8s-4.2-2.5-5-.4-8.7 19.3-17.5 24c0 0-22.5-14.3-24.9-11.5s-7.3 3.5-8.9.5-5.8-9-8.8-5.5c-3 3.5-1.4 8.4-4.9 9.1l-1.5-5.1z"/><circle class="st4" cx="84.1" cy="77.2" r="4"/><path class="st2" d="M77.8 78.4c-.4 2.3-.8 4.2-1.5 5.7-2.3 5.9-6.7 7.2-14.8 9.5-2.1.6-4.5 1-7 1.1-1.5-1.4-3.3-2.4-5.3-2.5-1.1 0-2.3.3-3.7.9-5.9-2.4-10.6-7.8-11.3-18.1-1.2-19.1 19.3-28.6 19.3-28.6 8-3 15.2 4 19.7 12.7 3.5 6.7 5.3 14.4 4.6 19.3z"/><path class="st3" d="M54.5 94.7c3.3 2.9 5.4 7.3 5.4 7.3M45.6 93.2c-6.4 2.9-14.6 11.4-14.6 11.4"/><circle class="st4" cx="71.4" cy="80" r="4"/><circle cx="71.4" cy="80" r="1.8"/><circle cx="84.1" cy="77.2" r="1.8"/></svg>