<?xml version="1.0" encoding="utf-8"?>
<!-- Generator: Adobe Illustrator 18.1.1, SVG Export Plug-In . SVG Version: 6.00 Build 0)  -->
<!DOCTYPE svg PUBLIC "-//W3C//DTD SVG 1.1//EN" "http://www.w3.org/Graphics/SVG/1.1/DTD/svg11.dtd">
<svg version="1.1" id="Layer_1" xmlns="http://www.w3.org/2000/svg" xmlns:xlink="http://www.w3.org/1999/xlink" x="0px" y="0px"
	 viewBox="0 0 85 89" style="enable-background:new 0 0 85 89;" xml:space="preserve">
<style type="text/css">
	.st0{fill:none;stroke:#000000;stroke-width:0.3956;stroke-miterlimit:10;}
	.st1{fill:#9CB92D;stroke:#000000;stroke-width:0.3956;stroke-miterlimit:10;}
	.st2{fill:#F7941E;stroke:#000000;stroke-width:0.3956;stroke-miterlimit:10;}
	.st3{fill:#779221;stroke:#000000;stroke-width:0.3956;stroke-miterlimit:10;}
	.st4{fill:#D7DF23;stroke:#000000;stroke-width:0.3956;stroke-miterlimit:10;}
	.st5{fill:#FFFFFF;stroke:#000000;stroke-width:0.3956;stroke-miterlimit:10;}
	.st6{fill:none;stroke:#000000;stroke-width:0.3956;stroke-linecap:round;stroke-miterlimit:10;}
</style>
<path class="st0" d="M59.8,46.9c0.1,1.2-8.5,2.6-10.9,2.3c-2.4-0.3-13.6,0.4-13.6,0.4l4.8-3.2c0.8-0.1,2-0.1,3.3,0l1.2,2.3l0.7-2.1
	c2.2,0.3,4.4,0.6,5.3,0.7c1,0.1,2-0.8,2.9-1.7l1.4,1.5l0.5-3.3C56.5,43.4,59.7,45.7,59.8,46.9z"/>
<path class="st1" d="M78.9,55c-3.3-0.9-8.9-4.1-11.8-5.9c-0.2,0.4-0.5,0.9-0.8,1.3c-3,3.4-9.9,7.3-16.9,5.7
	c-7.1-1.6-14.7-3-16.4-3.3c-1.7-0.3,0.7-2.8,0.7-2.8s7.1-7.8,9.6-6.7c2.5,1.1,5.7,2.2,5.7,2.2s1.5,1.1,2.6-0.5
	c1.1-1.6,2.6-4.1,5.5-2.8c2.5,1.1,5,1.7,6.4,1.7c-0.3-1.3-0.5-2.6,0.1-3.5c1.3-2.4,3.8-7.1-1.2-6.9c0,0,1.3-3.1,2.6-4.1
	c0.6-0.5,0.9-1.4,0.9-2.2c0-0.8-0.4-1.5-1-1.8c-0.4-0.2-1-0.7-1.7-1.2c-1.3-0.9-3.1-1.9-5.2-0.8l-2-3.6l-2.2,0.7l0.7-5.7l-4,6.7
	c0,0-14.8,2.3-26.6-5.3l1.5,4.2c0,0-2,1.3-3.4,2.8c-0.2,0.3-0.5,0.5-0.7,0.8c-0.7,0-1.8,0-2.9,0.2c-0.8,0.2-1.5,0.4-2,0.8L5.3,21.8
	c0,0,0.8,1.5,1.5,3.8c0.5,1.5,0.9,3.4,1,5.4c0,0,8.2-2,9.8-2.8L15,48.9c0,0,16,18.5,20.8,29.2c4.9,10.7,9.4,8.7,23.5,8.4
	c14.1-0.3,20.7-9.9,21.6-14.7C81.8,67,83.7,56.3,78.9,55z M51,35.8c0.4-0.2,0.8-0.5,1.3-0.9c0.8-0.5,1.7-1.1,2.7-1.7
	c1.2-0.7,2.5-1.4,3.7-2c0.5-0.2,0.9-0.4,1.3-0.5c0.4,2.1,0.4,5.1-2.6,6.5c-1.7,0.8-3.4,0.7-4.8,0.1v0c-0.8-0.3-1.6-0.7-2.2-1.1
	C50.6,36.1,50.8,35.9,51,35.8z M28.5,33.6c0.6,0.1,1.2,0.2,1.8,0.2c1.6,0.2,3.4,0.5,5.2,0.7c1,0.2,1.9,0.3,2.9,0.5
	c0.9,0.2,1.8,0.3,2.6,0.5c0.4,0.1,0.9,0.2,1.2,0.3c-1,1.5-2.4,2.5-4,3.2c0,0,0,0,0,0c-3.1,1.4-6.8,1.2-8.8-0.2
	C27.5,37.6,27.9,35.3,28.5,33.6z"/>
<path class="st0" d="M42.2,35.8c-1,1.5-2.4,2.5-4,3.2c0,0,0,0,0,0c-3.1,1.4-6.8,1.2-8.8-0.2c-1.8-1.3-1.5-3.5-0.9-5.2
	c0.6,0.1,1.2,0.2,1.8,0.2c1.6,0.2,3.4,0.5,5.2,0.7c1,0.2,1.9,0.3,2.9,0.5c0.9,0.2,1.8,0.3,2.6,0.5C41.4,35.6,41.8,35.7,42.2,35.8z"
	/>
<path class="st0" d="M57.5,37.2c-1.7,0.8-3.4,0.7-4.8,0.1v0c-0.8-0.3-1.6-0.7-2.2-1.1c0.2-0.1,0.4-0.3,0.6-0.4
	c0.4-0.2,0.8-0.5,1.3-0.9c0.8-0.5,1.7-1.1,2.7-1.7c1.2-0.7,2.5-1.4,3.7-2c0.5-0.2,0.9-0.4,1.3-0.5C60.5,32.8,60.4,35.8,57.5,37.2z"
	/>
<path class="st2" d="M59.6,10.8C59.6,10.8,59.6,10.8,59.6,10.8l-3.7,8.9l-2.2,0.7l0.7-5.7l-4,6.7c0,0-14.8,2.3-26.6-5.3l1.5,4.2
	c0,0-2,1.3-3.4,2.8c-0.2,0.3-0.5,0.5-0.7,0.8c-0.7,0-1.8,0-2.9,0.2c0.5-3.5,2.4-16.5,3.9-17.8c1.8-1.6,2.8-4.1,16.6-4.2
	C52.8,2,62.4,9.1,59.6,10.8z"/>
<path class="st1" d="M70.9,27c-0.6,0.2-3,0.2-5.2,0.2c0-0.8-0.4-1.5-1-1.8c-0.4-0.2-1-0.7-1.7-1.2c2.9-0.8,8.2-2.3,8.6-2.7
	C72.3,20.8,72.1,26.5,70.9,27z"/>
<path class="st3" d="M64.1,43.8c-0.2,0-0.4,0-0.6,0c-1.4,0-3.9-0.6-6.4-1.7c-3-1.3-4.4,1.2-5.5,2.8c-1.1,1.6-2.6,0.5-2.6,0.5
	s-3.2-1.1-5.7-2.2c-2.5-1.1-9.6,6.7-9.6,6.7s-2.4,2.6-0.7,2.8c1.7,0.3,9.4,1.7,16.4,3.3c7.1,1.6,13.9-2.3,16.9-5.7
	c0.4-0.4,0.7-0.9,0.8-1.3C68.3,46.2,65.1,43.6,64.1,43.8z M48.9,49.2c-2.4-0.3-13.6,0.4-13.6,0.4l4.8-3.2c0.8-0.1,2-0.1,3.3,0
	c0.6,0,1.3,0.1,1.9,0.2c2.2,0.3,4.4,0.6,5.3,0.7c1,0.1,2-0.8,2.9-1.7c0.7-0.7,1.2-1.4,1.6-1.7c0.1-0.1,0.1-0.1,0.2-0.1
	c1.2-0.3,4.4,2.1,4.4,3.2C59.9,48,51.3,49.5,48.9,49.2z"/>
<path class="st0" d="M59.8,46.9c0.1,1.2-8.5,2.6-10.9,2.3c-2.4-0.3-13.6,0.4-13.6,0.4l4.8-3.2c0.8-0.1,2-0.1,3.3,0l1.2,2.3l0.7-2.1
	c2.2,0.3,4.4,0.6,5.3,0.7c1,0.1,2-0.8,2.9-1.7l1.4,1.5l0.5-3.3C56.5,43.4,59.7,45.7,59.8,46.9z"/>
<path class="st4" d="M59.8,46.9c0.1,1.2-8.5,2.6-10.9,2.3c-2.4-0.3-13.6,0.4-13.6,0.4l4.8-3.2c0.8-0.1,2-0.1,3.3,0l1.2,2.3l0.7-2.1
	c2.2,0.3,4.4,0.6,5.3,0.7c1,0.1,2-0.8,2.9-1.7l1.4,1.5l0.5-3.3C56.5,43.4,59.7,45.7,59.8,46.9z"/>
<path class="st5" d="M45.3,46.5l-0.7,2.1l-1.2-2.3C44,46.3,44.7,46.4,45.3,46.5z"/>
<path class="st5" d="M55.4,43.6L54.9,47l-1.4-1.5c0.7-0.7,1.2-1.4,1.6-1.7C55.2,43.7,55.3,43.7,55.4,43.6z"/>
<path class="st4" d="M6.9,25.6H3c0,0-0.3-3.6,2.4-3.8C5.3,21.8,6.2,23.3,6.9,25.6z"/>
<path class="st0" d="M22.3,6.3c0,0,5.1,8.4,17.8,8.4s19.5-3.9,19.5-3.9"/>
<polyline class="st6" points="22.3,33.9 19.1,38.5 24,42.2 "/>
<path class="st6" d="M22.9,30.4c0,0,0.5-7.1,5.4-5.8s12.9,6.3,12.9,6.3"/>
<path class="st6" d="M52,30.8c0,0,1.7-4.2,5.9-7.4"/>
<path class="st6" d="M41.6,25.4c0,0,5.9,1.2,9-0.9"/>
<path class="st6" d="M36,25.1c0,0,2.8,1.2,5.2,1.7c2.4,0.5,7.4,0.4,7.4,0.4"/>
<path class="st6" d="M30.1,52.5c0,0-0.3-4,3.5-6.2c3.8-2.2,6.6-5.2,6.6-5.2"/>
<path class="st6" d="M45,39.1c0,0-1.7-2.2-2.8-0.4c-1.2,1.8-1.5,4,0,3.4c1.5-0.5,1.1-1.9,3.2-0.3c2.1,1.6,2.9,2.8,3.9,2.6
	c1-0.2,2.2-1.8,2.4-3"/>
<path class="st6" d="M61.6,30.3c-0.5,0.1-1,0.2-1.5,0.4"/>
<path class="st6" d="M50.4,36.2c-0.4,0.3-0.6,0.4-0.6,0.4s0.9,2.8,1.8,2c0.9-0.8,1.8,0.3,1.9,1.4s-0.9,2.1-0.9,2.1"/>
<path class="st3" d="M57.5,37.2c-1.7,0.8-3.4,0.7-4.8,0.1v0c-0.8-0.3-1.6-0.7-2.2-1.1c0.2-0.1,0.4-0.3,0.6-0.4
	c0.4-0.2,0.8-0.5,1.3-0.9c0.8-0.5,1.7-1.1,2.7-1.7c1.2-0.7,2.5-1.4,3.7-2c0.5-0.2,0.9-0.4,1.3-0.5C60.5,32.8,60.4,35.8,57.5,37.2z"
	/>
<path class="st6" d="M52.6,37.3c0.4,1.1,4.5,3,4.5,3"/>
<path class="st6" d="M46.9,31.8c0.1,3,0.3,6.1-2.6,4.7c-0.4-0.2-1.2-0.4-2.2-0.7"/>
<path class="st6" d="M28.5,33.6c-2.1-0.3-3.6-0.4-3.6-0.4"/>
<line class="st6" x1="48.8" y1="30.8" x2="48.8" y2="33.2"/>
<path class="st3" d="M42.2,35.8c-1,1.5-2.4,2.5-4,3.2c0,0,0,0,0,0c-3.1,1.4-6.8,1.2-8.8-0.2c-1.8-1.3-1.5-3.5-0.9-5.2
	c0.6,0.1,1.2,0.2,1.8,0.2c1.6,0.2,3.4,0.5,5.2,0.7c1,0.2,1.9,0.3,2.9,0.5c0.9,0.2,1.8,0.3,2.6,0.5C41.4,35.6,41.8,35.7,42.2,35.8z"
	/>
<path class="st6" d="M31.6,43c0,0,3.1-1.8,4.1-1.9c1-0.2,2.4-1.9,2.5-2"/>
<path class="st5" d="M57.5,35.3c-1.8,1.1-4.4,1.6-6.4,0.4c0.4-0.2,0.8-0.5,1.3-0.9c0.8-0.5,1.7-1.1,2.7-1.7c1.2-0.7,2.5-1.4,3.7-2
	C58.9,32.4,59,34.4,57.5,35.3z"/>
<path d="M55,33.2c0,0.4-0.1,1.1-0.8,1.8c-0.7,0.7-1.4,0.4-2,0C53.1,34.4,54,33.8,55,33.2z"/>
<path class="st5" d="M40.9,35.5c-1.5,1.6-5.1,2.8-8.2,2.5c-2.6-0.2-2.7-2.7-2.5-4.2c1.6,0.2,3.4,0.5,5.2,0.7c1,0.2,1.9,0.3,2.9,0.5
	C39.2,35.2,40.1,35.3,40.9,35.5z"/>
<path d="M38.3,35c-0.2,0.5-0.6,1.1-1.6,1.2c-1.3,0.1-1.4-1-1.3-1.7C36.4,34.7,37.4,34.9,38.3,35z"/>
<path class="st0" d="M17.6,28.2c0,0,0.3-0.6,3.2-0.7"/>
<g>
</g>
<g>
</g>
<g>
</g>
<g>
</g>
<g>
</g>
<g>
</g>
</svg>
