<svg xmlns="http://www.w3.org/2000/svg" viewBox="0 0 85 89" enable-background="new 0 0 85 89"><style type="text/css">.st0{fill:none;stroke:#000000;stroke-width:0.3956;stroke-miterlimit:10;} .st1{fill:#9CB92D;stroke:#000000;stroke-width:0.3956;stroke-miterlimit:10;} .st2{fill:#F7941E;stroke:#000000;stroke-width:0.3956;stroke-miterlimit:10;} .st3{fill:#779221;stroke:#000000;stroke-width:0.3956;stroke-miterlimit:10;} .st4{fill:#D7DF23;stroke:#000000;stroke-width:0.3956;stroke-miterlimit:10;} .st5{fill:#FFFFFF;stroke:#000000;stroke-width:0.3956;stroke-miterlimit:10;} .st6{fill:none;stroke:#000000;stroke-width:0.3956;stroke-linecap:round;stroke-miterlimit:10;}</style><path class="st0" d="M59.8 46.9c.1 1.2-8.5 2.6-10.9 2.3-2.4-.3-13.6.4-13.6.4l4.8-3.2c.8-.1 2-.1 3.3 0l1.2 2.3.7-2.1c2.2.3 4.4.6 5.3.7 1 .1 2-.8 2.9-1.7l1.4 1.5.5-3.3c1.1-.4 4.3 1.9 4.4 3.1z"/><path class="st1" d="M78.9 55c-3.3-.9-8.9-4.1-11.8-5.9-.2.4-.5.9-.8 1.3-3 3.4-9.9 7.3-16.9 5.7-7.1-1.6-14.7-3-16.4-3.3-1.7-.3.7-2.8.7-2.8s7.1-7.8 9.6-6.7c2.5 1.1 5.7 2.2 5.7 2.2s1.5 1.1 2.6-.5 2.6-4.1 5.5-2.8c2.5 1.1 5 1.7 6.4 1.7-.3-1.3-.5-2.6.1-3.5 1.3-2.4 3.8-7.1-1.2-6.9 0 0 1.3-3.1 2.6-4.1.6-.5.9-1.4.9-2.2 0-.8-.4-1.5-1-1.8-.4-.2-1-.7-1.7-1.2-1.3-.9-3.1-1.9-5.2-.8l-2-3.6-2.2.7.7-5.7-4 6.7s-14.8 2.3-26.6-5.3l1.5 4.2s-2 1.3-3.4 2.8l-.7.8c-.7 0-1.8 0-2.9.2-.8.2-1.5.4-2 .8l-11.1-3.2s.8 1.5 1.5 3.8c.5 1.5.9 3.4 1 5.4 0 0 8.2-2 9.8-2.8l-2.6 20.7s16 18.5 20.8 29.2c4.9 10.7 9.4 8.7 23.5 8.4 14.1-.3 20.7-9.9 21.6-14.7.9-4.8 2.8-15.5-2-16.8zm-27.9-19.2c.4-.2.8-.5 1.3-.9.8-.5 1.7-1.1 2.7-1.7 1.2-.7 2.5-1.4 3.7-2 .5-.2.9-.4 1.3-.5.4 2.1.4 5.1-2.6 6.5-1.7.8-3.4.7-4.8.1-.8-.3-1.6-.7-2.2-1.1l.6-.4zm-22.5-2.2c.6.1 1.2.2 1.8.2 1.6.2 3.4.5 5.2.7l2.9.5c.9.2 1.8.3 2.6.5.4.1.9.2 1.2.3-1 1.5-2.4 2.5-4 3.2-3.1 1.4-6.8 1.2-8.8-.2-1.9-1.2-1.5-3.5-.9-5.2z"/><path class="st0" d="M42.2 35.8c-1 1.5-2.4 2.5-4 3.2-3.1 1.4-6.8 1.2-8.8-.2-1.8-1.3-1.5-3.5-.9-5.2.6.1 1.2.2 1.8.2 1.6.2 3.4.5 5.2.7l2.9.5c.9.2 1.8.3 2.6.5l1.2.3zm15.3 1.4c-1.7.8-3.4.7-4.8.1-.8-.3-1.6-.7-2.2-1.1l.6-.4c.4-.2.8-.5 1.3-.9.8-.5 1.7-1.1 2.7-1.7 1.2-.7 2.5-1.4 3.7-2 .5-.2.9-.4 1.3-.5.4 2.1.3 5.1-2.6 6.5z"/><path class="st2" d="M59.6 10.8l-3.7 8.9-2.2.7.7-5.7-4 6.7s-14.8 2.3-26.6-5.3l1.5 4.2s-2 1.3-3.4 2.8l-.7.8c-.7 0-1.8 0-2.9.2.5-3.5 2.4-16.5 3.9-17.8 1.8-1.6 2.8-4.1 16.6-4.2 14-.1 23.6 7 20.8 8.7z"/><path class="st1" d="M70.9 27c-.6.2-3 .2-5.2.2 0-.8-.4-1.5-1-1.8-.4-.2-1-.7-1.7-1.2 2.9-.8 8.2-2.3 8.6-2.7.7-.7.5 5-.7 5.5z"/><path class="st3" d="M64.1 43.8h-.6c-1.4 0-3.9-.6-6.4-1.7-3-1.3-4.4 1.2-5.5 2.8-1.1 1.6-2.6.5-2.6.5s-3.2-1.1-5.7-2.2l-9.6 6.7s-2.4 2.6-.7 2.8c1.7.3 9.4 1.7 16.4 3.3 7.1 1.6 13.9-2.3 16.9-5.7.4-.4.7-.9.8-1.3 1.2-2.8-2-5.4-3-5.2zm-15.2 5.4c-2.4-.3-13.6.4-13.6.4l4.8-3.2c.8-.1 2-.1 3.3 0 .6 0 1.3.1 1.9.2 2.2.3 4.4.6 5.3.7 1 .1 2-.8 2.9-1.7.7-.7 1.2-1.4 1.6-1.7.1-.1.1-.1.2-.1 1.2-.3 4.4 2.1 4.4 3.2.2 1-8.4 2.5-10.8 2.2z"/><path class="st0" d="M59.8 46.9c.1 1.2-8.5 2.6-10.9 2.3-2.4-.3-13.6.4-13.6.4l4.8-3.2c.8-.1 2-.1 3.3 0l1.2 2.3.7-2.1c2.2.3 4.4.6 5.3.7 1 .1 2-.8 2.9-1.7l1.4 1.5.5-3.3c1.1-.4 4.3 1.9 4.4 3.1z"/><path class="st4" d="M59.8 46.9c.1 1.2-8.5 2.6-10.9 2.3-2.4-.3-13.6.4-13.6.4l4.8-3.2c.8-.1 2-.1 3.3 0l1.2 2.3.7-2.1c2.2.3 4.4.6 5.3.7 1 .1 2-.8 2.9-1.7l1.4 1.5.5-3.3c1.1-.4 4.3 1.9 4.4 3.1z"/><path class="st5" d="M45.3 46.5l-.7 2.1-1.2-2.3c.6 0 1.3.1 1.9.2zm10.1-2.9l-.5 3.4-1.4-1.5c.7-.7 1.2-1.4 1.6-1.7l.3-.2z"/><path class="st4" d="M6.9 25.6h-3.9s-.3-3.6 2.4-3.8c-.1 0 .8 1.5 1.5 3.8z"/><path class="st0" d="M22.3 6.3s5.1 8.4 17.8 8.4l19.5-3.9"/><path class="st6" d="M22.3 33.9l-3.2 4.6 4.9 3.7m-1.1-11.8s.5-7.1 5.4-5.8l12.9 6.3m10.8-.1s1.7-4.2 5.9-7.4m-16.3 2s5.9 1.2 9-.9m-14.6.6s2.8 1.2 5.2 1.7c2.4.5 7.4.4 7.4.4m-18.5 25.3s-.3-4 3.5-6.2l6.6-5.2m4.8-2s-1.7-2.2-2.8-.4c-1.2 1.8-1.5 4 0 3.4 1.5-.5 1.1-1.9 3.2-.3 2.1 1.6 2.9 2.8 3.9 2.6 1-.2 2.2-1.8 2.4-3m9.9-11.1c-.5.1-1 .2-1.5.4m-9.7 5.5c-.4.3-.6.4-.6.4s.9 2.8 1.8 2c.9-.8 1.8.3 1.9 1.4l-.9 2.1"/><path class="st3" d="M57.5 37.2c-1.7.8-3.4.7-4.8.1-.8-.3-1.6-.7-2.2-1.1l.6-.4c.4-.2.8-.5 1.3-.9.8-.5 1.7-1.1 2.7-1.7 1.2-.7 2.5-1.4 3.7-2 .5-.2.9-.4 1.3-.5.4 2.1.3 5.1-2.6 6.5z"/><path class="st6" d="M52.6 37.3c.4 1.1 4.5 3 4.5 3m-10.2-8.5c.1 3 .3 6.1-2.6 4.7-.4-.2-1.2-.4-2.2-.7m-13.6-2.2c-2.1-.3-3.6-.4-3.6-.4m23.9-2.4v2.4"/><path class="st3" d="M42.2 35.8c-1 1.5-2.4 2.5-4 3.2-3.1 1.4-6.8 1.2-8.8-.2-1.8-1.3-1.5-3.5-.9-5.2.6.1 1.2.2 1.8.2 1.6.2 3.4.5 5.2.7l2.9.5c.9.2 1.8.3 2.6.5l1.2.3z"/><path class="st6" d="M31.6 43s3.1-1.8 4.1-1.9c1-.2 2.4-1.9 2.5-2"/><path class="st5" d="M57.5 35.3c-1.8 1.1-4.4 1.6-6.4.4.4-.2.8-.5 1.3-.9.8-.5 1.7-1.1 2.7-1.7 1.2-.7 2.5-1.4 3.7-2 .1 1.3.2 3.3-1.3 4.2z"/><path d="M55 33.2c0 .4-.1 1.1-.8 1.8-.7.7-1.4.4-2 0 .9-.6 1.8-1.2 2.8-1.8z"/><path class="st5" d="M40.9 35.5c-1.5 1.6-5.1 2.8-8.2 2.5-2.6-.2-2.7-2.7-2.5-4.2 1.6.2 3.4.5 5.2.7l2.9.5c.9.2 1.8.3 2.6.5z"/><path d="M38.3 35c-.2.5-.6 1.1-1.6 1.2-1.3.1-1.4-1-1.3-1.7 1 .2 2 .4 2.9.5z"/><path class="st0" d="M17.6 28.2s.3-.6 3.2-.7"/></svg>