<?xml version="1.0" encoding="utf-8"?>
<!-- Generator: Adobe Illustrator 18.1.1, SVG Export Plug-In . SVG Version: 6.00 Build 0)  -->
<!DOCTYPE svg PUBLIC "-//W3C//DTD SVG 1.1//EN" "http://www.w3.org/Graphics/SVG/1.1/DTD/svg11.dtd">
<svg version="1.1" id="Layer_1" xmlns="http://www.w3.org/2000/svg" xmlns:xlink="http://www.w3.org/1999/xlink" x="0px" y="0px"
	 viewBox="0 76 612 429" enable-background="new 0 76 612 429" xml:space="preserve">
<path fill="#262261" d="M527.6,112.2c44,53.9-7.8,159.4-109.4,242.4s-219.4,110.9-263.4,57s-29.8-145,104.3-247.8
	C363.2,84,483.6,58.4,527.6,112.2z"/>
<path fill="#BE1E2D" d="M486.2,133.2c37.5,40.3-15.3,107.9-95.7,173.5S226.4,402.3,187.5,373C143.6,339.9,174,261.6,280,180.3
	C362.3,117.1,452,96.4,486.2,133.2z"/>
<path fill="#C64A20" d="M448.2,158.3c29,31.2-11.1,82.3-73.4,133.2s-123.2,75.1-153.3,52.4c-34-25.7-11.1-82.4,71-145.4
	C356.3,149.5,421.7,129.9,448.2,158.3z"/>
<path fill="#FFF100" d="M418.7,185.5c21.4,23-10.4,57.2-56.3,94.7s-95.8,49.4-118,32.7c-25.1-18.9,10.6-29.6,71.2-76.1
	C362.7,200.7,399.2,164.5,418.7,185.5z"/>
<radialGradient id="SVGID_1_" cx="275.955" cy="323.5767" r="139.6408" gradientUnits="userSpaceOnUse">
	<stop  offset="0" style="stop-color:#CADA2B"/>
	<stop  offset="6.487750e-02" style="stop-color:#C4D82C"/>
	<stop  offset="0.1528" style="stop-color:#B3D42F"/>
	<stop  offset="0.254" style="stop-color:#96CC34"/>
	<stop  offset="0.365" style="stop-color:#6EC23B"/>
	<stop  offset="0.483" style="stop-color:#3CB445"/>
	<stop  offset="0.601" style="stop-color:#02A54F"/>
	<stop  offset="0.6687" style="stop-color:#1FAE6D"/>
	<stop  offset="0.764" style="stop-color:#41B990"/>
	<stop  offset="0.8537" style="stop-color:#59C1A9"/>
	<stop  offset="0.9349" style="stop-color:#68C5B9"/>
	<stop  offset="1" style="stop-color:#6DC7BE"/>
</radialGradient>
<path fill="url(#SVGID_1_)" stroke="#231F20" stroke-miterlimit="10" d="M370.2,251.5l-45,89.6l31.6,15.8l7.5,3.7l3.9-12.6
	c0,9.5-0.3,22.3-1.4,36.3c-0.1,1-0.2,2.1-0.3,3.2c-0.1,1.1-0.2,2.1-0.3,3.2v0c-0.4,4.1-0.8,8.2-1.4,12.4
	c-5.3,40.9-18.5,85.2-50.7,91.4c-4.2,0.8-8.5,1.1-12.7,0.9c-58.8-2.5-122.7-91.8-122.7-91.8l64.5-54.5c0,0,31.2,65.1,40.8,79.2
	c5.5,8,9.6,6.1,12.1,2.9c2-2.5,2.8-5.7,2.7-8.9L286,169.9l87.3-18.2L370.2,251.5z"/>
<radialGradient id="SVGID_2_" cx="412.5751" cy="290.9201" r="81.0332" gradientUnits="userSpaceOnUse">
	<stop  offset="0" style="stop-color:#CADA2B"/>
	<stop  offset="6.487750e-02" style="stop-color:#C4D82C"/>
	<stop  offset="0.1528" style="stop-color:#B3D42F"/>
	<stop  offset="0.254" style="stop-color:#96CC34"/>
	<stop  offset="0.365" style="stop-color:#6EC23B"/>
	<stop  offset="0.483" style="stop-color:#3CB445"/>
	<stop  offset="0.601" style="stop-color:#02A54F"/>
	<stop  offset="0.6687" style="stop-color:#1FAE6D"/>
	<stop  offset="0.764" style="stop-color:#41B990"/>
	<stop  offset="0.8537" style="stop-color:#59C1A9"/>
	<stop  offset="0.9349" style="stop-color:#68C5B9"/>
	<stop  offset="1" style="stop-color:#6DC7BE"/>
</radialGradient>
<polygon fill="url(#SVGID_2_)" stroke="#231F20" stroke-miterlimit="10" points="472.5,338.1 460.6,346.7 431.9,367.4 420.7,333.6 
	373.2,331.3 368.1,348 364.3,360.6 356.8,356.9 325.2,341.1 370.2,251.5 402.6,187 454.2,298.5 458.1,306.9 462,315.5 "/>
<radialGradient id="SVGID_3_" cx="591.8295" cy="306.7043" r="134.105" gradientUnits="userSpaceOnUse">
	<stop  offset="0" style="stop-color:#CADA2B"/>
	<stop  offset="6.487750e-02" style="stop-color:#C4D82C"/>
	<stop  offset="0.1528" style="stop-color:#B3D42F"/>
	<stop  offset="0.254" style="stop-color:#96CC34"/>
	<stop  offset="0.365" style="stop-color:#6EC23B"/>
	<stop  offset="0.483" style="stop-color:#3CB445"/>
	<stop  offset="0.601" style="stop-color:#02A54F"/>
	<stop  offset="0.6687" style="stop-color:#1FAE6D"/>
	<stop  offset="0.764" style="stop-color:#41B990"/>
	<stop  offset="0.8537" style="stop-color:#59C1A9"/>
	<stop  offset="0.9349" style="stop-color:#68C5B9"/>
	<stop  offset="1" style="stop-color:#6DC7BE"/>
</radialGradient>
<polygon fill="url(#SVGID_3_)" stroke="#231F20" stroke-miterlimit="10" points="595,338.8 551.4,356.1 543.1,313.8 538.7,291.5 
	518.4,341.1 492,291.5 492,356.1 460.6,346.7 472.5,338.1 462,315.5 458.1,306.9 454.2,298.5 456,290 478.5,181.8 519.9,253.9 
	557.4,187 "/>
<polygon points="543.1,313.9 528.1,352.4 515.4,347.5 500.3,317.8 500.3,368.5 468.8,359.9 444.7,377.2 431.9,367.4 460.6,346.6 
	492.1,356.1 492.1,291.5 518.4,341.1 538.7,291.5 "/>
<polygon points="606.3,347.9 559.7,362.9 551.4,356.1 595,338.8 557.4,187 569.5,191.5 "/>
<polygon stroke="#231F20" stroke-miterlimit="10" points="407.9,296.7 387.6,296.7 397.7,268.9 "/>
<radialGradient id="SVGID_4_" cx="46.1609" cy="279.0832" r="52.6185" fx="98.7379" fy="276.9927" gradientUnits="userSpaceOnUse">
	<stop  offset="0" style="stop-color:#CADA2B"/>
	<stop  offset="6.487750e-02" style="stop-color:#C4D82C"/>
	<stop  offset="0.1528" style="stop-color:#B3D42F"/>
	<stop  offset="0.254" style="stop-color:#96CC34"/>
	<stop  offset="0.365" style="stop-color:#6EC23B"/>
	<stop  offset="0.483" style="stop-color:#3CB445"/>
	<stop  offset="0.601" style="stop-color:#02A54F"/>
	<stop  offset="0.6687" style="stop-color:#1FAE6D"/>
	<stop  offset="0.764" style="stop-color:#41B990"/>
	<stop  offset="0.8537" style="stop-color:#59C1A9"/>
	<stop  offset="0.9349" style="stop-color:#68C5B9"/>
	<stop  offset="1" style="stop-color:#6DC7BE"/>
</radialGradient>
<path fill="url(#SVGID_4_)" stroke="#231F20" stroke-miterlimit="10" d="M69.2,296.1c-0.6,1.7-1.3,3.3-2.2,4.9c0,0,0,0.1-0.1,0.1
	c-0.8,1.4-1.6,2.8-2.6,4.2c-12.7,18.8-37,20.7-49,20.4c-4.3-0.1-7-0.5-7-0.5v-36.4c0,0,9,0.4,24,0.4c12,0,1.3-9-3.5-12.7
	c-4-3-7.6-6.4-10.7-10.3c-6.8-8.4-13.6-21.5-4.2-33.7c13.8-17.8,43.1-17.9,49.2-17.7c0.7,0,1.1,0.1,1.1,0.1V240c0,0,0,0-18.4,0
	c-8.9,0-4.9,5.3,1.6,10.7c2.8,2.3,6,4.7,8.9,6.7c4.5,3.1,8.1,7.2,10.6,11.8C71.4,277.3,72.4,287.1,69.2,296.1z"/>
<radialGradient id="SVGID_5_" cx="97.6444" cy="268.3727" r="37.3487" gradientUnits="userSpaceOnUse">
	<stop  offset="0" style="stop-color:#CADA2B"/>
	<stop  offset="6.487750e-02" style="stop-color:#C4D82C"/>
	<stop  offset="0.1528" style="stop-color:#B3D42F"/>
	<stop  offset="0.254" style="stop-color:#96CC34"/>
	<stop  offset="0.365" style="stop-color:#6EC23B"/>
	<stop  offset="0.483" style="stop-color:#3CB445"/>
	<stop  offset="0.601" style="stop-color:#02A54F"/>
	<stop  offset="0.6687" style="stop-color:#1FAE6D"/>
	<stop  offset="0.764" style="stop-color:#41B990"/>
	<stop  offset="0.8537" style="stop-color:#59C1A9"/>
	<stop  offset="0.9349" style="stop-color:#68C5B9"/>
	<stop  offset="1" style="stop-color:#6DC7BE"/>
</radialGradient>
<path fill="url(#SVGID_5_)" stroke="#231F20" stroke-miterlimit="10" d="M127.5,251.7c-1.1-4.7-3.2-8.7-5.8-12.1
	c-7-9.2-18.1-14.3-29.6-14.3H67v43.8c4.4,8.2,5.4,18,2.2,27c-0.6,1.7-1.3,3.3-2.2,4.9v10.3h25.6v-24.1c0,0,8.1-1.1,16.7-4.9
	c1.3-0.6,2.6-1.2,3.9-1.9c8-4.3,15.2-11.2,15.2-21.8C128.3,256.3,128,253.9,127.5,251.7z M91.4,268.9v-24c0,0,4.4,1.4,7.8,4.3
	c2.3,1.9,4.2,4.5,4.2,7.8C103.5,265.2,91.4,268.9,91.4,268.9z"/>
<path fill="none" stroke="#000000" stroke-miterlimit="10" d="M103.5,256.9c0,8.3-12,12-12,12v-24c0,0,4.4,1.4,7.8,4.3
	C101.6,251.1,103.5,253.6,103.5,256.9z"/>
<path fill="none" stroke="#231F20" stroke-miterlimit="10" d="M103.5,256.9c0,8.3-12,12-12,12v-24c0,0,4.4,1.4,7.8,4.3
	C101.6,251.1,103.5,253.6,103.5,256.9z"/>
<radialGradient id="SVGID_6_" cx="118.8793" cy="290.9211" r="67.8796" gradientUnits="userSpaceOnUse">
	<stop  offset="0" style="stop-color:#CADA2B"/>
	<stop  offset="6.487750e-02" style="stop-color:#C4D82C"/>
	<stop  offset="0.1528" style="stop-color:#B3D42F"/>
	<stop  offset="0.254" style="stop-color:#96CC34"/>
	<stop  offset="0.365" style="stop-color:#6EC23B"/>
	<stop  offset="0.483" style="stop-color:#3CB445"/>
	<stop  offset="0.601" style="stop-color:#02A54F"/>
	<stop  offset="0.6687" style="stop-color:#1FAE6D"/>
	<stop  offset="0.764" style="stop-color:#41B990"/>
	<stop  offset="0.8537" style="stop-color:#59C1A9"/>
	<stop  offset="0.9349" style="stop-color:#68C5B9"/>
	<stop  offset="1" style="stop-color:#6DC7BE"/>
</radialGradient>
<path fill="url(#SVGID_6_)" stroke="#231F20" stroke-miterlimit="10" d="M175.9,296.3c-1-1.5-2-3.1-2.9-4.8c-4.6-8.9-5-18.7-2-27.8
	v0l-24-45.1l-19.6,33.1c0.5,2.2,0.8,4.6,0.8,7.1c0,10.7-7.2,17.5-15.2,21.8c-1.3,0.7-2.6,1.3-3.9,1.9l-11.8,19.9l3.4,2.4l0,0
	l16.9,12.2l10.5-18.8h30.1l3.1,5.6l7.4,13.2l16.6-11.1C181.9,303.4,178.7,300.2,175.9,296.3z M133.9,279.8l8.6-18.8l8.6,18.8H133.9z
	"/>
<polygon fill="none" stroke="#000000" stroke-miterlimit="10" points="151.2,279.8 133.9,279.8 142.6,261 "/>
<polygon stroke="#231F20" stroke-miterlimit="10" points="151.2,279.8 133.9,279.8 142.6,261 "/>
<radialGradient id="SVGID_7_" cx="208.5091" cy="290.9211" r="57.2241" gradientUnits="userSpaceOnUse">
	<stop  offset="0" style="stop-color:#CADA2B"/>
	<stop  offset="6.487750e-02" style="stop-color:#C4D82C"/>
	<stop  offset="0.1528" style="stop-color:#B3D42F"/>
	<stop  offset="0.254" style="stop-color:#96CC34"/>
	<stop  offset="0.365" style="stop-color:#6EC23B"/>
	<stop  offset="0.483" style="stop-color:#3CB445"/>
	<stop  offset="0.601" style="stop-color:#02A54F"/>
	<stop  offset="0.6687" style="stop-color:#1FAE6D"/>
	<stop  offset="0.764" style="stop-color:#41B990"/>
	<stop  offset="0.8537" style="stop-color:#59C1A9"/>
	<stop  offset="0.9349" style="stop-color:#68C5B9"/>
	<stop  offset="1" style="stop-color:#6DC7BE"/>
</radialGradient>
<path fill="url(#SVGID_7_)" stroke="#231F20" stroke-miterlimit="10" d="M229.4,229.8V255c0,0-1.3-0.1-3.4-0.2
	c-8.4-0.3-29.7,0.3-29.7,13c0,4.4,2.1,7.8,5.2,10.5c7.9,7.1,22.3,9,22.3,9V317c0,0-21.8,1.1-38.3-11.1c-3.5-2.6-6.8-5.8-9.5-9.7
	c-1-1.5-2-3.1-2.9-4.8c-4.6-8.9-5-18.7-2-27.8v0c6.2-18.4,26.5-34.1,55-33.9C227.1,229.8,228.2,229.8,229.4,229.8z"/>
<radialGradient id="SVGID_8_" cx="231.6174" cy="313.4714" r="92.2953" gradientUnits="userSpaceOnUse">
	<stop  offset="0" style="stop-color:#CADA2B"/>
	<stop  offset="6.487750e-02" style="stop-color:#C4D82C"/>
	<stop  offset="0.1528" style="stop-color:#B3D42F"/>
	<stop  offset="0.254" style="stop-color:#96CC34"/>
	<stop  offset="0.365" style="stop-color:#6EC23B"/>
	<stop  offset="0.483" style="stop-color:#3CB445"/>
	<stop  offset="0.601" style="stop-color:#02A54F"/>
	<stop  offset="0.6687" style="stop-color:#1FAE6D"/>
	<stop  offset="0.764" style="stop-color:#41B990"/>
	<stop  offset="0.8537" style="stop-color:#59C1A9"/>
	<stop  offset="0.9349" style="stop-color:#68C5B9"/>
	<stop  offset="1" style="stop-color:#6DC7BE"/>
</radialGradient>
<path fill="url(#SVGID_8_)" stroke="#231F20" stroke-miterlimit="10" d="M276,282.8v25.9h-50v-53.9c2.1,0.1,3.4,0.2,3.4,0.2v-25.2
	c-1.1-0.1-2.3-0.1-3.4-0.1v-8.9h46.6v2.7l0,18h-23.3v11.3h18.8v20.6H251v9.4H276z"/>
<path d="M229.4,308.8v17.1c-27.4,0-40-13.1-40-13.1l-13.2,10.9l-7.3-6.5l16.6-11.1c16.5,12.2,38.3,11.1,38.3,11.1v-16l2.3,0.2v7.5
	H229.4z"/>
<path d="M226,254.9v7.2c-19.4,0.8-23.7,10.5-24.5,16.3c-3-2.7-5.2-6.1-5.2-10.5C196.3,255.1,217.6,254.6,226,254.9z"/>
<polygon points="274.9,224.6 274.9,244.2 255.6,244.2 255.6,252.8 249.3,252.8 249.3,241.5 272.6,241.5 272.6,223.5 "/>
<polygon points="276.9,257.8 276.9,277 257.6,277 257.6,282.8 251,282.8 251,273.4 268.1,273.4 268.1,255.4 "/>
<polygon points="284,288.5 284,315 245.4,313.9 246.5,308.8 276,308.8 276,282.8 "/>
<polygon points="161.5,303.9 137.1,303.6 122,326.4 99.3,307.3 100.8,304.8 100.8,304.8 117.8,317 128.3,298.2 158.3,298.2 "/>
<path d="M100.8,304.8L100.8,304.8l-1.5,2.4v11h-26l-0.9-6.9h20.2v-24.1c0,0,8.1-1.1,16.7-4.9l-11.8,19.9L100.8,304.8z"/>
<path d="M99.3,249.2v12.5l-7.8,4.4v-21.1C91.4,244.9,95.8,246.3,99.3,249.2z"/>
<path d="M68.8,225.3H67v21.9c-9.4-1.4-15.7,0.9-19.4,3.4C41.1,245.2,37.1,240,46,240c18.4,0,18.4,0,18.4,0v-25.2c0,0-0.4,0-1.1-0.1
	c3.1-0.6,5.2,1.5,5.2,1.5L68.8,225.3z"/>
<path d="M67.8,311.4c-9.8,22.1-52.4,19.7-52.4,19.7v-5.3c12,0.3,36.2-1.6,49-20.4c1-1.4,1.8-2.8,2.6-4.2c0,0,0-0.1,0.1-0.1v10.3
	H67.8z"/>
<path d="M431.9,367.4l-12-25.1H380l-3.8,13.9c0.8,9.5,0.8,24.4,0.8,24.4s5.1,130.2-76.7,117.8l1-3c4.3,0.2,8.5-0.1,12.7-0.9
	c32.2-6.2,45.4-50.4,50.7-91.4c0.5-4.2,1-8.3,1.4-12.4v0c0.1-1.1,0.2-2.1,0.3-3.2c0.1-1.1,0.2-2.1,0.3-3.2c1.1-14,1.4-26.8,1.4-36.3
	l5.1-16.7l47.4,2.2L431.9,367.4z"/>
<path d="M99.3,261.6c0,0,3.4-5.1,0-12.5"/>
<polygon points="364.3,360.6 370.1,365.2 372.4,350.1 368.1,348 "/>
</svg>
