<svg xmlns="http://www.w3.org/2000/svg" viewBox="0 76 612 429" enable-background="new 0 76 612 429"><path fill="#262261" d="M527.6 112.2c44 53.9-7.8 159.4-109.4 242.4s-219.4 110.9-263.4 57-29.8-145 104.3-247.8c104.1-79.8 224.5-105.4 268.5-51.6z"/><path fill="#BE1E2D" d="M486.2 133.2c37.5 40.3-15.3 107.9-95.7 173.5s-164.1 95.6-203 66.3c-43.9-33.1-13.5-111.4 92.5-192.7 82.3-63.2 172-83.9 206.2-47.1z"/><path fill="#C64A20" d="M448.2 158.3c29 31.2-11.1 82.3-73.4 133.2s-123.2 75.1-153.3 52.4c-34-25.7-11.1-82.4 71-145.4 63.8-49 129.2-68.6 155.7-40.2z"/><path fill="#FFF100" d="M418.7 185.5c21.4 23-10.4 57.2-56.3 94.7s-95.8 49.4-118 32.7c-25.1-18.9 10.6-29.6 71.2-76.1 47.1-36.1 83.6-72.3 103.1-51.3z"/><radialGradient id="a" cx="275.955" cy="323.577" r="139.641" gradientUnits="userSpaceOnUse"><stop offset="0" stop-color="#CADA2B"/><stop offset=".065" stop-color="#C4D82C"/><stop offset=".153" stop-color="#B3D42F"/><stop offset=".254" stop-color="#96CC34"/><stop offset=".365" stop-color="#6EC23B"/><stop offset=".483" stop-color="#3CB445"/><stop offset=".601" stop-color="#02A54F"/><stop offset=".669" stop-color="#1FAE6D"/><stop offset=".764" stop-color="#41B990"/><stop offset=".854" stop-color="#59C1A9"/><stop offset=".935" stop-color="#68C5B9"/><stop offset="1" stop-color="#6DC7BE"/></radialGradient><path fill="url(#a)" stroke="#231F20" stroke-miterlimit="10" d="M370.2 251.5l-45 89.6 31.6 15.8 7.5 3.7 3.9-12.6c0 9.5-.3 22.3-1.4 36.3-.1 1-.2 2.1-.3 3.2l-.3 3.2c-.4 4.1-.8 8.2-1.4 12.4-5.3 40.9-18.5 85.2-50.7 91.4-4.2.8-8.5 1.1-12.7.9-58.8-2.5-122.7-91.8-122.7-91.8l64.5-54.5s31.2 65.1 40.8 79.2c5.5 8 9.6 6.1 12.1 2.9 2-2.5 2.8-5.7 2.7-8.9l-12.8-252.4 87.3-18.2-3.1 99.8z"/><radialGradient id="b" cx="412.575" cy="290.92" r="81.033" gradientUnits="userSpaceOnUse"><stop offset="0" stop-color="#CADA2B"/><stop offset=".065" stop-color="#C4D82C"/><stop offset=".153" stop-color="#B3D42F"/><stop offset=".254" stop-color="#96CC34"/><stop offset=".365" stop-color="#6EC23B"/><stop offset=".483" stop-color="#3CB445"/><stop offset=".601" stop-color="#02A54F"/><stop offset=".669" stop-color="#1FAE6D"/><stop offset=".764" stop-color="#41B990"/><stop offset=".854" stop-color="#59C1A9"/><stop offset=".935" stop-color="#68C5B9"/><stop offset="1" stop-color="#6DC7BE"/></radialGradient><path fill="url(#b)" stroke="#231F20" stroke-miterlimit="10" d="M472.5 338.1l-11.9 8.6-28.7 20.7-11.2-33.8-47.5-2.3-5.1 16.7-3.8 12.6-7.5-3.7-31.6-15.8 45-89.6 32.4-64.5 51.6 111.5 3.9 8.4 3.9 8.6z"/><radialGradient id="c" cx="591.83" cy="306.704" r="134.105" gradientUnits="userSpaceOnUse"><stop offset="0" stop-color="#CADA2B"/><stop offset=".065" stop-color="#C4D82C"/><stop offset=".153" stop-color="#B3D42F"/><stop offset=".254" stop-color="#96CC34"/><stop offset=".365" stop-color="#6EC23B"/><stop offset=".483" stop-color="#3CB445"/><stop offset=".601" stop-color="#02A54F"/><stop offset=".669" stop-color="#1FAE6D"/><stop offset=".764" stop-color="#41B990"/><stop offset=".854" stop-color="#59C1A9"/><stop offset=".935" stop-color="#68C5B9"/><stop offset="1" stop-color="#6DC7BE"/></radialGradient><path fill="url(#c)" stroke="#231F20" stroke-miterlimit="10" d="M595 338.8l-43.6 17.3-8.3-42.3-4.4-22.3-20.3 49.6-26.4-49.6v64.6l-31.4-9.4 11.9-8.6-10.5-22.6-3.9-8.6-3.9-8.4 1.8-8.5 22.5-108.2 41.4 72.1 37.5-66.9z"/><path d="M543.1 313.9l-15 38.5-12.7-4.9-15.1-29.7v50.7l-31.5-8.6-24.1 17.3-12.8-9.8 28.7-20.8 31.5 9.5v-64.6l26.3 49.6 20.3-49.6zM606.3 347.9l-46.6 15-8.3-6.8 43.6-17.3-37.6-151.8 12.1 4.5z"/><path stroke="#231F20" stroke-miterlimit="10" d="M407.9 296.7h-20.3l10.1-27.8z"/><radialGradient id="d" cx="46.161" cy="279.083" r="52.618" fx="98.738" fy="276.993" gradientUnits="userSpaceOnUse"><stop offset="0" stop-color="#CADA2B"/><stop offset=".065" stop-color="#C4D82C"/><stop offset=".153" stop-color="#B3D42F"/><stop offset=".254" stop-color="#96CC34"/><stop offset=".365" stop-color="#6EC23B"/><stop offset=".483" stop-color="#3CB445"/><stop offset=".601" stop-color="#02A54F"/><stop offset=".669" stop-color="#1FAE6D"/><stop offset=".764" stop-color="#41B990"/><stop offset=".854" stop-color="#59C1A9"/><stop offset=".935" stop-color="#68C5B9"/><stop offset="1" stop-color="#6DC7BE"/></radialGradient><path fill="url(#d)" stroke="#231F20" stroke-miterlimit="10" d="M69.2 296.1c-.6 1.7-1.3 3.3-2.2 4.9 0 0 0 .1-.1.1-.8 1.4-1.6 2.8-2.6 4.2-12.7 18.8-37 20.7-49 20.4-4.3-.1-7-.5-7-.5v-36.4s9 .4 24 .4c12 0 1.3-9-3.5-12.7-4-3-7.6-6.4-10.7-10.3-6.8-8.4-13.6-21.5-4.2-33.7 13.8-17.8 43.1-17.9 49.2-17.7.7 0 1.1.1 1.1.1v25.1h-18.4c-8.9 0-4.9 5.3 1.6 10.7 2.8 2.3 6 4.7 8.9 6.7 4.5 3.1 8.1 7.2 10.6 11.8 4.5 8.1 5.5 17.9 2.3 26.9z"/><radialGradient id="e" cx="97.644" cy="268.373" r="37.349" gradientUnits="userSpaceOnUse"><stop offset="0" stop-color="#CADA2B"/><stop offset=".065" stop-color="#C4D82C"/><stop offset=".153" stop-color="#B3D42F"/><stop offset=".254" stop-color="#96CC34"/><stop offset=".365" stop-color="#6EC23B"/><stop offset=".483" stop-color="#3CB445"/><stop offset=".601" stop-color="#02A54F"/><stop offset=".669" stop-color="#1FAE6D"/><stop offset=".764" stop-color="#41B990"/><stop offset=".854" stop-color="#59C1A9"/><stop offset=".935" stop-color="#68C5B9"/><stop offset="1" stop-color="#6DC7BE"/></radialGradient><path fill="url(#e)" stroke="#231F20" stroke-miterlimit="10" d="M127.5 251.7c-1.1-4.7-3.2-8.7-5.8-12.1-7-9.2-18.1-14.3-29.6-14.3h-25.1v43.8c4.4 8.2 5.4 18 2.2 27-.6 1.7-1.3 3.3-2.2 4.9v10.3h25.6v-24.1s8.1-1.1 16.7-4.9c1.3-.6 2.6-1.2 3.9-1.9 8-4.3 15.2-11.2 15.2-21.8-.1-2.3-.4-4.7-.9-6.9zm-36.1 17.2v-24s4.4 1.4 7.8 4.3c2.3 1.9 4.2 4.5 4.2 7.8.1 8.2-12 11.9-12 11.9z"/><path stroke="#000" stroke-miterlimit="10" d="M103.5 256.9c0 8.3-12 12-12 12v-24s4.4 1.4 7.8 4.3c2.3 1.9 4.2 4.4 4.2 7.7z" fill="none"/><path stroke="#231F20" stroke-miterlimit="10" d="M103.5 256.9c0 8.3-12 12-12 12v-24s4.4 1.4 7.8 4.3c2.3 1.9 4.2 4.4 4.2 7.7z" fill="none"/><radialGradient id="f" cx="118.879" cy="290.921" r="67.88" gradientUnits="userSpaceOnUse"><stop offset="0" stop-color="#CADA2B"/><stop offset=".065" stop-color="#C4D82C"/><stop offset=".153" stop-color="#B3D42F"/><stop offset=".254" stop-color="#96CC34"/><stop offset=".365" stop-color="#6EC23B"/><stop offset=".483" stop-color="#3CB445"/><stop offset=".601" stop-color="#02A54F"/><stop offset=".669" stop-color="#1FAE6D"/><stop offset=".764" stop-color="#41B990"/><stop offset=".854" stop-color="#59C1A9"/><stop offset=".935" stop-color="#68C5B9"/><stop offset="1" stop-color="#6DC7BE"/></radialGradient><path fill="url(#f)" stroke="#231F20" stroke-miterlimit="10" d="M175.9 296.3c-1-1.5-2-3.1-2.9-4.8-4.6-8.9-5-18.7-2-27.8l-24-45.1-19.6 33.1c.5 2.2.8 4.6.8 7.1 0 10.7-7.2 17.5-15.2 21.8-1.3.7-2.6 1.3-3.9 1.9l-11.8 19.9 3.4 2.4 16.9 12.2 10.5-18.8h30.1l3.1 5.6 7.4 13.2 16.6-11.1c-3.4-2.5-6.6-5.7-9.4-9.6zm-42-16.5l8.6-18.8 8.6 18.8h-17.2z"/><path stroke="#000" stroke-miterlimit="10" fill="none" d="M151.2 279.8h-17.3l8.7-18.8z"/><path stroke="#231F20" stroke-miterlimit="10" d="M151.2 279.8h-17.3l8.7-18.8z"/><radialGradient id="g" cx="208.509" cy="290.921" r="57.224" gradientUnits="userSpaceOnUse"><stop offset="0" stop-color="#CADA2B"/><stop offset=".065" stop-color="#C4D82C"/><stop offset=".153" stop-color="#B3D42F"/><stop offset=".254" stop-color="#96CC34"/><stop offset=".365" stop-color="#6EC23B"/><stop offset=".483" stop-color="#3CB445"/><stop offset=".601" stop-color="#02A54F"/><stop offset=".669" stop-color="#1FAE6D"/><stop offset=".764" stop-color="#41B990"/><stop offset=".854" stop-color="#59C1A9"/><stop offset=".935" stop-color="#68C5B9"/><stop offset="1" stop-color="#6DC7BE"/></radialGradient><path fill="url(#g)" stroke="#231F20" stroke-miterlimit="10" d="M229.4 229.8v25.2s-1.3-.1-3.4-.2c-8.4-.3-29.7.3-29.7 13 0 4.4 2.1 7.8 5.2 10.5 7.9 7.1 22.3 9 22.3 9v29.7s-21.8 1.1-38.3-11.1c-3.5-2.6-6.8-5.8-9.5-9.7-1-1.5-2-3.1-2.9-4.8-4.6-8.9-5-18.7-2-27.8 6.2-18.4 26.5-34.1 55-33.9 1 .1 2.1.1 3.3.1z"/><radialGradient id="h" cx="231.617" cy="313.471" r="92.295" gradientUnits="userSpaceOnUse"><stop offset="0" stop-color="#CADA2B"/><stop offset=".065" stop-color="#C4D82C"/><stop offset=".153" stop-color="#B3D42F"/><stop offset=".254" stop-color="#96CC34"/><stop offset=".365" stop-color="#6EC23B"/><stop offset=".483" stop-color="#3CB445"/><stop offset=".601" stop-color="#02A54F"/><stop offset=".669" stop-color="#1FAE6D"/><stop offset=".764" stop-color="#41B990"/><stop offset=".854" stop-color="#59C1A9"/><stop offset=".935" stop-color="#68C5B9"/><stop offset="1" stop-color="#6DC7BE"/></radialGradient><path fill="url(#h)" stroke="#231F20" stroke-miterlimit="10" d="M276 282.8v25.9h-50v-53.9c2.1.1 3.4.2 3.4.2v-25.2c-1.1-.1-2.3-.1-3.4-.1v-8.9h46.6v20.7h-23.3v11.3h18.8v20.6h-17.1v9.4h25z"/><path d="M229.4 308.8v17.1c-27.4 0-40-13.1-40-13.1l-13.2 10.9-7.3-6.5 16.6-11.1c16.5 12.2 38.3 11.1 38.3 11.1v-16l2.3.2v7.5h3.3zM226 254.9v7.2c-19.4.8-23.7 10.5-24.5 16.3-3-2.7-5.2-6.1-5.2-10.5 0-12.8 21.3-13.3 29.7-13zM274.9 224.6v19.6h-19.3v8.6h-6.3v-11.3h23.3v-18zM276.9 257.8v19.2h-19.3v5.8h-6.6v-9.4h17.1v-18zM284 288.5v26.5l-38.6-1.1 1.1-5.1h29.5v-26zM161.5 303.9l-24.4-.3-15.1 22.8-22.7-19.1 1.5-2.5 17 12.2 10.5-18.8h30zM100.8 304.8l-1.5 2.4v11h-26l-.9-6.9h20.2v-24.1s8.1-1.1 16.7-4.9l-11.8 19.9 3.3 2.6zM99.3 249.2v12.5l-7.8 4.4v-21.1c-.1-.1 4.3 1.3 7.8 4.2zM68.8 225.3h-1.8v21.9c-9.4-1.4-15.7.9-19.4 3.4-6.5-5.4-10.5-10.6-1.6-10.6h18.4v-25.2s-.4 0-1.1-.1c3.1-.6 5.2 1.5 5.2 1.5l.3 9.1zM67.8 311.4c-9.8 22.1-52.4 19.7-52.4 19.7v-5.3c12 .3 36.2-1.6 49-20.4 1-1.4 1.8-2.8 2.6-4.2 0 0 0-.1.1-.1v10.3h.7zM431.9 367.4l-12-25.1h-39.9l-3.8 13.9c.8 9.5.8 24.4.8 24.4s5.1 130.2-76.7 117.8l1-3c4.3.2 8.5-.1 12.7-.9 32.2-6.2 45.4-50.4 50.7-91.4.5-4.2 1-8.3 1.4-12.4l.3-3.2.3-3.2c1.1-14 1.4-26.8 1.4-36.3l5.1-16.7 47.4 2.2 11.3 33.9zM99.3 261.6s3.4-5.1 0-12.5"/><path d="M364.3 360.6l5.8 4.6 2.3-15.1-4.3-2.1z"/></svg>