<?xml version="1.0" encoding="utf-8"?>
<!-- Generator: Adobe Illustrator 18.1.1, SVG Export Plug-In . SVG Version: 6.00 Build 0)  -->
<!DOCTYPE svg PUBLIC "-//W3C//DTD SVG 1.1//EN" "http://www.w3.org/Graphics/SVG/1.1/DTD/svg11.dtd">
<svg version="1.1" id="Layer_2" xmlns="http://www.w3.org/2000/svg" xmlns:xlink="http://www.w3.org/1999/xlink" x="0px" y="0px"
	 viewBox="0 0 85 103.5" style="enable-background:new 0 0 85 103.5;" xml:space="preserve">
<style type="text/css">
	.st0{fill:#FDC893;stroke:#000000;stroke-width:0.3;stroke-miterlimit:10;}
	.st1{fill:none;stroke:#000000;stroke-width:0.3;stroke-miterlimit:10;}
	.st2{fill:#F594A2;stroke:#000000;stroke-width:0.3;stroke-miterlimit:10;}
	.st3{fill:#BE1E2D;stroke:#000000;stroke-width:0.3;stroke-miterlimit:10;}
	.st4{fill:#FFFFFF;stroke:#000000;stroke-width:0.3;stroke-miterlimit:10;}
	.st5{fill:none;stroke:#000000;stroke-width:0.3;stroke-linecap:round;stroke-miterlimit:10;}
	.st6{fill:#3C2415;stroke:#000000;stroke-width:0.3;stroke-linecap:round;stroke-miterlimit:10;}
	.st7{stroke:#000000;stroke-width:0.3;stroke-linecap:round;stroke-miterlimit:10;}
	.st8{fill:#F27493;stroke:#000000;stroke-width:0.3;stroke-miterlimit:10;}
	.st9{fill:#FFFFFF;stroke:#FFFFFF;stroke-width:0.3;stroke-miterlimit:10;}
	.st10{fill:#FFFFFF;stroke:#000000;stroke-width:0.3;stroke-linecap:round;stroke-miterlimit:10;}
</style>
<path class="st0" d="M58.1,92c-1.3,4.1-7,10.4-14.7,10.4c-4.1,0-6.8-2.1-8.5-4.4c2.1-0.5,3.5-1.6,4.4-3c3.6,0.2,9.6,0,16.3-2
	C56.5,92.7,57.3,92.4,58.1,92z"/>
<path class="st0" d="M78.3,49.9c0,0-1.1-4.4-1.7-4.6c0,0-1.1,16.8-10.4,27.2c0,0-1.2-0.1-1.8-2.7c0,0,0.3,6.4,2.7,8.5
	c2.1,2-0.4,9.9-8.8,13.6c-0.8,0.4-1.7,0.7-2.6,1c-6.7,2-12.7,2.1-16.3,2c0.6-0.9,1-2,1.2-3.1c0.3-1.1,0.4-2.4,0.4-3.6
	c0-0.4,0-0.9,0.1-1.5c0-0.4,0-0.8,0-1.1l4-0.5l3-0.4l0.6-0.1c1.5-0.3,3.1-0.7,4.6-1.3c0.1-0.1,0.3-0.1,0.4-0.1
	c2.2-0.9,4.2-2.1,5.9-3.9c0,0-0.4-3.8-1.5-5c0,0,0,0,0,0c0.3-0.5,4.8-8.7,3.6-32.9c0-0.9-0.1-1.8-0.2-2.7v0c0-0.6-0.1-1.2-0.1-1.9
	c0,0-1.9-0.2-2.5,0.6c0,0,0.3,0.6,0.6,1.4c0.3,0.7,0.5,1.6,0.5,2.5c0,1.3-0.4,2.6-2,3.3c-0.1,0-0.2,0.1-0.3,0.1
	c-2.3,0.9-4.5,1-6.5,0.8c-0.2,0-0.5,0-0.7-0.1c-1.4-0.2-2.8-0.5-4-0.8c-0.2-0.1-0.4-0.1-0.6-0.1c0,0-1.3,0.5-3.2,0.9
	c-1.1,0.2-2.4,0.4-3.9,0.4c-0.4,0-0.8,0-1.1-0.1c-2.3-0.2-4.7-0.9-6.8-2.6c0,0,0,0,0,0c-1.6-1.3-2.2-2.5-2.3-3.7v0
	c0-0.1,0-0.2,0-0.2c0-0.2,0-0.3,0-0.5c0-0.1,0.1-0.3,0.1-0.4c0-0.1,0-0.1,0.1-0.2c0-0.1,0-0.1,0.1-0.1c0-0.1,0.1-0.2,0.1-0.3
	c0.1-0.1,0.1-0.2,0.2-0.4c0.1-0.2,0.3-0.5,0.4-0.7c0.1-0.1,0.2-0.2,0.3-0.3l0,0c1.2-1.4,3-2.3,3-2.3s-1.9-2.7-4.6-2.8
	c0,0-0.3,1.9-0.8,4.7v0c-0.2,1.1-0.4,2.3-0.6,3.7c-0.9,6.6-2,15.5-1.6,21c-0.5,0.4-1.1,0.9-1.6,1.4c-1.8,1.7-3.3,3.8-4.6,5.9
	c-2.1-2-8.5-9.9-6.8-31.2c0,0-2.8,2.5-3.2,4.6C8.9,41.4,9,31,22,24.2c0,0-2.5-1.4-3.9-1.5c0,0,1.5-0.1,3.7,0c0.8,0,1.6,0.1,2.4,0.3
	c1.5,0.2,3.2,0.6,4.7,1.3c1.5,0.6,2.8,1.5,3.8,2.7c0,0,0.1,0.1,0.1,0.1c0.7,0.9,1.5,1.7,2.2,2.4c0.2,0.2,0.4,0.5,0.7,0.7
	c2.5,2.5,4.9,4.2,7.1,4.8c-0.4,0.2-0.8,0.4-1.2,0.7c-1.3,0.8-2.7,1.9-3.3,3c-1,2.2-1.4,5.8,6.6,4.8c8-1,8.3-4.1,7.7-5.3
	c-0.2-0.4-0.6-1-1.2-1.6l0,0c-0.5-0.5-1.1-0.9-2-1.3c1.7,0.1,3.1,0.3,4,0.7c0,0,1.7-1,4-2c0.2-0.1,0.5-0.2,0.8-0.3
	c0.6-0.3,1.3-0.6,2-0.8c1.4-0.6,2.9-1,4.2-1.3c0.3-0.1,0.6-0.1,0.9-0.2c0.4-0.1,0.7-0.1,1.1-0.1c1.1,0,2.2,0.1,3.1,0.2
	c0.4,0.1,0.8,0.1,1.1,0.2c2.1,0.5,3.4,1.2,3.4,1.2s-2.2,0.5-3.6,0.3C70.3,33.3,79.4,37.3,78.3,49.9z"/>
<path class="st1" d="M46.5,39.8c-2.2,0.2-4.2,0.6-5-0.5c-0.8-1,0.5-2,0.5-2s3.8-1.1,6.3-0.6C50.8,37.4,48.7,39.6,46.5,39.8z"/>
<polygon class="st1" points="44.8,35.3 44.7,35.4 44.7,35.3 "/>
<path class="st2" d="M49.1,77.6c0,0.7,0,1.3-0.1,2c-0.1,2-0.3,4-0.4,5.2L48,84.8l-3,0.4c-0.5-1.1-1.3-3.1-1.3-4.3
	c-0.1-1.8-1.3-1.6-1.8-1c-0.3,0.3-1.3,1.7-2.1,3c0.3,0.9,0.7,1.8,1.3,2.7c0,0.3,0,0.7,0,1.1c0,0.6,0,1.1-0.1,1.5
	c-0.1,1.3-0.2,2.5-0.4,3.6c-0.3,1.1-0.6,2.2-1.2,3.1c-0.9,1.4-2.3,2.5-4.4,3c-1.8,0.4-4.1,0.5-7.1,0c-12.1-2.1-11.7-14.1-12.2-19.7
	c-0.3-2.5,1.1-6.4,3.3-10.2c1.3-2.1,2.9-4.2,4.6-5.9c0.5-0.5,1-1,1.6-1.4c1.5-1.2,3.2-2.2,4.8-2.7c1.2-0.3,2.3-0.5,3.2-0.4
	c4.9,0.2,5.7,5.2,5.7,5.2c5.8,1.1,8.4,8.2,9.7,10.6C48.9,74.1,49.1,75.7,49.1,77.6z"/>
<path class="st1" d="M44.9,85.2l-4,0.5c-0.6-0.9-1-1.8-1.3-2.7c0.8-1.4,1.8-2.7,2.1-3c0.5-0.6,1.8-0.8,1.8,1
	C43.7,82.1,44.4,84,44.9,85.2z"/>
<path class="st3" d="M57.9,74.4c1.1,1.2,1.5,5,1.5,5c-1.7,1.7-3.7,3-5.9,3.9c-0.1,0-0.3,0.1-0.4,0.1c-1.5,0.6-3.1,1-4.6,1.3
	c0.1-1.1,0.3-3.1,0.4-5.2c0-0.7,0.1-1.4,0.1-2C50.9,74.8,52,71,52,66.9c0-8.5-4.7-15.4-10.5-15.4c-0.1,0-0.2,0-0.3,0h-0.1
	c0,0-0.1,0-0.1,0c-0.1,0-0.2,0-0.3,0c0,0-0.1,0-0.1,0c-0.1,0-0.1,0-0.2,0c-0.1,0-0.1,0-0.2,0c0,0,0,0-0.1,0c0,0-0.1,0-0.1,0
	c-0.1,0-0.2,0-0.3,0.1c-0.2,0-0.3,0.1-0.5,0.1c-0.6,0.2-1.3,0.5-1.9,0.8c-0.1,0-0.1,0.1-0.2,0.1c-0.1,0-0.1,0.1-0.2,0.1
	C37,52.9,37,53,36.9,53c-0.1,0.1-0.3,0.2-0.4,0.3h0c-0.3,0.2-0.5,0.4-0.8,0.7c-0.1,0.1-0.2,0.2-0.2,0.2c0,0-0.1,0.1-0.1,0.1
	c-0.2,0.2-0.4,0.4-0.6,0.6c-0.2,0.2-0.3,0.4-0.5,0.6c0,0-0.1,0.1-0.1,0.1c-0.1,0.1-0.1,0.2-0.2,0.3c-0.1,0.2-0.2,0.3-0.3,0.5
	c-0.1,0.1-0.2,0.3-0.3,0.5c-0.1,0.2-0.3,0.4-0.4,0.7c-0.9,0-2,0.1-3.2,0.4c-1.7,0.5-3.3,1.4-4.8,2.7c-0.4-5.6,0.7-14.5,1.6-21
	c0.2-1.3,0.4-2.6,0.6-3.7v0c0.4-2.9,0.8-4.7,0.8-4.7c2.7,0.1,4.6,2.8,4.6,2.8s-1.7,0.9-3,2.3l0,0c-0.1,0.1-0.2,0.2-0.3,0.3
	c-0.2,0.2-0.3,0.4-0.4,0.7c-0.1,0.1-0.1,0.2-0.2,0.4c-0.1,0.1-0.1,0.2-0.1,0.3c0,0,0,0.1-0.1,0.1c0,0.1,0,0.1-0.1,0.2
	c0,0.1-0.1,0.3-0.1,0.4c0,0.2,0,0.3,0,0.5c0,0.1,0,0.2,0,0.2v0c0.1,1.1,0.7,2.4,2.3,3.7c0,0,0,0,0,0c2.1,1.7,4.5,2.4,6.8,2.6
	c0.4,0,0.8,0.1,1.1,0.1c1.4,0,2.7-0.1,3.9-0.4c1.9-0.4,3.2-0.9,3.2-0.9c0.2,0,0.4,0.1,0.6,0.1c1.3,0.3,2.6,0.6,4,0.8
	c0.2,0,0.4,0.1,0.7,0.1c2.1,0.2,4.2,0,6.5-0.8c0.1,0,0.2-0.1,0.3-0.1c1.6-0.7,2-2,2-3.3c0-0.9-0.3-1.8-0.5-2.5
	c-0.3-0.8-0.6-1.4-0.6-1.4c0.6-0.8,2.5-0.6,2.5-0.6c0.1,0.6,0.1,1.3,0.1,1.9v0c0.1,1,0.1,1.9,0.2,2.7C62.7,65.6,58.2,73.8,57.9,74.4
	C57.9,74.4,57.9,74.4,57.9,74.4z"/>
<path class="st3" d="M52,66.9c0,4.1-1.1,7.9-2.9,10.7c0-1.8-0.2-3.4-0.6-4.2c-1.3-2.3-3.9-9.4-9.7-10.6c0,0-0.8-5-5.7-5.2
	c1.9-3.7,5-6.1,8.4-6.1C47.3,51.5,52,58.4,52,66.9z"/>
<path class="st4" d="M44.9,85.2l-4,0.5c-0.6-0.9-1-1.8-1.3-2.7c0.8-1.4,1.8-2.7,2.1-3c0.5-0.6,1.8-0.8,1.8,1
	C43.7,82.1,44.4,84,44.9,85.2z"/>
<path class="st4" d="M53.1,83.5c-1.5,0.6-3.1,1-4.6,1.3c0.1-1.1,0.3-3.1,0.4-5.2c0.7-0.6,1.6-1.2,1.9-0.6
	C51.4,79.7,52.6,82,53.1,83.5z"/>
<path class="st4" d="M59.4,79.5c-1.7,1.7-3.7,3-5.9,3.9c0.1-1.9,0.7-11.5,1.3-11.8c0.4-0.1,1.8,1.4,3,2.8c0,0,0,0,0,0
	C59,75.6,59.4,79.5,59.4,79.5z"/>
<path class="st1" d="M30.1,69.6c0,0,0.4-5,8.7-6.8"/>
<path class="st1" d="M39.7,82.9c-1.4-4.3-0.5-8.5-0.5-8.5"/>
<path class="st4" d="M37.5,45.8l-0.2,6.9v0l0,0.9c-0.3-0.1-0.5-0.2-0.8-0.3h0c-4.9-2.4-5.6-7.5-5.7-10.1
	C32.9,44.9,35.3,45.6,37.5,45.8z"/>
<path class="st4" d="M42.5,45.5v4.7c-2.1,1.9-3.3-2.1-3.9-4.3C40.1,45.9,41.4,45.7,42.5,45.5z"/>
<path class="st4" d="M50.4,45.5c-0.8,1.7-2.5,4.6-3.5,4.1c-1-0.6-0.7-3.4-0.5-4.9C47.7,45.1,49,45.4,50.4,45.5z"/>
<path class="st4" d="M57.9,44.7c-0.7,3.9-5.9,10.4-7,9.9c-0.9-0.5-0.2-6.4,0.2-8.9c2.1,0.2,4.2,0,6.5-0.8
	C57.7,44.8,57.8,44.7,57.9,44.7z"/>
<path class="st1" d="M46.5,39.8c-2.2,0.2-4.2,0.6-5-0.5c-0.8-1,0.5-2,0.5-2s3.8-1.1,6.3-0.6C50.8,37.4,48.7,39.6,46.5,39.8z"/>
<polygon class="st1" points="44.8,35.3 44.7,35.4 44.7,35.3 "/>
<path class="st5" d="M22.5,41.1c0,0,4.2-2,6.7-1.5"/>
<path class="st5" d="M23.5,36c0,0,5-0.6,7.8,1"/>
<path class="st5" d="M20.8,31.8c0,0,4.8-1.4,7.2-0.6"/>
<path class="st5" d="M57.3,37.4c0,0,5.5-1.6,7.3-0.4"/>
<path class="st5" d="M57.9,39.1c0,0,5.4-0.8,6.7,0"/>
<path class="st5" d="M57.9,41.4c0,0,7.1-0.2,8.3,1.9"/>
<path class="st6" d="M35.3,13.2c1.5-0.1,4.1,2.5,4.1,2.5c-6.8,0.8-6.8,8.6-6.6,11.4c0,0-0.1-0.1-0.1-0.1c-1-1.2-2.4-2.1-3.8-2.7
	c0-2.9-0.3-10.6-3.9-9.8c-0.4,0.1-0.7,0.2-1,0.4c0.6-1,1.9-2.3,4.6-2.2c0,0,0.1-4.1,2.1-5.5v2.8c0,0,2.8-7.6,9.1-8.6
	c0,0-3.2,3.8-1.8,8.6c0.1,0.2,0.2,0.5,0.3,0.7c0.2,0.6,0.6,1.3,1,2C37.5,11.6,35.3,13.2,35.3,13.2z"/>
<path class="st6" d="M40.1,10.3l-0.8,2.3C39.3,12.4,39.6,11.5,40.1,10.3z"/>
<path class="st6" d="M44,32.1c0,0.9-0.4,1.7-0.9,1.7c-0.5,0-0.9-0.8-0.9-1.7c0-1,0.4-1.7,0.9-1.7C43.6,30.4,44,31.2,44,32.1z"/>
<path class="st6" d="M59.5,17.7c0,0-1.7,2.4-3.7,4.7h-0.3c-0.2,0-0.4,0.2-0.4,0.4c0,0.1,0,0.2,0.1,0.3h0c-2,2.2-4.1,4.2-5.1,3.4
	c-0.3,1.3-0.7,2.7-1.3,4l-0.3,0.6c-0.7,1.5-1.6,2.9-2.7,4.1c0-0.3,0.1-0.6,0.1-1.2c0.1-1.7,0.2-5,0.2-10.7c0-10.2-2.5-12-2.5-12
	c0.1,0.5-0.8,1.4-0.8,1.4c-0.6-1-2.7-2.6-2.7-2.6v0c0,0,0-0.1,0.1-0.2c2.2-0.4,3.6,0.2,4.5,0.6c1.3,0.6,2.5,3.7,3,3.7
	c0.5-0.1-0.1-4.3-3.3-5.3c-1.1-0.4-2.5-0.3-3.7,0c1.8-3.5,5.7-7.9,12.8-6.1c0,0-4.8,1.3-5.4,2.5c0,0,9.7-2.4,13.6,5
	c0,0-2.3-2-4.4-1.3C57.3,9.2,60.4,10.3,59.5,17.7z"/>
<path class="st6" d="M44.8,10.7c-0.9-0.4-2.4-1-4.5-0.6c0.1-0.3,0.3-0.7,0.5-1.1c1.3-0.3,2.6-0.4,3.7,0c3.2,1,3.8,5.3,3.3,5.3
	C47.3,14.4,46,11.3,44.8,10.7z"/>
<path class="st6" d="M73.6,26.3c-0.4-1.2-1.4-2.2-3.8-1.6c-3,0.9-4.2,4.5-4.6,6.7c-0.3,0-0.6,0.1-0.9,0.2c-1.3,0.3-2.8,0.8-4.2,1.3
	l0.2-2.7c0,0,2.2-0.4,3.3,0.3c1.1,0.6-0.5-2.5-2.6-3.3c0,0,0.2-0.8,0.8-0.9c0,0-8.6,0.4-12.3,4.2l-0.5,0.1c0.6-1.3,1-2.7,1.3-4
	c1,0.7,3.1-1.2,5.1-3.4h0c-0.1-0.1-0.1-0.2-0.1-0.3c0-0.2,0.2-0.4,0.4-0.4h0.3c2-2.3,3.7-4.7,3.7-4.7s0.4,2.3,2.2,1.5
	c1.8-0.8,4.1-7.3,3.9-8.3c0,0,2.6,3.1,2,9c0,0,1-0.4,1.5-1.3c0,0,0.6,3,0,4.4c0.1-0.1,3.9-2.5,4.7,0.7C74,24.7,73.9,25.5,73.6,26.3z
	"/>
<path class="st7" d="M52.6,38.3c-0.2-0.4-0.6-1-1.2-1.6l0,0c-0.5-0.5-1.1-0.9-2-1.3c-1.1,0-2.3-0.1-3.5-0.1h-0.6c-0.2,0-0.4,0-0.5,0
	l-0.1,0.1v-0.1c-0.1,0-0.2,0-0.3,0c-0.6,0-1.1-0.1-1.7-0.3c-0.4,0.2-0.8,0.4-1.2,0.7c-1.3,0.8-2.7,1.9-3.3,3c-1,2.2-1.4,5.8,6.6,4.8
	C52.9,42.6,53.2,39.5,52.6,38.3z M46.5,39.8c-2.2,0.2-4.2,0.6-5-0.5c-0.8-1,0.5-2,0.5-2s3.8-1.1,6.3-0.6
	C50.8,37.4,48.7,39.6,46.5,39.8z"/>
<path class="st7" d="M46.5,39.8c-2.2,0.2-4.2,0.6-5-0.5c-0.8-1,0.5-2,0.5-2s3.8-1.1,6.3-0.6C50.8,37.4,48.7,39.6,46.5,39.8z"/>
<polygon class="st7" points="44.8,35.3 44.7,35.4 44.7,35.3 "/>
<path class="st8" d="M28.9,24.3c-1.5-0.7-3.2-1.1-4.7-1.3c-0.9-0.1-1.7-0.2-2.4-0.3c-0.1-1.2-0.6-6.3,2.3-7.9v0
	c0.3-0.2,0.6-0.3,1-0.4C28.6,13.7,28.9,21.4,28.9,24.3z"/>
<path class="st8" d="M73.9,28.4l-3.4,3.4c-0.4-0.1-0.7-0.2-1.1-0.2c-0.9-0.2-2-0.2-3.1-0.2c-0.3,0-0.7,0-1.1,0.1
	c0.4-2.2,1.6-5.8,4.6-6.7c2.3-0.7,3.3,0.4,3.8,1.6C74,27.3,73.9,28.4,73.9,28.4z"/>
<path class="st5" d="M30.3,18.7c0,0,0.4-1.6-0.4-2.3c-0.7-0.7-1.1-1.8-1.3-3.7"/>
<path class="st5" d="M66.8,25.6c-0.1-0.2,1.5-0.9,2.3-2.6"/>
<path class="st7" d="M47.8,14.4c-0.5,0.1-1.8-3.1-3-3.7c-0.9-0.4-2.4-1-4.5-0.6c-0.6,0.1-1.2,0.3-1.9,0.5c-0.3,0.1-0.7,0.3-1,0.4
	c-3.9,1.8-0.8-0.4-0.8-0.4s0.6-0.4,1.6-0.7c0.8-0.3,1.7-0.6,2.7-0.9c1.3-0.3,2.6-0.4,3.7,0C47.6,10.1,48.3,14.3,47.8,14.4z"/>
<path class="st5" d="M50.7,16.2c0,0,0.6,5-0.6,10.4"/>
<path class="st5" d="M55.9,22.4c-0.2,0.3-0.4,0.5-0.6,0.7"/>
<path class="st7" d="M46.2,23.5c0,5.7-0.1,9-0.2,10.7c0,0.5-0.1,0.9-0.1,1.2h-0.6c-0.2,0-0.4,0-0.5,0h-0.1
	c-0.1-3.3-0.6-18.7-5.3-17.7c-3.7,0.8-3.9,8.3-3.8,12.6c-0.2-0.2-0.4-0.5-0.7-0.7c-0.7-0.7-1.5-1.6-2.2-2.4
	c-0.2-2.9-0.2-10.7,6.6-11.4c0,0-2.6-2.5-4.1-2.5c0,0,2.2-1.5,4-0.6l0,0l0.8-2.3l0,0c0,0,2.1,1.6,2.7,2.6c0,0,0.9-0.9,0.8-1.4
	C43.7,11.5,46.2,13.3,46.2,23.5z"/>
<polygon class="st7" points="44.8,35.3 44.7,35.4 44.7,35.3 "/>
<path class="st7" d="M63.6,30.5c-1.1-0.7-3.3-0.3-3.3-0.3L60,32.9c-0.7,0.3-1.3,0.5-2,0.8c-0.3,0.1-0.5,0.2-0.8,0.3l0.2-3.9
	c-3.2-0.3-6.1,0.8-7.5,1.5c0.1,0.3,0.2,0.6,0.2,1c0,0.8-0.3,1.5-0.6,1.5c-0.3,0-0.6-0.7-0.6-1.5c0-0.2,0-0.3,0-0.5h0
	c0,0-0.9,0.2-0.9,0.2l0.5-1.2l0.3-0.6l0.5-0.1c3.7-3.8,12.3-4.2,12.3-4.2c-0.6,0.1-0.8,0.9-0.8,0.9C63.1,28,64.6,31.2,63.6,30.5z"/>
<path class="st7" d="M44,32.1c0,0.9-0.4,1.7-0.9,1.7c-0.5,0-0.9-0.8-0.9-1.7c0-1,0.4-1.7,0.9-1.7C43.6,30.4,44,31.2,44,32.1z"/>
<path class="st7" d="M65.2,28.5v2.9c-0.3,0-0.6,0.1-0.9,0.2v-2.3c0-3.2-2.6-5.8-5.8-5.9l-2.9,0c-0.1,0-0.2-0.1-0.3-0.1h0
	c-0.1-0.1-0.1-0.2-0.1-0.3c0-0.2,0.2-0.4,0.4-0.4h3.5C62.5,22.4,65.2,25.2,65.2,28.5z"/>
<path class="st9" d="M46.5,39.8c-2.2,0.2-4.2,0.6-5-0.5c-0.8-1,0.5-2,0.5-2s3.8-1.1,6.3-0.6C50.8,37.4,48.7,39.6,46.5,39.8z"/>
<path class="st10" d="M39.5,17.7c-3.7,0.8-3.9,8.3-3.8,12.6c2.5,2.5,4.9,4.2,7.1,4.8c0.6,0.2,1.2,0.3,1.7,0.3c0.1,0,0.2,0,0.3,0
	C44.7,32.1,44.1,16.6,39.5,17.7z M43.1,33.8c-0.5,0-0.9-0.8-0.9-1.7c0-1,0.4-1.7,0.9-1.7c0.5,0,0.9,0.8,0.9,1.7
	C44,33.1,43.6,33.8,43.1,33.8z"/>
<path class="st5" d="M44,32.1c0,0.9-0.4,1.7-0.9,1.7c-0.5,0-0.9-0.8-0.9-1.7c0-1,0.4-1.7,0.9-1.7C43.6,30.4,44,31.2,44,32.1z"/>
<polygon class="st5" points="44.8,35.3 44.7,35.4 44.7,35.3 "/>
<path class="st10" d="M57.5,30.1l-0.2,3.9c-2.3,1.1-4,2-4,2c-0.8-0.4-2.3-0.6-4-0.7c-1.1,0-2.3-0.1-3.5-0.1c1.1-1.2,2-2.6,2.7-4.1
	l-0.5,1.2c0,0,0.9-0.2,0.9-0.2h0c0,0.2,0,0.3,0,0.5c0,0.8,0.3,1.5,0.6,1.5c0.3,0,0.6-0.7,0.6-1.5c0-0.4-0.1-0.8-0.2-1
	C51.5,31,54.3,29.8,57.5,30.1z"/>
<g>
</g>
<g>
</g>
<g>
</g>
<g>
</g>
<g>
</g>
<g>
</g>
</svg>
