<svg xmlns="http://www.w3.org/2000/svg" viewBox="0 0 85 103.5" enable-background="new 0 0 85 103.5"><style type="text/css">.st0{fill:#FDC893;stroke:#000000;stroke-width:0.3;stroke-miterlimit:10;} .st1{fill:none;stroke:#000000;stroke-width:0.3;stroke-miterlimit:10;} .st2{fill:#F594A2;stroke:#000000;stroke-width:0.3;stroke-miterlimit:10;} .st3{fill:#BE1E2D;stroke:#000000;stroke-width:0.3;stroke-miterlimit:10;} .st4{fill:#FFFFFF;stroke:#000000;stroke-width:0.3;stroke-miterlimit:10;} .st5{fill:none;stroke:#000000;stroke-width:0.3;stroke-linecap:round;stroke-miterlimit:10;} .st6{fill:#3C2415;stroke:#000000;stroke-width:0.3;stroke-linecap:round;stroke-miterlimit:10;} .st7{stroke:#000000;stroke-width:0.3;stroke-linecap:round;stroke-miterlimit:10;} .st8{fill:#F27493;stroke:#000000;stroke-width:0.3;stroke-miterlimit:10;} .st9{fill:#FFFFFF;stroke:#FFFFFF;stroke-width:0.3;stroke-miterlimit:10;} .st10{fill:#FFFFFF;stroke:#000000;stroke-width:0.3;stroke-linecap:round;stroke-miterlimit:10;}</style><path class="st0" d="M58.1 92c-1.3 4.1-7 10.4-14.7 10.4-4.1 0-6.8-2.1-8.5-4.4 2.1-.5 3.5-1.6 4.4-3 3.6.2 9.6 0 16.3-2 .9-.3 1.7-.6 2.5-1zM78.3 49.9s-1.1-4.4-1.7-4.6c0 0-1.1 16.8-10.4 27.2 0 0-1.2-.1-1.8-2.7 0 0 .3 6.4 2.7 8.5 2.1 2-.4 9.9-8.8 13.6-.8.4-1.7.7-2.6 1-6.7 2-12.7 2.1-16.3 2 .6-.9 1-2 1.2-3.1.3-1.1.4-2.4.4-3.6 0-.4 0-.9.1-1.5v-1.1l4-.5 3-.4.6-.1c1.5-.3 3.1-.7 4.6-1.3.1-.1.3-.1.4-.1 2.2-.9 4.2-2.1 5.9-3.9 0 0-.4-3.8-1.5-5 .3-.5 4.8-8.7 3.6-32.9 0-.9-.1-1.8-.2-2.7 0-.6-.1-1.2-.1-1.9 0 0-1.9-.2-2.5.6 0 0 .3.6.6 1.4.3.7.5 1.6.5 2.5 0 1.3-.4 2.6-2 3.3l-.3.1c-2.3.9-4.5 1-6.5.8-.2 0-.5 0-.7-.1-1.4-.2-2.8-.5-4-.8-.2-.1-.4-.1-.6-.1 0 0-1.3.5-3.2.9-1.1.2-2.4.4-3.9.4-.4 0-.8 0-1.1-.1-2.3-.2-4.7-.9-6.8-2.6-1.6-1.3-2.2-2.5-2.3-3.7v-.7l.1-.4c0-.1 0-.1.1-.2 0-.1 0-.1.1-.1l.1-.3c.1-.1.1-.2.2-.4l.4-.7.3-.3c1.2-1.4 3-2.3 3-2.3s-1.9-2.7-4.6-2.8c0 0-.3 1.9-.8 4.7-.2 1.1-.4 2.3-.6 3.7-.9 6.6-2 15.5-1.6 21-.5.4-1.1.9-1.6 1.4-1.8 1.7-3.3 3.8-4.6 5.9-2.1-2-8.5-9.9-6.8-31.2 0 0-2.8 2.5-3.2 4.6-.2.1-.1-10.3 12.9-17.1 0 0-2.5-1.4-3.9-1.5 0 0 1.5-.1 3.7 0 .8 0 1.6.1 2.4.3 1.5.2 3.2.6 4.7 1.3 1.5.6 2.8 1.5 3.8 2.7l.1.1c.7.9 1.5 1.7 2.2 2.4.2.2.4.5.7.7 2.5 2.5 4.9 4.2 7.1 4.8-.4.2-.8.4-1.2.7-1.3.8-2.7 1.9-3.3 3-1 2.2-1.4 5.8 6.6 4.8s8.3-4.1 7.7-5.3c-.2-.4-.6-1-1.2-1.6-.5-.5-1.1-.9-2-1.3 1.7.1 3.1.3 4 .7 0 0 1.7-1 4-2 .2-.1.5-.2.8-.3.6-.3 1.3-.6 2-.8 1.4-.6 2.9-1 4.2-1.3l.9-.2c.4-.1.7-.1 1.1-.1 1.1 0 2.2.1 3.1.2.4.1.8.1 1.1.2 2.1.5 3.4 1.2 3.4 1.2s-2.2.5-3.6.3c-.1.1 9 4.1 7.9 16.7z"/><path class="st1" d="M46.5 39.8c-2.2.2-4.2.6-5-.5-.8-1 .5-2 .5-2s3.8-1.1 6.3-.6c2.5.7.4 2.9-1.8 3.1zM44.8 35.3l-.1.1v-.1z"/><path class="st2" d="M49.1 77.6c0 .7 0 1.3-.1 2-.1 2-.3 4-.4 5.2h-.6l-3 .4c-.5-1.1-1.3-3.1-1.3-4.3-.1-1.8-1.3-1.6-1.8-1-.3.3-1.3 1.7-2.1 3 .3.9.7 1.8 1.3 2.7v1.1c0 .6 0 1.1-.1 1.5-.1 1.3-.2 2.5-.4 3.6-.3 1.1-.6 2.2-1.2 3.1-.9 1.4-2.3 2.5-4.4 3-1.8.4-4.1.5-7.1 0-12.1-2.1-11.7-14.1-12.2-19.7-.3-2.5 1.1-6.4 3.3-10.2 1.3-2.1 2.9-4.2 4.6-5.9.5-.5 1-1 1.6-1.4 1.5-1.2 3.2-2.2 4.8-2.7 1.2-.3 2.3-.5 3.2-.4 4.9.2 5.7 5.2 5.7 5.2 5.8 1.1 8.4 8.2 9.7 10.6.3.7.5 2.3.5 4.2z"/><path class="st1" d="M44.9 85.2l-4 .5c-.6-.9-1-1.8-1.3-2.7.8-1.4 1.8-2.7 2.1-3 .5-.6 1.8-.8 1.8 1 .2 1.1.9 3 1.4 4.2z"/><path class="st3" d="M57.9 74.4c1.1 1.2 1.5 5 1.5 5-1.7 1.7-3.7 3-5.9 3.9l-.4.1c-1.5.6-3.1 1-4.6 1.3.1-1.1.3-3.1.4-5.2 0-.7.1-1.4.1-2 1.9-2.7 3-6.5 3-10.6 0-8.5-4.7-15.4-10.5-15.4h-1.5000000000000002c-.1 0-.2 0-.3.1l-.5.1c-.6.2-1.3.5-1.9.8l-.2.1-.2.1c.1.2.1.3 0 .3l-.4.3c-.3.2-.5.4-.8.7l-.2.2-.1.1-.6.6-.5.6-.1.1-.2.3-.3.5c-.1.1-.2.3-.3.5-.1.2-.3.4-.4.7-.9 0-2 .1-3.2.4-1.7.5-3.3 1.4-4.8 2.7-.4-5.6.7-14.5 1.6-21 .2-1.3.4-2.6.6-3.7.4-2.9.8-4.7.8-4.7 2.7.1 4.6 2.8 4.6 2.8s-1.7.9-3 2.3l-.3.3c-.2.2-.3.4-.4.7-.1.1-.1.2-.2.4-.1.1-.1.2-.1.3 0 0 0 .1-.1.1 0 .1 0 .1-.1.2l-.1.4v.7c.1 1.1.7 2.4 2.3 3.7 2.1 1.7 4.5 2.4 6.8 2.6.4 0 .8.1 1.1.1 1.4 0 2.7-.1 3.9-.4 1.9-.4 3.2-.9 3.2-.9l.6.1c1.3.3 2.6.6 4 .8.2 0 .4.1.7.1 2.1.2 4.2 0 6.5-.8l.3-.1c1.6-.7 2-2 2-3.3 0-.9-.3-1.8-.5-2.5-.3-.8-.6-1.4-.6-1.4.6-.8 2.5-.6 2.5-.6.1.6.1 1.3.1 1.9.1 1 .1 1.9.2 2.7 1.3 24.1-3.2 32.3-3.5 32.9zM52 66.9c0 4.1-1.1 7.9-2.9 10.7 0-1.8-.2-3.4-.6-4.2-1.3-2.3-3.9-9.4-9.7-10.6 0 0-.8-5-5.7-5.2 1.9-3.7 5-6.1 8.4-6.1 5.8 0 10.5 6.9 10.5 15.4z"/><path class="st4" d="M44.9 85.2l-4 .5c-.6-.9-1-1.8-1.3-2.7.8-1.4 1.8-2.7 2.1-3 .5-.6 1.8-.8 1.8 1 .2 1.1.9 3 1.4 4.2zM53.1 83.5c-1.5.6-3.1 1-4.6 1.3.1-1.1.3-3.1.4-5.2.7-.6 1.6-1.2 1.9-.6.6.7 1.8 3 2.3 4.5zM59.4 79.5c-1.7 1.7-3.7 3-5.9 3.9.1-1.9.7-11.5 1.3-11.8.4-.1 1.8 1.4 3 2.8 1.2 1.2 1.6 5.1 1.6 5.1z"/><path class="st1" d="M30.1 69.6s.4-5 8.7-6.8M39.7 82.9c-1.4-4.3-.5-8.5-.5-8.5"/><path class="st4" d="M37.5 45.8l-.2 6.9v.9l-.8-.3c-4.9-2.4-5.6-7.5-5.7-10.1 2.1 1.7 4.5 2.4 6.7 2.6zM42.5 45.5v4.7c-2.1 1.9-3.3-2.1-3.9-4.3 1.5 0 2.8-.2 3.9-.4zM50.4 45.5c-.8 1.7-2.5 4.6-3.5 4.1-1-.6-.7-3.4-.5-4.9 1.3.4 2.6.7 4 .8zM57.9 44.7c-.7 3.9-5.9 10.4-7 9.9-.9-.5-.2-6.4.2-8.9 2.1.2 4.2 0 6.5-.8.1-.1.2-.2.3-.2z"/><path class="st1" d="M46.5 39.8c-2.2.2-4.2.6-5-.5-.8-1 .5-2 .5-2s3.8-1.1 6.3-.6c2.5.7.4 2.9-1.8 3.1zM44.8 35.3l-.1.1v-.1z"/><path class="st5" d="M22.5 41.1s4.2-2 6.7-1.5M23.5 36s5-.6 7.8 1M20.8 31.8s4.8-1.4 7.2-.6M57.3 37.4s5.5-1.6 7.3-.4M57.9 39.1s5.4-.8 6.7 0M57.9 41.4s7.1-.2 8.3 1.9"/><path class="st6" d="M35.3 13.2c1.5-.1 4.1 2.5 4.1 2.5-6.8.8-6.8 8.6-6.6 11.4l-.1-.1c-1-1.2-2.4-2.1-3.8-2.7 0-2.9-.3-10.6-3.9-9.8-.4.1-.7.2-1 .4.6-1 1.9-2.3 4.6-2.2 0 0 .1-4.1 2.1-5.5v2.8s2.8-7.6 9.1-8.6c0 0-3.2 3.8-1.8 8.6l.3.7c.2.6.6 1.3 1 2-1.8-1.1-4 .5-4 .5zM40.1 10.3l-.8 2.3c0-.2.3-1.1.8-2.3zM44 32.1c0 .9-.4 1.7-.9 1.7s-.9-.8-.9-1.7c0-1 .4-1.7.9-1.7s.9.8.9 1.7zM59.5 17.7s-1.7 2.4-3.7 4.7h-.3c-.2 0-.4.2-.4.4 0 .1 0 .2.1.3-2 2.2-4.1 4.2-5.1 3.4-.3 1.3-.7 2.7-1.3 4l-.3.6c-.7 1.5-1.6 2.9-2.7 4.1 0-.3.1-.6.1-1.2.1-1.7.2-5 .2-10.7 0-10.2-2.5-12-2.5-12 .1.5-.8 1.4-.8 1.4-.6-1-2.7-2.6-2.7-2.6s0-.1.1-.2c2.2-.4 3.6.2 4.5.6 1.3.6 2.5 3.7 3 3.7.5-.1-.1-4.3-3.3-5.3-1.1-.4-2.5-.3-3.7 0 1.8-3.5 5.7-7.9 12.8-6.1 0 0-4.8 1.3-5.4 2.5 0 0 9.7-2.4 13.6 5 0 0-2.3-2-4.4-1.3 0 .2 3.1 1.3 2.2 8.7zM44.8 10.7c-.9-.4-2.4-1-4.5-.6.1-.3.3-.7.5-1.1 1.3-.3 2.6-.4 3.7 0 3.2 1 3.8 5.3 3.3 5.3-.5.1-1.8-3-3-3.6zM73.6 26.3c-.4-1.2-1.4-2.2-3.8-1.6-3 .9-4.2 4.5-4.6 6.7-.3 0-.6.1-.9.2-1.3.3-2.8.8-4.2 1.3l.2-2.7s2.2-.4 3.3.3c1.1.6-.5-2.5-2.6-3.3 0 0 .2-.8.8-.9 0 0-8.6.4-12.3 4.2l-.5.1c.6-1.3 1-2.7 1.3-4 1 .7 3.1-1.2 5.1-3.4-.1-.1-.1-.2-.1-.3 0-.2.2-.4.4-.4h.3c2-2.3 3.7-4.7 3.7-4.7s.4 2.3 2.2 1.5c1.8-.8 4.1-7.3 3.9-8.3 0 0 2.6 3.1 2 9 0 0 1-.4 1.5-1.3 0 0 .6 3 0 4.4.1-.1 3.9-2.5 4.7.7 0 .9-.1 1.7-.4 2.5z"/><path class="st7" d="M52.6 38.3c-.2-.4-.6-1-1.2-1.6-.5-.5-1.1-.9-2-1.3-1.1 0-2.3-.1-3.5-.1h-1.1l-.1.1v-.1h-.3c-.6 0-1.1-.1-1.7-.3-.4.2-.8.4-1.2.7-1.3.8-2.7 1.9-3.3 3-1 2.2-1.4 5.8 6.6 4.8 8.1-.9 8.4-4 7.8-5.2zm-6.1 1.5c-2.2.2-4.2.6-5-.5-.8-1 .5-2 .5-2s3.8-1.1 6.3-.6c2.5.7.4 2.9-1.8 3.1zM46.5 39.8c-2.2.2-4.2.6-5-.5-.8-1 .5-2 .5-2s3.8-1.1 6.3-.6c2.5.7.4 2.9-1.8 3.1zM44.8 35.3l-.1.1v-.1z"/><path class="st8" d="M28.9 24.3c-1.5-.7-3.2-1.1-4.7-1.3-.9-.1-1.7-.2-2.4-.3-.1-1.2-.6-6.3 2.3-7.9.3-.2.6-.3 1-.4 3.5-.7 3.8 7 3.8 9.9zM73.9 28.4l-3.4 3.4c-.4-.1-.7-.2-1.1-.2-.9-.2-2-.2-3.1-.2-.3 0-.7 0-1.1.1.4-2.2 1.6-5.8 4.6-6.7 2.3-.7 3.3.4 3.8 1.6.4.9.3 2 .3 2z"/><path class="st5" d="M30.3 18.7s.4-1.6-.4-2.3c-.7-.7-1.1-1.8-1.3-3.7M66.8 25.6c-.1-.2 1.5-.9 2.3-2.6"/><path class="st7" d="M47.8 14.4c-.5.1-1.8-3.1-3-3.7-.9-.4-2.4-1-4.5-.6-.6.1-1.2.3-1.9.5l-1 .4c-3.9 1.8-.8-.4-.8-.4s.6-.4 1.6-.7c.8-.3 1.7-.6 2.7-.9 1.3-.3 2.6-.4 3.7 0 3 1.1 3.7 5.3 3.2 5.4z"/><path class="st5" d="M50.7 16.2s.6 5-.6 10.4M55.9 22.4c-.2.3-.4.5-.6.7"/><path class="st7" d="M46.2 23.5c0 5.7-.1 9-.2 10.7 0 .5-.1.9-.1 1.2h-1.2000000000000002c-.1-3.3-.6-18.7-5.3-17.7-3.7.8-3.9 8.3-3.8 12.6-.2-.2-.4-.5-.7-.7-.7-.7-1.5-1.6-2.2-2.4-.2-2.9-.2-10.7 6.6-11.4 0 0-2.6-2.5-4.1-2.5 0 0 2.2-1.5 4-.6l.8-2.3s2.1 1.6 2.7 2.6c0 0 .9-.9.8-1.4.2-.1 2.7 1.7 2.7 11.9zM44.8 35.3l-.1.1v-.1zM63.6 30.5c-1.1-.7-3.3-.3-3.3-.3l-.3 2.7-2 .8-.8.3.2-3.9c-3.2-.3-6.1.8-7.5 1.5.1.3.2.6.2 1 0 .8-.3 1.5-.6 1.5s-.6-.7-.6-1.5v-.5l-.9.2.5-1.2.3-.6.5-.1c3.7-3.8 12.3-4.2 12.3-4.2-.6.1-.8.9-.8.9 2.3.9 3.8 4.1 2.8 3.4zM44 32.1c0 .9-.4 1.7-.9 1.7s-.9-.8-.9-1.7c0-1 .4-1.7.9-1.7s.9.8.9 1.7zM65.2 28.5v2.9c-.3 0-.6.1-.9.2v-2.3c0-3.2-2.6-5.8-5.8-5.9h-2.9l-.3-.1c-.1-.1-.1-.2-.1-.3 0-.2.2-.4.4-.4h3.5c3.4-.2 6.1 2.6 6.1 5.9z"/><path class="st9" d="M46.5 39.8c-2.2.2-4.2.6-5-.5-.8-1 .5-2 .5-2s3.8-1.1 6.3-.6c2.5.7.4 2.9-1.8 3.1z"/><path class="st10" d="M39.5 17.7c-3.7.8-3.9 8.3-3.8 12.6 2.5 2.5 4.9 4.2 7.1 4.8.6.2 1.2.3 1.7.3h.3c-.1-3.3-.7-18.8-5.3-17.7zm3.6 16.1c-.5 0-.9-.8-.9-1.7 0-1 .4-1.7.9-1.7s.9.8.9 1.7c0 1-.4 1.7-.9 1.7z"/><path class="st5" d="M44 32.1c0 .9-.4 1.7-.9 1.7s-.9-.8-.9-1.7c0-1 .4-1.7.9-1.7s.9.8.9 1.7zM44.8 35.3l-.1.1v-.1z"/><path class="st10" d="M57.5 30.1l-.2 3.9c-2.3 1.1-4 2-4 2-.8-.4-2.3-.6-4-.7-1.1 0-2.3-.1-3.5-.1 1.1-1.2 2-2.6 2.7-4.1l-.5 1.2.9-.2v.5c0 .8.3 1.5.6 1.5s.6-.7.6-1.5c0-.4-.1-.8-.2-1 1.6-.6 4.4-1.8 7.6-1.5z"/></svg>