<svg xmlns="http://www.w3.org/2000/svg" viewBox="0 0 254 176" enable-background="new 0 0 254 176"><style type="text/css">.st0{fill:#FFFFFF;stroke:#000000;stroke-miterlimit:10;} .st1{fill:#ED1C24;} .st2{fill:#FFFFFF;} .st3{fill:none;stroke:#000000;stroke-width:0.5;stroke-miterlimit:10;} .st4{fill:#FFFFFF;stroke:#000000;stroke-width:0.5;stroke-miterlimit:10;} .st5{fill:#005BAA;stroke:#000000;stroke-width:0.5;stroke-miterlimit:10;} .st6{stroke:#000000;stroke-width:0.5;stroke-miterlimit:10;}</style><circle class="st0" cx="126.3" cy="86.8" r="83.5"/><circle class="st1" cx="126.3" cy="86.8" r="75.3"/><circle class="st2" cx="126.3" cy="86.8" r="66.6"/><circle class="st1" cx="126.3" cy="86.8" r="61.9"/><circle class="st2" cx="126.3" cy="86.8" r="52.2"/><circle class="st1" cx="126.3" cy="86.8" r="46.6"/><circle class="st2" cx="126.3" cy="86.8" r="38.4"/><circle class="st1" cx="126.3" cy="86.8" r="31.3"/><path class="st3" d="M106.6 100.6l-.3-.1c-.1 0-.4 0-.5.2-1.2 1.3-2.7 2.2-4.2 2.7 3.2-.7 6.5-1.4 9.7-2-1.7 0-3.3-.3-4.7-.8zm5 3.7h.6c1.7 0 3.3-.3 4.8-.9-1.7.3-3.5.6-5.4.9zm10.7-7.2l-.2-.1c-.1 0-.1.1-.1.1-1.5 1.3-3.4 2.7-5.6 3.5 4.4-.6 8.8-1.1 13-1.2-2.8-.3-5.3-1.3-7.1-2.3zm7.1 5.2c.7.1 1.3.1 2 .1s1.5-.1 2.1-.2c-1.3 0-2.7 0-4.1.1zm-67.8 10.7c0 .1-.1.2-.1.2l.7-.3c-.2.1-.4.1-.6.1zM73.2 69.7v.4l-2 .6c-4.5 1.4-10.1 3.3-15.5 5.1l17.5-6.1zM73.2 72.7v.3l-1.1.4c-3.8 1.2-8.7 2.8-13.5 4.4v-.1l14.6-5zM73.2 69.7v.4l-2 .6c-4.5 1.4-10.1 3.3-15.5 5.1l17.5-6.1zM55.8 75.7c5.4-1.8 11-3.6 15.5-5l2-.6v-.4l-17.5 6zm2.8 2.1c4.8-1.6 9.7-3.2 13.5-4.4l1.1-.4v-.3l-14.6 5.1zm41.3 26.1c.6-.1 1.2-.2 1.7-.4-.6.1-1.2.3-1.7.4zm11.4-2.4h1c1.4 0 2.8-.3 4.1-.8-1.7.2-3.4.5-5.1.8zm21.9-2.1c-1.2 0-2.5 0-3.8.1.6.1 1.3.1 2 .1s1.3-.1 2-.2h-.2z"/><path class="st4" d="M70 58.4c-21 2.6-57 17.8-58.5 18.4l-1.7.7v21l15.9-9.5 3.2 63.6 11.6-5.5v-66c2.8-1.2 8.8-3.3 15.2-5.4l17.4-6v-11.7l-3.1.4zm.4 9.6s-28.7 9.1-32.7 11.4v66l-6.2 2.9-3.3-64.1-15.7 9.4v-14.2s36.9-15.7 57.8-18.3v6.9z"/><path class="st3" d="M58.6 77.8c4.8-1.6 9.7-3.2 13.5-4.4l1.1-.4v-.3l-14.6 5.1zm41.3 26.1c.6-.1 1.2-.2 1.7-.4-.6.1-1.2.3-1.7.4zm11.4-2.4h1c1.4 0 2.8-.3 4.1-.8-1.7.2-3.4.5-5.1.8zm21.9-2.1c-1.2 0-2.5 0-3.8.1.6.1 1.3.1 2 .1s1.3-.1 2-.2h-.2zM216 110.8c-.7.2-1.4.3-2 .4 1 .3 2 .7 2.9 1-.6-.8-.9-1.4-.9-1.4zM133.3 62.4l6.6 12.9c.6 1.2 1 2.6 1 4 0 2.8.1 7.6 0 9.4 0 .3-.1.7-.2 1.1l-.2.5c-.1.2-.2.4-.3.7-.1.2-.2.5-.4.7-.4.7-1 1.4-1.6 2.1-.2.2-.4.3-.5.5-.5.4-1 .8-1.6 1.2-.2.1-.4.2-.6.4l-.6.3c-.5.2-1 .4-1.5.5-1.2 0-2.4 0-3.6.1h-.1l-1.2-.2-.7-.2c-.7-.2-1.4-.4-2-.7-.2-.1-.4-.1-.5-.2-.8-.3-1.4-.7-1.9-1-.8-.5-1.8-.3-2.5.3-.2.2-.5.5-.9.7l-.5.4c-.3.3-.7.5-1.1.8l-1 .6-.7.4c-.2.1-.5.2-.8.4l-.4.2c-.1.1-.3.1-.4.1-.1 0-.2.1-.2.1-.7.2-1.5.4-2.3.4h-2c-.2 0-.4 0-.5-.1l-.7-.1-.5-.1-1.2-.3c-1.3-.4-2.8-.1-3.7.8-.1.1-.3.3-.5.4-.1.1-.2.2-.4.3l-.3.2-.4.3-.6.4c-.3.2-.7.3-1 .4-.3.1-.6.2-.9.2h-.2l-1 .1c-1.9 0-3.4-.5-4.5-1.1-1.5-.8-2.4-2.3-2.4-4v-14.3c-2.8-2.8-6.3 0-6.3 0v21.8h-8.5s-3.7 2.6-6.6 4.3c-2.9 1.7-10.8 2.2-10.8 2.2s-1.1 5.2-6.1 5.2h-.1c-3.6-.1-6.5-3-6.8-6.7l-1.4-22.1 7.4-2.8.8 18.7c0 1.1.5 2 1.2 2.7.7.7 1.7 1.1 2.8 1.1 2.2 0 4-1.8 4-4v-22.6l9-3.1v21.7c0 .8.3 1.6.9 2.1.5.5 1.3.9 2.1.9 1.7 0 3-1.3 3-3v-22.8l7.7-3.4v3.2s.1.5 6-2.9c.2-.2.5-.3.7-.4 3.3-1.6 7.1.9 7.1 4.6v12.3c0 .9.4 1.7 1 2.3.6.6 1.4.9 2.3.9 1.7 0 3.1-1.3 3.2-3 .8-11.2 5.1-20.1 10.2-22.1 5.6-2.2 6.1 6.3 5.9 9.7-.2 3.4-13.8 16.5-7.9 16.9 3.6.2 6-2.4 7.4-4.4.7-1.1 2.2-1.3 3.2-.5 1.6 1.3 4 2.8 6.7 2.8 4.6 0 4.2-2 3.3-10.7-1-8.7-11.6-11.8-9.7-23.1 2-11.3 18.3-7.8 18.3-7.8v4.8h-6.1c-5.3-.2-2.4 7.6-2.4 7.6zM133.2 96.5c-.6.1-1.1.2-1.8.2h-1l-.9-.1c1.3 0 2.5-.1 3.7-.1zM101.6 103.5c-.5.2-1.1.3-1.7.4.5-.1 1.1-.3 1.7-.4zM111.3 101.5c-3.3.6-6.5 1.3-9.7 2 1.5-.5 3-1.4 4.2-2.7.2-.2.4-.2.5-.2.1 0 .2 0 .3.1 1.4.4 3 .7 4.7.8zM116.4 100.7c-1.3.5-2.7.8-4.1.8h-1c1.7-.3 3.4-.6 5.1-.8zM117.1 103.4c-1.5.6-3.1.9-4.8.9h-.6l5.4-.9zM133.6 102.2c-.7.1-1.4.2-2.1.2-.7 0-1.3 0-2-.1 1.3-.1 2.7-.1 4.1-.1zM129.5 99.4c-4.3.2-8.6.6-13 1.2 2.2-.8 4.1-2.2 5.6-3.5h.3c1.7 1 4.2 2 7.1 2.3zM133.2 96.5c-.6.1-1.1.2-1.8.2h-1l-.9-.1c1.3 0 2.5-.1 3.7-.1zM133.4 99.4c-.6.1-1.3.2-2 .2s-1.3 0-2-.1c1.3-.1 2.5-.1 3.8-.1h.2zM101.6 103.5c-.5.2-1.1.3-1.7.4.5-.1 1.1-.3 1.7-.4zM116.4 100.7c-1.3.5-2.7.8-4.1.8h-1c1.7-.3 3.4-.6 5.1-.8zM117.1 103.4c-1.5.6-3.1.9-4.8.9h-.6l5.4-.9zM133.4 99.4c-.6.1-1.3.2-2 .2s-1.3 0-2-.1c1.3-.1 2.5-.1 3.8-.1h.2zM133.6 102.2c-.7.1-1.4.2-2.1.2-.7 0-1.3 0-2-.1 1.3-.1 2.7-.1 4.1-.1z"/><path class="st5" d="M146.5 103.4v8.5s-49.9-3.5-99 27v-13.5s19.2-9.1 42.7-15.9l.6-.2c3.2-.9 6.5-1.8 9.8-2.6l1.4-.3c3.2-.8 6.5-1.4 9.7-2h.6c1.7 0 3.3-.3 4.8-.9 4.2-.6 8.3-1 12.3-1.2.7.1 1.3.1 2 .1s1.5-.1 2.1-.2h.1c4.5 0 8.8.4 12.9 1.2z"/><path class="st3" d="M117.1 103.4c-1.5.6-3.1.9-4.8.9h-.6l5.4-.9zM133.6 102.2c-.7.1-1.4.2-2.1.2-.7 0-1.3 0-2-.1 1.3-.1 2.7-.1 4.1-.1z"/><path class="st6" d="M226.7 64.5l-1.4 21.1h-.6c-1.9 0-3.7.4-5.3 1 0-.3.5-5 .5-5l-11.5-5.1-.4.6c-1.6-.8-3.3-1.3-5-1.3-1.8 0-3.5.4-5.1 1.3l.9-4.5-14.1-3.6.3-2.4h-14.3l.1-2.2h-18.8l-.4.1c-.8.1-4.9 1-8.3 5.1l-4.7-9.3h8.6v-15l-4.4-1c-.5-.1-3.3-.6-6.7-.6-10.3 0-17 4.8-18.4 13-.3 1.6-.4 3-.3 4.4-.4-.1-.8-.1-1.2-.1-1.2 0-2.5.2-3.7.7-4 1.6-7.4 5.3-9.8 10.6-1.6-3.8-5.4-6.4-9.7-6.4-1.1 0-2.2.2-3.2.5v-2.8l-13.7 6v-14.8l-6.3.8c-21.4 2.7-57.8 18-59.3 18.7l-3.4 1.5v27.8l16.2-9.7 3.2 63.2 17.1-8.1v-1l7-4.3c38.3-23.7 76.5-26.3 91.2-26.3 2.8 0 4.4.1 4.5.1l3.5.2v.4h13.6l-.1 1.1 5.4.5c.4 0 43 4.5 59.1 15.2l8.8 5.8v-15.7h1l9.7-53.5-20.6-7zm-186.2 16.7v66l-11.6 5.5-3.2-63.7-15.9 9.6v-21l1.7-.7c1.5-.7 37.5-15.9 58.5-18.5l3.2-.4v12.1l-2 .6c-4.5 1.4-10.1 3.3-15.5 5.1-6.4 2.1-12.3 4.2-15.2 5.4zm195.1 37.6l-.6 3.5h-1.5v13.3l-4.4-2.9c-16.7-11.1-60-15.6-60.4-15.7l-2.5-.2v-4.1l.4-7.6.2-2.9c-.7.1-1.5.2-2.4.2h-1v10.2l-.2 2.8h-10.9v-15.4h-.2c-2.9-.2-5.8-.9-7.8-2.7-.2-.2-.4-.3-.5-.5-.9-1-1.5-2.1-1.9-3.4-.8 1.2-1.8 2.3-3 3.3-1.6 1.3-3.4 2.2-5.5 2.6 2.2 0 4.3.1 6.3.3 1.2.1 2.3.2 3.4.4l3.9.6 2.3.4v13.8l-3-.2s-1.7-.1-4.6-.1c-14.9 0-53.8 2.6-92.7 26.7l-4.3 2.7v-20.3l1.6-.8c.3-.2 1.9-.9 4.3-2 5.3-2.3 14.9-6.4 26.6-10.3 1-.4 2.1-.7 3.2-1.1 3.3-1.1 6.8-2.2 10.3-3.2.6-.2 1.3-.4 1.9-.5 2.4-.7 4.8-1.3 7.2-1.9-.5.1-1 .1-1.5.1-2 0-3.8-.4-5.5-1.2l-.4-.2c-2.4-1.3-3.9-3.8-3.9-6.5v-12.4h-.1c-.2 0-.4 0-.6.1v22.9h-10l-2 1.3c-1.2.8-2.7 1.8-4.1 2.6-2.4 1.4-6.7 2.1-9.6 2.4l-.7.3c-1.2 2.5-3.7 5.1-8 5.1h-.2c-1 0-2-.2-3-.5-3.6-1.3-6.3-4.7-6.6-8.8l-.4-6.6v-17.9l12.1-4.5.9 22.6c0 .6.5 1.1 1.2 1.1s1.2-.5 1.2-1.2v-24.7l14.6-5.1v25.6c0 .1.1.2.2.2s.2-.1.2-.2v-24.5l13.4-5.8v3.1c.5-.3 1.1-.6 1.7-1 .3-.2.6-.4.9-.5 1.1-.5 2.2-.8 3.4-.8 4.3 0 7.8 3.5 7.8 7.9v12.3c0 .2.2.4.4.4s.4-.2.4-.4c.8-12.2 5.6-22.1 12-24.6.9-.4 1.8-.5 2.7-.5 1.7 0 3.1.7 4.3 1.9 3.1 3.3 2.8 9.9 2.7 11.2-.1 2-1.7 4.3-4.8 8.4-1 1.4-2.5 3.4-3.5 4.9 1.1-.6 2-1.7 2.6-2.6.9-1.4 2.5-2.3 4.2-2.3 1.1 0 2.2.4 3.1 1.1 1.8 1.4 3.5 2.2 4.9 2.2.5 0 .8 0 1-.1.2-1.1-.2-4-.5-6.9l-.1-.6c-.3-2.9-2.1-5.1-4.2-7.6-3.1-3.8-6.8-8.4-5.5-16.2 1.2-6.9 6.8-10.7 15.7-10.7 3.3 0 5.9.5 6 .6l2.2.5v9.9h-9.1c-.2.7.1 2.4.6 3.8l6.5 12.8c.3.5.5 1.1.7 1.6 2.9-7.3 8.7-8.3 9-8.3h15.799999999999999l-1.4 24.8c.4 0 .7-.1 1-.1l3-22.5h11.4l-2.7 23.1v.1c-.1.5-.1 1.2 0 1.6 1 0 1.6-.4 1.9-.6l2.2-22.1 12.2 3.1-.5 2.6c-.5 2.3-1 4.8-1.4 7.1 1.2-1.6 2.8-3 4.8-4.3 1.5-1 3-1.5 4.6-1.5 2.4 0 4.3 1.1 5.7 2.3l.7-.9 7.6 3.3-.2 2c-.3 2.8-.5 5.8-.7 8.6.5-1.1 1.1-2 1.8-2.8 1.6-1.8 4-2.8 6.9-2.8 1.1 0 2.2.2 3.2.4l1.3-20.4 14.6 5.1-8.3 45.2z"/><path class="st5" d="M70.4 61.2v6.8s-28.7 9.1-32.7 11.4v66l-6.2 2.9-3.3-64.1-15.7 9.4v-14.2c.1 0 37-15.6 57.9-18.2z"/><path class="st4" d="M147 100.6c-1.2-.2-2.5-.5-3.9-.6-1.1-.2-2.2-.3-3.4-.4-2-.2-4.1-.3-6.3-.3-.6.1-1.3.2-2 .2s-1.3 0-2-.1c-4.3.2-8.6.6-13 1.2-1.3.5-2.7.8-4.1.8h-1c-3.3.6-6.5 1.3-9.7 2-.5.2-1.1.3-1.7.4-2.4.6-4.9 1.2-7.2 1.9-.6.2-1.3.4-1.9.5-3.6 1-7 2.1-10.3 3.2-1.1.4-2.2.7-3.2 1.1-11.7 4-21.3 8-26.6 10.3-2.5 1.1-4 1.8-4.3 2l-1.6.8v20.3l4.3-2.7c38.9-24.1 77.8-26.7 92.7-26.7 3 0 4.6.1 4.6.1l3 .2v-13.8l-2.4-.4zm-.5 11.3s-49.9-3.5-99 27v-13.5s19.2-9.1 42.7-15.9l.6-.2c3.2-.9 6.5-1.8 9.8-2.6l1.4-.3c3.2-.8 6.5-1.4 9.7-2l5.4-.9c4.2-.6 8.3-1 12.3-1.2 1.4-.1 2.8-.1 4.1-.1h.1c4.5 0 8.8.4 12.8 1.2v8.5zM229.3 68.4l-1.3 20.4c-1-.2-2.1-.4-3.2-.4-2.8 0-5.2 1-6.9 2.8-.7.8-1.3 1.8-1.8 2.8.2-2.8.4-5.8.7-8.6l.2-2-7.6-3.3-.7.9c-1.4-1.2-3.3-2.3-5.7-2.3-1.6 0-3.2.5-4.6 1.5-2 1.3-3.6 2.7-4.8 4.3.4-2.4.9-4.8 1.4-7.1l.5-2.6-12.2-3.1-2.3 21.9c-.3.3-.9.6-1.9.6-.1-.4-.1-1.1 0-1.6v-.1l2.7-23.1h-11.4l-3 22.5c-.3.1-.7.1-1 .1l1.4-24.8h-15.799999999999999c-.3 0-6.1 1-9 8.3-.2-.6-.4-1.1-.7-1.6l-6.5-12.8c-.5-1.4-.7-3.1-.6-3.8h9.1v-9.9l-2.2-.5c-.1 0-2.7-.6-6-.6-8.9 0-14.5 3.8-15.7 10.7-1.3 7.8 2.4 12.5 5.5 16.2 2.1 2.6 3.8 4.8 4.2 7.6l.1.6c.3 2.9.7 5.8.5 6.9-.2 0-.5.1-1 .1-1.4 0-3.2-.8-4.9-2.2-.9-.7-2-1.1-3.1-1.1-1.7 0-3.3.8-4.2 2.3-.6.9-1.5 2-2.6 2.6 1-1.6 2.5-3.6 3.5-4.9 3.1-4.1 4.7-6.3 4.8-8.4.1-1.3.3-7.9-2.7-11.2-1.2-1.2-2.6-1.9-4.3-1.9-.9 0-1.8.2-2.7.5-6.4 2.5-11.2 12.4-12 24.6 0 .2-.2.4-.4.4s-.4-.2-.4-.4v-12.1c0-4.3-3.5-7.9-7.8-7.9-1.2 0-2.3.3-3.4.8-.3.1-.6.3-.9.5-.7.4-1.2.7-1.7 1v-3.1l-13.4 5.8v24.5c0 .1-.1.2-.2.2s-.2-.1-.2-.2v-25.2l-1.1.4c-3.8 1.2-8.7 2.8-13.5 4.4v24.7c0 .7-.5 1.2-1.2 1.2-.6 0-1.1-.5-1.2-1.1l-.8-22.6-11.9 4.6v17.9l.4 6.6c.2 4.1 2.9 7.5 6.6 8.8.9.3 1.9.5 3 .5h.2c4.3 0 6.8-2.7 8-5.1 0-.1.1-.2.1-.2.2 0 .4 0 .6-.1 2.8-.3 7.2-1 9.6-2.4 1.4-.8 2.9-1.8 4.1-2.6l2-1.3h10v-23c.2-.1.4-.1.6-.1h.1v12.5c0 2.7 1.5 5.2 3.9 6.5l.4.2c1.7.8 3.5 1.2 5.5 1.2.5 0 1 0 1.5-.1l1.7-.4c1.5-.5 3-1.4 4.2-2.7.2-.2.4-.2.5-.2.1 0 .2 0 .3.1 1.4.5 3 .8 4.7.8 1.7-.3 3.4-.6 5.1-.8 2.2-.8 4.1-2.2 5.6-3.5.1 0 .1-.1.1-.1l.2.1c1.8 1 4.3 2 7.2 2.3 1.3-.1 2.5-.1 3.8-.1h.2c2.1-.4 3.9-1.4 5.5-2.6 1.2-1 2.2-2.1 3-3.3.4 1.3 1 2.4 1.9 3.4.2.2.3.4.5.5 2 1.8 4.9 2.5 7.8 2.7h.2v15.3h10.9l.2-2.8v-10.2h1c.9 0 1.7-.1 2.4-.2l-.2 2.9-.4 7.6v4.1l2.5.2c.4.1 43.7 4.5 60.4 15.7l4.4 2.9v-13.3h1.5l.6-3.5 8.2-45.3-14.7-5.1zm-88.5 20.3c0 .3-.1.7-.2 1.1l-.2.5c-.1.2-.2.4-.3.7-.1.2-.2.4-.4.7-.4.7-1 1.4-1.6 2.1-.2.2-.4.3-.5.5-.5.4-1 .8-1.6 1.2l-.6.4-.6.3c-.5.2-1 .4-1.5.5-.6.1-1.1.2-1.8.2h-1l-.9-.1h-.1l-1.2-.2-.7-.2c-.7-.2-1.4-.4-2-.7-.2-.1-.4-.1-.5-.2-.8-.3-1.4-.7-1.9-1-.8-.5-1.8-.3-2.5.3-.2.2-.5.5-.9.7l-.5.4c-.3.3-.7.5-1.1.8l-1 .6-.7.4c-.2.1-.5.2-.8.4l-.4.2c-.1.1-.3.1-.4.1-.1 0-.2.1-.2.1-.7.2-1.5.4-2.3.4h-2c-.2 0-.4 0-.5-.1l-.7-.1-.5-.1-1.2-.3c-1.3-.4-2.8-.1-3.7.8-.1.1-.3.3-.5.4-.1.1-.2.2-.4.3l-.3.2-.4.3-.6.4c-.3.2-.7.3-1 .4-.3.1-.6.2-.9.2h-.2l-1 .1c-1.9 0-3.4-.5-4.5-1.1-1.5-.8-2.4-2.3-2.4-4v-14.3c-2.8-2.8-6.3 0-6.3 0v21.8h-8.3s-3.7 2.6-6.6 4.3c-2.9 1.7-10.8 2.2-10.8 2.2s-1.1 5.2-6.1 5.2h-.1c-3.6-.1-6.5-3-6.8-6.7l-1.4-22.1 7.4-2.8.8 18.7c0 1.1.5 2 1.2 2.7.7.7 1.7 1.1 2.8 1.1 2.2 0 4-1.8 4-4v-22.6l9-3.1v21.7c0 .8.3 1.6.9 2.1.5.5 1.3.9 2.1.9 1.7 0 3-1.3 3-3v-22.8l7.7-3.4v3.2s.1.5 6-2.9c.2-.2.5-.3.7-.4 3.3-1.6 7.1.9 7.1 4.6v12.3c0 .9.4 1.7 1 2.3.6.6 1.4.9 2.3.9 1.7 0 3.1-1.3 3.2-3 .8-11.2 5.1-20.1 10.2-22.1 5.6-2.2 6.1 6.3 5.9 9.7-.2 3.4-13.8 16.5-7.9 16.9 3.6.2 6-2.4 7.4-4.4.7-1.1 2.2-1.3 3.2-.5 1.6 1.3 4 2.8 6.7 2.8 4.6 0 4.2-2 3.3-10.7-1-8.7-11.6-11.8-9.7-23.1 2-11.3 18.3-7.8 18.3-7.8v4.8h-6.1c-5.1 0-2.2 7.7-2.2 7.7l6.6 12.9c.6 1.2 1 2.6 1 4-.3 2.7-.2 7.5-.3 9.3zm89.9 41.6c-17.5-11.6-61.7-16.1-61.7-16.1l.5-9.1v-.8c5.4 1.1 11.7 2.8 18.1 4.6 1.6.4 3.1.9 4.7 1.4 3.3 1 6.6 2 9.8 3h.1l.1.1c3.9 1.2 7.6 2.5 11 3.6h.1c4.1 1.4 7.8 2.6 10.6 3.6 1.9.7 3.5 1.2 4.6 1.6 1.3.4 2 .7 2 .7v7.4zm2.3-12.5l-.3 1.6h-3.5c-.6-.2-1.4-.5-2.2-.8v-1.3c-4.7 1.3-8.4-2.8-10-5.1-.9-.3-1.9-.6-2.9-1-5 .8-7.4-1.3-8.4-2.7-.5-.7-.7-1.3-.7-1.3-.7.2-1.4.3-2.1.4-3.9.5-6.3-.9-7.7-2.4-1.4-1.4-1.8-2.9-1.8-2.9h-2.5c-1 .5-1.9.7-2.7.9-3 .5-5.1-.8-6.2-1.7l-.8-.8c-.4.1-.8.2-1.3.3-5.6 1-9.5-1.6-10.5-2.5-.2-.2-.3-.2-.3-.2l-.2.2c-1 1-3.1 1.2-4.8 1.2-1.9 0-3.5-.3-3.5-.3v13.3h-5.4v-15.4c-11 0-11.8-3.5-10.8-14.8 1-11.4 8.1-12.4 8.1-12.4h12.4l-1.4 24.5c2 1 6.5-.3 6.5-.3l2.9-22h5.8l-2.3 19.8s-1 5 2.6 5l4.8-2.4 2-19.6 6.4 1.6s-4 19.7-3.2 20.3c.9.7 4.2-.3 4.2-.3-.2-7.3 1.5-10.9 6.6-14.3 5.1-3.4 8.9 2.9 8.9 2.9l1.4-1.9 3.7 1.6s-1.6 18.1-1.2 20.9c.4 2.8 3.9 1.1 3.9 1.1s-.2-10.2 3.3-14c3.5-3.8 10.6-.5 10.6-.5l1.3-20.2 8.8 3.1-7.5 42.4z"/><path class="st5" d="M240.6 75.4l-7.7 42.4-.3 1.6h-3.5c-.6-.2-1.4-.5-2.2-.8v-1.3c-4.7 1.3-8.4-2.8-10-5.1-.9-.3-1.9-.6-2.9-1-5 .8-7.4-1.3-8.4-2.7-.5-.7-.7-1.3-.7-1.3-.7.2-1.4.3-2.1.4-3.9.5-6.3-.9-7.7-2.4-1.4-1.4-1.8-2.9-1.8-2.9h-2.5c-1 .5-1.9.7-2.7.9-3 .5-5.1-.8-6.2-1.7l-.8-.8c-.4.1-.8.2-1.3.3-5.6 1-9.5-1.6-10.5-2.5-.2-.2-.3-.2-.3-.2l-.2.2c-1 1-3.1 1.2-4.8 1.2-1.9 0-3.5-.3-3.5-.3v13.3h-5.4v-15.4c-11 0-11.8-3.5-10.8-14.8 1-11.4 8.1-12.4 8.1-12.4h12.4l-1.4 24.5c2 1 6.5-.3 6.5-.3l2.9-22h5.8l-2.3 19.8s-1 5 2.6 5l4.8-2.4 2-19.6 6.4 1.6s-4 19.7-3.2 20.3c.9.7 4.2-.3 4.2-.3-.2-7.3 1.5-10.9 6.6-14.3 5.1-3.4 8.9 2.9 8.9 2.9l1.4-1.9 3.7 1.6s-1.6 18.1-1.2 20.9c.4 2.8 3.9 1.1 3.9 1.1s-.2-10.2 3.3-14c3.5-3.8 10.6-.5 10.6-.5l1.3-20.2 9 3.1zM133.3 62.4l6.6 12.9c.6 1.2 1 2.6 1 4 0 2.8.1 7.6 0 9.4 0 .3-.1.7-.2 1.1l-.2.5c-.1.2-.2.4-.3.7-.1.2-.2.4-.4.7-.4.7-1 1.4-1.6 2.1-.2.2-.4.3-.5.5-.5.4-1 .8-1.6 1.2l-.6.4-.6.3c-.5.2-1 .4-1.5.5-.6.1-1.1.2-1.8.2h-1l-.9-.1h-.1l-1.2-.2-.7-.2c-.7-.2-1.4-.4-2-.7-.2-.1-.4-.1-.5-.2-.8-.3-1.4-.7-1.9-1-.8-.5-1.8-.3-2.5.3-.2.2-.5.5-.9.7l-.5.4c-.3.3-.7.5-1.1.8l-1 .6-.7.4c-.2.1-.5.2-.8.4l-.4.2c-.1.1-.3.1-.4.1-.1 0-.2.1-.2.1-.7.2-1.5.4-2.3.4h-2c-.2 0-.4 0-.5-.1l-.7-.1-.5-.1-1.2-.3c-1.3-.4-2.8-.1-3.7.8-.1.1-.3.3-.5.4-.1.1-.2.2-.4.3l-.3.2-.4.3-.6.4c-.3.2-.7.3-1 .4-.3.1-.6.2-.9.2h-.2l-1 .1c-1.9 0-3.4-.5-4.5-1.1-1.5-.8-2.4-2.3-2.4-4v-14.3c-2.8-2.8-6.3 0-6.3 0v21.8h-8.4s-3.7 2.6-6.6 4.3c-2.9 1.7-10.8 2.2-10.8 2.2s-1.1 5.2-6.1 5.2h-.1c-3.6-.1-6.5-3-6.8-6.7l-1.4-22.1 7.4-2.8.8 18.7c0 1.1.5 2 1.2 2.7.7.7 1.7 1.1 2.8 1.1 2.2 0 4-1.8 4-4v-22.6l9-3.1v21.7c0 .8.3 1.6.9 2.1.5.5 1.3.9 2.1.9 1.7 0 3-1.3 3-3v-22.8l7.7-3.4v3.2s.1.5 6-2.9c.2-.2.5-.3.7-.4 3.3-1.6 7.1.9 7.1 4.6v12.3c0 .9.4 1.7 1 2.3.6.6 1.4.9 2.3.9 1.7 0 3.1-1.3 3.2-3 .8-11.2 5.1-20.1 10.2-22.1 5.6-2.2 6.1 6.3 5.9 9.7-.2 3.4-13.8 16.5-7.9 16.9 3.6.2 6-2.4 7.4-4.4.7-1.1 2.2-1.3 3.2-.5 1.6 1.3 4 2.8 6.7 2.8 4.6 0 4.2-2 3.3-10.7-1-8.7-11.6-11.8-9.7-23.1 2-11.3 18.3-7.8 18.3-7.8v4.8h-6.1c-5.3-.2-2.4 7.6-2.4 7.6z"/><path class="st3" d="M240.6 75.4l-7.7 42.4-.3 1.6h-3.5c-.6-.2-1.4-.5-2.2-.8v-1.3c-4.7 1.3-8.4-2.8-10-5.1-.6-.8-.9-1.4-.9-1.4-.7.2-1.4.3-2 .4-5 .8-7.4-1.3-8.4-2.7-.5-.7-.7-1.3-.7-1.3-.7.2-1.4.3-2.1.4-3.9.5-6.3-.9-7.7-2.4-1.4-1.4-1.8-2.9-1.8-2.9h-2.5c-1 .5-1.9.7-2.7.9-3 .5-5.1-.8-6.2-1.7l-.8-.8c-.4.1-.8.2-1.3.3-5.6 1-9.5-1.6-10.5-2.5-.2-.2-.3-.2-.3-.2l-.2.2c-1 1-3.1 1.2-4.8 1.2-1.9 0-3.5-.3-3.5-.3v13.3h-5.4v-15.4c-11 0-11.8-3.5-10.8-14.8 1-11.4 8.1-12.4 8.1-12.4h12.4l-1.4 24.5c2 1 6.5-.3 6.5-.3l2.9-22h5.8l-2.3 19.8s-1 5 2.6 5l4.8-2.4 2-19.6 6.4 1.6s-4 19.7-3.2 20.3c.9.7 4.2-.3 4.2-.3-.2-7.3 1.5-10.9 6.6-14.3 5.1-3.4 8.9 2.9 8.9 2.9l1.4-1.9 3.7 1.6s-1.6 18.1-1.2 20.9c.4 2.8 3.9 1.1 3.9 1.1s-.2-10.2 3.3-14c3.5-3.8 10.6-.5 10.6-.5l1.3-20.2 9 3.1zM213.4 116.9zm-11.1-3.6h-.1.1zM213.4 116.9zm-11.1-3.6h-.1.1z"/><path class="st5" d="M230.7 123v7.3c-17.5-11.6-61.7-16.1-61.7-16.1l.5-9.1v-.8c5.4 1.1 11.7 2.8 18.1 4.6 1.6.4 3.1.9 4.7 1.4 3.3 1 6.6 2 9.8 3 .1 0 .1 0 .2.1 3.9 1.2 7.6 2.5 11 3.6h.1c4.1 1.4 7.8 2.6 10.6 3.6 1.9.7 3.5 1.2 4.6 1.6 1.4.5 2.1.8 2.1.8z"/><ellipse transform="matrix(.906 .423 -.423 .906 43.402 -41.103)" class="st4" cx="114.4" cy="77.3" rx="1.8" ry="4.2"/><ellipse transform="matrix(.997 .082 -.082 .997 9.404 -18.208)" class="st4" cx="226" cy="105.2" rx="3.4" ry="6.3"/><ellipse transform="matrix(.997 .084 -.084 .997 9.635 -18.612)" class="st6" cx="226" cy="105.2" rx=".7" ry="2.5"/><ellipse transform="matrix(.994 .113 -.113 .994 11.951 -22.205)" class="st4" cx="202.7" cy="94.7" rx="4.2" ry="7.9"/><ellipse transform="matrix(.994 .113 -.113 .994 11.954 -22.21)" class="st6" cx="202.7" cy="94.7" rx="1.2" ry="4.9"/><path class="st4" d="M157.8 75.5v15.8s-7 1.4-7-3.7c-.1-5.1 2.1-12.5 7-12.1z"/><path class="st6" d="M155.2 81.3v6.9s-1.9.6-1.9-1.6.6-5.4 1.9-5.3z"/></svg>