<?xml version="1.0" encoding="utf-8"?>
<!-- Generator: Adobe Illustrator 18.1.1, SVG Export Plug-In . SVG Version: 6.00 Build 0)  -->
<!DOCTYPE svg PUBLIC "-//W3C//DTD SVG 1.1//EN" "http://www.w3.org/Graphics/SVG/1.1/DTD/svg11.dtd">
<svg version="1.1" id="Layer_1" xmlns="http://www.w3.org/2000/svg" xmlns:xlink="http://www.w3.org/1999/xlink" x="0px" y="0px"
	 viewBox="0 0 254 176" style="enable-background:new 0 0 254 176;" xml:space="preserve">
<style type="text/css">
	.st0{fill:#FFFFFF;stroke:#000000;stroke-miterlimit:10;}
	.st1{fill:#ED1C24;}
	.st2{fill:#FFFFFF;}
	.st3{fill:none;stroke:#000000;stroke-width:0.5;stroke-miterlimit:10;}
	.st4{fill:#FFFFFF;stroke:#000000;stroke-width:0.5;stroke-miterlimit:10;}
	.st5{fill:#005BAA;stroke:#000000;stroke-width:0.5;stroke-miterlimit:10;}
	.st6{stroke:#000000;stroke-width:0.5;stroke-miterlimit:10;}
</style>
<circle class="st0" cx="126.3" cy="86.8" r="83.5"/>
<circle class="st1" cx="126.3" cy="86.8" r="75.3"/>
<circle class="st2" cx="126.3" cy="86.8" r="66.6"/>
<circle class="st1" cx="126.3" cy="86.8" r="61.9"/>
<circle class="st2" cx="126.3" cy="86.8" r="52.2"/>
<circle class="st1" cx="126.3" cy="86.8" r="46.6"/>
<circle class="st2" cx="126.3" cy="86.8" r="38.4"/>
<circle class="st1" cx="126.3" cy="86.8" r="31.3"/>
<path class="st3" d="M106.6,100.6c-0.1,0-0.2-0.1-0.3-0.1c-0.1,0-0.4,0-0.5,0.2c-1.2,1.3-2.7,2.2-4.2,2.7c3.2-0.7,6.5-1.4,9.7-2
	C109.6,101.4,108,101.1,106.6,100.6z M111.6,104.3c0.2,0,0.4,0,0.6,0c1.7,0,3.3-0.3,4.8-0.9C115.3,103.7,113.5,104,111.6,104.3z
	 M122.3,97.1c-0.1,0-0.1-0.1-0.2-0.1c-0.1,0-0.1,0.1-0.1,0.1c-1.5,1.3-3.4,2.7-5.6,3.5c4.4-0.6,8.8-1.1,13-1.2
	C126.6,99.1,124.1,98.1,122.3,97.1z M129.4,102.3c0.7,0.1,1.3,0.1,2,0.1c0.7,0,1.5-0.1,2.1-0.2C132.2,102.2,130.8,102.2,129.4,102.3
	z M61.6,113c0,0.1-0.1,0.2-0.1,0.2c0.2-0.1,0.5-0.2,0.7-0.3C62,113,61.8,113,61.6,113z"/>
<path class="st3" d="M73.2,69.7v0.4l-2,0.6c-4.5,1.4-10.1,3.3-15.5,5.1v0L73.2,69.7z"/>
<path class="st3" d="M73.2,72.7V73l-1.1,0.4c-3.8,1.2-8.7,2.8-13.5,4.4v-0.1L73.2,72.7z"/>
<path class="st3" d="M73.2,69.7v0.4l-2,0.6c-4.5,1.4-10.1,3.3-15.5,5.1v0L73.2,69.7z"/>
<path class="st3" d="M55.8,75.7L55.8,75.7c5.4-1.8,11-3.6,15.5-5l2-0.6v-0.4L55.8,75.7z M58.6,77.8L58.6,77.8
	c4.8-1.6,9.7-3.2,13.5-4.4l1.1-0.4v-0.3L58.6,77.8z M99.9,103.9c0.6-0.1,1.2-0.2,1.7-0.4C101,103.6,100.4,103.8,99.9,103.9z
	 M111.3,101.5c0.3,0,0.6,0,1,0c1.4,0,2.8-0.3,4.1-0.8C114.7,100.9,113,101.2,111.3,101.5z M133.2,99.4c-1.2,0-2.5,0-3.8,0.1
	c0.6,0.1,1.3,0.1,2,0.1c0.7,0,1.3-0.1,2-0.2H133.2z"/>
<path class="st4" d="M70,58.4C49,61,13,76.2,11.5,76.8l-1.7,0.7v21L25.7,89l3.2,63.6l11.6-5.5v-66c2.8-1.2,8.8-3.3,15.2-5.4v0
	l17.4-6V58L70,58.4z M70.4,68c0,0-28.7,9.1-32.7,11.4v66l-6.2,2.9l-3.3-64.1l-15.7,9.4V79.4c0,0,36.9-15.7,57.8-18.3V68z"/>
<path class="st3" d="M58.6,77.8L58.6,77.8c4.8-1.6,9.7-3.2,13.5-4.4l1.1-0.4v-0.3L58.6,77.8z M99.9,103.9c0.6-0.1,1.2-0.2,1.7-0.4
	C101,103.6,100.4,103.8,99.9,103.9z M111.3,101.5c0.3,0,0.6,0,1,0c1.4,0,2.8-0.3,4.1-0.8C114.7,100.9,113,101.2,111.3,101.5z
	 M133.2,99.4c-1.2,0-2.5,0-3.8,0.1c0.6,0.1,1.3,0.1,2,0.1c0.7,0,1.3-0.1,2-0.2H133.2z"/>
<path class="st3" d="M216,110.8c-0.7,0.2-1.4,0.3-2,0.4c1,0.3,2,0.7,2.9,1C216.3,111.4,216,110.8,216,110.8z"/>
<path class="st3" d="M133.3,62.4l6.6,12.9c0.6,1.2,1,2.6,1,4c0,2.8,0.1,7.6,0,9.4c0,0.3-0.1,0.7-0.2,1.1c-0.1,0.2-0.1,0.3-0.2,0.5
	c-0.1,0.2-0.2,0.4-0.3,0.7c-0.1,0.2-0.2,0.5-0.4,0.7c-0.4,0.7-1,1.4-1.6,2.1c-0.2,0.2-0.4,0.3-0.5,0.5c-0.5,0.4-1,0.8-1.6,1.2
	c-0.2,0.1-0.4,0.2-0.6,0.4c-0.2,0.1-0.4,0.2-0.6,0.3c-0.5,0.2-1,0.4-1.5,0.5h0c-1.2,0-2.4,0-3.6,0.1h-0.1c-0.4-0.1-0.8-0.1-1.2-0.2
	c-0.2-0.1-0.5-0.1-0.7-0.2c-0.7-0.2-1.4-0.4-2-0.7c-0.2-0.1-0.4-0.1-0.5-0.2c-0.8-0.3-1.4-0.7-1.9-1c-0.8-0.5-1.8-0.3-2.5,0.3
	c-0.2,0.2-0.5,0.5-0.9,0.7c-0.2,0.1-0.3,0.3-0.5,0.4c-0.3,0.3-0.7,0.5-1.1,0.8c-0.3,0.2-0.7,0.4-1,0.6c-0.2,0.1-0.5,0.3-0.7,0.4
	c-0.2,0.1-0.5,0.2-0.8,0.4h0c-0.1,0.1-0.3,0.1-0.4,0.2c-0.1,0.1-0.3,0.1-0.4,0.1c-0.1,0-0.2,0.1-0.2,0.1c-0.7,0.2-1.5,0.4-2.3,0.4
	c-0.4,0-0.7,0-1.1,0c-0.1,0-0.2,0-0.4,0c-0.1,0-0.2,0-0.3,0c-0.1,0-0.1,0-0.2,0c-0.2,0-0.4,0-0.5-0.1c-0.2,0-0.5-0.1-0.7-0.1
	c-0.2,0-0.3-0.1-0.5-0.1c-0.4-0.1-0.8-0.2-1.2-0.3c-1.3-0.4-2.8-0.1-3.7,0.8c-0.1,0.1-0.3,0.3-0.5,0.4c-0.1,0.1-0.2,0.2-0.4,0.3
	c-0.1,0.1-0.2,0.1-0.3,0.2c-0.1,0.1-0.3,0.2-0.4,0.3c-0.2,0.1-0.4,0.3-0.6,0.4c-0.3,0.2-0.7,0.3-1,0.4c0,0,0,0,0,0
	c-0.3,0.1-0.6,0.2-0.9,0.2c0,0-0.1,0-0.1,0c0,0-0.1,0-0.1,0c-0.3,0-0.7,0.1-1,0.1c-1.9,0-3.4-0.5-4.5-1.1c-1.5-0.8-2.4-2.3-2.4-4V82
	c-2.8-2.8-6.3,0-6.3,0v21.8H77c0,0-3.7,2.6-6.6,4.3c-2.9,1.7-10.8,2.2-10.8,2.2s-1.1,5.2-6.1,5.2h-0.1c-3.6-0.1-6.5-3-6.8-6.7
	l-1.4-22.1l7.4-2.8l0.8,18.7c0,1.1,0.5,2,1.2,2.7c0.7,0.7,1.7,1.1,2.8,1.1c2.2,0,4-1.8,4-4V79.8l9-3.1v21.7c0,0.8,0.3,1.6,0.9,2.1
	c0.5,0.5,1.3,0.9,2.1,0.9c1.7,0,3-1.3,3-3V75.6l7.7-3.4v3.2c0,0,0.1,0.5,6-2.9c0.2-0.2,0.5-0.3,0.7-0.4c3.3-1.6,7.1,0.9,7.1,4.6
	v12.3c0,0.9,0.4,1.7,1,2.3c0.6,0.6,1.4,0.9,2.3,0.9c1.7,0,3.1-1.3,3.2-3c0.8-11.2,5.1-20.1,10.2-22.1c5.6-2.2,6.1,6.3,5.9,9.7
	c-0.2,3.4-13.8,16.5-7.9,16.9c3.6,0.2,6-2.4,7.4-4.4c0.7-1.1,2.2-1.3,3.2-0.5c1.6,1.3,4,2.8,6.7,2.8c4.6,0,4.2-2,3.3-10.7
	c-1-8.7-11.6-11.8-9.7-23.1c2-11.3,18.3-7.8,18.3-7.8v4.8c0,0-1,0-6.1,0C130.4,54.6,133.3,62.4,133.3,62.4z"/>
<path class="st3" d="M133.2,96.5c-0.6,0.1-1.1,0.2-1.8,0.2c-0.3,0-0.7,0-1,0c-0.3,0-0.6-0.1-0.9-0.1C130.8,96.6,132,96.5,133.2,96.5
	z"/>
<path class="st3" d="M101.6,103.5c-0.5,0.2-1.1,0.3-1.7,0.4C100.4,103.8,101,103.6,101.6,103.5z"/>
<path class="st3" d="M111.3,101.5c-3.3,0.6-6.5,1.3-9.7,2c1.5-0.5,3-1.4,4.2-2.7c0.2-0.2,0.4-0.2,0.5-0.2c0.1,0,0.2,0,0.3,0.1
	C108,101.1,109.6,101.4,111.3,101.5z"/>
<path class="st3" d="M116.4,100.7c-1.3,0.5-2.7,0.8-4.1,0.8c-0.3,0-0.7,0-1,0C113,101.2,114.7,100.9,116.4,100.7z"/>
<path class="st3" d="M117.1,103.4c-1.5,0.6-3.1,0.9-4.8,0.9c-0.2,0-0.4,0-0.6,0C113.5,104,115.3,103.7,117.1,103.4z"/>
<path class="st3" d="M133.6,102.2c-0.7,0.1-1.4,0.2-2.1,0.2c-0.7,0-1.3,0-2-0.1C130.8,102.2,132.2,102.2,133.6,102.2z"/>
<path class="st3" d="M129.5,99.4c-4.3,0.2-8.6,0.6-13,1.2c2.2-0.8,4.1-2.2,5.6-3.5c0.1,0,0.2,0,0.3,0
	C124.1,98.1,126.6,99.1,129.5,99.4z"/>
<path class="st3" d="M133.2,96.5c-0.6,0.1-1.1,0.2-1.8,0.2c-0.3,0-0.7,0-1,0c-0.3,0-0.6-0.1-0.9-0.1C130.8,96.6,132,96.5,133.2,96.5
	z"/>
<path class="st3" d="M133.4,99.4c-0.6,0.1-1.3,0.2-2,0.2c-0.7,0-1.3,0-2-0.1c1.3-0.1,2.5-0.1,3.8-0.1H133.4z"/>
<path class="st3" d="M101.6,103.5c-0.5,0.2-1.1,0.3-1.7,0.4C100.4,103.8,101,103.6,101.6,103.5z"/>
<path class="st3" d="M116.4,100.7c-1.3,0.5-2.7,0.8-4.1,0.8c-0.3,0-0.7,0-1,0C113,101.2,114.7,100.9,116.4,100.7z"/>
<path class="st3" d="M117.1,103.4c-1.5,0.6-3.1,0.9-4.8,0.9c-0.2,0-0.4,0-0.6,0C113.5,104,115.3,103.7,117.1,103.4z"/>
<path class="st3" d="M133.4,99.4c-0.6,0.1-1.3,0.2-2,0.2c-0.7,0-1.3,0-2-0.1c1.3-0.1,2.5-0.1,3.8-0.1H133.4z"/>
<path class="st3" d="M133.6,102.2c-0.7,0.1-1.4,0.2-2.1,0.2c-0.7,0-1.3,0-2-0.1C130.8,102.2,132.2,102.2,133.6,102.2z"/>
<path class="st5" d="M146.5,103.4v8.5c0,0-49.9-3.5-99,27v-13.5c0,0,19.2-9.1,42.7-15.9c0.2-0.1,0.4-0.1,0.6-0.2
	c3.2-0.9,6.5-1.8,9.8-2.6c0.5-0.1,0.9-0.2,1.4-0.3c3.2-0.8,6.5-1.4,9.7-2c0,0,0,0,0,0c0.2,0,0.4,0,0.6,0c1.7,0,3.3-0.3,4.8-0.9
	c0,0,0,0,0,0c4.2-0.6,8.3-1,12.3-1.2c0,0,0,0,0,0c0.7,0.1,1.3,0.1,2,0.1c0.7,0,1.5-0.1,2.1-0.2h0.1
	C138.1,102.2,142.4,102.6,146.5,103.4z"/>
<path class="st3" d="M117.1,103.4c-1.5,0.6-3.1,0.9-4.8,0.9c-0.2,0-0.4,0-0.6,0C113.5,104,115.3,103.7,117.1,103.4z"/>
<path class="st3" d="M133.6,102.2c-0.7,0.1-1.4,0.2-2.1,0.2c-0.7,0-1.3,0-2-0.1C130.8,102.2,132.2,102.2,133.6,102.2z"/>
<path class="st6" d="M226.7,64.5l-1.4,21.1c-0.2,0-0.4,0-0.6,0c-1.9,0-3.7,0.4-5.3,1c0-0.3,0.5-5,0.5-5l-11.5-5.1l-0.4,0.6
	c-1.6-0.8-3.3-1.3-5-1.3c-1.8,0-3.5,0.4-5.1,1.3l0.9-4.5L184.7,69l0.3-2.4h-14.3l0.1-2.2H152l-0.4,0.1c-0.8,0.1-4.9,1-8.3,5.1
	l-4.7-9.3h8.6v-15l-4.4-1c-0.5-0.1-3.3-0.6-6.7-0.6c-10.3,0-17,4.8-18.4,13c-0.3,1.6-0.4,3-0.3,4.4c-0.4-0.1-0.8-0.1-1.2-0.1
	c-1.2,0-2.5,0.2-3.7,0.7c-4,1.6-7.4,5.3-9.8,10.6c-1.6-3.8-5.4-6.4-9.7-6.4c-1.1,0-2.2,0.2-3.2,0.5v-2.8l-13.7,6V54.8l-6.3,0.8
	c-21.4,2.7-57.8,18-59.3,18.7l-3.4,1.5v27.8l16.2-9.7l3.2,63.2l17.1-8.1v-1l7-4.3c38.3-23.7,76.5-26.3,91.2-26.3
	c2.8,0,4.4,0.1,4.5,0.1l3.5,0.2v0.4h13.6l-0.1,1.1l5.4,0.5c0.4,0,43,4.5,59.1,15.2l8.8,5.8v-15.7h1l9.7-53.5L226.7,64.5z M40.5,81.2
	v66l-11.6,5.5L25.7,89L9.8,98.6v-21l1.7-0.7C13,76.2,49,61,70,58.4l3.2-0.4v12.1l-2,0.6c-4.5,1.4-10.1,3.3-15.5,5.1
	C49.3,77.9,43.4,80,40.5,81.2z M235.6,118.8l-0.6,3.5h-1.5v13.3l-4.4-2.9c-16.7-11.1-60-15.6-60.4-15.7l-2.5-0.2v-4.1l0.4-7.6
	l0.2-2.9c-0.7,0.1-1.5,0.2-2.4,0.2c-0.1,0-0.3,0-0.4,0c-0.2,0-0.4,0-0.6,0v10.2l-0.2,2.8h-10.9V100c-0.1,0-0.2,0-0.2,0
	c-2.9-0.2-5.8-0.9-7.8-2.7c-0.2-0.2-0.4-0.3-0.5-0.5c-0.9-1-1.5-2.1-1.9-3.4c-0.8,1.2-1.8,2.3-3,3.3c-1.6,1.3-3.4,2.2-5.5,2.6
	c2.2,0,4.3,0.1,6.3,0.3c1.2,0.1,2.3,0.2,3.4,0.4c1.3,0.2,2.6,0.4,3.9,0.6l2.3,0.4v13.8l-3-0.2c0,0-1.7-0.1-4.6-0.1
	c-14.9,0-53.8,2.6-92.7,26.7l-4.3,2.7v-20.3l1.6-0.8c0.3-0.2,1.9-0.9,4.3-2c5.3-2.3,14.9-6.4,26.6-10.3c1-0.4,2.1-0.7,3.2-1.1
	c3.3-1.1,6.8-2.2,10.3-3.2c0.6-0.2,1.3-0.4,1.9-0.5c2.4-0.7,4.8-1.3,7.2-1.9c-0.5,0.1-1,0.1-1.5,0.1c-2,0-3.8-0.4-5.5-1.2
	c-0.1-0.1-0.3-0.1-0.4-0.2c-2.4-1.3-3.9-3.8-3.9-6.5V83.6h-0.1c-0.2,0-0.4,0-0.6,0.1v22.9h-10c-0.5,0.3-1.2,0.8-2,1.3
	c-1.2,0.8-2.7,1.8-4.1,2.6c-2.4,1.4-6.7,2.1-9.6,2.4c-0.2,0.1-0.5,0.2-0.7,0.3c-1.2,2.5-3.7,5.1-8,5.1h-0.2c-1,0-2-0.2-3-0.5
	c-3.6-1.3-6.3-4.7-6.6-8.8l-0.4-6.6V84.5L55.3,80l0.9,22.6c0,0.6,0.5,1.1,1.2,1.1c0.7,0,1.2-0.5,1.2-1.2V77.8l14.6-5.1v25.6
	c0,0.1,0.1,0.2,0.2,0.2s0.2-0.1,0.2-0.2V73.8l13.4-5.8v3.1c0.5-0.3,1.1-0.6,1.7-1c0.3-0.2,0.6-0.4,0.9-0.5c1.1-0.5,2.2-0.8,3.4-0.8
	c4.3,0,7.8,3.5,7.8,7.9v12.3c0,0.2,0.2,0.4,0.4,0.4c0.2,0,0.4-0.2,0.4-0.4c0.8-12.2,5.6-22.1,12-24.6c0.9-0.4,1.8-0.5,2.7-0.5
	c1.7,0,3.1,0.7,4.3,1.9c3.1,3.3,2.8,9.9,2.7,11.2c-0.1,2-1.7,4.3-4.8,8.4c-1,1.4-2.5,3.4-3.5,4.9c1.1-0.6,2-1.7,2.6-2.6
	c0.9-1.4,2.5-2.3,4.2-2.3c1.1,0,2.2,0.4,3.1,1.1c1.8,1.4,3.5,2.2,4.9,2.2c0.5,0,0.8,0,1-0.1c0.2-1.1-0.2-4-0.5-6.9l-0.1-0.6
	c-0.3-2.9-2.1-5.1-4.2-7.6c-3.1-3.8-6.8-8.4-5.5-16.2c1.2-6.9,6.8-10.7,15.7-10.7c3.3,0,5.9,0.5,6,0.6l2.2,0.5v9.9h-9.1
	c-0.2,0.7,0.1,2.4,0.6,3.8l6.5,12.8c0.3,0.5,0.5,1.1,0.7,1.6c2.9-7.3,8.7-8.3,9-8.3l0.2,0h15.6l-1.4,24.8c0.4,0,0.7-0.1,1-0.1
	l3-22.5h11.4l-2.7,23.1l0,0.1c-0.1,0.5-0.1,1.2,0,1.6c1,0,1.6-0.4,1.9-0.6l2.2-22.1l12.2,3.1l-0.5,2.6c-0.5,2.3-1,4.8-1.4,7.1
	c1.2-1.6,2.8-3,4.8-4.3c1.5-1,3-1.5,4.6-1.5c2.4,0,4.3,1.1,5.7,2.3l0.7-0.9l7.6,3.3l-0.2,2c-0.3,2.8-0.5,5.8-0.7,8.6
	c0.5-1.1,1.1-2,1.8-2.8c1.6-1.8,4-2.8,6.9-2.8c1.1,0,2.2,0.2,3.2,0.4l1.3-20.4l14.6,5.1L235.6,118.8z"/>
<path class="st5" d="M70.4,61.2V68c0,0-28.7,9.1-32.7,11.4v66l-6.2,2.9l-3.3-64.1l-15.7,9.4V79.4C12.6,79.4,49.5,63.8,70.4,61.2z"/>
<path class="st4" d="M147,100.6c-1.2-0.2-2.5-0.5-3.9-0.6c-1.1-0.2-2.2-0.3-3.4-0.4c-2-0.2-4.1-0.3-6.3-0.3c-0.6,0.1-1.3,0.2-2,0.2
	c-0.7,0-1.3,0-2-0.1c-4.3,0.2-8.6,0.6-13,1.2c-1.3,0.5-2.7,0.8-4.1,0.8c-0.3,0-0.7,0-1,0c-3.3,0.6-6.5,1.3-9.7,2
	c-0.5,0.2-1.1,0.3-1.7,0.4c-2.4,0.6-4.9,1.2-7.2,1.9c-0.6,0.2-1.3,0.4-1.9,0.5c-3.6,1-7,2.1-10.3,3.2c-1.1,0.4-2.2,0.7-3.2,1.1
	c-11.7,4-21.3,8-26.6,10.3c-2.5,1.1-4,1.8-4.3,2l-1.6,0.8v20.3l4.3-2.7c38.9-24.1,77.8-26.7,92.7-26.7c3,0,4.6,0.1,4.6,0.1l3,0.2
	v-13.8L147,100.6z M146.5,111.9c0,0-49.9-3.5-99,27v-13.5c0,0,19.2-9.1,42.7-15.9c0.2-0.1,0.4-0.1,0.6-0.2c3.2-0.9,6.5-1.8,9.8-2.6
	c0.5-0.1,0.9-0.2,1.4-0.3c3.2-0.8,6.5-1.4,9.7-2c0,0,0,0,0,0c1.8-0.3,3.6-0.6,5.4-0.9c0,0,0,0,0,0c4.2-0.6,8.3-1,12.3-1.2
	c0,0,0,0,0,0c1.4-0.1,2.8-0.1,4.1-0.1h0.1c4.5,0,8.8,0.4,12.8,1.2V111.9z"/>
<path class="st4" d="M229.3,68.4l-1.3,20.4c-1-0.2-2.1-0.4-3.2-0.4c-2.8,0-5.2,1-6.9,2.8c-0.7,0.8-1.3,1.8-1.8,2.8
	c0.2-2.8,0.4-5.8,0.7-8.6l0.2-2l-7.6-3.3l-0.7,0.9c-1.4-1.2-3.3-2.3-5.7-2.3c-1.6,0-3.2,0.5-4.6,1.5c-2,1.3-3.6,2.7-4.8,4.3
	c0.4-2.4,0.9-4.8,1.4-7.1l0.5-2.6l-12.2-3.1L181,93.6c-0.3,0.3-0.9,0.6-1.9,0.6c-0.1-0.4-0.1-1.1,0-1.6l0-0.1l2.7-23.1h-11.4
	l-3,22.5c-0.3,0.1-0.7,0.1-1,0.1l1.4-24.8h-15.6l-0.2,0c-0.3,0-6.1,1-9,8.3c-0.2-0.6-0.4-1.1-0.7-1.6l-6.5-12.8
	c-0.5-1.4-0.7-3.1-0.6-3.8h9.1v-9.9l-2.2-0.5c-0.1,0-2.7-0.6-6-0.6c-8.9,0-14.5,3.8-15.7,10.7c-1.3,7.8,2.4,12.5,5.5,16.2
	c2.1,2.6,3.8,4.8,4.2,7.6l0.1,0.6c0.3,2.9,0.7,5.8,0.5,6.9c-0.2,0-0.5,0.1-1,0.1c-1.4,0-3.2-0.8-4.9-2.2c-0.9-0.7-2-1.1-3.1-1.1
	c-1.7,0-3.3,0.8-4.2,2.3c-0.6,0.9-1.5,2-2.6,2.6c1-1.6,2.5-3.6,3.5-4.9c3.1-4.1,4.7-6.3,4.8-8.4c0.1-1.3,0.3-7.9-2.7-11.2
	c-1.2-1.2-2.6-1.9-4.3-1.9c-0.9,0-1.8,0.2-2.7,0.5c-6.4,2.5-11.2,12.4-12,24.6c0,0.2-0.2,0.4-0.4,0.4c-0.2,0-0.4-0.2-0.4-0.4V76.6
	c0-4.3-3.5-7.9-7.8-7.9c-1.2,0-2.3,0.3-3.4,0.8c-0.3,0.1-0.6,0.3-0.9,0.5c-0.7,0.4-1.2,0.7-1.7,1v-3.1l-13.4,5.8v24.5
	c0,0.1-0.1,0.2-0.2,0.2s-0.2-0.1-0.2-0.2V73l-1.1,0.4c-3.8,1.2-8.7,2.8-13.5,4.4v24.7c0,0.7-0.5,1.2-1.2,1.2c-0.6,0-1.1-0.5-1.2-1.1
	L55.3,80l-11.9,4.6v17.9l0.4,6.6c0.2,4.1,2.9,7.5,6.6,8.8c0.9,0.3,1.9,0.5,3,0.5h0.2c4.3,0,6.8-2.7,8-5.1c0-0.1,0.1-0.2,0.1-0.2
	c0.2,0,0.4,0,0.6-0.1c2.8-0.3,7.2-1,9.6-2.4c1.4-0.8,2.9-1.8,4.1-2.6c0.8-0.5,1.5-1,2-1.3h10V83.7c0.2-0.1,0.4-0.1,0.6-0.1h0.1v12.5
	c0,2.7,1.5,5.2,3.9,6.5c0.1,0.1,0.3,0.1,0.4,0.2c1.7,0.8,3.5,1.2,5.5,1.2c0.5,0,1,0,1.5-0.1c0.6-0.1,1.1-0.3,1.7-0.4
	c1.5-0.5,3-1.4,4.2-2.7c0.2-0.2,0.4-0.2,0.5-0.2c0.1,0,0.2,0,0.3,0.1c1.4,0.5,3,0.8,4.7,0.8c1.7-0.3,3.4-0.6,5.1-0.8
	c2.2-0.8,4.1-2.2,5.6-3.5c0.1,0,0.1-0.1,0.1-0.1c0.1,0,0.1,0.1,0.2,0.1c1.8,1,4.3,2,7.2,2.3c1.3-0.1,2.5-0.1,3.8-0.1h0.2
	c2.1-0.4,3.9-1.4,5.5-2.6c1.2-1,2.2-2.1,3-3.3c0.4,1.3,1,2.4,1.9,3.4c0.2,0.2,0.3,0.4,0.5,0.5c2,1.8,4.9,2.5,7.8,2.7
	c0.1,0,0.2,0,0.2,0v15.3h10.9l0.2-2.8v-10.2c0.2,0,0.4,0,0.6,0c0.1,0,0.3,0,0.4,0c0.9,0,1.7-0.1,2.4-0.2l-0.2,2.9l-0.4,7.6v4.1
	l2.5,0.2c0.4,0.1,43.7,4.5,60.4,15.7l4.4,2.9v-13.3h1.5l0.6-3.5l8.2-45.3L229.3,68.4z M140.8,88.7c0,0.3-0.1,0.7-0.2,1.1
	c-0.1,0.2-0.1,0.3-0.2,0.5c-0.1,0.2-0.2,0.4-0.3,0.7c-0.1,0.2-0.2,0.4-0.4,0.7c-0.4,0.7-1,1.4-1.6,2.1c-0.2,0.2-0.4,0.3-0.5,0.5
	c-0.5,0.4-1,0.8-1.6,1.2c-0.2,0.1-0.4,0.3-0.6,0.4c-0.2,0.1-0.4,0.2-0.6,0.3c-0.5,0.2-1,0.4-1.5,0.5h0c-0.6,0.1-1.1,0.2-1.8,0.2
	c-0.3,0-0.7,0-1,0c-0.3,0-0.6-0.1-0.9-0.1h-0.1c-0.4-0.1-0.8-0.1-1.2-0.2c-0.2-0.1-0.5-0.1-0.7-0.2c-0.7-0.2-1.4-0.4-2-0.7
	c-0.2-0.1-0.4-0.1-0.5-0.2c-0.8-0.3-1.4-0.7-1.9-1c-0.8-0.5-1.8-0.3-2.5,0.3c-0.2,0.2-0.5,0.5-0.9,0.7c-0.2,0.1-0.3,0.3-0.5,0.4
	c-0.3,0.3-0.7,0.5-1.1,0.8c-0.3,0.2-0.7,0.4-1,0.6c-0.2,0.1-0.5,0.3-0.7,0.4c-0.2,0.1-0.5,0.2-0.8,0.4h0c-0.1,0.1-0.3,0.1-0.4,0.2
	c-0.1,0.1-0.3,0.1-0.4,0.1c-0.1,0-0.2,0.1-0.2,0.1c-0.7,0.2-1.5,0.4-2.3,0.4c-0.4,0-0.7,0-1.1,0c-0.1,0-0.2,0-0.4,0
	c-0.1,0-0.2,0-0.3,0c-0.1,0-0.1,0-0.2,0c-0.2,0-0.4,0-0.5-0.1c-0.2,0-0.5-0.1-0.7-0.1c-0.2,0-0.3-0.1-0.5-0.1
	c-0.4-0.1-0.8-0.2-1.2-0.3c-1.3-0.4-2.8-0.1-3.7,0.8c-0.1,0.1-0.3,0.3-0.5,0.4c-0.1,0.1-0.2,0.2-0.4,0.3c-0.1,0.1-0.2,0.1-0.3,0.2
	c-0.1,0.1-0.3,0.2-0.4,0.3c-0.2,0.1-0.4,0.3-0.6,0.4c-0.3,0.2-0.7,0.3-1,0.4c0,0,0,0,0,0c-0.3,0.1-0.6,0.2-0.9,0.2c0,0-0.1,0-0.1,0
	c0,0-0.1,0-0.1,0c-0.3,0-0.7,0.1-1,0.1c-1.9,0-3.4-0.5-4.5-1.1c-1.5-0.8-2.4-2.3-2.4-4V82c-2.8-2.8-6.3,0-6.3,0v21.8H77
	c0,0-3.7,2.6-6.6,4.3c-2.9,1.7-10.8,2.2-10.8,2.2s-1.1,5.2-6.1,5.2h-0.1c-3.6-0.1-6.5-3-6.8-6.7l-1.4-22.1l7.4-2.8l0.8,18.7
	c0,1.1,0.5,2,1.2,2.7c0.7,0.7,1.7,1.1,2.8,1.1c2.2,0,4-1.8,4-4V79.8l9-3.1v21.7c0,0.8,0.3,1.6,0.9,2.1c0.5,0.5,1.3,0.9,2.1,0.9
	c1.7,0,3-1.3,3-3V75.6l7.7-3.4v3.2c0,0,0.1,0.5,6-2.9c0.2-0.2,0.5-0.3,0.7-0.4c3.3-1.6,7.1,0.9,7.1,4.6v12.3c0,0.9,0.4,1.7,1,2.3
	c0.6,0.6,1.4,0.9,2.3,0.9c1.7,0,3.1-1.3,3.2-3c0.8-11.2,5.1-20.1,10.2-22.1c5.6-2.2,6.1,6.3,5.9,9.7c-0.2,3.4-13.8,16.5-7.9,16.9
	c3.6,0.2,6-2.4,7.4-4.4c0.7-1.1,2.2-1.3,3.2-0.5c1.6,1.3,4,2.8,6.7,2.8c4.6,0,4.2-2,3.3-10.7c-1-8.7-11.6-11.8-9.7-23.1
	c2-11.3,18.3-7.8,18.3-7.8v4.8c0,0-1,0-6.1,0c-5.1,0-2.2,7.7-2.2,7.7l6.6,12.9c0.6,1.2,1,2.6,1,4C140.8,82.1,140.9,86.9,140.8,88.7z
	 M230.7,130.3c-17.5-11.6-61.7-16.1-61.7-16.1l0.5-9.1l0-0.8c5.4,1.1,11.7,2.8,18.1,4.6h0c1.6,0.4,3.1,0.9,4.7,1.4l0,0
	c3.3,1,6.6,2,9.8,3h0.1c0,0,0,0,0.1,0.1c3.9,1.2,7.6,2.5,11,3.6h0.1l0,0c4.1,1.4,7.8,2.6,10.6,3.6c1.9,0.7,3.5,1.2,4.6,1.6
	c1.3,0.4,2,0.7,2,0.7V130.3z M233,117.8l-0.3,1.6h-3.5c-0.6-0.2-1.4-0.5-2.2-0.8v-1.3c-4.7,1.3-8.4-2.8-10-5.1
	c-0.9-0.3-1.9-0.6-2.9-1c-5,0.8-7.4-1.3-8.4-2.7c-0.5-0.7-0.7-1.3-0.7-1.3c-0.7,0.2-1.4,0.3-2.1,0.4c-3.9,0.5-6.3-0.9-7.7-2.4
	c-1.4-1.4-1.8-2.9-1.8-2.9h-2.5c-1,0.5-1.9,0.7-2.7,0.9c-3,0.5-5.1-0.8-6.2-1.7c-0.5-0.5-0.8-0.8-0.8-0.8c-0.4,0.1-0.8,0.2-1.3,0.3
	c-5.6,1-9.5-1.6-10.5-2.5c-0.2-0.2-0.3-0.2-0.3-0.2c-0.1,0.1-0.1,0.1-0.2,0.2c-1,1-3.1,1.2-4.8,1.2c-1.9,0-3.5-0.3-3.5-0.3v13.3
	h-5.4V97.3c-11,0-11.8-3.5-10.8-14.8c1-11.4,8.1-12.4,8.1-12.4h12.4l-1.4,24.5c2,1,6.5-0.3,6.5-0.3l2.9-22h5.8l-2.3,19.8
	c0,0-1,5,2.6,5s4.8-2.4,4.8-2.4l2-19.6l6.4,1.6c0,0-4,19.7-3.2,20.3c0.9,0.7,4.2-0.3,4.2-0.3c-0.2-7.3,1.5-10.9,6.6-14.3
	c5.1-3.4,8.9,2.9,8.9,2.9l1.4-1.9l3.7,1.6c0,0-1.6,18.1-1.2,20.9c0.4,2.8,3.9,1.1,3.9,1.1s-0.2-10.2,3.3-14
	c3.5-3.8,10.6-0.5,10.6-0.5l1.3-20.2l8.8,3.1L233,117.8z"/>
<path class="st5" d="M240.6,75.4l-7.7,42.4l-0.3,1.6h-3.5c-0.6-0.2-1.4-0.5-2.2-0.8v-1.3c-4.7,1.3-8.4-2.8-10-5.1
	c-0.9-0.3-1.9-0.6-2.9-1c-5,0.8-7.4-1.3-8.4-2.7c-0.5-0.7-0.7-1.3-0.7-1.3c-0.7,0.2-1.4,0.3-2.1,0.4c-3.9,0.5-6.3-0.9-7.7-2.4
	c-1.4-1.4-1.8-2.9-1.8-2.9h-2.5c-1,0.5-1.9,0.7-2.7,0.9c-3,0.5-5.1-0.8-6.2-1.7c-0.5-0.5-0.8-0.8-0.8-0.8c-0.4,0.1-0.8,0.2-1.3,0.3
	c-5.6,1-9.5-1.6-10.5-2.5c-0.2-0.2-0.3-0.2-0.3-0.2c-0.1,0.1-0.1,0.1-0.2,0.2c-1,1-3.1,1.2-4.8,1.2c-1.9,0-3.5-0.3-3.5-0.3v13.3
	h-5.4V97.3c-11,0-11.8-3.5-10.8-14.8c1-11.4,8.1-12.4,8.1-12.4h12.4l-1.4,24.5c2,1,6.5-0.3,6.5-0.3l2.9-22h5.8l-2.3,19.8
	c0,0-1,5,2.6,5s4.8-2.4,4.8-2.4l2-19.6l6.4,1.6c0,0-4,19.7-3.2,20.3c0.9,0.7,4.2-0.3,4.2-0.3c-0.2-7.3,1.5-10.9,6.6-14.3
	c5.1-3.4,8.9,2.9,8.9,2.9l1.4-1.9l3.7,1.6c0,0-1.6,18.1-1.2,20.9c0.4,2.8,3.9,1.1,3.9,1.1s-0.2-10.2,3.3-14
	c3.5-3.8,10.6-0.5,10.6-0.5l1.3-20.2L240.6,75.4z"/>
<path class="st5" d="M133.3,62.4l6.6,12.9c0.6,1.2,1,2.6,1,4c0,2.8,0.1,7.6,0,9.4c0,0.3-0.1,0.7-0.2,1.1c-0.1,0.2-0.1,0.3-0.2,0.5
	c-0.1,0.2-0.2,0.4-0.3,0.7c-0.1,0.2-0.2,0.4-0.4,0.7c-0.4,0.7-1,1.4-1.6,2.1c-0.2,0.2-0.4,0.3-0.5,0.5c-0.5,0.4-1,0.8-1.6,1.2
	c-0.2,0.1-0.4,0.3-0.6,0.4c-0.2,0.1-0.4,0.2-0.6,0.3c-0.5,0.2-1,0.4-1.5,0.5h0c-0.6,0.1-1.1,0.2-1.8,0.2c-0.3,0-0.7,0-1,0
	c-0.3,0-0.6-0.1-0.9-0.1h-0.1c-0.4-0.1-0.8-0.1-1.2-0.2c-0.2-0.1-0.5-0.1-0.7-0.2c-0.7-0.2-1.4-0.4-2-0.7c-0.2-0.1-0.4-0.1-0.5-0.2
	c-0.8-0.3-1.4-0.7-1.9-1c-0.8-0.5-1.8-0.3-2.5,0.3c-0.2,0.2-0.5,0.5-0.9,0.7c-0.2,0.1-0.3,0.3-0.5,0.4c-0.3,0.3-0.7,0.5-1.1,0.8
	c-0.3,0.2-0.7,0.4-1,0.6c-0.2,0.1-0.5,0.3-0.7,0.4c-0.2,0.1-0.5,0.2-0.8,0.4h0c-0.1,0.1-0.3,0.1-0.4,0.2c-0.1,0.1-0.3,0.1-0.4,0.1
	c-0.1,0-0.2,0.1-0.2,0.1c-0.7,0.2-1.5,0.4-2.3,0.4c-0.4,0-0.7,0-1.1,0c-0.1,0-0.2,0-0.4,0c-0.1,0-0.2,0-0.3,0c-0.1,0-0.1,0-0.2,0
	c-0.2,0-0.4,0-0.5-0.1c-0.2,0-0.5-0.1-0.7-0.1c-0.2,0-0.3-0.1-0.5-0.1c-0.4-0.1-0.8-0.2-1.2-0.3c-1.3-0.4-2.8-0.1-3.7,0.8
	c-0.1,0.1-0.3,0.3-0.5,0.4c-0.1,0.1-0.2,0.2-0.4,0.3c-0.1,0.1-0.2,0.1-0.3,0.2c-0.1,0.1-0.3,0.2-0.4,0.3c-0.2,0.1-0.4,0.3-0.6,0.4
	c-0.3,0.2-0.7,0.3-1,0.4c0,0,0,0,0,0c-0.3,0.1-0.6,0.2-0.9,0.2c0,0-0.1,0-0.1,0c0,0-0.1,0-0.1,0c-0.3,0-0.7,0.1-1,0.1
	c-1.9,0-3.4-0.5-4.5-1.1c-1.5-0.8-2.4-2.3-2.4-4V82c-2.8-2.8-6.3,0-6.3,0v21.8H77c0,0-3.7,2.6-6.6,4.3c-2.9,1.7-10.8,2.2-10.8,2.2
	s-1.1,5.2-6.1,5.2h-0.1c-3.6-0.1-6.5-3-6.8-6.7l-1.4-22.1l7.4-2.8l0.8,18.7c0,1.1,0.5,2,1.2,2.7c0.7,0.7,1.7,1.1,2.8,1.1
	c2.2,0,4-1.8,4-4V79.8l9-3.1v21.7c0,0.8,0.3,1.6,0.9,2.1c0.5,0.5,1.3,0.9,2.1,0.9c1.7,0,3-1.3,3-3V75.6l7.7-3.4v3.2
	c0,0,0.1,0.5,6-2.9c0.2-0.2,0.5-0.3,0.7-0.4c3.3-1.6,7.1,0.9,7.1,4.6v12.3c0,0.9,0.4,1.7,1,2.3c0.6,0.6,1.4,0.9,2.3,0.9
	c1.7,0,3.1-1.3,3.2-3c0.8-11.2,5.1-20.1,10.2-22.1c5.6-2.2,6.1,6.3,5.9,9.7c-0.2,3.4-13.8,16.5-7.9,16.9c3.6,0.2,6-2.4,7.4-4.4
	c0.7-1.1,2.2-1.3,3.2-0.5c1.6,1.3,4,2.8,6.7,2.8c4.6,0,4.2-2,3.3-10.7c-1-8.7-11.6-11.8-9.7-23.1c2-11.3,18.3-7.8,18.3-7.8v4.8
	c0,0-1,0-6.1,0C130.4,54.6,133.3,62.4,133.3,62.4z"/>
<path class="st3" d="M240.6,75.4l-7.7,42.4l-0.3,1.6h-3.5c-0.6-0.2-1.4-0.5-2.2-0.8v-1.3c-4.7,1.3-8.4-2.8-10-5.1
	c-0.6-0.8-0.9-1.4-0.9-1.4c-0.7,0.2-1.4,0.3-2,0.4c-5,0.8-7.4-1.3-8.4-2.7c-0.5-0.7-0.7-1.3-0.7-1.3c-0.7,0.2-1.4,0.3-2.1,0.4
	c-3.9,0.5-6.3-0.9-7.7-2.4c-1.4-1.4-1.8-2.9-1.8-2.9h-2.5c-1,0.5-1.9,0.7-2.7,0.9c-3,0.5-5.1-0.8-6.2-1.7c-0.5-0.5-0.8-0.8-0.8-0.8
	c-0.4,0.1-0.8,0.2-1.3,0.3c-5.6,1-9.5-1.6-10.5-2.5c-0.2-0.2-0.3-0.2-0.3-0.2c-0.1,0.1-0.1,0.1-0.2,0.2c-1,1-3.1,1.2-4.8,1.2
	c-1.9,0-3.5-0.3-3.5-0.3v13.3h-5.4V97.3c-11,0-11.8-3.5-10.8-14.8c1-11.4,8.1-12.4,8.1-12.4h12.4l-1.4,24.5c2,1,6.5-0.3,6.5-0.3
	l2.9-22h5.8l-2.3,19.8c0,0-1,5,2.6,5s4.8-2.4,4.8-2.4l2-19.6l6.4,1.6c0,0-4,19.7-3.2,20.3c0.9,0.7,4.2-0.3,4.2-0.3
	c-0.2-7.3,1.5-10.9,6.6-14.3c5.1-3.4,8.9,2.9,8.9,2.9l1.4-1.9l3.7,1.6c0,0-1.6,18.1-1.2,20.9c0.4,2.8,3.9,1.1,3.9,1.1
	s-0.2-10.2,3.3-14c3.5-3.8,10.6-0.5,10.6-0.5l1.3-20.2L240.6,75.4z"/>
<path class="st3" d="M213.4,116.9L213.4,116.9C213.4,117,213.4,117,213.4,116.9L213.4,116.9z M202.3,113.3h-0.1
	C202.2,113.3,202.3,113.3,202.3,113.3C202.4,113.3,202.3,113.3,202.3,113.3z"/>
<path class="st3" d="M213.4,116.9L213.4,116.9C213.4,117,213.4,117,213.4,116.9L213.4,116.9z M202.3,113.3h-0.1
	C202.2,113.3,202.3,113.3,202.3,113.3C202.4,113.3,202.3,113.3,202.3,113.3z"/>
<path class="st5" d="M230.7,123v7.3c-17.5-11.6-61.7-16.1-61.7-16.1l0.5-9.1l0-0.8c5.4,1.1,11.7,2.8,18.1,4.6h0
	c1.6,0.4,3.1,0.9,4.7,1.4l0,0c3.3,1,6.6,2,9.8,3c0.1,0,0.1,0,0.2,0.1c3.9,1.2,7.6,2.5,11,3.6c0,0,0.1,0,0.1,0
	c4.1,1.4,7.8,2.6,10.6,3.6c1.9,0.7,3.5,1.2,4.6,1.6C230,122.7,230.7,123,230.7,123z"/>
<ellipse transform="matrix(0.9062 0.4228 -0.4228 0.9062 43.4017 -41.1035)" class="st4" cx="114.4" cy="77.3" rx="1.8" ry="4.2"/>
<ellipse transform="matrix(0.9966 8.214667e-02 -8.214667e-02 0.9966 9.4041 -18.2081)" class="st4" cx="226" cy="105.2" rx="3.4" ry="6.3"/>
<ellipse transform="matrix(0.9965 8.400758e-02 -8.400758e-02 0.9965 9.6349 -18.6123)" class="st6" cx="226" cy="105.2" rx="0.7" ry="2.5"/>
<ellipse transform="matrix(0.9936 0.1125 -0.1125 0.9936 11.9506 -22.2046)" class="st4" cx="202.7" cy="94.7" rx="4.2" ry="7.9"/>
<ellipse transform="matrix(0.9936 0.1126 -0.1126 0.9936 11.9538 -22.21)" class="st6" cx="202.7" cy="94.7" rx="1.2" ry="4.9"/>
<path class="st4" d="M157.8,75.5v15.8c0,0-7,1.4-7-3.7C150.7,82.5,152.9,75.1,157.8,75.5z"/>
<path class="st6" d="M155.2,81.3v6.9c0,0-1.9,0.6-1.9-1.6S153.9,81.2,155.2,81.3z"/>
<g>
</g>
<g>
</g>
<g>
</g>
<g>
</g>
<g>
</g>
<g>
</g>
</svg>
