<?xml version="1.0" encoding="utf-8"?>
<!-- Generator: Adobe Illustrator 18.1.1, SVG Export Plug-In . SVG Version: 6.00 Build 0)  -->
<!DOCTYPE svg PUBLIC "-//W3C//DTD SVG 1.1//EN" "http://www.w3.org/Graphics/SVG/1.1/DTD/svg11.dtd">
<svg version="1.1" id="Layer_1" xmlns="http://www.w3.org/2000/svg" xmlns:xlink="http://www.w3.org/1999/xlink" x="0px" y="0px"
	 viewBox="0 0 85 103.5" style="enable-background:new 0 0 85 103.5;" xml:space="preserve">
<style type="text/css">
	.st0{fill:none;stroke:#000000;stroke-width:0.3795;stroke-miterlimit:10;}
	.st1{fill:#27A8DE;stroke:#000000;stroke-width:0.3795;stroke-miterlimit:10;}
	.st2{fill:#6CB5E2;stroke:#000000;stroke-width:0.3795;stroke-miterlimit:10;}
	.st3{fill:none;stroke:#000000;stroke-width:0.3795;stroke-linecap:round;stroke-miterlimit:10;}
	.st4{fill:#FFFFFF;stroke:#000000;stroke-width:0.3795;stroke-miterlimit:10;}
	.st5{fill:#1C7DA6;stroke:#000000;stroke-width:0.3795;stroke-miterlimit:10;}
</style>
<path class="st0" d="M29.1,37.7c-1.9-0.3-2.7-1.9-2.9-3c-0.5-0.1-0.9-0.1-1.2-0.1c0.3,1.3,0.9,3.4,2.1,3.8c0.9,0.4,2-0.1,2.9-0.6
	C29.7,37.8,29.4,37.8,29.1,37.7z M50.8,43.1c-1.1-0.7-2.3-1.4-3.5-2c-1.1-0.6-2.2-1.1-3.3-1.6c-0.4-0.2-0.8-0.4-1.3-0.5
	c-0.3-0.1-0.7-0.3-1-0.4c0.1,1.2,0.4,4,2.3,5.6c2.1,1.9,6.5,0.9,8-0.2C51.7,43.7,51.2,43.4,50.8,43.1z"/>
<path class="st1" d="M59.1,43.8c0,0,3-13,4.6-16.4c1-2.1,1-3.9,0.9-5c-0.1-0.7-0.2-1.1-0.2-1.1s-9.3-7.9-18.1-8.2
	c0,0-5.2-4.2-13.1-3.9c0,0-0.2,0.3-0.6,1C31,13,26.3,21,26.4,25.4c0,0-3.5,1.8-4.9,3.1C21.2,28.7,21,29,21,29.2
	c-0.3,1.2,0,4.6,0,4.6s-0.2,0-0.6-0.1c-0.4,0-0.9-0.1-1.5-0.1c-1.6,0-3.4,0.3-3.8,1.8c-0.7,2.7,4.5,11.2,4.5,11.2s-1.2,2.9-2.8,6.1
	c-1.3,2.7-2.9,5.6-4,6.9c-2.4,2.8-2,6.9,2,10.9c1.8,1.8,4.1,4.1,7.3,6c3.9,2.3,9.2,3.9,16.1,2.4c12.4-2.6,13.5-14.6,13.5-14.6
	s0-0.1,0.1-0.4c0-0.2,0.1-0.5,0.2-0.8c0.3-1.1,0.7-2.8,1.1-4.5c0.2,0,0.4,0,0.6-0.1c5.5-0.8,5.5-4.2,5.1-4.5
	c-0.4-0.3-1.3-1.6-0.6-2.2c0.6-0.6,2.4-2.3,2.4-3.8c3-2.1,7.3-3.9,13.7-3.3C74.1,44.8,68.9,41.2,59.1,43.8z M26.2,34.7
	c0.5,0.1,1.1,0.1,1.7,0.2c0.7,0.1,1.5,0.2,2.4,0.4c0.9,0.2,1.9,0.4,3,0.6c0.4,0.1,0.9,0.2,1.3,0.3c-0.9,0.5-2.7,1.5-4.6,1.5
	c-0.9,0.5-2,1-2.9,0.6c-1.2-0.5-1.8-2.6-2.1-3.8C25.3,34.6,25.7,34.6,26.2,34.7z M33,46.7c-0.1,1-0.4,2.8-1,3.4
	c-0.5,0.5-1.2,0.4-1.7,0.3c0,0.2,0,0.3,0,0.4c-0.1,1.1-1.2,1.4-3.1,1.4c-1.9,0.1-1.1-7-1.1-7C25.3,45.1,24.5,45,24,45
	c0.1,0,1.1-0.2,2.4-0.3c0.7-0.1,1.4-0.1,2.2-0.1c0.1,0,0.2,0,0.3,0c0.8,0,1.6,0.2,2.3,0.4c0.5,0.2,1.1,0.4,1.6,0.6h0
	c2,0.6,3.9,1.2,5,2.8C36.2,47.7,34.6,47.1,33,46.7z M44.1,44.2c-1.8-1.6-2.2-4.4-2.3-5.6c0.3,0.1,0.7,0.3,1,0.4
	c0.4,0.2,0.8,0.3,1.3,0.5c1.1,0.5,2.2,1,3.3,1.6c1.2,0.6,2.3,1.3,3.5,2c0.4,0.3,0.8,0.6,1.2,0.9C50.6,45.1,46.2,46,44.1,44.2z"/>
<path class="st0" d="M33,46.7c-0.1,1-0.4,2.8-1,3.4c-0.5,0.5-1.2,0.4-1.7,0.3c-0.1-1.1-0.6-3.4-0.9-4.6C30.5,46,31.7,46.3,33,46.7z"
	/>
<path class="st0" d="M54.3,45.3c0,0,5.4,0.7,6,2.3c0.1,0.2,0.1,0.4,0.1,0.6"/>
<path class="st1" d="M39.2,100l-12.8-1.5c-2.6-0.3-4.6-2.5-4.7-5.1c-0.1-5.1,0.2-12.9,0.3-16.8c3.9,2.3,9.2,3.9,16.1,2.4
	c12.4-2.6,13.5-14.6,13.5-14.6s0-0.1,0.1-0.4c0-0.2,0.1-0.5,0.2-0.8c0.1,0.4,0.1,0.7,0.1,1.2c0.6,6.3-1.2,19.1-2.5,27.8
	C48.6,97.1,44.1,100.6,39.2,100z"/>
<path class="st2" d="M76.7,48.6c-0.8,0.3-2.1,1.7-3.5,4.6c-1.5,2.8-9.5,6.8-11.1,7c-1.6,0.2-2.2,3.3-1.7,5.6
	c0.5,2.3-1.2,3.3-3.3,2.8c-1.2-0.3-3.4-2.3-5.2-4.1c0-0.4-0.1-0.8-0.1-1.2c0.3-1.1,0.7-2.8,1.1-4.5c0.2,0,0.4,0,0.6-0.1
	c5.5-0.8,5.5-4.2,5.1-4.5c-0.4-0.3-1.3-1.6-0.6-2.2c0.6-0.6,2.4-2.3,2.4-3.8c3-2.1,7.3-3.9,13.7-3.3c0,0,1.1,0.9,2.3,1.5
	C77.5,46.9,77.5,48.3,76.7,48.6z"/>
<path class="st1" d="M21.5,28.5L21.5,28.5C21.2,28.7,21,29,21,29.2c-0.3,1.2,0,4.6,0,4.6s-0.2,0-0.6-0.1c-0.4,0-0.9-0.1-1.5-0.1
	c-0.1-1.9-0.7-4.5-2.4-7.4C15,24,15,21.8,15.2,20.6c0.1-0.7,0.2-1.1,0.2-1.1c0.1,0.9,2.1,3.5,3,4.5C19.4,25,21.5,28.5,21.5,28.5z"/>
<path class="st2" d="M19.5,46.7c0,0-1.2,2.9-2.8,6.1c-1.6,0.7-3.9,1.6-4.9,1.5c-1.6-0.1-3.7-0.4-3.2-3.7c0.4-3.4,3.4-4.6,3-7
	C11.2,41,9.5,35,9.5,35s-3.7-8.1,5.7-14.4C15,21.8,15,24,16.4,26.3c1.7,2.8,2.3,5.5,2.4,7.4c-1.6,0-3.4,0.3-3.8,1.8
	C14.3,38.1,19.5,46.7,19.5,46.7z"/>
<path class="st3" d="M15.6,48.8c0,0,2.5-1.5,3.3-3"/>
<path class="st3" d="M14.7,32.8c0,0,0.9,0.2,1.4,1.3"/>
<path class="st3" d="M15.1,29.4c0,0,2.1,2.4,2.4,4.4"/>
<path class="st3" d="M60.4,51.9c0,0,4.1-1.2,7.4,0.6"/>
<path class="st3" d="M59.5,51.3c0,0-2.8-1.6,10.8-2.4"/>
<path class="st3" d="M26.7,61.7c0,0,0.4,3.4,3.5,4.9"/>
<path class="st3" d="M25.4,57.7c0,0,3.9,8.6,13.9,8.8"/>
<path class="st3" d="M39.3,19.5c0,0,2.8,5.2,8.5,7.6"/>
<path class="st3" d="M34,22.2c0,0,7,5.9,16.6,7.5"/>
<path class="st3" d="M30.3,25.8c0,0,12.8,1.9,20.7,9.1"/>
<path class="st3" d="M37.7,48.3c0.1,0,0.2,0.1,0.3,0.1c6.7,3.1,10.3,4.7,13.3,3.1c3-1.6,4-3.5,4-3.5"/>
<path class="st3" d="M24,45C24,45,24,45,24,45C24,45,24,45,24,45c-0.8-0.1-1.2-0.1-1.2-0.1V38"/>
<path class="st3" d="M53.5,47.2c0,0,1.7-0.1,3.4,2.4"/>
<path class="st3" d="M18.3,37.1c0,0,4.9,0.5,6.3,1.8"/>
<polyline class="st3" points="24,45 24,45 24,45 "/>
<path class="st4" d="M30.3,50.7c-0.1,1.1-1.2,1.4-3.1,1.4c-1.9,0.1-1.1-7-1.1-7c0.7,0.1,1.6,0.2,2.5,0.4c0.3,0,0.5,0.1,0.8,0.2
	c0.3,1.1,0.8,3.4,0.9,4.6C30.3,50.5,30.3,50.6,30.3,50.7z"/>
<path class="st5" d="M37.7,48.3c-1.5-0.7-3.2-1.2-4.7-1.7c-1.3-0.4-2.5-0.6-3.6-0.9c-0.3-0.1-0.5-0.1-0.8-0.2
	c-0.9-0.2-1.7-0.3-2.5-0.4C25.3,45.1,24.5,45,24,45c0.1,0,1.1-0.2,2.4-0.3c0.7-0.1,1.4-0.1,2.2-0.1c0.1,0,0.2,0,0.3,0
	c0.8,0,1.6,0.2,2.3,0.4c0.5,0.2,1.1,0.4,1.6,0.6h0C34.8,46.2,36.7,46.7,37.7,48.3z"/>
<path class="st4" d="M33,46.7c-0.1,1-0.4,2.8-1,3.4c-0.5,0.5-1.2,0.4-1.7,0.3c-0.1-1.1-0.6-3.4-0.9-4.6C30.5,46,31.7,46.3,33,46.7z"
	/>
<path class="st3" d="M37.7,32.9c0,0-1.2,1-1.1,2.6"/>
<path class="st3" d="M39.9,31.9c0,0-2.3,1.6-1.7,5.2"/>
<path class="st3" d="M32.4,41.3c0,0,1.7,3.3,3.3,2.6c1.6-0.8,4.3-3,4.7-1.8"/>
<path class="st2" d="M30,37.8c-0.9,0.5-2,1-2.9,0.6c-1.2-0.5-1.8-2.6-2.1-3.8c0.3,0,0.7,0.1,1.2,0.1c0.2,1.1,1,2.7,2.9,3
	C29.4,37.8,29.7,37.8,30,37.8z"/>
<path class="st2" d="M52.1,44c-1.5,1.1-5.8,2.1-8,0.2c-1.8-1.6-2.2-4.4-2.3-5.6c0.3,0.1,0.7,0.3,1,0.4c0.4,0.2,0.8,0.3,1.3,0.5
	c1.1,0.5,2.2,1,3.3,1.6c1.2,0.6,2.3,1.3,3.5,2C51.2,43.4,51.7,43.7,52.1,44z"/>
<path class="st4" d="M34.6,36.3c-0.9,0.5-2.7,1.5-4.6,1.5c-0.3,0-0.6,0-0.9-0.1c-1.9-0.3-2.7-1.9-2.9-3c0.5,0.1,1.1,0.1,1.7,0.2
	c0.7,0.1,1.5,0.2,2.4,0.4c0.9,0.2,1.9,0.4,3,0.6C33.7,36.1,34.2,36.2,34.6,36.3z"/>
<path class="st3" d="M41.8,38.6c-2.5-1-5-1.7-7.2-2.3"/>
<path class="st3" d="M52.7,44.4c-0.2-0.2-0.4-0.3-0.6-0.5"/>
<path class="st3" d="M24,34.5c0,0,0.4,0,1,0.1"/>
<path d="M33.3,36c-0.2,0.5-0.6,1-1.5,1.1c-1.3,0.2-1.5-1-1.4-1.7C31.3,35.5,32.2,35.7,33.3,36z"/>
<path class="st3" d="M31.8,42c0,0-2.2-0.9-0.6-2.7c1.6-1.8,3.4-0.8,3.4-0.8s-1.2,0.5-1.1,1"/>
<path class="st3" d="M38.2,40.9c0,0,2.1-2.4,2.8-1c0.7,1.4,0.5,4.6-0.4,4.3s-1.4-1-1.4-1"/>
<path class="st3" d="M37.2,3.2c0.1,0,0.2,0.1,0.3,0.1C37.3,3.3,37.2,3.2,37.2,3.2z"/>
<path class="st5" d="M65.2,20.1c0,0,1.2,2.4,1.3,3.3c0,0-0.9-0.5-1.8-0.9c-0.1-0.7-0.2-1.1-0.2-1.1s-9.3-7.9-18.1-8.2
	c0,0-5.2-4.2-13.1-3.9c0,0-0.2,0.3-0.6,1C31.5,10,29.9,9.6,30.3,9c0.7-0.9,2.3-1,2.3-1l-2-0.7c0,0,0.7-1,1.8-0.9
	c1,0.1-1.5-1.2-1.5-1.2s3.9-0.2,4.8,0.3c0,0-0.3-1.1-0.8-1.1c-0.5,0,2.3,0,2.8,0.3c0,0,0.4-1.1-0.2-1.5c1,0.3,4.1,1.5,4.6,2.4
	c0,0,0-1,0.2-1.3c0,0,2.5,2.1,2.8,2.8l-1-3.7c0,0,2.4,0.9,3.7,4.3l0.9-3.2c0,0,0.7,1,0.8,3.6c0,0,1.3-2.3,1.9-2.6l-1,4.8
	c0,0,3.2-3.4,4.4-3.6l-1.8,3.6L59,9.7c0,0-0.2,0.7-1.4,1.2c0,0,2.6,0.3,2.8,0.7l-4.1,1.9c0,0,6.2,0.7,7.5,1.6l-2.1,0.6
	c0,0,5.3,3,5.2,5L65.2,20.1z"/>
<path class="st4" d="M50.8,43.1c-0.7,0.7-1.9,1.2-4.3,0.5c-3.7-1.1-3.8-3.5-3.7-4.6c0.4,0.2,0.8,0.3,1.3,0.5c1.1,0.5,2.2,1,3.3,1.6
	C48.5,41.7,49.7,42.4,50.8,43.1z"/>
<path d="M47.3,41.1c-0.5,0.6-1.2,1.1-2.2,0.8c-1.3-0.4-1.3-1.6-1.1-2.4C45.2,40,46.3,40.5,47.3,41.1z"/>
<g>
</g>
<g>
</g>
<g>
</g>
<g>
</g>
<g>
</g>
<g>
</g>
</svg>
