<?xml version="1.0" encoding="utf-8"?>
<!-- Generator: Adobe Illustrator 18.1.1, SVG Export Plug-In . SVG Version: 6.00 Build 0)  -->
<!DOCTYPE svg PUBLIC "-//W3C//DTD SVG 1.1//EN" "http://www.w3.org/Graphics/SVG/1.1/DTD/svg11.dtd">
<svg version="1.1" id="Layer_1" xmlns="http://www.w3.org/2000/svg" xmlns:xlink="http://www.w3.org/1999/xlink" x="0px" y="0px"
	 viewBox="0 0 133.3 187.7" style="enable-background:new 0 0 133.3 187.7;" xml:space="preserve">
<style type="text/css">
	.st0{fill:#1C7DA6;}
	.st1{fill:#27A8DE;stroke:#000000;stroke-miterlimit:10;}
	.st2{fill:none;stroke:#000000;stroke-linecap:round;stroke-miterlimit:10;}
	.st3{fill:#FFFFFF;stroke:#000000;stroke-miterlimit:10;}
	.st4{fill:none;stroke:#000000;stroke-miterlimit:10;}
	.st5{fill:#6CB5E2;}
</style>
<g>
	<path class="st0" d="M70,30.6c-1.2,2.3-3.8,13.3-5,18.4c-0.7-0.4-1.5-0.7-2.2-0.9c1-3.5,2.9-10.3,5-16.1c2.9-8.2,2.3-9.1,2.8-11.6
		s-2.9-3.5-6.9-1.4s-6.9-0.6-9.6-3.6c-2.8-3-8.1,0.5-10.4,1.5s-6.2,5.8-5.6,8.9s-1.8,5.4-1.8,5.4s-7.4,2.4-4.6-5.9
		s9.2-10.9,16.2-12.6c7-1.8,9.9,3.6,12.4,4.2c2.5,0.6,6.8-2.5,10.9,0S71.7,27.6,70,30.6z"/>
	<path class="st0" d="M58.3,47.4c-0.6,0-1.2,0.1-1.9,0.2c-0.4-0.7-0.7-1.6-0.8-2.4c-0.3-2.5-0.6-3.4-3.6-3.2c-3,0.1-2.4-0.1-5.6-4.4
		c-3.2-4.3-6-1.4-11,1.4s-6,22-6,22s1.1,10.6-2.1,11c-3.2,0.4-3.1-5.2-2.2-14.6c0.9-9.3,7.1-18.1,11.1-22.4c4-4.3,12.2-0.2,12.9,2.8
		c0.6,2.9,2.9,2.6,5.5,2.5c2.6-0.1,3.1,4.8,2.9,5.5C57.3,46.1,57.8,46.8,58.3,47.4z"/>
	<path class="st1" d="M100.8,68.1c-3.3-3.6-8.8-8.5-14.6-9.2c-9.2-1.1-10.7,7.5-10.7,7.5L75.4,68C71,60.2,61.9,57.6,61.9,57.6
		c-14.6-2.6-23,13.4-23.8,29.9c-0.1,2.4-0.1,4.6,0,6.6c-2.1-0.6-4.8-3.2-3.4-13c2.1-15.1,9.6-27,18.4-32.1c1.1-0.7,2.2-1.1,3.3-1.3
		c0.6-0.2,1.2-0.2,1.9-0.2c1.5-0.1,3,0.2,4.4,0.6c0.8,0.2,1.5,0.6,2.2,0.9c3.4,1.7,5.9,4.2,6.8,4.8c1.8,1.1,4.6-3.5,4.6-3.5
		c0.6-0.8,1.3-1.4,2-1.8c6.4-3.9,15.6,7.1,19.7,9.9C101.8,60.9,101.1,66.4,100.8,68.1z"/>
	<path class="st1" d="M114.4,104c0,5.3-7.6,10.4-7.6,10.4s0,13.2,0,19c0,5.8-8.1,10-16.7,13.6c-5.5,2.3-7.7,7.2-8.6,10.5
		c-0.5,1.8-2.1,3.1-4,3.1h-4.7c-1.9,0-3.6-1.3-4-3.1c-2.1-8.9-10.2-10.6-16.6-12.9c-7.1-2.5-11.9-9.6-11.9-9.6L39,117.8
		c-1.1-0.5-2.6-3.1-3.5-5.1c-0.7-1.5-0.8-3.2-0.2-4.8l3.5-9.5c1.6,9.1,5.9,13.9,11.2,16.5c7.1,3.5,12.8,3.5,21.2-1.5
		c2.3-1.3,3.9-3.7,5-6.8c3.4,2.8,9.7,7.3,16,6.8c8.2-0.8,16.4-7,18.5-15.5C112.7,99.6,114.4,101.7,114.4,104z"/>
	<path class="st2" d="M75.2,56.7c0,0-1.2-1.8,3.2-8.3"/>
	<path class="st2" d="M77.8,61.6c0,0-1.7-4.6-6-8"/>
	<path class="st3" d="M111.1,95.1c-0.1,1-0.2,1.9-0.5,2.9c-2,8.5-10.3,14.7-18.5,15.5c-6.2,0.6-12.6-3.9-16-6.8
		c3-8.4,2.4-21.6,1.5-31.5c-0.3-2.8-1.1-5.2-2.2-7.2l0.1-1.6c0,0,1.4-8.6,10.7-7.5c5.8,0.7,11.3,5.6,14.6,9.2
		c1.9,2.1,3.1,3.7,3.1,3.7S111.7,85.2,111.1,95.1z"/>
	<path class="st3" d="M76.2,106.7c-1.1,3.1-2.7,5.5-5,6.8c-8.5,5-14.1,5-21.2,1.5c-5.3-2.6-9.6-7.4-11.2-16.5
		c-0.2-1.4-0.4-2.8-0.5-4.4c-0.1-2-0.2-4.2,0-6.6c0.8-16.4,9.1-32.5,23.8-29.9c0,0,9.1,2.5,13.5,10.3c1.1,2,2,4.4,2.2,7.2
		C78.6,85.1,79.2,98.3,76.2,106.7z"/>
	<path class="st2" d="M92.1,53.2c0,0-13.9,0.6-14.2,8.5"/>
	<path class="st2" d="M39,117.8c0,0,6.8,5.1,15,4.5s12.6,0.1,17.1-8.9"/>
	<path class="st4" d="M81.1,110.2c0,0,5.8,8.8,12.2,8.6s13.5-4.4,13.5-4.4"/>
	<path d="M73.5,121.3c0,0-3.6,5.8-3.7,7.6c-0.1,1.8,1.6-0.5,2.3-1.6C72.9,126.1,75.9,119.3,73.5,121.3z"/>
	<path d="M78.8,122.4c0,0-1.3,1.1,0,2.1s3.1,2.7,2.9,0.7S79.6,122.4,78.8,122.4z"/>
	<path d="M49.7,136.7c0,0,1.9-6.3,4.7-6.5s5.6,4.7,5.6,4.7s1.7-5.3,4.4-3.1s10.1,4.9,11.8,9.4c0,0,7.5-6.7,8-8.8s3.8-1.8,4.9-1
		s2.4,0.6,3-0.8s2.5-3,5.7,0.2c3.2,3.2,3.1,5.6,0,7.4s-0.2-1.7,0.4-2.4c0.5-0.6,0.5-3.8-2.1-4.9c-0.7-0.3-1.4-0.1-1.9,0.4
		c-0.8,0.9-2.2,2.3-3.2,2.2c-1.1-0.1-1.6-0.1-2.2-0.5c-0.4-0.3-1-0.1-1.3,0.3c-0.5,0.7-1.3,1.8-1.3,2.5c-0.1,1.1-7.6,11.6-8.9,10.9
		s-5.1-9.4-9.1-10.7c-3.7-1.2-5.4-1.9-7.7,1c-0.3,0.4-0.8,0.3-1.1-0.1c-1.1-1.9-3.9-6.1-5.1-5.2c-1.4,1.2-1.7,7.1-2.8,6.7
		S49.1,138.3,49.7,136.7z"/>
	<ellipse transform="matrix(0.9574 0.2887 -0.2887 0.9574 32.3406 -16.2249)" class="st5" cx="71.2" cy="101.5" rx="4.3" ry="6.2"/>
	<ellipse transform="matrix(0.9574 0.2887 -0.2887 0.9574 32.8568 -19.7243)" class="st5" cx="83.3" cy="101.5" rx="4.3" ry="6.2"/>
	<circle cx="71.5" cy="103.1" r="1.6"/>
	<circle cx="82.4" cy="103.1" r="1.6"/>
</g>
<g>
</g>
<g>
</g>
<g>
</g>
<g>
</g>
<g>
</g>
<g>
</g>
</svg>
