<svg xmlns="http://www.w3.org/2000/svg" viewBox="0 0 133.3 187.7" enable-background="new 0 0 133.3 187.7"><style type="text/css">.st0{fill:#1C7DA6;} .st1{fill:#27A8DE;stroke:#000000;stroke-miterlimit:10;} .st2{fill:none;stroke:#000000;stroke-linecap:round;stroke-miterlimit:10;} .st3{fill:#FFFFFF;stroke:#000000;stroke-miterlimit:10;} .st4{fill:none;stroke:#000000;stroke-miterlimit:10;} .st5{fill:#6CB5E2;}</style><path class="st0" d="M70 30.6c-1.2 2.3-3.8 13.3-5 18.4-.7-.4-1.5-.7-2.2-.9 1-3.5 2.9-10.3 5-16.1 2.9-8.2 2.3-9.1 2.8-11.6s-2.9-3.5-6.9-1.4-6.9-.6-9.6-3.6c-2.8-3-8.1.5-10.4 1.5s-6.2 5.8-5.6 8.9l-1.8 5.4s-7.4 2.4-4.6-5.9 9.2-10.9 16.2-12.6c7-1.8 9.9 3.6 12.4 4.2 2.5.6 6.8-2.5 10.9 0s.5 10.7-1.2 13.7zM58.3 47.4c-.6 0-1.2.1-1.9.2-.4-.7-.7-1.6-.8-2.4-.3-2.5-.6-3.4-3.6-3.2-3 .1-2.4-.1-5.6-4.4-3.2-4.3-6-1.4-11 1.4l-6 22s1.1 10.6-2.1 11c-3.2.4-3.1-5.2-2.2-14.6.9-9.3 7.1-18.1 11.1-22.4 4-4.3 12.2-.2 12.9 2.8.6 2.9 2.9 2.6 5.5 2.5 2.6-.1 3.1 4.8 2.9 5.5-.2.3.3 1 .8 1.6z"/><path class="st1" d="M100.8 68.1c-3.3-3.6-8.8-8.5-14.6-9.2-9.2-1.1-10.7 7.5-10.7 7.5l-.1 1.6c-4.4-7.8-13.5-10.4-13.5-10.4-14.6-2.6-23 13.4-23.8 29.9-.1 2.4-.1 4.6 0 6.6-2.1-.6-4.8-3.2-3.4-13 2.1-15.1 9.6-27 18.4-32.1 1.1-.7 2.2-1.1 3.3-1.3.6-.2 1.2-.2 1.9-.2 1.5-.1 3 .2 4.4.6.8.2 1.5.6 2.2.9 3.4 1.7 5.9 4.2 6.8 4.8 1.8 1.1 4.6-3.5 4.6-3.5.6-.8 1.3-1.4 2-1.8 6.4-3.9 15.6 7.1 19.7 9.9 3.8 2.5 3.1 8 2.8 9.7zM114.4 104c0 5.3-7.6 10.4-7.6 10.4v19c0 5.8-8.1 10-16.7 13.6-5.5 2.3-7.7 7.2-8.6 10.5-.5 1.8-2.1 3.1-4 3.1h-4.7c-1.9 0-3.6-1.3-4-3.1-2.1-8.9-10.2-10.6-16.6-12.9-7.1-2.5-11.9-9.6-11.9-9.6l-1.3-17.2c-1.1-.5-2.6-3.1-3.5-5.1-.7-1.5-.8-3.2-.2-4.8l3.5-9.5c1.6 9.1 5.9 13.9 11.2 16.5 7.1 3.5 12.8 3.5 21.2-1.5 2.3-1.3 3.9-3.7 5-6.8 3.4 2.8 9.7 7.3 16 6.8 8.2-.8 16.4-7 18.5-15.5 2 1.7 3.7 3.8 3.7 6.1z"/><path class="st2" d="M75.2 56.7s-1.2-1.8 3.2-8.3M77.8 61.6s-1.7-4.6-6-8"/><path class="st3" d="M111.1 95.1c-.1 1-.2 1.9-.5 2.9-2 8.5-10.3 14.7-18.5 15.5-6.2.6-12.6-3.9-16-6.8 3-8.4 2.4-21.6 1.5-31.5-.3-2.8-1.1-5.2-2.2-7.2l.1-1.6s1.4-8.6 10.7-7.5c5.8.7 11.3 5.6 14.6 9.2 1.9 2.1 3.1 3.7 3.1 3.7s7.8 13.4 7.2 23.3zM76.2 106.7c-1.1 3.1-2.7 5.5-5 6.8-8.5 5-14.1 5-21.2 1.5-5.3-2.6-9.6-7.4-11.2-16.5-.2-1.4-.4-2.8-.5-4.4-.1-2-.2-4.2 0-6.6.8-16.4 9.1-32.5 23.8-29.9 0 0 9.1 2.5 13.5 10.3 1.1 2 2 4.4 2.2 7.2.8 10 1.4 23.2-1.6 31.6z"/><path class="st2" d="M92.1 53.2s-13.9.6-14.2 8.5M39 117.8s6.8 5.1 15 4.5 12.6.1 17.1-8.9"/><path class="st4" d="M81.1 110.2s5.8 8.8 12.2 8.6l13.5-4.4"/><path d="M73.5 121.3s-3.6 5.8-3.7 7.6c-.1 1.8 1.6-.5 2.3-1.6.8-1.2 3.8-8 1.4-6zM78.8 122.4s-1.3 1.1 0 2.1 3.1 2.7 2.9.7-2.1-2.8-2.9-2.8zM49.7 136.7s1.9-6.3 4.7-6.5l5.6 4.7s1.7-5.3 4.4-3.1 10.1 4.9 11.8 9.4c0 0 7.5-6.7 8-8.8s3.8-1.8 4.9-1 2.4.6 3-.8 2.5-3 5.7.2 3.1 5.6 0 7.4-.2-1.7.4-2.4c.5-.6.5-3.8-2.1-4.9-.7-.3-1.4-.1-1.9.4-.8.9-2.2 2.3-3.2 2.2-1.1-.1-1.6-.1-2.2-.5-.4-.3-1-.1-1.3.3-.5.7-1.3 1.8-1.3 2.5-.1 1.1-7.6 11.6-8.9 10.9s-5.1-9.4-9.1-10.7c-3.7-1.2-5.4-1.9-7.7 1-.3.4-.8.3-1.1-.1-1.1-1.9-3.9-6.1-5.1-5.2-1.4 1.2-1.7 7.1-2.8 6.7s-2.4-.1-1.8-1.7z"/><ellipse transform="matrix(.957 .289 -.289 .957 32.341 -16.225)" class="st5" cx="71.2" cy="101.5" rx="4.3" ry="6.2"/><ellipse transform="matrix(.957 .289 -.289 .957 32.857 -19.724)" class="st5" cx="83.3" cy="101.5" rx="4.3" ry="6.2"/><circle cx="71.5" cy="103.1" r="1.6"/><circle cx="82.4" cy="103.1" r="1.6"/></svg>