<svg xmlns="http://www.w3.org/2000/svg" viewBox="0 0 133.3 187.7" enable-background="new 0 0 133.3 187.7"><style type="text/css">.st0{fill:#8E2D19;} .st1{fill:#C5422D;stroke:#000000;stroke-miterlimit:10;} .st2{fill:#C6632E;stroke:#000000;stroke-miterlimit:10;} .st3{fill:none;stroke:#000000;stroke-linecap:round;stroke-miterlimit:10;} .st4{fill:#FFFFFF;stroke:#000000;stroke-miterlimit:10;} .st5{fill:#FFFFFF;stroke:#000000;stroke-linecap:round;stroke-miterlimit:10;} .st6{fill:#F47920;}</style><path class="st0" d="M108.4 32.5c-.5 3.1-1 .8-2.8-1.8-1.8-2.6-3.8.8-10.9.6-7.2-.2-3.5-6.5-7.1-4-3.6 2.5-16.1 2.4-19 .8-2.4-1.3-12 15.9-15.6 22.4-.7-.3-1.3-.5-1.9-.6 2.9-7.4 13.7-20.6 14.8-22.3 1.2-1.9 3.5-2.5 4.5-1.1 1.1 1.4.3.8 6.5.9 6.2.2 8.2-3.7 12.2-6s8.3-.2 7.9 2.8c-.4 3.1 3.2 2.8 5.8 2 2.8-.8 6.1 3.2 5.6 6.3zM75 19.5s-5-7.7-10.8-8.2c-5.8-.5-17.9 17.1-20.1 18.8-2.2 1.7-2.2 3.5 0 3.4 2.2-.1 3.9.8 5.7 2.3 1.8 1.5-1.2 3.5-3.3 5.2s.1 2.2 1.5 2.8c1 .5 1.3 3.8 1.4 5.8h-.2c-.4 0-.9.1-1.4.3-.6-2.1-2.5-5.7-3.7-6.6-1.5-1.1.2-3.8 3.1-5.6 2.9-1.8-2.3-2.4-4.1-2.7s-3.5 1.2-3.2-3.5c.3-4.8 16.4-21.2 20.2-24.3 3.8-3.1 9.9-.9 10.3.6.4 1.5 2 3.5 3.2 4.1 1.2.6 2.3-.8 3.1 1 .7 1.9-1.7 6.6-1.7 6.6z"/><path class="st1" d="M117.1 128.3c-.3 1.4-.7 2.9-1.2 4.5-4.5 15.4-22.4 22.5-31.5 24.6-9.1 2.1-33.5 7.9-57.7-4.6-5.5-2.9-9.1-6.8-11.3-11.4-3.3-6.7-3.5-14.7-2.8-22.2 1-9.6 3.9-18.4 4.6-22.3 1.5-9 10.1-21.6 10.1-21.6 3.1-17.3 14.7-23.9 20.4-25.3.5-.1 1-.2 1.4-.3h.2c.5 0 1.1 0 1.7.2.6.1 1.2.3 1.9.6 5.3 2.1 12 7.8 12 7.8 16.8-20.9 32.1 9.5 32.1 9.5s.1.4.3 1.1c-6.2-5-13.3-6.5-18.8-8.6-5.7-2.2-9.8 5.7-11.8 10.9-12.9-17.8-26.2-6.4-26.2-6.4-10.5 8.5-17.3 40.2-1.8 48.5 9.5 5.1 18.3 2.8 23.7.2 3.7-1.8 6.6-4.9 8.3-8.7.5-1.1 1-2.4 1.4-3.8 10 9.5 17.4 9.3 24.5 7.9 6.7-1.3 13-10 11.6-20.9 5.2 4.4 5.2 9 4.9 11.2-.1.9 0 1.8.5 2.6 1.4 2.1 2.6 4.4 3.4 7.1 1.6 5.1 1.9 11.5.1 19.4z"/><path class="st2" d="M15.4 141.4c-3.3-6.7-3.5-14.7-2.8-22.2 3.9.7 8.7 2.7 9.8 8.2 1.3 6.6-2.8 11.5-7 14zM23.9 134.9s4.7-4.5 5.2-6.5 8.2-2.8 11 1.8c2.2 3.7-4 6.8-6.8 8-.9.4-1.8.5-2.7.5-2.7 0-7.9-.5-6.7-3.8zM117.1 128.3c-5.6-1.5-10.1-9.1-7.1-14.8 1.8-3.4 4.6-4.5 6.9-4.8 1.7 5.3 2 11.7.2 19.6z"/><path class="st3" d="M25.4 96.4s-1.2-15.3 2-21.1"/><path class="st4" d="M72.1 100.9c-.4 1.4-.9 2.7-1.4 3.8-1.7 3.8-4.6 6.9-8.3 8.7-5.3 2.6-14.1 5-23.7-.2-15.5-8.3-8.7-40 1.8-48.5 0 0 13.3-11.4 26.2 6.4l1 1.5c7.3 11 6.6 21.3 4.4 28.3z"/><path class="st5" d="M96.6 108.7c-7 1.4-14.4 1.6-24.5-7.9 2.2-7 2.9-17.3-4.4-28.3l-1-1.5c2-5.2 6.1-13 11.8-10.9 5.5 2.1 12.7 3.6 18.8 8.6 3.1 2.5 6 5.9 8.3 10.8 1.4 2.8 2.2 5.6 2.5 8.3 1.5 10.9-4.8 19.6-11.5 20.9z"/><path class="st3" d="M57 57.3c-.4 0-10.3-.9-12.9 5.3M60.1 54.5s1 4.3 4 5.4c3 1.1.6 5.6 4.1 7.9M75 51.1s-6 3-9.1 11.5M84.2 56s-7.1.3-10.1 4.6M28.4 110.8s5.5.9 7.5 3.8l8.7 1M72.6 107.2s-10.2 21.6-39 14.5M74.2 107.2s8.2 10 21 6.3l17.9-13"/><path d="M72.6 115.2s-3.2 5.5-.8 5.4 2.6-1.3 2.4-2.7.4-4.1-1.6-2.7zM77.8 114c0-.3.3-.5.7-.5 1 0 3 .3 3.5 1.7.7 1.8-.9 2-2 1.1-.9-.8-2.2-1.3-2.2-2.3zM42.2 140.7s1.3-.5 2.3.6l4.7-2.6s2.3 0 1.4 2.2c-.9 2.2-5.4 2.3-5.4 2.3s-2-1-2.5-.3c-.5.8-2-1.2-.5-2.2zM70.5 148.1s9.2-.6 11.7-3.8c2.4-3.2 6.5-8.4 6.9-6.7s-4.9 8.2-5.6 8.6c0 0-7 4.2-9.9 3.9-2.9-.3-3.1.8-4.1-.6-1-1.3 1-1.4 1-1.4zM45 133.6s4.2-7.1 7.4-6.2c3.2.8 5.9 7.2 6.2 6.9.3-.3 5.3-7.1 5.4-8.8.1-1.7 11.3 4.4 11.3 4.4s9.1-9 9.7-11.8 5.6 2.2 7.2 1.7c1.6-.5 5.1-2.4 5.2-1.2.1 1.2-5.1 2.8-5.1 2.8s-3.3-.2-4.8-1.5-2.2-.2-2.8 2.4c-.7 2.7-5.9 10.7-7.5 10.5-1.6-.1-11-6.5-11.9-4.4-.9 2.1-5.6 8.2-6.8 8.1-1.2-.1-5.2-7.5-6.2-7s-4.2 4.6-3.9 5.8c.3 1.2-1 4.5-3.4 3.5-2.4-1.1 0-5.2 0-5.2z"/><ellipse class="st6" cx="66.3" cy="94.2" rx="4.4" ry="4.6"/><ellipse class="st6" cx="80" cy="92.2" rx="4.4" ry="4.6"/><ellipse cx="79.6" cy="92.2" rx="1.2" ry="2.5"/><ellipse cx="67.2" cy="94.2" rx="1.2" ry="2.5"/></svg>