<?xml version="1.0" encoding="utf-8"?>
<!-- Generator: Adobe Illustrator 18.1.1, SVG Export Plug-In . SVG Version: 6.00 Build 0)  -->
<!DOCTYPE svg PUBLIC "-//W3C//DTD SVG 1.1//EN" "http://www.w3.org/Graphics/SVG/1.1/DTD/svg11.dtd">
<svg version="1.1" id="Layer_1" xmlns="http://www.w3.org/2000/svg" xmlns:xlink="http://www.w3.org/1999/xlink" x="0px" y="0px"
	 viewBox="0 0 85 103.5" style="enable-background:new 0 0 85 103.5;" xml:space="preserve">
<style type="text/css">
	.st0{fill:#C5422D;stroke:#000000;stroke-width:0.4367;stroke-miterlimit:10;}
	.st1{fill:none;stroke:#000000;stroke-width:0.4367;stroke-miterlimit:10;}
	.st2{fill:#C6632E;stroke:#000000;stroke-width:0.4367;stroke-miterlimit:10;}
	.st3{fill:#BE1E2D;stroke:#000000;stroke-width:0.4367;stroke-miterlimit:10;}
	.st4{fill:none;stroke:#000000;stroke-width:0.4367;stroke-linecap:round;stroke-miterlimit:10;}
	.st5{fill:#FFFFFF;stroke:#000000;stroke-width:0.4367;stroke-linecap:round;stroke-miterlimit:10;}
	.st6{fill:#8E2D19;stroke:#000000;stroke-width:0.4367;stroke-miterlimit:10;}
</style>
<path class="st0" d="M78.1,43.1c-1.9-0.9-5.4-0.4-5.4-0.4s0.5-1.7,1.5-3.6c0.9-1.9,0.3-5.4-3.4-6.7c-3.6-1.3-4.7,2.9-4.7,2.9
	C63,30.6,58.3,27,53.7,24.4c-3.6-2.1-7.2-3.5-10-4.4c-2-0.6-3.5-1-4.3-1c-3.2-0.1-7.7,6.3-7.7,6.3c-1.2,1.6-2.3,3.9-3.3,6.3
	c-0.9-1-2.1-2.1-3.6-3.3c-0.1-0.1-0.2-0.1-0.2-0.2c-5.2-4-17.1-2-17.1-2s8,2.3,11.9,5.4C8.8,38.7,3.1,47.2,3.1,47.2
	c-2.3,12.2,6,14,14.8,20.7c8.9,6.7,4.8,17.6,18.9,25.8c14.1,8.2,24,4.8,29.3,4.5c3.7-0.2,7-4.9,8.6-7.5c-0.4,0.1-0.8,0.2-1.2,0.3
	c-5.8,1.1-15.6-0.4-22.9-5c-7.3-4.7-7.9-12.2-8.4-15.6c-0.4-2.7-2.2-10.9-2.9-14c0.2-0.1,0.5-0.1,0.7-0.1c0.2,0,0.4-0.1,0.6-0.1
	c0.6,0,1.4,0,2.2,0c0,0,5,4.1,10.5,5.5v-0.1c0,0,5.8,0.1,7.5-1.5c1.7-1.7,6.3-3.5,8.2-2.8c2,0.7,2.2-1.3,2.2-1.3s-0.1-2.1,3.9-2.9
	c0,0,0.4,0.3,0.4,1.8c0.4,1.3,0.3,7.2-0.6,9.9c0.3,1.3,1.1,3,2.8,4.6c0-5,0-17.8,1.2-20.1C80.5,46.4,80,44,78.1,43.1z M52.6,31.9
	c0.7-0.1,2,0.7,2.9,1.4c-1.5,0.8-3,1.1-4,1.3C51.6,33.5,51.9,32,52.6,31.9z M52.4,51.9c-0.3,0-0.6,0-0.9,0c-1.8,2.5-5,0.2-6.3-0.4
	c-0.8-0.4-1.1-2.2-1.2-3.8c0.8,0,1.6,0,2.4,0c0.7,0,1.3,0.1,2,0.1c1.1,0.1,2.2,0.1,3.2,0.2c1.2,0.1,2.4,0.2,3.6,0.3
	c0.5,0.1,1,0.1,1.5,0.2C55.6,51.3,52.4,51.9,52.4,51.9z M70.4,45.1c-0.3,1.2-1.1,2-1.9,2.4c-1.2-0.7-2.9-0.8-2.9-0.8
	c0.2-0.4,0.5-0.9,0.9-1.5c0.5-0.7,1.2-1.5,1.8-2.3c0,0,0,0,0,0c0.4-0.5,0.8-0.9,1.2-1.4c0.2-0.2,0.4-0.5,0.6-0.7
	c0.7,1,1.5,2.4,1.4,3.1C71.5,44.5,70.9,44.9,70.4,45.1z"/>
<path class="st1" d="M70.2,40.8c-0.2,0.2-0.4,0.4-0.6,0.7c0.6,0.8,1.1,2,0.9,3.2c0,0.1,0,0.3-0.1,0.4c0.6-0.2,1.2-0.6,1.2-1.2
	C71.7,43.2,70.8,41.8,70.2,40.8z"/>
<path class="st1" d="M75.2,53.1c-4,0.8-3.9,2.9-3.9,2.9s-0.2,2-2.2,1.3c-2-0.7-6.6,1.1-8.2,2.8c-1.7,1.7-7.5,1.5-7.5,1.5v0.1
	c0.8,0.2,1.6,0.3,2.4,0.4c6.4,0.5,13.8-0.7,13.8-0.7s5.6-7.9,6.1-6.6C75.6,53.4,75.2,53.1,75.2,53.1z"/>
<path class="st2" d="M48.4,63.7c-2.2,0.6-3.9,1.7-4.8,2.4c-1.1-3.5-2.6-7.5-3.6-9.9c0.2,0,0.4-0.1,0.6-0.1
	C42.3,59.2,46.4,62.3,48.4,63.7z"/>
<path class="st3" d="M73.3,76.2C70,80.3,63.8,79,63.8,79l-1.6-1.5L60.7,79c-0.2-1.9-0.6-3.3-1.1-4.3c-0.7-1.5-1.4-2.2-1.4-2.2
	s-0.5,0.8-1.1,1.7c-1,1.3-2.3,2.9-3.1,2.7c-1-0.3-3.7-2.9-5.9-5.2h0c-0.7-0.7-1.4-1.5-1.9-2.1c-1.3-1.5-1.6-1.2-1.5-0.3
	c-0.2-0.3-0.4-0.6-0.4-0.9c-0.2-0.7-0.4-1.5-0.6-2.3c0.9-0.7,2.5-1.8,4.8-2.4c0.7,0.5,1.2,0.8,1.2,0.8c0.9,3.9,3.8,5.2,3.8,5.2
	c0.3-0.3,0.9-1,1.4-1.9c0,0,2,2.1,4.1,3.8c0.3,0.2,0.6,0.4,0.8,0.7c0,0,1.4-1.5,5.4-1.6C69.1,70.5,73.3,76.2,73.3,76.2z"/>
<path class="st2" d="M74.1,67.5c-0.8-0.6-1.4-0.7-1.4-0.7v1.4c-1.1-0.4-1.9-1.6-1.9-1.6c1.7-1.1,2.6-2.4,2.6-2.4c0,0,0,0,0,0
	c0,0.2,0.1,0.3,0.1,0.4C73.9,65.4,74.1,66.4,74.1,67.5z"/>
<path class="st0" d="M24.8,28.3c1.5,1.2,2.7,2.3,3.6,3.3c1-2.5,2.1-4.7,3.3-6.3C29.2,26.1,26.9,27.2,24.8,28.3z"/>
<path class="st1" d="M51.5,51.9c-1.8,2.5-5,0.2-6.3-0.4c-0.8-0.4-1.1-2.2-1.2-3.8c0.8,0,1.6,0,2.4,0C46.6,49.4,47.5,51.9,51.5,51.9z
	"/>
<path class="st1" d="M55.2,48.4c-0.6,0.7-1.4,1.5-2.4,1.6c-1,0-1.2-1.1-1.2-1.9C52.9,48.1,54.1,48.3,55.2,48.4z"/>
<path class="st0" d="M53.7,24.4c-3.6-2.1-7.2-3.5-10-4.4C43.3,15.6,43,6.9,46.8,2.8c0,0-1.2,7.2,1.2,10.7
	C49.9,16.6,53.4,20.2,53.7,24.4z"/>
<path class="st4" d="M23.6,46.7c0,0,1-4.3,2.7-9.3"/>
<path class="st4" d="M15.9,45.9c0,0,1.7-6.5,4.7-9.9"/>
<path class="st4" d="M38,46.7c0,0-1.5-9.6,6.8-8.4s13.9,4.2,13.9,4.2"/>
<path class="st4" d="M54.9,37.7c0,0,5.6-0.2,6.7-1.7"/>
<path class="st4" d="M65.2,38.2c0,0-0.8-1.2,1-2.9"/>
<path class="st4" d="M57.5,31.9c-0.6,0.6-1.3,1-2,1.4"/>
<path class="st4" d="M51.5,34.5c-0.8,0.1-1.3,0.1-1.3,0.1"/>
<path class="st4" d="M35.4,51.5c0,0-5.7,3.3-5.2,6.3c0.4,3.1,5,3.8,5.2,6.2c0.2,2.4,2.3,18,6.8,21.9C46.6,90,57.2,98.4,67.3,98"/>
<path class="st4" d="M29,65.1c0,0,3,6.7,7.9,8.4"/>
<path class="st4" d="M31.7,73.5c0,0,2.7,2.4,5.8,2.1"/>
<path class="st4" d="M63.8,41.4c0,0,1.5,1.7,0.7,4.5"/>
<path class="st4" d="M40.5,47.8c1-0.1,2.2-0.1,3.5-0.1"/>
<path class="st4" d="M61.6,40.3c0,0,3.3,2.2,0.8,9c0,0-2.3-0.3-5.7-0.7"/>
<path class="st4" d="M55.8,52.3c0,0,2-2,2.3-3.6"/>
<path class="st5" d="M56.7,48.5c-1.1,2.8-4.3,3.3-4.3,3.3c-0.3,0-0.6,0-0.9,0c-4,0-4.9-2.5-5-4.2c0.7,0,1.3,0.1,2,0.1
	c1.1,0.1,2.2,0.1,3.2,0.2c0,0.8,0.2,1.9,1.2,1.9c1,0,1.8-0.9,2.4-1.6C55.7,48.4,56.2,48.5,56.7,48.5z"/>
<path class="st4" d="M55.2,48.4c-0.6,0.7-1.4,1.5-2.4,1.6c-1,0-1.2-1.1-1.2-1.9C52.9,48.1,54.1,48.3,55.2,48.4z"/>
<path class="st6" d="M51.5,51.9c-1.8,2.5-5,0.2-6.3-0.4c-0.8-0.4-1.1-2.2-1.2-3.8c0.8,0,1.6,0,2.4,0C46.6,49.4,47.5,51.9,51.5,51.9z
	"/>
<path d="M55.2,48.4c-0.6,0.7-1.4,1.5-2.4,1.6c-1,0-1.2-1.1-1.2-1.9C52.9,48.1,54.1,48.3,55.2,48.4z"/>
<path class="st4" d="M38.3,49.9c0,0,5.1,0.1,7.6,2c2.6,1.9,4.4,1.9,4.4,1.9"/>
<path class="st4" d="M68.4,47.5c0.1,0.1,0.3,0.1,0.4,0.2c1.3,0.9,3.9,0.3,2.9,3.8l-1.2,0.3c0,0,0.4,2.7-1.6,2.9
	c-2.1,0.2-4.7-1.1-5.1,0.4"/>
<path class="st4" d="M70.2,40.8c1.1-1.2,1.9-2,1.9-2"/>
<path class="st5" d="M70.5,44.8c0,0.1,0,0.3-0.1,0.4c-0.3,1.2-1.1,2-1.9,2.4c-1.2-0.7-2.9-0.8-2.9-0.8c0.2-0.4,0.5-0.9,0.9-1.5
	c0.5-0.7,1.2-1.5,1.8-2.3c0,0,0,0,0,0c0.4-0.5,0.8-0.9,1.2-1.4C70.1,42.4,70.6,43.5,70.5,44.8z"/>
<path class="st6" d="M71.6,43.9c-0.1,0.6-0.7,1-1.2,1.2c0-0.1,0.1-0.2,0.1-0.4c0.2-1.3-0.3-2.4-0.9-3.2c0.2-0.2,0.4-0.5,0.6-0.7
	C70.8,41.8,71.7,43.2,71.6,43.9z"/>
<path d="M68.6,44.8c-0.3,0.5-1.3,0.6-2.1,0.5c0.5-0.7,1.2-1.5,1.8-2.3c0,0,0,0,0,0C68.6,43.5,68.8,44.3,68.6,44.8z"/>
<path class="st4" d="M64.2,55.8c0,0-2.4,1.4-2.1-4.3"/>
<path class="st4" d="M76.9,48c0,0-3-0.9-3.9,0s-0.4,1.6-1.2,1.8"/>
<path class="st6" d="M75.6,54.8c-0.5-1.4-6.1,6.6-6.1,6.6s-7.4,1.2-13.8,0.7c-0.8-0.1-1.6-0.2-2.4-0.4v-0.1c0,0,5.8,0.1,7.5-1.5
	c1.7-1.7,6.3-3.5,8.2-2.8c2,0.7,2.2-1.3,2.2-1.3s-0.1-2.1,3.9-2.9C75.2,53.1,75.6,53.4,75.6,54.8z"/>
<path class="st5" d="M75,64.7c-0.1,0.3-0.2,0.5-0.3,0.7c0,0-0.7,0.1-1.2-0.9c0-0.2-0.1-0.3-0.1-0.4c0,0,0,0,0,0c0,0-0.9,1.3-2.6,2.4
	c-0.6,0.4-1.3,0.8-2.1,1.1c-0.7,0.2-1.4,0.4-2.2,0.5c-2.5,0.2-5,0.3-6.9-0.2c-1.5-0.4-2.6-1.3-2.9-2.8c0,0-0.9,1.4-1.8,2.7
	c-0.6,0.8-1.2,1.6-1.4,1.9c0,0-2.9-1.2-3.8-5.2c0,0-0.4-0.3-1.2-0.8c-2-1.4-6.1-4.5-7.7-7.6c0.6,0,1.4,0,2.2,0c0,0,5,4.1,10.5,5.5
	c0.8,0.2,1.6,0.3,2.4,0.4c6.4,0.5,13.8-0.7,13.8-0.7s5.6-7.9,6.1-6.6C76,56.1,75.9,62,75,64.7z"/>
<path class="st4" d="M73.6,64.5c-0.1-0.1-0.1-0.3-0.1-0.4C73.5,64.2,73.5,64.4,73.6,64.5z"/>
<path class="st4" d="M42.9,56.2c0.7,0.1,1.4,0.1,2.3,0.3c6.6,1.2,11.1,2.9,12.7,0.9c1.5-2,4.3-8.7,7.3-6.7"/>
<path class="st4" d="M37.4,57.4c0,0,0.4-0.7,1.9-1"/>
<path class="st6" d="M82.8,80.5c-0.1,2-3,8.4-8,10.2c-0.4,0.1-0.8,0.2-1.2,0.3c-5.8,1.1-15.6-0.4-22.9-5c-7.3-4.7-7.9-12.2-8.4-15.6
	c-0.4-2.7-2.2-10.9-2.9-14c0.2-0.1,0.5-0.1,0.7-0.1c1,2.5,2.5,6.4,3.6,9.9c0.2,0.8,0.5,1.6,0.6,2.3c0.1,0.3,0.2,0.6,0.4,0.9
	c0,0.4,0.1,0.8,0.3,1.3c1,3.5,3.1,6.7,6,8.9c4,3.2,10,5.8,16.9,5.1c4.4-0.4,7.2-2.1,8.8-3.8c0,0,0,0,0,0c2.3-2.3,2.6-4.8,2.6-4.8
	c-0.4-0.6-0.9-1.1-1.4-1.5c-0.2-0.1-0.3-0.2-0.5-0.3l0.1-1.2c-0.9-3.1-2.4-4.7-3.5-5.6c0-1-0.2-2.1-0.5-3c0.4,1,1.2,0.9,1.2,0.9
	c0.1-0.2,0.2-0.4,0.3-0.7c0.3,1.3,1.1,3,2.8,4.6c0.3,0.3,0.7,0.6,1.1,0.9C83.8,73.9,83,78.4,82.8,80.5z"/>
<path class="st5" d="M79.3,76.1c0,0-0.4,2.5-2.6,4.8c0,0,0,0,0,0c-1.7,1.7-4.4,3.4-8.8,3.8C61,85.4,55,82.7,51,79.6
	c-2.9-2.3-5-5.4-6-8.9c-0.1-0.5-0.2-0.9-0.3-1.3c-0.1-0.9,0.2-1.2,1.5,0.3c0.5,0.6,1.2,1.3,1.9,2.1h0c2.2,2.3,4.9,4.9,5.9,5.2
	c0.8,0.3,2.1-1.3,3.1-2.7c0.7-0.9,1.1-1.7,1.1-1.7s0.7,0.7,1.4,2.2c0.4,1,0.9,2.4,1.1,4.3l1.4-1.5l1.6,1.5c0,0,6.3,1.3,9.5-2.9
	c0.1-0.1,0.2-0.3,0.3-0.4c0.4-0.6,0.8-1.4,1.1-2.2c0-0.1,0.1-0.3,0.1-0.5c0,0,0.3,0.1,0.8,0.3c0.5,0.2,1.2,0.5,1.8,0.9
	c0.2,0.1,0.3,0.2,0.5,0.3C78.5,75,79,75.5,79.3,76.1z"/>
<path class="st5" d="M77.6,73.1l-0.1,1.2c-0.7-0.4-1.3-0.7-1.8-0.9c-0.5-0.2-0.8-0.3-0.8-0.3c0,0.2-0.1,0.3-0.1,0.5
	c-0.7-0.6-1.4-1.4-2-2.3v-4.4c0,0,0.6,0.2,1.4,0.7C75.2,68.3,76.7,69.9,77.6,73.1z"/>
<path class="st2" d="M74.7,73.5c-0.3,0.9-0.6,1.6-1.1,2.2c-0.1,0.1-0.2,0.3-0.3,0.4c0,0-4.1-5.7-8.2-5.5c-4,0.1-5.4,1.6-5.4,1.6
	c-0.3-0.2-0.6-0.4-0.8-0.7c0.9-0.7,0.6-3.8,0.6-3.8c1.9,0.5,4.4,0.5,6.9,0.2c0.8-0.1,1.5-0.3,2.2-0.5c0,0,3,3.6,4,3.6
	C73.2,72.1,74,72.9,74.7,73.5z"/>
<path class="st4" d="M62.1,73.5c-0.6-0.1-1.5-0.6-2.4-1.3"/>
<path class="st2" d="M58.9,71.6c-2.1-1.7-4.1-3.8-4.1-3.8c0.9-1.3,1.8-2.7,1.8-2.7c0.3,1.5,1.3,2.3,2.9,2.8
	C59.6,67.8,59.9,70.9,58.9,71.6z"/>
<path class="st2" d="M72.7,68.1v3.1c-1-0.1-4-3.6-4-3.6c0.8-0.3,1.5-0.7,2.1-1.1C70.9,66.5,71.6,67.7,72.7,68.1z"/>
<path class="st4" d="M62,64.1c0,0,0.9,3.2,1.2,3.2"/>
<line class="st4" x1="69.1" y1="63" x2="69.1" y2="66.2"/>
<line class="st4" x1="72.7" y1="61.2" x2="72.7" y2="63.7"/>
<line class="st4" x1="74.1" y1="61.9" x2="74.1" y2="63.4"/>
<path class="st4" d="M67.3,79.7c0,0,1,0.9,1.4,3.1"/>
<path class="st4" d="M71.4,78.8c0,0,1.5,0.9,1.9,3.1"/>
<path class="st4" d="M74.1,76.7c0,0,1.5,0.7,1.8,2.1"/>
<path class="st4" d="M75,75.1c0,0,1.8-0.1,2.6,1.7"/>
<path class="st4" d="M75.1,47.7c0,0,1.4,2.6,0.1,5.4"/>
<path class="st4" d="M30.6,38.2c-0.8-0.5-1.9-0.8-2.9-0.8c-0.5,0-0.9,0-1.4,0l-2.3,0.3c0,0-2.3-5.2-4.7-6.1"/>
<path class="st4" d="M52.6,31.9c-0.8,0.1-1,1.7-1.1,2.6c1-0.1,2.5-0.5,4-1.3C54.6,32.6,53.3,31.8,52.6,31.9z"/>
<path class="st4" d="M28.4,31.6c2,2.2,2.6,3.7,2.6,3.7"/>
<line class="st4" x1="29.3" y1="39.8" x2="27.6" y2="37.4"/>
<path class="st4" d="M49.6,62.6c0,0-0.2,1.1,0,1.8"/>
<path class="st2" d="M39.5,28.7c0.1-1.2,0.4-2.4,0.9-3.4c0.5-1.1,1.3-2,2.2-1.5c1.9,1,6.5,4.7,4.7,7.4c-1.1,1.7-4.2,1.2-6.2,0.6
	c-1.1-0.3-1.8-1.3-1.7-2.4L39.5,28.7z"/>
<path class="st2" d="M51.5,28c0,0,0.9,2,2.6,0.8c1.6-1.2,0.9-2.1,0-2.8c-0.9-0.7-3.3-1.6-3.8-0.7S51.5,28,51.5,28z"/>
<path class="st2" d="M55.5,33.2c-1.5,0.8-3,1.1-4,1.3c0.1-1,0.3-2.5,1.1-2.6C53.3,31.8,54.6,32.6,55.5,33.2z"/>
<g>
</g>
<g>
</g>
<g>
</g>
<g>
</g>
<g>
</g>
<g>
</g>
</svg>
