<?xml version="1.0" encoding="utf-8"?>
<!-- Generator: Adobe Illustrator 18.1.1, SVG Export Plug-In . SVG Version: 6.00 Build 0)  -->
<!DOCTYPE svg PUBLIC "-//W3C//DTD SVG 1.1//EN" "http://www.w3.org/Graphics/SVG/1.1/DTD/svg11.dtd">
<svg version="1.1" id="Layer_1" xmlns="http://www.w3.org/2000/svg" xmlns:xlink="http://www.w3.org/1999/xlink" x="0px" y="0px"
	 viewBox="0 0 133.3 187.7" style="enable-background:new 0 0 133.3 187.7;" xml:space="preserve">
<style type="text/css">
	.st0{fill:#8E2D19;}
	.st1{fill:#C5422D;stroke:#000000;stroke-miterlimit:10;}
	.st2{fill:#C6632E;stroke:#000000;stroke-miterlimit:10;}
	.st3{fill:none;stroke:#000000;stroke-linecap:round;stroke-miterlimit:10;}
	.st4{fill:#F47920;}
</style>
<path class="st0" d="M108.4,32.5c-0.5,3.1-1,0.8-2.8-1.8c-1.8-2.6-3.8,0.8-10.9,0.6c-7.2-0.2-3.5-6.5-7.1-4
	c-3.6,2.5-16.1,2.4-19,0.8c-2.4-1.3-12,15.9-15.6,22.4c-0.7-0.3-1.3-0.5-1.9-0.6c2.9-7.4,13.7-20.6,14.8-22.3
	c1.2-1.9,3.5-2.5,4.5-1.1c1.1,1.4,0.3,0.8,6.5,0.9c6.2,0.2,8.2-3.7,12.2-6c4-2.3,8.3-0.2,7.9,2.8c-0.4,3.1,3.2,2.8,5.8,2
	C105.6,25.4,108.9,29.4,108.4,32.5z"/>
<path class="st0" d="M75,19.5c0,0-5-7.7-10.8-8.2c-5.8-0.5-17.9,17.1-20.1,18.8c-2.2,1.7-2.2,3.5,0,3.4c2.2-0.1,3.9,0.8,5.7,2.3
	c1.8,1.5-1.2,3.5-3.3,5.2s0.1,2.2,1.5,2.8c1,0.5,1.3,3.8,1.4,5.8c-0.1,0-0.2,0-0.2,0c-0.4,0-0.9,0.1-1.4,0.3
	c-0.6-2.1-2.5-5.7-3.7-6.6c-1.5-1.1,0.2-3.8,3.1-5.6c2.9-1.8-2.3-2.4-4.1-2.7s-3.5,1.2-3.2-3.5c0.3-4.8,16.4-21.2,20.2-24.3
	c3.8-3.1,9.9-0.9,10.3,0.6c0.4,1.5,2,3.5,3.2,4.1c1.2,0.6,2.3-0.8,3.1,1C77.4,14.8,75,19.5,75,19.5z"/>
<path class="st1" d="M117.1,128.3c-0.3,1.4-0.7,2.9-1.2,4.5c-4.5,15.4-22.4,22.5-31.5,24.6c-9.1,2.1-33.5,7.9-57.7-4.6
	c-5.5-2.9-9.1-6.8-11.3-11.4c-3.3-6.7-3.5-14.7-2.8-22.2c1-9.6,3.9-18.4,4.6-22.3c1.5-9,10.1-21.6,10.1-21.6
	C30.4,58,42,51.4,47.7,50c0.5-0.1,1-0.2,1.4-0.3c0.1,0,0.2,0,0.2,0c0.5,0,1.1,0,1.7,0.2c0.6,0.1,1.2,0.3,1.9,0.6
	c5.3,2.1,12,7.8,12,7.8c16.8-20.9,32.1,9.5,32.1,9.5s0.1,0.4,0.3,1.1c-6.2-5-13.3-6.5-18.8-8.6c-5.7-2.2-9.8,5.7-11.8,10.9
	c-12.9-17.8-26.2-6.4-26.2-6.4c-10.5,8.5-17.3,40.2-1.8,48.5c9.5,5.1,18.3,2.8,23.7,0.2c3.7-1.8,6.6-4.9,8.3-8.7
	c0.5-1.1,1-2.4,1.4-3.8c10,9.5,17.4,9.3,24.5,7.9c6.7-1.3,13-10,11.6-20.9c5.2,4.4,5.2,9,4.9,11.2c-0.1,0.9,0,1.8,0.5,2.6
	c1.4,2.1,2.6,4.4,3.4,7.1C118.6,114,118.9,120.4,117.1,128.3z"/>
<path class="st2" d="M15.4,141.4c-3.3-6.7-3.5-14.7-2.8-22.2c3.9,0.7,8.7,2.7,9.8,8.2C23.7,134,19.6,138.9,15.4,141.4z"/>
<path class="st2" d="M23.9,134.9c0,0,4.7-4.5,5.2-6.5c0.5-2,8.2-2.8,11,1.8c2.2,3.7-4,6.8-6.8,8c-0.9,0.4-1.8,0.5-2.7,0.5
	C27.9,138.7,22.7,138.2,23.9,134.9z"/>
<path class="st2" d="M117.1,128.3c-5.6-1.5-10.1-9.1-7.1-14.8c1.8-3.4,4.6-4.5,6.9-4.8C118.6,114,118.9,120.4,117.1,128.3z"/>
<path class="st3" d="M25.4,96.4c0,0-1.2-15.3,2-21.1"/>
<path class="st3" d="M72.1,100.9c-0.4,1.4-0.9,2.7-1.4,3.8c-1.7,3.8-4.6,6.9-8.3,8.7c-5.3,2.6-14.1,5-23.7-0.2
	c-15.5-8.3-8.7-40,1.8-48.5c0,0,13.3-11.4,26.2,6.4c0.3,0.5,0.7,1,1,1.5C75,83.6,74.3,93.9,72.1,100.9z"/>
<path class="st3" d="M96.6,108.7c-7,1.4-14.4,1.6-24.5-7.9c2.2-7,2.9-17.3-4.4-28.3c-0.3-0.5-0.7-1-1-1.5c2-5.2,6.1-13,11.8-10.9
	c5.5,2.1,12.7,3.6,18.8,8.6c3.1,2.5,6,5.9,8.3,10.8c1.4,2.8,2.2,5.6,2.5,8.3C109.6,98.7,103.3,107.4,96.6,108.7z"/>
<path class="st3" d="M57,57.3c-0.4,0-10.3-0.9-12.9,5.3"/>
<path class="st3" d="M60.1,54.5c0,0,1,4.3,4,5.4c3,1.1,0.6,5.6,4.1,7.9"/>
<path class="st3" d="M75,51.1c0,0-6,3-9.1,11.5"/>
<path class="st3" d="M84.2,56c0,0-7.1,0.3-10.1,4.6"/>
<path class="st3" d="M28.4,110.8c0,0,5.5,0.9,7.5,3.8s8.7,1,8.7,1"/>
<path class="st3" d="M72.6,107.2c0,0-10.2,21.6-39,14.5"/>
<path class="st3" d="M74.2,107.2c0,0,8.2,10,21,6.3s17.9-13,17.9-13"/>
<path d="M72.6,115.2c0,0-3.2,5.5-0.8,5.4s2.6-1.3,2.4-2.7S74.6,113.8,72.6,115.2z"/>
<path d="M77.8,114c0-0.3,0.3-0.5,0.7-0.5c1,0,3,0.3,3.5,1.7c0.7,1.8-0.9,2-2,1.1C79.1,115.5,77.8,115,77.8,114z"/>
<path d="M42.2,140.7c0,0,1.3-0.5,2.3,0.6s4.7-2.6,4.7-2.6s2.3,0,1.4,2.2c-0.9,2.2-5.4,2.3-5.4,2.3s-2-1-2.5-0.3
	C42.2,143.7,40.7,141.7,42.2,140.7z"/>
<path d="M70.5,148.1c0,0,9.2-0.6,11.7-3.8c2.4-3.2,6.5-8.4,6.9-6.7s-4.9,8.2-5.6,8.6c0,0-7,4.2-9.9,3.9c-2.9-0.3-3.1,0.8-4.1-0.6
	C68.5,148.2,70.5,148.1,70.5,148.1z"/>
<path d="M45,133.6c0,0,4.2-7.1,7.4-6.2c3.2,0.8,5.9,7.2,6.2,6.9c0.3-0.3,5.3-7.1,5.4-8.8c0.1-1.7,11.3,4.4,11.3,4.4s9.1-9,9.7-11.8
	s5.6,2.2,7.2,1.7c1.6-0.5,5.1-2.4,5.2-1.2c0.1,1.2-5.1,2.8-5.1,2.8s-3.3-0.2-4.8-1.5s-2.2-0.2-2.8,2.4c-0.7,2.7-5.9,10.7-7.5,10.5
	c-1.6-0.1-11-6.5-11.9-4.4c-0.9,2.1-5.6,8.2-6.8,8.1c-1.2-0.1-5.2-7.5-6.2-7s-4.2,4.6-3.9,5.8c0.3,1.2-1,4.5-3.4,3.5
	C42.6,137.7,45,133.6,45,133.6z"/>
<ellipse class="st4" cx="66.3" cy="94.2" rx="4.4" ry="4.6"/>
<ellipse class="st4" cx="80" cy="92.2" rx="4.4" ry="4.6"/>
<ellipse cx="79.6" cy="92.2" rx="1.2" ry="2.5"/>
<ellipse cx="67.2" cy="94.2" rx="1.2" ry="2.5"/>
<g>
</g>
<g>
</g>
<g>
</g>
<g>
</g>
<g>
</g>
<g>
</g>
</svg>
