<svg xmlns="http://www.w3.org/2000/svg" viewBox="0 0 85 103.5" enable-background="new 0 0 85 103.5"><style type="text/css">.st0{fill:#C5422D;stroke:#000000;stroke-width:0.4367;stroke-miterlimit:10;} .st1{fill:none;stroke:#000000;stroke-width:0.4367;stroke-miterlimit:10;} .st2{fill:#C6632E;stroke:#000000;stroke-width:0.4367;stroke-miterlimit:10;} .st3{fill:#BE1E2D;stroke:#000000;stroke-width:0.4367;stroke-miterlimit:10;} .st4{fill:none;stroke:#000000;stroke-width:0.4367;stroke-linecap:round;stroke-miterlimit:10;} .st5{fill:#FFFFFF;stroke:#000000;stroke-width:0.4367;stroke-linecap:round;stroke-miterlimit:10;} .st6{fill:#8E2D19;stroke:#000000;stroke-width:0.4367;stroke-miterlimit:10;}</style><path class="st0" d="M78.1 43.1c-1.9-.9-5.4-.4-5.4-.4s.5-1.7 1.5-3.6c.9-1.9.3-5.4-3.4-6.7-3.6-1.3-4.7 2.9-4.7 2.9-3.1-4.7-7.8-8.3-12.4-10.9-3.6-2.1-7.2-3.5-10-4.4-2-.6-3.5-1-4.3-1-3.2-.1-7.7 6.3-7.7 6.3-1.2 1.6-2.3 3.9-3.3 6.3-.9-1-2.1-2.1-3.6-3.3-.1-.1-.2-.1-.2-.2-5.2-4-17.1-2-17.1-2s8 2.3 11.9 5.4c-10.6 7.2-16.3 15.7-16.3 15.7-2.3 12.2 6 14 14.8 20.7 8.9 6.7 4.8 17.6 18.9 25.8 14.1 8.2 24 4.8 29.3 4.5 3.7-.2 7-4.9 8.6-7.5l-1.2.3c-5.8 1.1-15.6-.4-22.9-5-7.3-4.7-7.9-12.2-8.4-15.6-.4-2.7-2.2-10.9-2.9-14 .2-.1.5-.1.7-.1l.6-.1h2.2s5 4.1 10.5 5.5v-.1s5.8.1 7.5-1.5c1.7-1.7 6.3-3.5 8.2-2.8 2 .7 2.2-1.3 2.2-1.3s-.1-2.1 3.9-2.9c0 0 .4.3.4 1.8.4 1.3.3 7.2-.6 9.9.3 1.3 1.1 3 2.8 4.6 0-5 0-17.8 1.2-20.1 1.6-2.9 1.1-5.3-.8-6.2zm-25.5-11.2c.7-.1 2 .7 2.9 1.4-1.5.8-3 1.1-4 1.3.1-1.1.4-2.6 1.1-2.7zm-.2 20h-.9c-1.8 2.5-5 .2-6.3-.4-.8-.4-1.1-2.2-1.2-3.8h2.4l2 .1c1.1.1 2.2.1 3.2.2l3.6.3 1.5.2c-1.1 2.8-4.3 3.4-4.3 3.4zm18-6.8c-.3 1.2-1.1 2-1.9 2.4-1.2-.7-2.9-.8-2.9-.8.2-.4.5-.9.9-1.5.5-.7 1.2-1.5 1.8-2.3l1.2-1.4.6-.7c.7 1 1.5 2.4 1.4 3.1 0 .6-.6 1-1.1 1.2z"/><path class="st1" d="M70.2 40.8c-.2.2-.4.4-.6.7.6.8 1.1 2 .9 3.2 0 .1 0 .3-.1.4.6-.2 1.2-.6 1.2-1.2.1-.7-.8-2.1-1.4-3.1zM75.2 53.1c-4 .8-3.9 2.9-3.9 2.9s-.2 2-2.2 1.3-6.6 1.1-8.2 2.8c-1.7 1.7-7.5 1.5-7.5 1.5v.1c.8.2 1.6.3 2.4.4 6.4.5 13.8-.7 13.8-.7s5.6-7.9 6.1-6.6c-.1-1.4-.5-1.7-.5-1.7z"/><path class="st2" d="M48.4 63.7c-2.2.6-3.9 1.7-4.8 2.4-1.1-3.5-2.6-7.5-3.6-9.9l.6-.1c1.7 3.1 5.8 6.2 7.8 7.6z"/><path class="st3" d="M73.3 76.2c-3.3 4.1-9.5 2.8-9.5 2.8l-1.6-1.5-1.5 1.5c-.2-1.9-.6-3.3-1.1-4.3-.7-1.5-1.4-2.2-1.4-2.2s-.5.8-1.1 1.7c-1 1.3-2.3 2.9-3.1 2.7-1-.3-3.7-2.9-5.9-5.2-.7-.7-1.4-1.5-1.9-2.1-1.3-1.5-1.6-1.2-1.5-.3-.2-.3-.4-.6-.4-.9-.2-.7-.4-1.5-.6-2.3.9-.7 2.5-1.8 4.8-2.4.7.5 1.2.8 1.2.8.9 3.9 3.8 5.2 3.8 5.2.3-.3.9-1 1.4-1.9 0 0 2 2.1 4.1 3.8.3.2.6.4.8.7 0 0 1.4-1.5 5.4-1.6 3.9-.2 8.1 5.5 8.1 5.5z"/><path class="st2" d="M74.1 67.5c-.8-.6-1.4-.7-1.4-.7v1.4c-1.1-.4-1.9-1.6-1.9-1.6 1.7-1.1 2.6-2.4 2.6-2.4 0 .2.1.3.1.4.4.8.6 1.8.6 2.9z"/><path class="st0" d="M24.8 28.3c1.5 1.2 2.7 2.3 3.6 3.3 1-2.5 2.1-4.7 3.3-6.3-2.5.8-4.8 1.9-6.9 3z"/><path class="st1" d="M51.5 51.9c-1.8 2.5-5 .2-6.3-.4-.8-.4-1.1-2.2-1.2-3.8h2.4c.2 1.7 1.1 4.2 5.1 4.2zM55.2 48.4c-.6.7-1.4 1.5-2.4 1.6-1 0-1.2-1.1-1.2-1.9 1.3 0 2.5.2 3.6.3z"/><path class="st0" d="M53.7 24.4c-3.6-2.1-7.2-3.5-10-4.4-.4-4.4-.7-13.1 3.1-17.2 0 0-1.2 7.2 1.2 10.7 1.9 3.1 5.4 6.7 5.7 10.9z"/><path class="st4" d="M23.6 46.7s1-4.3 2.7-9.3M15.9 45.9s1.7-6.5 4.7-9.9M38 46.7s-1.5-9.6 6.8-8.4l13.9 4.2M54.9 37.7s5.6-.2 6.7-1.7M65.2 38.2s-.8-1.2 1-2.9M57.5 31.9c-.6.6-1.3 1-2 1.4M51.5 34.5c-.8.1-1.3.1-1.3.1M35.4 51.5s-5.7 3.3-5.2 6.3c.4 3.1 5 3.8 5.2 6.2.2 2.4 2.3 18 6.8 21.9 4.4 4.1 15 12.5 25.1 12.1M29 65.1s3 6.7 7.9 8.4M31.7 73.5s2.7 2.4 5.8 2.1M63.8 41.4s1.5 1.7.7 4.5M40.5 47.8c1-.1 2.2-.1 3.5-.1M61.6 40.3s3.3 2.2.8 9c0 0-2.3-.3-5.7-.7M55.8 52.3s2-2 2.3-3.6"/><path class="st5" d="M56.7 48.5c-1.1 2.8-4.3 3.3-4.3 3.3h-.9c-4 0-4.9-2.5-5-4.2l2 .1c1.1.1 2.2.1 3.2.2 0 .8.2 1.9 1.2 1.9s1.8-.9 2.4-1.6c.4.2.9.3 1.4.3z"/><path class="st4" d="M55.2 48.4c-.6.7-1.4 1.5-2.4 1.6-1 0-1.2-1.1-1.2-1.9 1.3 0 2.5.2 3.6.3z"/><path class="st6" d="M51.5 51.9c-1.8 2.5-5 .2-6.3-.4-.8-.4-1.1-2.2-1.2-3.8h2.4c.2 1.7 1.1 4.2 5.1 4.2z"/><path d="M55.2 48.4c-.6.7-1.4 1.5-2.4 1.6-1 0-1.2-1.1-1.2-1.9 1.3 0 2.5.2 3.6.3z"/><path class="st4" d="M38.3 49.9s5.1.1 7.6 2c2.6 1.9 4.4 1.9 4.4 1.9M68.4 47.5l.4.2c1.3.9 3.9.3 2.9 3.8l-1.2.3s.4 2.7-1.6 2.9c-2.1.2-4.7-1.1-5.1.4M70.2 40.8c1.1-1.2 1.9-2 1.9-2"/><path class="st5" d="M70.5 44.8c0 .1 0 .3-.1.4-.3 1.2-1.1 2-1.9 2.4-1.2-.7-2.9-.8-2.9-.8.2-.4.5-.9.9-1.5.5-.7 1.2-1.5 1.8-2.3l1.2-1.4c.6.8 1.1 1.9 1 3.2z"/><path class="st6" d="M71.6 43.9c-.1.6-.7 1-1.2 1.2 0-.1.1-.2.1-.4.2-1.3-.3-2.4-.9-3.2l.6-.7c.6 1 1.5 2.4 1.4 3.1z"/><path d="M68.6 44.8c-.3.5-1.3.6-2.1.5.5-.7 1.2-1.5 1.8-2.3.3.5.5 1.3.3 1.8z"/><path class="st4" d="M64.2 55.8s-2.4 1.4-2.1-4.3M76.9 48s-3-.9-3.9 0-.4 1.6-1.2 1.8"/><path class="st6" d="M75.6 54.8c-.5-1.4-6.1 6.6-6.1 6.6s-7.4 1.2-13.8.7c-.8-.1-1.6-.2-2.4-.4v-.1s5.8.1 7.5-1.5c1.7-1.7 6.3-3.5 8.2-2.8 2 .7 2.2-1.3 2.2-1.3s-.1-2.1 3.9-2.9c.1 0 .5.3.5 1.7z"/><path class="st5" d="M75 64.7c-.1.3-.2.5-.3.7 0 0-.7.1-1.2-.9 0-.2-.1-.3-.1-.4 0 0-.9 1.3-2.6 2.4-.6.4-1.3.8-2.1 1.1-.7.2-1.4.4-2.2.5-2.5.2-5 .3-6.9-.2-1.5-.4-2.6-1.3-2.9-2.8 0 0-.9 1.4-1.8 2.7-.6.8-1.2 1.6-1.4 1.9 0 0-2.9-1.2-3.8-5.2 0 0-.4-.3-1.2-.8-2-1.4-6.1-4.5-7.7-7.6h2.2s5 4.1 10.5 5.5c.8.2 1.6.3 2.4.4 6.4.5 13.8-.7 13.8-.7s5.6-7.9 6.1-6.6c.2 1.4.1 7.3-.8 10z"/><path class="st4" d="M73.6 64.5c-.1-.1-.1-.3-.1-.4 0 .1 0 .3.1.4zM42.9 56.2c.7.1 1.4.1 2.3.3 6.6 1.2 11.1 2.9 12.7.9 1.5-2 4.3-8.7 7.3-6.7M37.4 57.4s.4-.7 1.9-1"/><path class="st6" d="M82.8 80.5c-.1 2-3 8.4-8 10.2l-1.2.3c-5.8 1.1-15.6-.4-22.9-5-7.3-4.7-7.9-12.2-8.4-15.6-.4-2.7-2.2-10.9-2.9-14 .2-.1.5-.1.7-.1 1 2.5 2.5 6.4 3.6 9.9.2.8.5 1.6.6 2.3.1.3.2.6.4.9 0 .4.1.8.3 1.3 1 3.5 3.1 6.7 6 8.9 4 3.2 10 5.8 16.9 5.1 4.4-.4 7.2-2.1 8.8-3.8 2.3-2.3 2.6-4.8 2.6-4.8-.4-.6-.9-1.1-1.4-1.5l-.5-.3.1-1.2c-.9-3.1-2.4-4.7-3.5-5.6 0-1-.2-2.1-.5-3 .4 1 1.2.9 1.2.9.1-.2.2-.4.3-.7.3 1.3 1.1 3 2.8 4.6.3.3.7.6 1.1.9 4.9 3.7 4.1 8.2 3.9 10.3z"/><path class="st5" d="M79.3 76.1s-.4 2.5-2.6 4.8c-1.7 1.7-4.4 3.4-8.8 3.8-6.9.7-12.9-2-16.9-5.1-2.9-2.3-5-5.4-6-8.9-.1-.5-.2-.9-.3-1.3-.1-.9.2-1.2 1.5.3.5.6 1.2 1.3 1.9 2.1 2.2 2.3 4.9 4.9 5.9 5.2.8.3 2.1-1.3 3.1-2.7.7-.9 1.1-1.7 1.1-1.7s.7.7 1.4 2.2c.4 1 .9 2.4 1.1 4.3l1.4-1.5 1.6 1.5s6.3 1.3 9.5-2.9l.3-.4c.4-.6.8-1.4 1.1-2.2 0-.1.1-.3.1-.5 0 0 .3.1.8.3.5.2 1.2.5 1.8.9l.5.3c.7.4 1.2.9 1.5 1.5zM77.6 73.1l-.1 1.2c-.7-.4-1.3-.7-1.8-.9-.5-.2-.8-.3-.8-.3l-.1.5c-.7-.6-1.4-1.4-2-2.3v-4.4s.6.2 1.4.7c1 .7 2.5 2.3 3.4 5.5z"/><path class="st2" d="M74.7 73.5c-.3.9-.6 1.6-1.1 2.2l-.3.4s-4.1-5.7-8.2-5.5c-4 .1-5.4 1.6-5.4 1.6-.3-.2-.6-.4-.8-.7.9-.7.6-3.8.6-3.8 1.9.5 4.4.5 6.9.2.8-.1 1.5-.3 2.2-.5 0 0 3 3.6 4 3.6.6 1.1 1.4 1.9 2.1 2.5z"/><path class="st4" d="M62.1 73.5c-.6-.1-1.5-.6-2.4-1.3"/><path class="st2" d="M58.9 71.6c-2.1-1.7-4.1-3.8-4.1-3.8.9-1.3 1.8-2.7 1.8-2.7.3 1.5 1.3 2.3 2.9 2.8.1-.1.4 3-.6 3.7zM72.7 68.1v3.1c-1-.1-4-3.6-4-3.6.8-.3 1.5-.7 2.1-1.1.1 0 .8 1.2 1.9 1.6z"/><path class="st4" d="M62 64.1s.9 3.2 1.2 3.2M69.1 63v3.2M72.7 61.2v2.5M74.1 61.9v1.5M67.3 79.7s1 .9 1.4 3.1M71.4 78.8s1.5.9 1.9 3.1M74.1 76.7s1.5.7 1.8 2.1M75 75.1s1.8-.1 2.6 1.7M75.1 47.7s1.4 2.6.1 5.4M30.6 38.2c-.8-.5-1.9-.8-2.9-.8h-1.4l-2.3.3s-2.3-5.2-4.7-6.1"/><path class="st4" d="M52.6 31.9c-.8.1-1 1.7-1.1 2.6 1-.1 2.5-.5 4-1.3-.9-.6-2.2-1.4-2.9-1.3zM28.4 31.6c2 2.2 2.6 3.7 2.6 3.7M29.3 39.8l-1.7-2.4M49.6 62.6s-.2 1.1 0 1.8"/><path class="st2" d="M39.5 28.7c.1-1.2.4-2.4.9-3.4.5-1.1 1.3-2 2.2-1.5 1.9 1 6.5 4.7 4.7 7.4-1.1 1.7-4.2 1.2-6.2.6-1.1-.3-1.8-1.3-1.7-2.4l.1-.7zM51.5 28s.9 2 2.6.8c1.6-1.2.9-2.1 0-2.8-.9-.7-3.3-1.6-3.8-.7l1.2 2.7zM55.5 33.2c-1.5.8-3 1.1-4 1.3.1-1 .3-2.5 1.1-2.6.7-.1 2 .7 2.9 1.3z"/></svg>